<svg width="1440" height="327" viewBox="0 0 1440 327" fill="none" xmlns="http://www.w3.org/2000/svg">
<path d="M1440 36.8493C1395.56 34.07 1395 51.7268 1345.33 48.3344C1292.85 44.942 1290.77 22.912 1238.57 18.7839C1186.37 14.6558 1188.28 38.6068 1136.08 36.1954C1083.88 33.7839 1082.42 8.85198 1030.56 6.27704C978.694 3.70211 979.819 30.1463 927.788 28.8793C875.756 27.6122 875.138 0.963684 823.444 0.0236266C771.75 -0.91643 771.975 26.5087 720 26.427C668.025 26.3452 668.25 -0.671198 616.556 0.0236266C564.862 0.718451 564.188 27.8166 512.212 28.8793C460.237 29.942 461.25 3.98821 409.444 6.27704C357.638 8.56588 356.119 33.9474 303.919 36.1954C251.719 38.4434 253.519 14.8602 201.431 18.8248C149.344 22.7894 147.15 44.9829 94.6688 48.3753C45 51.7676 44.4375 34.1109 0 36.8493V327H1440V36.8493Z" fill="#5FD8F3"/>
<path d="M1345.33 65.5829C1292.85 62.2433 1290.77 40.5558 1238.57 36.4919C1186.37 32.428 1188.28 56.0066 1136.08 53.6326C1083.88 51.2587 1082.42 26.7144 1030.56 24.1795C978.694 21.6446 979.819 47.6776 927.788 46.4303C875.756 45.183 875.138 18.9487 823.444 18.0233C771.75 17.0978 771.975 44.0966 720 44.0161C668.025 43.9356 668.25 17.3392 616.556 18.0233C564.862 18.7073 564.187 45.3842 512.212 46.4303C460.237 47.4765 461.25 21.886 409.444 24.1392C357.638 26.3925 356.119 51.3794 303.919 53.5924C251.719 55.8054 253.519 32.5889 201.431 36.4919C149.344 40.3948 147.15 62.2433 94.6688 65.5829C45 68.9225 44.4375 51.5403 0 54.2362V327H1440V54.2362C1395.56 51.5403 1395 68.9225 1345.33 65.5829Z" fill="#2BC4F3"/>
<path d="M1439 121.512C1387.98 111.803 1387.93 133.298 1336.79 126.114C1285.66 118.931 1285.72 95.5842 1234.42 88.2884C1183.12 80.9927 1182.95 106.977 1131.54 102.094C1080.12 97.2117 1080.24 70.6102 1028.71 66.1205C977.188 61.6308 977.019 90.1966 925.438 87.6711C873.856 85.1456 873.912 56.6922 822.275 55.0647C770.637 53.4372 770.581 83.0692 718.944 82.9008C667.306 82.7324 667.306 53.8861 615.612 55.0647C563.919 56.2432 564.031 85.5385 512.45 87.6711C460.869 89.8037 460.756 62.0798 409.175 66.1205C357.594 70.1613 357.819 97.5484 306.35 102.094C254.881 106.64 254.769 81.4416 203.469 88.2884C152.169 95.1352 152.337 119.267 101.094 126.114C49.85 132.961 49.9625 111.859 -1 121.512V264H1439V121.512Z" fill="#5FD8F3" fill-opacity="0.3"/>
<path d="M1440 176.512C1388.98 166.803 1388.93 188.298 1337.79 181.114C1286.66 173.931 1286.72 150.584 1235.42 143.288C1184.12 135.993 1183.95 161.977 1132.54 157.094C1081.12 152.212 1081.24 125.61 1029.71 121.121C978.188 116.631 978.019 145.197 926.438 142.671C874.856 140.146 874.912 111.692 823.275 110.065C771.637 108.437 771.581 138.069 719.944 137.901C668.306 137.732 668.306 108.886 616.612 110.065C564.919 111.243 565.031 140.538 513.45 142.671C461.869 144.804 461.756 117.08 410.175 121.121C358.594 125.161 358.819 152.548 307.35 157.094C255.881 161.64 255.769 136.442 204.469 143.288C153.169 150.135 153.337 174.267 102.094 181.114C50.85 187.961 50.9625 166.859 0 176.512V269H1440V176.512Z" fill="#5FD8F3" fill-opacity="0.5"/>
<path d="M1440 234.512C1388.98 224.803 1388.93 246.298 1337.79 239.114C1286.66 231.931 1286.72 208.584 1235.42 201.288C1184.12 193.993 1183.95 219.977 1132.54 215.094C1081.12 210.212 1081.24 183.61 1029.71 179.121C978.188 174.631 978.019 203.197 926.438 200.671C874.856 198.146 874.912 169.692 823.275 168.065C771.637 166.437 771.581 196.069 719.944 195.901C668.306 195.732 668.306 166.886 616.612 168.065C564.919 169.243 565.031 198.538 513.45 200.671C461.869 202.804 461.756 175.08 410.175 179.121C358.594 183.161 358.819 210.548 307.35 215.094C255.881 219.64 255.769 194.442 204.469 201.288C153.169 208.135 153.337 232.267 102.094 239.114C50.85 245.961 50.9625 224.859 0 234.512V327H1440V234.512Z" fill="#5FD8F3"/>
</svg>
