<svg width="209" height="161" viewBox="0 0 209 161" fill="none" xmlns="http://www.w3.org/2000/svg">
<g filter="url(#filter0_d_4_4)">
<path d="M5.70695 13H67.9667L93.4893 16.0937L130.613 13H191.326L187.846 140.613H96.9697L61.3927 136.746L41.6707 142.16L3 140.613L5.70695 13Z" fill="#FFFACC"/>
<path d="M93.369 17.0864L93.4705 17.0987L93.5724 17.0902L130.655 14H190.298L186.873 139.613H97.0238L61.5008 135.752L61.3115 135.731L61.128 135.782L41.5556 141.155L4.02059 139.653L6.68596 14H67.9063L93.369 17.0864Z" stroke="#5B4717" stroke-width="2"/>
</g>
<path d="M66.6953 6.09677L104.675 3.375L143.695 0V21.6964L102.6 24.8226L66.6953 27V6.09677Z" fill="#FFE7A8"/>
<defs>
<filter id="filter0_d_4_4" x="0" y="11" width="208.326" height="149.16" filterUnits="userSpaceOnUse" color-interpolation-filters="sRGB">
<feFlood flood-opacity="0" result="BackgroundImageFix"/>
<feColorMatrix in="SourceAlpha" type="matrix" values="0 0 0 0 0 0 0 0 0 0 0 0 0 0 0 0 0 0 127 0" result="hardAlpha"/>
<feOffset dx="7" dy="8"/>
<feGaussianBlur stdDeviation="5"/>
<feColorMatrix type="matrix" values="0 0 0 0 0 0 0 0 0 0 0 0 0 0 0 0 0 0 0.1 0"/>
<feBlend mode="normal" in2="BackgroundImageFix" result="effect1_dropShadow_4_4"/>
<feBlend mode="normal" in="SourceGraphic" in2="effect1_dropShadow_4_4" result="shape"/>
</filter>
</defs>
</svg>
