<svg width="1341" height="134" viewBox="0 0 1341 134" fill="none" xmlns="http://www.w3.org/2000/svg">
<path d="M26.5445 64.3821C29.6068 65.6482 33.1157 64.1922 34.3818 61.1299C35.648 58.0676 34.192 54.5588 31.1297 53.2926C28.0674 52.0264 24.5585 53.4825 23.2924 56.5447C22.0262 59.607 23.4823 63.1159 26.5445 64.3821Z" fill="#D5E9F2"/>
<path opacity="0.3" d="M27.5955 62.9616C30.0016 63.9565 32.7585 62.8124 33.7534 60.4063C34.7482 58.0003 33.6042 55.2433 31.1981 54.2485C28.7921 53.2536 26.0351 54.3976 25.0402 56.8037C24.0454 59.2098 25.1894 61.9668 27.5955 62.9616Z" fill="white"/>
<path d="M7.00001 133C10.866 133 14 129.866 14 126C14 122.134 10.866 119 7.00001 119C3.13401 119 0 122.134 0 126C0 129.866 3.13401 133 7.00001 133Z" fill="#D5E9F2"/>
<path opacity="0.3" d="M7.50001 131C10.5376 131 13 128.538 13 125.5C13 122.463 10.5376 120 7.50001 120C4.46244 120 2 122.463 2 125.5C2 128.538 4.46244 131 7.50001 131Z" fill="white"/>
<path d="M115 49.0001C120.523 49.0001 125 44.5229 125 39.0001C125 33.4772 120.523 29.0001 115 29.0001C109.477 29.0001 105 33.4772 105 39.0001C105 44.5229 109.477 49.0001 115 49.0001Z" fill="#D5E9F2"/>
<path opacity="0.3" d="M115.714 46.1429C120.054 46.1429 123.571 42.6252 123.571 38.2858C123.571 33.9464 120.054 30.4286 115.714 30.4286C111.375 30.4286 107.857 33.9464 107.857 38.2858C107.857 42.6252 111.375 46.1429 115.714 46.1429Z" fill="white"/>
<path d="M184.5 83.0001C188.642 83.0001 192 79.6422 192 75.5001C192 71.3579 188.642 68.0001 184.5 68.0001C180.358 68.0001 177 71.3579 177 75.5001C177 79.6422 180.358 83.0001 184.5 83.0001Z" fill="#D5E9F2"/>
<path opacity="0.3" d="M185.036 80.8572C188.29 80.8572 190.929 78.2189 190.929 74.9643C190.929 71.7098 188.29 69.0715 185.036 69.0715C181.781 69.0715 179.143 71.7098 179.143 74.9643C179.143 78.2189 181.781 80.8572 185.036 80.8572Z" fill="white"/>
<path d="M913.5 15C917.642 15 921 11.6422 921 7.50003C921 3.35788 917.642 3.05176e-05 913.5 3.05176e-05C909.358 3.05176e-05 906 3.35788 906 7.50003C906 11.6422 909.358 15 913.5 15Z" fill="#D5E9F2"/>
<path opacity="0.3" d="M914.036 12.8572C917.29 12.8572 919.929 10.2189 919.929 6.96431C919.929 3.70977 917.29 1.07146 914.036 1.07146C910.781 1.07146 908.143 3.70977 908.143 6.96431C908.143 10.2189 910.781 12.8572 914.036 12.8572Z" fill="white"/>
<path d="M279.162 111.98C283.569 109.682 285.278 104.246 282.98 99.8385C280.682 95.4312 275.246 93.7216 270.838 96.02C266.431 98.3184 264.722 103.754 267.02 108.162C269.318 112.569 274.754 114.279 279.162 111.98Z" fill="#D5E9F2"/>
<path opacity="0.3" d="M278.543 109.403C282.005 107.597 283.349 103.326 281.543 99.863C279.737 96.4001 275.466 95.0569 272.003 96.8628C268.54 98.6687 267.197 102.94 269.003 106.403C270.809 109.866 275.08 111.209 278.543 109.403Z" fill="white"/>
<path d="M377.081 89.2807C380.261 87.6224 381.494 83.7003 379.836 80.5205C378.177 77.3406 374.255 76.1071 371.076 77.7654C367.896 79.4237 366.662 83.3458 368.321 86.5257C369.979 89.7056 373.901 90.939 377.081 89.2807Z" fill="#D5E9F2"/>
<path opacity="0.3" d="M376.634 87.4212C379.133 86.1183 380.102 83.0366 378.799 80.5381C377.496 78.0397 374.414 77.0705 371.916 78.3735C369.417 79.6764 368.448 82.7581 369.751 85.2566C371.054 87.755 374.136 88.7242 376.634 87.4212Z" fill="white"/>
<path d="M1095.76 34.5179C1098.94 32.8596 1100.18 28.9375 1098.52 25.7576C1096.86 22.5778 1092.94 21.3443 1089.76 23.0026C1086.58 24.6609 1085.34 28.583 1087 31.7629C1088.66 34.9428 1092.58 36.1762 1095.76 34.5179Z" fill="#D5E9F2"/>
<path opacity="0.3" d="M1095.32 32.6584C1097.81 31.3555 1098.78 28.2738 1097.48 25.7753C1096.18 23.2769 1093.1 22.3077 1090.6 23.6107C1088.1 24.9136 1087.13 27.9953 1088.43 30.4938C1089.74 32.9922 1092.82 33.9614 1095.32 32.6584Z" fill="white"/>
<path d="M461.21 108.242C465.741 105.879 467.499 100.289 465.136 95.7579C462.773 91.2264 457.184 89.4687 452.652 91.8319C448.121 94.195 446.363 99.7842 448.726 104.316C451.089 108.847 456.679 110.605 461.21 108.242Z" fill="#D5E9F2"/>
<path opacity="0.3" d="M460.574 105.592C464.134 103.735 465.515 99.3436 463.658 95.7831C461.802 92.2227 457.41 90.8416 453.85 92.6984C450.289 94.5551 448.908 98.9467 450.765 102.507C452.622 106.068 457.013 107.449 460.574 105.592Z" fill="white"/>
<path d="M685.763 96.6888C690.294 94.3256 692.052 88.7364 689.689 84.205C687.326 79.6735 681.736 77.9158 677.205 80.2789C672.673 82.6421 670.916 88.2313 673.279 92.7628C675.642 97.2942 681.231 99.052 685.763 96.6888Z" fill="#D5E9F2"/>
<path opacity="0.3" d="M685.126 94.0389C688.687 92.1821 690.068 87.7906 688.211 84.2302C686.354 80.6697 681.963 79.2887 678.402 81.1454C674.842 83.0022 673.461 87.3937 675.318 90.9542C677.174 94.5146 681.566 95.8957 685.126 94.0389Z" fill="white"/>
<path d="M870.875 102.656C874.085 100.982 875.33 97.0225 873.656 93.8124C871.982 90.6023 868.022 89.3571 864.812 91.0312C861.602 92.7052 860.357 96.6646 862.031 99.8747C863.705 103.085 867.665 104.33 870.875 102.656Z" fill="#D5E9F2"/>
<path opacity="0.3" d="M870.424 100.779C872.946 99.4634 873.924 96.3525 872.609 93.8302C871.294 91.308 868.183 90.3297 865.661 91.645C863.138 92.9603 862.16 96.0713 863.475 98.5935C864.791 101.116 867.902 102.094 870.424 100.779Z" fill="white"/>
<path d="M979.367 40.7315C983.25 38.7062 984.757 33.9159 982.732 30.0321C980.706 26.1484 975.916 24.6419 972.032 26.6673C968.148 28.6927 966.642 33.4829 968.667 37.3667C970.693 41.2504 975.483 42.7569 979.367 40.7315Z" fill="#D5E9F2"/>
<path opacity="0.3" d="M978.821 38.4604C981.873 36.869 983.056 33.1053 981.465 30.0537C979.873 27.0022 976.11 25.8186 973.058 27.4099C970.007 29.0013 968.823 32.7651 970.414 35.8166C972.006 38.8681 975.77 40.0518 978.821 38.4604Z" fill="white"/>
<path d="M1250.83 103.298C1256.26 104.753 1261.84 101.53 1263.3 96.1005C1264.75 90.6706 1261.53 85.0894 1256.1 83.6345C1250.67 82.1795 1245.09 85.4018 1243.63 90.8318C1242.18 96.2617 1245.4 101.843 1250.83 103.298Z" fill="#D5E9F2"/>
<path opacity="0.3" d="M1252.29 100.677C1256.55 101.82 1260.94 99.2883 1262.08 95.0219C1263.22 90.7556 1260.69 86.3703 1256.43 85.2272C1252.16 84.084 1247.77 86.6158 1246.63 90.8822C1245.49 95.1485 1248.02 99.5338 1252.29 100.677Z" fill="white"/>
<path d="M1325.67 126.469C1325.71 130.58 1329.08 133.882 1333.19 133.844C1337.3 133.805 1340.6 130.441 1340.56 126.33C1340.52 122.219 1337.16 118.917 1333.05 118.955C1328.94 118.993 1325.64 122.357 1325.67 126.469Z" fill="#D5E9F2"/>
<path opacity="0.3" d="M1327.81 126.981C1327.84 130.211 1330.48 132.805 1333.71 132.775C1336.94 132.745 1339.53 130.102 1339.5 126.872C1339.47 123.641 1336.83 121.047 1333.6 121.077C1330.37 121.107 1327.78 123.75 1327.81 126.981Z" fill="white"/>
<path d="M1095.48 123.315C1097.49 121.061 1097.29 117.605 1095.03 115.597C1092.78 113.588 1089.33 113.786 1087.32 116.04C1085.31 118.294 1085.51 121.749 1087.76 123.758C1090.01 125.767 1093.47 125.568 1095.48 123.315Z" fill="#D5E9F2"/>
<path opacity="0.3" d="M1094.57 121.984C1096.15 120.213 1095.99 117.498 1094.22 115.92C1092.45 114.341 1089.74 114.497 1088.16 116.268C1086.58 118.039 1086.74 120.754 1088.51 122.332C1090.28 123.911 1092.99 123.755 1094.57 121.984Z" fill="white"/>
<path d="M1164.08 82.1599C1165.96 80.0442 1165.78 76.8003 1163.66 74.9144C1161.54 73.0285 1158.3 73.2148 1156.41 75.3305C1154.53 77.4462 1154.72 80.6901 1156.83 82.576C1158.95 84.4619 1162.19 84.2756 1164.08 82.1599Z" fill="#D5E9F2"/>
<path opacity="0.3" d="M1163.23 80.9106C1164.71 79.2483 1164.56 76.6995 1162.9 75.2178C1161.24 73.736 1158.69 73.8824 1157.21 75.5447C1155.72 77.207 1155.87 79.7558 1157.53 81.2376C1159.2 82.7194 1161.74 82.573 1163.23 80.9106Z" fill="white"/>
<path d="M289.54 57.9242C294.568 56.4225 297.426 51.1299 295.924 46.1026C294.423 41.0754 289.13 38.2173 284.103 39.719C279.075 41.2206 276.217 46.5133 277.719 51.5405C279.221 56.5677 284.513 59.4258 289.54 57.9242Z" fill="#D5E9F2"/>
<path opacity="0.3" d="M289.414 55.1292C293.364 53.9494 295.61 49.7908 294.43 45.8409C293.25 41.8909 289.091 39.6453 285.141 40.8251C281.191 42.005 278.946 46.1635 280.126 50.1135C281.305 54.0635 285.464 56.3091 289.414 55.1292Z" fill="white"/>
<path d="M786.54 26.9242C791.568 25.4225 794.426 20.1299 792.924 15.1026C791.423 10.0754 786.13 7.21733 781.103 8.71896C776.075 10.2206 773.217 15.5133 774.719 20.5405C776.221 25.5677 781.513 28.4258 786.54 26.9242Z" fill="#D5E9F2"/>
<path opacity="0.3" d="M786.414 24.1292C790.364 22.9494 792.61 18.7908 791.43 14.8409C790.25 10.8909 786.091 8.64526 782.141 9.82511C778.191 11.005 775.946 15.1635 777.126 19.1135C778.305 23.0635 782.464 25.3091 786.414 24.1292Z" fill="white"/>
<path d="M563.5 68.0001C566.538 68.0001 569 65.5377 569 62.5001C569 59.4625 566.538 57.0001 563.5 57.0001C560.462 57.0001 558 59.4625 558 62.5001C558 65.5377 560.462 68.0001 563.5 68.0001Z" fill="#D5E9F2"/>
</svg>
