<svg width="1341" height="135" viewBox="0 0 1341 135" fill="none" xmlns="http://www.w3.org/2000/svg">
<path d="M63.5448 88.3821C66.6071 89.6482 70.1159 88.1922 71.3821 85.1299C72.6483 82.0676 71.1922 78.5587 68.1299 77.2926C65.0677 76.0264 61.5588 77.4825 60.2926 80.5447C59.0265 83.607 60.4825 87.1159 63.5448 88.3821Z" fill="#D5E9F2"/>
<path opacity="0.3" d="M64.5959 86.9616C67.0019 87.9564 69.7589 86.8124 70.7538 84.4063C71.7486 82.0003 70.6046 79.2433 68.1985 78.2484C65.7924 77.2536 63.0354 78.3976 62.0406 80.8037C61.0458 83.2098 62.1898 85.9668 64.5959 86.9616Z" fill="white"/>
<path d="M7.00001 134C10.866 134 14 130.866 14 127C14 123.134 10.866 120 7.00001 120C3.13401 120 0 123.134 0 127C0 130.866 3.13401 134 7.00001 134Z" fill="#D5E9F2"/>
<path opacity="0.3" d="M7.50001 132C10.5376 132 13 129.538 13 126.5C13 123.462 10.5376 121 7.50001 121C4.46244 121 2 123.462 2 126.5C2 129.538 4.46244 132 7.50001 132Z" fill="white"/>
<path d="M115 20.0001C120.523 20.0001 125 15.5229 125 10.0001C125 4.47719 120.523 6.10352e-05 115 6.10352e-05C109.477 6.10352e-05 105 4.47719 105 10.0001C105 15.5229 109.477 20.0001 115 20.0001Z" fill="#D5E9F2"/>
<path opacity="0.3" d="M115.714 17.1429C120.054 17.1429 123.571 13.6252 123.571 9.28578C123.571 4.94638 120.054 1.42863 115.714 1.42863C111.375 1.42863 107.857 4.94638 107.857 9.28578C107.857 13.6252 111.375 17.1429 115.714 17.1429Z" fill="white"/>
<path d="M184.5 84C188.642 84 192 80.6422 192 76.5C192 72.3579 188.642 69 184.5 69C180.358 69 177 72.3579 177 76.5C177 80.6422 180.358 84 184.5 84Z" fill="#D5E9F2"/>
<path opacity="0.3" d="M185.036 81.8572C188.29 81.8572 190.929 79.2189 190.929 75.9643C190.929 72.7098 188.29 70.0715 185.036 70.0715C181.781 70.0715 179.143 72.7098 179.143 75.9643C179.143 79.2189 181.781 81.8572 185.036 81.8572Z" fill="white"/>
<path d="M279.162 112.98C283.569 110.682 285.278 105.246 282.98 100.838C280.682 96.4312 275.246 94.7216 270.838 97.02C266.431 99.3184 264.722 104.754 267.02 109.162C269.318 113.569 274.754 115.278 279.162 112.98Z" fill="#D5E9F2"/>
<path opacity="0.3" d="M278.543 110.403C282.005 108.597 283.349 104.326 281.543 100.863C279.737 97.4001 275.466 96.0569 272.003 97.8628C268.54 99.6686 267.197 103.94 269.003 107.403C270.809 110.865 275.08 112.209 278.543 110.403Z" fill="white"/>
<path d="M377.081 90.2807C380.261 88.6224 381.494 84.7003 379.836 81.5204C378.178 78.3405 374.256 77.1071 371.076 78.7654C367.896 80.4237 366.662 84.3458 368.321 87.5257C369.979 90.7056 373.901 91.939 377.081 90.2807Z" fill="#D5E9F2"/>
<path opacity="0.3" d="M376.634 88.4212C379.133 87.1182 380.102 84.0366 378.799 81.5381C377.496 79.0396 374.414 78.0705 371.916 79.3735C369.417 80.6764 368.448 83.7581 369.751 86.2565C371.054 88.755 374.136 89.7241 376.634 88.4212Z" fill="white"/>
<path d="M461.21 109.242C465.742 106.879 467.499 101.289 465.136 96.7579C462.773 92.2264 457.184 90.4687 452.652 92.8318C448.121 95.195 446.363 100.784 448.726 105.316C451.09 109.847 456.679 111.605 461.21 109.242Z" fill="#D5E9F2"/>
<path opacity="0.3" d="M460.574 106.592C464.134 104.735 465.515 100.344 463.658 96.7831C461.802 93.2226 457.41 91.8416 453.85 93.6983C450.289 95.5551 448.908 99.9466 450.765 103.507C452.622 107.068 457.013 108.449 460.574 106.592Z" fill="white"/>
<path d="M887.875 113.656C891.085 111.982 892.33 108.023 890.656 104.812C888.982 101.602 885.022 100.357 881.812 102.031C878.602 103.705 877.357 107.665 879.031 110.875C880.705 114.085 884.665 115.33 887.875 113.656Z" fill="#D5E9F2"/>
<path opacity="0.3" d="M887.424 111.779C889.946 110.463 890.924 107.352 889.609 104.83C888.294 102.308 885.183 101.33 882.661 102.645C880.138 103.96 879.16 107.071 880.475 109.594C881.791 112.116 884.902 113.094 887.424 111.779Z" fill="white"/>
<path d="M974.367 75.4593C978.25 73.434 979.757 68.6437 977.732 64.76C975.706 60.8762 970.916 59.3697 967.032 61.3951C963.148 63.4205 961.642 68.2108 963.667 72.0945C965.693 75.9782 970.483 77.4847 974.367 75.4593Z" fill="#D5E9F2"/>
<path opacity="0.3" d="M973.821 73.1882C976.873 71.5969 978.056 67.8331 976.465 64.7816C974.874 61.73 971.11 60.5464 968.058 62.1377C965.007 63.7291 963.823 67.4929 965.415 70.5444C967.006 73.5959 970.77 74.7796 973.821 73.1882Z" fill="white"/>
<path d="M1250.83 104.298C1256.26 105.753 1261.84 102.53 1263.3 97.1005C1264.75 91.6706 1261.53 86.0894 1256.1 84.6344C1250.67 83.1795 1245.09 86.4018 1243.63 91.8317C1242.18 97.2616 1245.4 102.843 1250.83 104.298Z" fill="#D5E9F2"/>
<path opacity="0.3" d="M1252.29 101.677C1256.55 102.82 1260.94 100.288 1262.08 96.0219C1263.22 91.7555 1260.69 87.3703 1256.43 86.2271C1252.16 85.084 1247.77 87.6158 1246.63 91.8821C1245.49 96.1485 1248.02 100.534 1252.29 101.677Z" fill="white"/>
<path d="M1325.67 127.469C1325.71 131.58 1329.08 134.882 1333.19 134.844C1337.3 134.805 1340.6 131.441 1340.56 127.33C1340.52 123.219 1337.16 119.917 1333.05 119.955C1328.94 119.993 1325.64 123.357 1325.67 127.469Z" fill="#D5E9F2"/>
<path opacity="0.3" d="M1327.81 127.98C1327.84 131.211 1330.48 133.805 1333.71 133.775C1336.94 133.745 1339.53 131.102 1339.5 127.872C1339.47 124.641 1336.83 122.047 1333.6 122.077C1330.37 122.107 1327.78 124.75 1327.81 127.98Z" fill="white"/>
<path d="M1095.48 124.315C1097.49 122.061 1097.29 118.605 1095.03 116.597C1092.78 114.588 1089.33 114.786 1087.32 117.04C1085.31 119.293 1085.51 122.749 1087.76 124.758C1090.01 126.767 1093.47 126.568 1095.48 124.315Z" fill="#D5E9F2"/>
<path opacity="0.3" d="M1094.57 122.984C1096.15 121.213 1095.99 118.498 1094.22 116.92C1092.45 115.341 1089.74 115.497 1088.16 117.268C1086.58 119.039 1086.74 121.754 1088.51 123.332C1090.28 124.911 1092.99 124.755 1094.57 122.984Z" fill="white"/>
<path d="M1174.08 83.1599C1175.96 81.0442 1175.78 77.8003 1173.66 75.9144C1171.54 74.0285 1168.3 74.2148 1166.41 76.3305C1164.53 78.4462 1164.72 81.6901 1166.83 83.576C1168.95 85.4619 1172.19 85.2756 1174.08 83.1599Z" fill="#D5E9F2"/>
<path opacity="0.3" d="M1173.23 81.9106C1174.71 80.2483 1174.56 77.6995 1172.9 76.2177C1171.24 74.736 1168.69 74.8823 1167.21 76.5447C1165.72 78.207 1165.87 80.7558 1167.53 82.2376C1169.2 83.7193 1171.74 83.5729 1173.23 81.9106Z" fill="white"/>
<path d="M289.54 28.9241C294.568 27.4225 297.426 22.1298 295.924 17.1026C294.423 12.0753 289.13 9.2173 284.103 10.7189C279.075 12.2206 276.217 17.5132 277.719 22.5405C279.221 27.5677 284.513 30.4258 289.54 28.9241Z" fill="#D5E9F2"/>
<path opacity="0.3" d="M289.414 26.1292C293.364 24.9493 295.609 20.7908 294.43 16.8408C293.25 12.8908 289.091 10.6452 285.141 11.8251C281.191 13.0049 278.946 17.1635 280.125 21.1134C281.305 25.0634 285.464 27.309 289.414 26.1292Z" fill="white"/>
<path d="M563.5 69C566.538 69 569 66.5376 569 63.5C569 60.4625 566.538 58 563.5 58C560.462 58 558 60.4625 558 63.5C558 66.5376 560.462 69 563.5 69Z" fill="#D5E9F2"/>
</svg>
