<svg width="79" height="78" viewBox="0 0 79 78" fill="none" xmlns="http://www.w3.org/2000/svg">
<g filter="url(#filter0_d_47_5314)">
<circle cx="39.6527" cy="37.157" r="33.826" fill="#FFF9E9"/>
</g>
<path d="M38.9043 40.0738C36.0215 42.5876 33.2024 45.0225 30.4115 47.4877C28.7947 48.9158 27.2358 50.4058 25.6227 51.8378C25.1931 52.229 24.6994 52.547 24.162 52.7786C23.897 52.8869 23.3248 52.7786 23.1943 52.5801C23.0216 52.3166 23.0727 51.8489 23.1663 51.505C23.2345 51.2543 23.5119 51.0467 23.7212 50.8454C27.7013 47.0283 31.6832 43.2137 35.6669 39.4015C36.1138 38.974 36.5737 38.5594 37.0872 38.0846C35.3464 36.2054 33.6028 34.392 31.9382 32.5112C29.2816 29.5081 26.6783 26.4603 24.053 23.4312C23.9576 23.3211 23.8755 23.2006 23.7792 23.0905C23.3198 22.5615 22.9959 21.9914 23.519 21.3497C23.9107 20.8693 24.8471 20.9411 25.4992 21.5946C27.1231 23.2219 28.705 24.8886 30.2737 26.568C33.138 29.6329 35.98 32.7177 38.8342 35.7917C38.9563 35.9035 39.0862 36.0069 39.223 36.1013C41.4299 34.0467 43.6124 31.9989 45.8132 29.9686C48.3655 27.6151 50.9268 25.271 53.497 22.936C54.4611 22.0584 55.2341 21.9002 55.8258 22.4123C56.439 22.9428 56.3819 23.8291 55.404 24.7793C52.7603 27.3488 50.0527 29.8559 47.3477 32.3658C45.287 34.2784 43.1934 36.1581 41.0002 38.1559C42.7824 39.9513 44.4869 41.7409 46.274 43.4476C47.9904 45.087 49.8028 46.6313 51.553 48.2369C52.2373 48.8411 52.878 49.4906 53.4707 50.1809C53.9488 50.7602 54.0194 51.4792 53.4317 52.0504C52.8527 52.6139 52.1822 52.4147 51.6236 51.9883C50.5551 51.2149 49.5308 50.3849 48.5555 49.502C45.5697 46.6538 42.6366 43.7534 39.6844 40.8719C39.4509 40.6443 39.2279 40.4056 38.9043 40.0738Z" fill="#916600"/>
<path d="M5.27406 27.3838C2.09132 39.8931 4.87836 50.9285 13.5636 60.1874C13.7899 60.4266 14.0202 60.6657 14.2507 60.8963C18.916 65.5616 24.7272 68.4421 29.3319 70.4467C31.3079 71.3097 41.4485 72.3578 44.1922 71.9492C60.497 69.5142 71.2271 60.318 74.9642 44.9325C75.6778 41.9187 76.0333 38.8312 76.023 35.7341C76.0406 28.4383 72.9685 19.9563 66.6334 13.6038C65.9813 13.0645 65.3314 12.5058 64.703 11.9644C63.3397 10.7927 61.931 9.57957 60.4571 8.545C49.1979 0.620425 37.4996 0.576084 25.6883 4.77834C14.9942 8.58059 8.1266 16.1876 5.27406 27.3838ZM25.7338 8.52405C36.0973 4.21758 46.4957 3.45755 56.6373 9.90759C58.4918 11.0882 63.4356 15.0839 64.2138 15.684L64.2639 15.7209L64.3051 15.7667C68.2617 19.9625 72.7923 27.6344 72.6924 35.5208C72.6595 38.8929 72.203 42.2475 71.3338 45.5059C68.7576 54.8696 62.5985 61.6938 52.5045 66.3613C42.2433 71.2746 27.5274 66.3075 23.612 63.7228C19.2843 60.7641 15.4976 57.0832 12.4174 52.8411C7.58672 46.0018 6.50295 36.1707 9.09692 27.1836C10.312 23.0339 12.4352 19.2066 15.3128 15.9792C18.1903 12.7518 21.75 10.2052 25.7338 8.52405Z" fill="#A4946F" fill-opacity="0.4"/>
<defs>
<filter id="filter0_d_47_5314" x="0.826752" y="0.331055" width="77.6519" height="77.652" filterUnits="userSpaceOnUse" color-interpolation-filters="sRGB">
<feFlood flood-opacity="0" result="BackgroundImageFix"/>
<feColorMatrix in="SourceAlpha" type="matrix" values="0 0 0 0 0 0 0 0 0 0 0 0 0 0 0 0 0 0 127 0" result="hardAlpha"/>
<feOffset dy="2"/>
<feGaussianBlur stdDeviation="2.5"/>
<feComposite in2="hardAlpha" operator="out"/>
<feColorMatrix type="matrix" values="0 0 0 0 0 0 0 0 0 0 0 0 0 0 0 0 0 0 0.15 0"/>
<feBlend mode="normal" in2="BackgroundImageFix" result="effect1_dropShadow_47_5314"/>
<feBlend mode="normal" in="SourceGraphic" in2="effect1_dropShadow_47_5314" result="shape"/>
</filter>
</defs>
</svg>
