<svg width="267" height="115" viewBox="0 0 267 115" fill="none" xmlns="http://www.w3.org/2000/svg">
<path d="M242.066 111.988C218.325 119.759 194.36 108.799 170.626 105.853C136.372 100.195 102.163 103.974 67.9598 107.517C50.807 107.451 12.8401 112.23 4.04829 89.3107C0.666227 78.6328 -1.32717 66.6914 1.02064 55.3007C3.57136 43.3967 6.32366 28.9214 16.9732 25.5365C23.5265 22.6855 29.8189 27.2946 34.0099 33.8766C40.3828 45.0235 36.8426 63.7533 28.7425 71.9348C16.7926 79.424 14.7544 47.4721 23.0561 41.4971C29.255 36.4191 34.5146 48.809 30.6924 54.9613C29.1101 57.6368 27.5133 57.2804 26.1549 53.5955C27.2313 53.3806 28.2142 53.1845 29.2261 52.9782C31.1259 49.9583 29.4579 43.9083 26.4883 43.2535C19.7979 43.9083 18.7939 59.5807 21.7267 65.9581C26.7043 77.1595 32.5357 64.1148 33.8716 56.9428C41.06 36.0354 21.2063 16.9594 9.90597 34.5007C0.361875 50.4443 -2.25338 93.2992 17.2037 97.7685C24.6161 98.9468 33.4237 96.8903 37.9823 88.436C53.5013 65.143 53.3577 26.8785 75.5157 10.7491C81.2311 6.82206 87.2495 8.92627 92.6395 12.3486C103.231 16.9577 102.4 35.089 101.678 46.8429C108.325 42.7385 114.791 36.622 122.456 38.745C131.936 41.9524 134.999 47.5642 136.48 58.4945C145.677 50.209 154.73 44.1317 165.415 51.7249C173.775 56.0544 176.563 66.098 178.362 76.7111C180.61 86.7632 186.896 90.5879 193.823 93.3844C195.333 93.9915 196.128 92.3545 197.125 91.299C204.436 80.6944 216.344 79.4138 222.174 91.5241C225.692 99.1258 230.837 104.69 237.245 108.093C244.875 111.357 249.259 98.6211 252.88 92.0663C257.547 80.4148 260.502 66.809 256.564 54.1667C247.598 30.6862 227.859 45.8266 229.209 68.5023C229.506 75.9079 235.134 84.9966 241.29 81.593C243.826 79.76 246.68 72.6152 244.512 69.5118C241.211 69.5493 241.883 73.8412 240.394 75.7579C236.117 70.0267 245.473 60.7027 247.489 69.8016C248.832 83.0424 235.387 90.5231 229.549 78.6857C223.371 66.4458 228.133 47.7995 238.168 41.3283C249.179 34.2126 260.046 48.0809 260.428 62.3312C262.209 81.8232 253.785 100.543 242.066 111.988Z" fill="#EEE7D3"/>
<path d="M246.711 107.312L246.932 107.24L247.098 107.077C259.005 95.4492 267.56 76.4554 265.761 56.6457C265.556 49.3163 262.668 42.0555 258.343 37.5025C256.171 35.2163 253.595 33.571 250.771 32.9978C247.924 32.42 244.916 32.9518 241.961 34.8616C236.656 38.2818 232.85 44.8284 231.14 51.9851C229.428 59.1523 229.77 67.1251 232.988 73.5058C234.534 76.6367 236.64 78.6019 238.994 79.4659C241.35 80.3311 243.829 80.0447 246.008 78.9084C250.35 76.6448 253.524 71.0363 252.817 64.0744L252.812 64.0162L252.799 63.959C252.262 61.5344 251.15 59.9659 249.54 59.5007C247.966 59.0463 246.389 59.7879 245.235 60.8595C242.952 62.9797 241.375 67.311 243.926 70.7296L244.712 71.7823L245.517 70.745C246.011 70.1102 246.29 69.33 246.494 68.6347C246.581 68.3407 246.661 68.0375 246.736 67.7507C246.751 67.6925 246.766 67.635 246.781 67.5784C246.872 67.2341 246.96 66.9143 247.058 66.6147C247.258 66.0008 247.473 65.5763 247.737 65.3041C247.877 65.16 248.051 65.0367 248.3 64.962C248.506 65.4581 248.615 66.0827 248.614 66.8225C248.612 67.8307 248.403 68.9689 248.045 70.1011C247.688 71.2304 247.194 72.3194 246.646 73.2246C246.107 74.1157 245.555 74.766 245.085 75.1218C243.816 75.8059 242.624 75.8442 241.511 75.4547C240.347 75.0472 239.201 74.1445 238.168 72.8509C236.096 70.2556 234.683 66.34 234.543 62.836L234.542 62.8263L234.542 62.8165C233.881 51.7214 238.398 42.6803 243.882 39.2473C246.583 37.557 249.48 37.2329 252.208 38.5821C254.98 39.953 257.76 43.1404 259.952 48.8678C263.769 61.1574 260.925 74.4648 256.308 86.0113C255.69 87.1354 255.044 88.4451 254.376 89.7997C254.063 90.4344 253.745 91.0789 253.423 91.7189C252.388 93.7759 251.288 95.8277 250.079 97.5643C248.862 99.3123 247.593 100.655 246.254 101.383C244.979 102.076 243.607 102.235 242.01 101.564C235.833 98.2721 230.845 92.8896 227.415 85.4778L227.412 85.4709L227.409 85.464C224.364 79.1401 219.612 76.1219 214.51 76.2676C209.495 76.4108 204.448 79.6065 200.678 85.0438C200.46 85.2806 200.25 85.539 200.066 85.7664C200.03 85.8114 199.994 85.8552 199.96 85.8974C199.721 86.1901 199.523 86.4218 199.328 86.5988C199.135 86.7739 198.998 86.8466 198.901 86.8738C198.827 86.8945 198.72 86.9064 198.53 86.8303C195.107 85.4482 191.941 83.849 189.358 81.4146C186.798 79.0015 184.762 75.7205 183.678 70.8917C182.776 65.5764 181.613 60.318 179.595 55.8256C177.577 51.3326 174.676 47.5455 170.271 45.2431C164.69 41.2989 159.44 40.8784 154.403 42.5816C149.939 44.0912 145.691 47.254 141.532 50.8927C140.779 46.2487 139.638 42.5181 137.631 39.5386C135.341 36.1404 131.998 33.8251 127.111 32.1714L127.084 32.1624L127.057 32.1549C122.879 30.9978 119.072 32.1118 115.556 33.9458C113.801 34.8615 112.092 35.971 110.426 37.0916C110.025 37.3615 109.627 37.6314 109.232 37.8998C108.525 38.3799 107.825 38.8549 107.126 39.3156C107.439 33.7823 107.655 27.1113 106.723 21.1361C105.689 14.507 103.186 8.37721 97.4447 5.83706C91.9989 2.39301 85.505 0.0237617 79.2834 4.29863L79.2722 4.30633L79.2612 4.31434C67.8913 12.5908 62.3114 26.4914 57.6416 40.973C56.7946 43.5998 55.9773 46.2455 55.1618 48.885C51.4442 60.9191 47.7653 72.8275 41.4841 82.2552L41.4582 82.294L41.4361 82.3351C37.1524 90.2794 28.8713 92.2849 21.7286 91.16C17.2702 90.1237 14.0007 86.8886 11.7489 82.1816C9.48586 77.4511 8.30171 71.3236 8.01241 64.7671C7.43293 51.634 10.4542 37.157 15.0895 29.4022C17.7946 25.2098 20.9094 23.3468 23.8676 23.0352C26.8458 22.7214 29.8855 23.956 32.4683 26.4031C37.6453 31.3082 40.734 40.8871 37.2599 50.9913L37.236 51.061L37.2225 51.1334C36.569 54.6417 34.8204 59.5094 32.7236 62.0825C31.6495 63.4006 30.7488 63.806 30.0566 63.6748C29.3134 63.534 28.1998 62.6831 26.9746 59.9258L26.9746 59.9257L26.9693 59.914C25.6114 56.9614 25.1185 51.6632 25.8217 46.9821C26.1713 44.655 26.8039 42.5748 27.7025 41.0659C28.5585 39.6285 29.5811 38.8194 30.7516 38.6433C31.1508 38.7733 31.5732 39.0834 31.9779 39.6086C32.4281 40.1929 32.8056 40.982 33.0541 41.8716C33.5151 43.5222 33.4713 45.2713 32.9076 46.4641C32.0741 46.6331 31.2475 46.798 30.3563 46.9759L30.2932 46.9885L29.146 47.2175L29.5506 48.3151C29.9069 49.2814 30.2983 50.0858 30.7357 50.696C31.1651 51.2951 31.7101 51.8054 32.4034 52C33.1488 52.2093 33.8504 51.9968 34.4279 51.5781C34.9764 51.1804 35.4547 50.5737 35.8816 49.8534C36.9633 48.1071 37.3731 45.9752 37.3171 43.8947C37.2608 41.8065 36.7343 39.696 35.861 37.9452C34.9975 36.2141 33.7323 34.7154 32.1204 34.044C30.43 33.3399 28.5623 33.629 26.7804 35.0777C24.4051 36.804 22.9172 40.2277 22.1177 43.9929C21.3034 47.8277 21.1511 52.2599 21.6465 56.2616C22.1374 60.2259 23.2855 63.9423 25.2194 66.2025C26.2048 67.3542 27.4368 68.1746 28.9197 68.3859C30.3995 68.5968 31.975 68.179 33.6075 67.1559L33.7057 67.0944L33.7871 67.0121C38.0294 62.7272 41.0037 55.7794 42.1257 48.5447C43.2482 41.3077 42.5474 33.5879 39.2121 27.754L39.2002 27.7333L39.1874 27.7132C37.0363 24.3349 34.3051 21.3939 31.1967 19.6685C28.0715 17.9339 24.5492 17.4271 20.9555 18.9728C15.2515 20.8065 11.7514 25.5825 9.37278 31.2082C7.14871 36.4684 5.82907 42.6567 4.63239 48.2683C4.54666 48.6703 4.46157 49.0693 4.37682 49.4649L4.37679 49.4649L4.37521 49.4725C1.97876 61.0992 4.02162 73.2287 7.42895 83.9864L7.43795 84.0148L7.44861 84.0426C12.0549 96.0509 24.264 100.661 37.072 102.349C46.4267 103.582 56.3905 103.286 64.3735 103.049C67.3272 102.962 70.0097 102.882 72.2899 102.891L72.3435 102.891L72.3968 102.885C73.2087 102.801 74.0205 102.717 74.8323 102.633C108.245 99.1661 141.508 95.7148 174.797 101.213L174.817 101.216L174.837 101.219C180.72 101.949 186.629 103.178 192.58 104.497C193.737 104.754 194.897 105.014 196.058 105.275C200.854 106.351 205.679 107.433 210.501 108.297C222.488 110.445 234.608 111.274 246.711 107.312Z" stroke="#8E7564" stroke-width="2"/>
</svg>
