<svg width="278" height="117" viewBox="0 0 278 117" fill="none" xmlns="http://www.w3.org/2000/svg">
<g opacity="0.8">
<path d="M276.887 78.6168C276.031 87.0504 269.167 92.6772 264.511 99.171C254.363 111.82 225.503 111.992 210.644 109.707C196.112 108.979 181.666 107.895 167.412 104.893C151.25 102.711 134.848 97.8759 118.502 100.738C95.7758 102.329 75.6905 122.905 52.2776 114.205C35.395 113.587 10.6467 111.738 7.41561 91.0477C3.82869 75.508 8.48601 57.9137 23.0109 49.643C31.0113 45.1328 40.9838 48.7602 49.109 51.2399C66.0256 56.2346 74.0062 77.8899 57.2086 89.3742C42.9431 99.5975 17.0096 92.8585 27.2528 71.7871C31.0354 65.4448 41.4814 63.4497 44.6912 71.678C47.3467 76.847 45.9431 87.3423 38.7565 87.1652C35.6913 86.8861 33.4555 83.7008 36.1691 81.4861C42.6823 94.3407 48.9289 67.6255 36.3846 68.5876C21.9107 70.7399 23.5539 97.9227 49.8008 90.4525C57.5843 88.065 62.7449 82.9909 64.0181 75.1056C66.2936 57.2308 43.8222 49.0663 29.0392 50.1205C9.57627 54.2226 4.00307 81.0256 12.0673 96.9818C16.6679 106.03 27.2755 108.463 36.4541 110.244C44.0547 111.191 51.729 110.814 58.5484 106.766C77.077 97.3488 69.5799 72.5848 77.2202 56.5081C78.4948 53.4135 80.542 50.5286 82.7027 47.9342C88.2262 42.1573 97.8074 48.4584 99.1756 55.0146C100.215 58.2906 102.085 60.9304 103.949 63.6495C111.513 75.5264 110.939 65.0268 110.23 57.7111C110.081 49.4177 111.008 40.3648 116.112 33.5875C119.519 29.1865 124.528 32.4129 125.508 37.0166C126.151 37.9107 126.925 39.0556 127.862 39.3262C131.377 39.747 132.331 34.5992 133.841 32.223C138.897 19.4747 150.511 9.50508 164.065 6.79304C177.448 3.61908 185.819 15.2069 188.68 26.7678C191.942 38.3088 184.31 55.6197 195.107 63.8267C201.908 67.7544 203.189 53.7111 209.863 55.9456C215.498 57.4107 214.072 64.8469 214.287 69.3754C214.921 72.5621 213.42 83.3919 219.227 80.1513C229.877 69.2536 231.449 85.863 230.725 93.7639C239.587 93.6364 238.059 100.33 238.215 107.035C245.899 106.851 255.117 104.568 260.951 99.2291C264.533 95.1526 267.874 90.8663 271.171 86.5574C276.351 78.169 277.144 66.0215 271.379 57.7054C265.552 50.3883 253.936 43.1024 245.237 49.4971C238.284 54.4875 232.022 63.0388 235.731 71.8338C238.513 78.3178 247.711 77.5101 252.394 73.6263C257.031 69.5398 250.9 61.8415 246.478 68.2376C247.096 68.8469 247.737 69.4689 248.305 70.0272C245.233 75.2515 239.692 66.3332 248.631 63.1423C255.628 62.3785 260.061 72.1371 253.12 75.8254C239.647 84.1018 227.043 73.0694 233.825 58.8602C242.431 42.9295 255.214 41.0549 269.216 52.1822C277.96 58.3346 278.39 68.9588 276.887 78.6168Z" fill="#EEE7D3"/>
<path d="M227.54 88.5217C227.651 86.6927 227.647 84.5521 227.467 82.4256C227.251 79.8811 226.777 77.282 225.898 75.25C225.033 73.2513 223.639 71.5113 221.447 71.3127C219.365 71.1239 217.017 72.3899 214.357 75.0831C213.78 75.3883 213.371 75.4842 213.097 75.4883C212.835 75.4923 212.656 75.4152 212.497 75.2741C212.097 74.9184 211.756 74.0929 211.543 72.7553C211.34 71.4792 211.288 69.9918 211.248 68.5704C211.245 68.4646 211.242 68.3587 211.24 68.2528C211.207 67.0358 211.174 65.8283 211.022 64.9973C210.987 64.2082 211.003 63.3362 211.02 62.3883C211.026 62.0431 211.032 61.6877 211.036 61.3227C211.052 59.958 211.035 58.4933 210.836 57.1083C210.637 55.7262 210.248 54.3507 209.467 53.2019C208.673 52.0344 207.511 51.1555 205.886 50.7253C203.835 50.0507 202.164 50.6521 200.808 51.7476C199.624 52.7046 198.612 54.0935 197.706 55.338C197.624 55.4498 197.544 55.5605 197.464 55.6695C196.438 57.0721 195.542 58.2174 194.556 58.8261C194.091 59.1133 193.635 59.2603 193.153 59.2629C192.679 59.2654 192.106 59.1288 191.399 58.7302C186.468 54.9456 185.657 49.0533 185.806 42.3085C185.844 40.6294 185.939 38.9211 186.037 37.1969L186.047 37.0265C186.142 35.364 186.237 33.687 186.28 32.0379C186.369 28.6417 186.239 25.2799 185.385 22.2506C183.923 16.3521 181.044 10.3813 176.748 6.27115C172.416 2.12562 166.645 -0.11248 159.59 1.55477C145.731 4.33428 133.876 14.5007 128.684 27.5082C128.28 28.164 127.923 28.9689 127.588 29.7304L127.545 29.827C127.197 30.617 126.86 31.3847 126.472 32.0698C125.666 33.4936 124.875 34.167 123.812 34.0814C123.621 34.0051 123.37 33.8202 123.055 33.4727C122.752 33.138 122.471 32.7472 122.177 32.337C121.586 29.8609 119.946 27.712 117.878 26.7563C116.8 26.2581 115.589 26.0803 114.372 26.3888C113.155 26.6976 112.023 27.4704 111.06 28.7143L111.06 28.7142L111.052 28.7248C105.735 35.7853 104.819 45.1333 104.969 53.4679L104.969 53.5072L104.973 53.5464C105.15 55.3703 105.315 57.3665 105.35 59.1536C105.385 60.9818 105.278 62.4468 104.986 63.2884C104.878 63.5987 104.782 63.7163 104.746 63.753C104.702 63.7466 104.611 63.7206 104.456 63.6319C104.106 63.4312 103.6 62.9982 102.922 62.1973C102.254 61.4083 101.463 60.3137 100.531 58.8512L100.522 58.8369L100.513 58.8229C100.436 58.7115 100.36 58.6005 100.284 58.4898C98.495 55.8833 96.8309 53.4589 95.8822 50.4974C95.1075 46.8872 92.1467 43.4727 88.6929 41.6988C85.1942 39.9018 80.8899 39.6651 77.7185 42.9819L77.6948 43.0067L77.6729 43.033C75.4906 45.6535 73.3756 48.6204 72.0443 51.8416C70.0761 55.9932 69.0977 60.6664 68.4334 65.4194C68.1207 67.656 67.8756 69.9281 67.6326 72.1799C67.6166 72.3278 67.6007 72.4756 67.5847 72.6233C67.3251 75.0264 67.0628 77.404 66.717 79.7259C65.3312 89.0291 62.6431 97.1361 53.8339 101.613L53.8047 101.628L53.7766 101.645C47.2406 105.525 39.8387 105.924 32.3499 104.995C27.7668 104.105 22.9382 103.069 18.6918 101.165C14.4529 99.2636 10.8631 96.5267 8.69761 92.268C4.7964 84.5476 4.17361 74.1287 6.92543 65.1373C9.66725 56.1787 15.6879 48.8264 24.9174 46.852C32.1178 46.3536 41.1939 48.0976 48.1644 52.1196C55.1306 56.1392 59.8278 62.3101 58.7668 70.7014C57.5608 78.1344 52.7304 82.9367 45.2561 85.2323C38.8479 87.0545 34.0728 86.7252 30.7246 85.3082C27.3891 83.8966 25.3751 81.3685 24.517 78.5738C22.7748 72.8994 25.7631 66.3056 32.235 65.3209C33.6052 65.2218 34.6562 65.4995 35.4663 65.988C36.2892 66.4842 36.9305 67.2389 37.402 68.1883C38.358 70.1139 38.5569 72.734 38.1751 75.0743C37.9859 76.2341 37.6612 77.2777 37.2526 78.0894C36.8337 78.9213 36.3793 79.4077 35.9903 79.6109C35.6818 79.772 35.3376 79.8035 34.8475 79.4841C34.2921 79.1221 33.5808 78.3143 32.7998 76.7729L32.2382 75.6645L31.2755 76.4502C30.4504 77.1236 29.9335 77.9303 29.756 78.8094C29.579 79.6858 29.7588 80.5382 30.156 81.2683C30.936 82.7018 32.5774 83.7335 34.4045 83.8999L34.4374 83.9029L34.4705 83.9037C36.5373 83.9547 38.2266 83.2293 39.5144 82.0127C40.7824 80.815 41.6233 79.1801 42.1156 77.437C43.0868 73.9985 42.7812 69.844 41.3429 67.0059C39.5508 62.468 35.7055 60.7193 31.8502 61.0103C28.0513 61.2969 24.1963 63.5535 22.1326 67.0137L22.1108 67.0503L22.0921 67.0887C19.4511 72.5215 19.0743 77.1771 20.4017 80.9342C21.7289 84.6905 24.6963 87.3688 28.3795 88.9719C35.6929 92.1551 46.1092 91.2385 53.5208 85.9323C62.2714 79.9446 64.6228 71.2236 62.5059 63.3526C60.4044 55.5384 53.9192 48.6162 45.1353 46.021C44.5683 45.8479 43.9893 45.6683 43.4001 45.4854C39.8143 44.3726 35.849 43.1421 31.8951 42.5694C27.2725 41.8999 22.5268 42.1045 18.2585 44.5107L18.2547 44.5128C3.24449 53.0599 -1.46697 71.1554 2.17182 86.9764C3.87345 97.7824 11.2267 103.636 20.1279 106.833C28.9378 109.998 39.4148 110.627 47.8199 110.937C59.8356 115.342 70.9665 112.254 81.7529 108C84.051 107.093 86.3075 106.145 88.5553 105.201C91.673 103.891 94.7738 102.588 97.9454 101.414C103.35 99.4118 108.765 97.8629 114.311 97.4746L114.363 97.4709L114.414 97.462C122.439 96.0567 130.508 96.5357 138.628 97.6533C142.634 98.2047 146.638 98.9091 150.653 99.6155L150.815 99.6442C154.866 100.357 158.929 101.07 162.981 101.618C177.287 104.628 191.768 105.714 206.281 106.442C213.789 107.591 224.788 108.119 235.211 106.77C245.597 105.426 255.697 102.183 261.03 95.5356L261.047 95.5145L261.063 95.4925C262.202 93.9032 263.481 92.3608 264.795 90.7852L264.956 90.5928C266.211 89.0878 267.494 87.5501 268.668 85.9523C271.115 82.6227 273.158 78.9439 273.618 74.4834C275.122 64.7946 274.78 53.6303 265.554 47.1201C258.442 41.4749 251.468 38.9911 245.061 40.1287C238.631 41.2702 233.071 46.004 228.684 54.1238L228.672 54.1458L228.662 54.1683C225.117 61.5947 226.568 68.4142 230.956 72.2653C235.332 76.106 242.333 76.7344 249.356 72.4324C251.288 71.3971 252.489 69.9023 253.022 68.2216C253.553 66.549 253.4 64.7686 252.77 63.1837C251.52 60.0385 248.285 57.4478 244.261 57.887L244.144 57.8998L244.034 57.9393C241.629 58.7976 240.082 60.085 239.248 61.5405C238.415 62.9932 238.339 64.539 238.753 65.7926C239.153 67.0067 240.079 68.0877 241.358 68.3261C242.734 68.5824 244.013 67.7903 244.906 66.273L245.302 65.5998L244.744 65.0526C244.499 64.8119 244.245 64.5635 243.986 64.3107C243.842 64.1697 243.696 64.0273 243.55 63.884C244.362 62.9509 245.139 62.6031 245.759 62.5403C246.513 62.464 247.254 62.7848 247.836 63.4171C249.02 64.7028 249.305 66.9892 247.482 68.6053C245.337 70.3789 242.116 71.4714 239.126 71.3575C236.158 71.2445 233.585 69.9666 232.389 67.18C230.676 63.1145 231.247 59.0919 233.115 55.4323C234.995 51.7506 238.173 48.4784 241.559 46.0483L241.568 46.0416C245.545 43.1179 250.226 43.2693 254.744 45.1233C259.266 46.9788 263.486 50.4978 266.314 54.041C271.778 61.9522 271.071 73.618 266.084 81.7287C262.811 86.0069 259.508 90.242 255.975 94.2665C250.637 99.1252 242.259 101.389 234.941 101.738C234.94 101.254 234.945 100.77 234.95 100.285C234.952 100.184 234.953 100.083 234.954 99.982C234.963 99.2634 234.971 98.5428 234.964 97.8428C234.946 96.2567 234.846 94.6785 234.432 93.29C234.009 91.8745 233.246 90.6139 231.893 89.7398C230.779 89.0197 229.345 88.6146 227.54 88.5217ZM104.779 63.7532C104.779 63.754 104.773 63.7553 104.762 63.7547C104.772 63.7519 104.778 63.7523 104.779 63.7532Z" stroke="#8E7564" stroke-width="2"/>
</g>
<path d="M120.195 63.5703C120.195 63.1667 120.267 62.8346 120.41 62.5742C120.566 62.3138 120.775 62.1055 121.035 61.9492C121.296 61.7799 121.582 61.6562 121.895 61.5781C122.22 61.5 122.552 61.4479 122.891 61.4219C123.242 61.3828 123.581 61.3698 123.906 61.3828C124.232 61.3828 124.531 61.3828 124.805 61.3828C125.339 61.3828 125.872 61.4349 126.406 61.5391C126.94 61.6432 127.409 61.8255 127.812 62.0859C128.229 62.3464 128.568 62.6979 128.828 63.1406C129.089 63.5703 129.219 64.1107 129.219 64.7617C129.219 65.3346 129.102 65.9076 128.867 66.4805C128.646 67.0404 128.353 67.5807 127.988 68.1016C127.637 68.6094 127.233 69.0781 126.777 69.5078C126.322 69.9245 125.866 70.2826 125.41 70.582C124.967 70.8815 124.538 71.1159 124.121 71.2852C123.717 71.4544 123.379 71.5195 123.105 71.4805C122.949 71.9883 122.852 72.5352 122.812 73.1211C122.786 73.694 122.78 74.2604 122.793 74.8203C122.806 75.3672 122.826 75.8945 122.852 76.4023C122.878 76.8971 122.852 77.3268 122.773 77.6914C122.708 78.043 122.578 78.3099 122.383 78.4922C122.188 78.6615 121.888 78.7135 121.484 78.6484C121.367 77.724 121.276 76.7865 121.211 75.8359C121.159 74.8854 121.113 73.9414 121.074 73.0039C121.035 72.0664 120.996 71.1549 120.957 70.2695C120.931 69.3711 120.885 68.5182 120.82 67.7109C120.768 66.9036 120.69 66.1484 120.586 65.4453C120.482 64.7422 120.352 64.1172 120.195 63.5703ZM125.02 63.0625C124.824 63.0625 124.583 63.069 124.297 63.082C124.01 63.0951 123.73 63.1406 123.457 63.2188C123.197 63.2839 122.975 63.4076 122.793 63.5898C122.611 63.7591 122.52 64.0065 122.52 64.332V69.4492C123.053 69.4492 123.62 69.306 124.219 69.0195C124.818 68.7331 125.365 68.3685 125.859 67.9258C126.354 67.4831 126.764 66.9818 127.09 66.4219C127.415 65.862 127.578 65.3086 127.578 64.7617C127.578 64.3581 127.5 64.0456 127.344 63.8242C127.201 63.6029 127.005 63.4336 126.758 63.3164C126.523 63.1992 126.257 63.1276 125.957 63.1016C125.658 63.0755 125.345 63.0625 125.02 63.0625ZM129.887 68.9023C129.887 68.7852 129.887 68.668 129.887 68.5508C129.901 68.4206 129.927 68.3034 129.966 68.1992C130.018 68.082 130.083 67.9974 130.161 67.9453C130.252 67.8802 130.382 67.8477 130.552 67.8477C130.565 67.8477 130.578 67.8477 130.591 67.8477C130.617 67.8477 130.643 67.8477 130.669 67.8477C130.708 67.8607 130.74 67.8672 130.766 67.8672C131.014 68.2057 131.229 68.6419 131.411 69.1758C131.593 69.6966 131.769 70.2565 131.938 70.8555C132.108 71.4414 132.29 72.0404 132.485 72.6523C132.68 73.2513 132.934 73.7917 133.247 74.2734C133.559 74.7552 133.943 75.1393 134.399 75.4258C134.855 75.7122 135.421 75.8359 136.098 75.7969C136.398 75.7969 136.593 75.6341 136.684 75.3086C136.776 74.9831 136.821 74.5664 136.821 74.0586C136.834 73.5508 136.821 72.9909 136.782 72.3789C136.756 71.7669 136.756 71.1875 136.782 70.6406C136.821 70.0807 136.919 69.5924 137.075 69.1758C137.244 68.7591 137.531 68.4792 137.934 68.3359C138.104 68.6745 138.24 69.2083 138.345 69.9375C138.462 70.6536 138.546 71.487 138.598 72.4375C138.651 73.375 138.677 74.3971 138.677 75.5039C138.677 76.5977 138.651 77.6914 138.598 78.7852C138.546 79.8659 138.468 80.9076 138.364 81.9102C138.26 82.9128 138.143 83.7917 138.012 84.5469C137.882 85.3021 137.726 85.8945 137.544 86.3242C137.374 86.7669 137.192 86.9557 136.997 86.8906C136.723 86.6302 136.509 86.2917 136.352 85.875C136.209 85.4583 136.105 84.9961 136.04 84.4883C135.988 83.9805 135.968 83.4401 135.981 82.8672C135.994 82.3073 136.014 81.7409 136.04 81.168C136.079 80.5951 136.118 80.0352 136.157 79.4883C136.209 78.9414 136.235 78.4401 136.235 77.9844C135.766 78.0234 135.285 77.9518 134.79 77.7695C134.308 77.5872 133.833 77.3073 133.364 76.9297C132.895 76.5391 132.446 76.0703 132.016 75.5234C131.6 74.9766 131.229 74.3581 130.903 73.668C130.591 72.9779 130.343 72.2357 130.161 71.4414C129.979 70.6341 129.887 69.7878 129.887 68.9023ZM139.619 69.1562C139.619 69.1172 139.625 69.0846 139.638 69.0586C139.638 69.0326 139.645 69 139.658 68.9609C139.71 68.8958 139.788 68.8112 139.892 68.707C139.996 68.6029 140.061 68.5508 140.087 68.5508H144.013C144.013 68.4076 143.994 68.1797 143.955 67.8672C143.916 67.5547 143.877 67.2096 143.837 66.832C143.811 66.4544 143.805 66.0638 143.818 65.6602C143.831 65.2435 143.883 64.8724 143.974 64.5469C144.078 64.2083 144.235 63.9349 144.443 63.7266C144.664 63.5052 144.97 63.3945 145.361 63.3945C145.361 64.7096 145.452 65.7643 145.634 66.5586C145.817 67.3529 146.058 67.9648 146.357 68.3945C146.67 68.8242 147.021 69.1042 147.412 69.2344C147.802 69.3646 148.199 69.4232 148.603 69.4102C149.02 69.3841 149.423 69.319 149.814 69.2148C150.205 69.1107 150.55 69.0391 150.849 69C151.162 68.9609 151.409 68.9935 151.591 69.0977C151.774 69.1888 151.865 69.4167 151.865 69.7812C151.865 70.0547 151.8 70.25 151.67 70.3672C151.552 70.4844 151.318 70.5755 150.966 70.6406C150.862 70.6536 150.686 70.6797 150.439 70.7188C150.205 70.7448 149.938 70.7708 149.638 70.7969C149.339 70.8229 149.02 70.8555 148.681 70.8945C148.343 70.9206 148.024 70.9466 147.724 70.9727C147.425 70.9987 147.151 71.0182 146.904 71.0312C146.657 71.0312 146.474 71.0312 146.357 71.0312C146.357 71.0964 146.351 71.207 146.337 71.3633C146.324 71.5195 146.318 71.6237 146.318 71.6758C146.318 72.2487 146.409 72.8086 146.591 73.3555C146.774 73.8893 146.969 74.4232 147.177 74.957C147.399 75.4909 147.601 76.0247 147.783 76.5586C147.965 77.0924 148.056 77.6458 148.056 78.2188C148.056 78.3229 148.043 78.4336 148.017 78.5508C148.004 78.6549 147.965 78.7526 147.9 78.8438C147.848 78.9219 147.763 78.9805 147.646 79.0195C147.542 79.0716 147.392 79.0651 147.197 79C146.702 78.8698 146.331 78.5898 146.084 78.1602C145.849 77.7305 145.673 77.2227 145.556 76.6367C145.439 76.0378 145.361 75.4062 145.322 74.7422C145.283 74.0781 145.218 73.4596 145.127 72.8867C145.048 72.3008 144.918 71.806 144.736 71.4023C144.554 70.9857 144.261 70.7318 143.857 70.6406L140.087 69.7812C140.035 69.7812 139.957 69.7292 139.853 69.625C139.749 69.5078 139.684 69.4232 139.658 69.3711C139.645 69.3451 139.638 69.3125 139.638 69.2734C139.625 69.2474 139.619 69.2083 139.619 69.1562ZM153.373 66.3047C153.373 66.1615 153.386 65.9857 153.412 65.7773C153.452 65.556 153.51 65.3477 153.588 65.1523C153.679 64.957 153.79 64.7943 153.92 64.6641C154.051 64.5208 154.22 64.4492 154.428 64.4492C154.441 64.4492 154.474 64.4557 154.526 64.4688C154.578 64.4818 154.61 64.4883 154.623 64.4883C154.845 65.2956 154.975 66.0964 155.014 66.8906C155.053 67.6849 155.04 68.4596 154.975 69.2148C154.91 69.957 154.812 70.6797 154.682 71.3828C154.552 72.0729 154.441 72.7109 154.35 73.2969C154.272 73.8828 154.22 74.4102 154.194 74.8789C154.181 75.3477 154.252 75.7448 154.409 76.0703C154.383 75.862 154.363 75.6146 154.35 75.3281C154.35 75.0286 154.376 74.7227 154.428 74.4102C154.493 74.0977 154.591 73.7852 154.721 73.4727C154.864 73.1602 155.066 72.8802 155.327 72.6328C155.587 72.3854 155.919 72.1901 156.323 72.0469C156.739 71.9036 157.254 71.832 157.866 71.832C158.504 71.832 159.051 71.9427 159.506 72.1641C159.975 72.3854 160.359 72.6914 160.659 73.082C160.958 73.4596 161.179 73.9089 161.323 74.4297C161.479 74.9375 161.557 75.4844 161.557 76.0703C161.557 76.3438 161.551 76.6562 161.537 77.0078C161.537 77.3464 161.492 77.6654 161.401 77.9648C161.323 78.2513 161.173 78.4987 160.952 78.707C160.743 78.9023 160.431 79 160.014 79C160.014 78.7917 160.027 78.5117 160.053 78.1602C160.079 77.7956 160.092 77.4115 160.092 77.0078C160.105 76.6042 160.092 76.194 160.053 75.7773C160.027 75.3607 159.942 74.9896 159.799 74.6641C159.656 74.3255 159.454 74.0521 159.194 73.8438C158.946 73.6224 158.601 73.5117 158.159 73.5117C158.002 73.5117 157.807 73.5247 157.573 73.5508C157.351 73.5638 157.123 73.6224 156.889 73.7266C156.655 73.8307 156.427 73.9935 156.205 74.2148C155.984 74.4232 155.808 74.7161 155.678 75.0938C155.548 75.4583 155.47 75.9271 155.444 76.5C155.431 77.0599 155.502 77.75 155.659 78.5703C155.567 78.8047 155.45 78.9414 155.307 78.9805C155.177 79.0195 155.008 79.0391 154.799 79.0391C154.383 79.0391 154.037 78.8958 153.764 78.6094C153.504 78.3099 153.302 77.9128 153.159 77.418C153.015 76.9232 152.918 76.3503 152.866 75.6992C152.827 75.0482 152.814 74.3711 152.827 73.668C152.84 72.9518 152.872 72.2292 152.924 71.5C152.989 70.7578 153.048 70.0612 153.1 69.4102C153.165 68.7461 153.224 68.1471 153.276 67.6133C153.341 67.0664 153.373 66.6302 153.373 66.3047ZM162.538 75.0352C162.538 74.2279 162.727 73.4792 163.105 72.7891C163.482 72.0859 163.977 71.487 164.589 70.9922C165.214 70.4844 165.911 70.0872 166.679 69.8008C167.46 69.5143 168.248 69.3711 169.042 69.3711C169.485 69.3711 169.876 69.5143 170.214 69.8008C170.566 70.0872 170.859 70.4388 171.093 70.8555C171.327 71.2591 171.503 71.6888 171.62 72.1445C171.751 72.6003 171.816 72.9974 171.816 73.3359C171.816 74.0651 171.64 74.7747 171.288 75.4648C170.937 76.1419 170.481 76.7474 169.921 77.2812C169.361 77.8021 168.73 78.2253 168.027 78.5508C167.323 78.8763 166.62 79.0391 165.917 79.0391C165.292 79.0391 164.765 78.9349 164.335 78.7266C163.905 78.5052 163.56 78.2188 163.3 77.8672C163.04 77.5026 162.844 77.0794 162.714 76.5977C162.597 76.1029 162.538 75.582 162.538 75.0352ZM164.198 75.2305C164.198 75.569 164.224 75.8685 164.277 76.1289C164.342 76.3763 164.446 76.5911 164.589 76.7734C164.745 76.9557 164.947 77.099 165.195 77.2031C165.442 77.2943 165.748 77.3398 166.112 77.3398C166.594 77.3398 167.076 77.2096 167.558 76.9492C168.04 76.6758 168.469 76.3372 168.847 75.9336C169.237 75.5169 169.55 75.0612 169.784 74.5664C170.019 74.0716 170.136 73.5898 170.136 73.1211C170.136 72.9128 170.116 72.6849 170.077 72.4375C170.038 72.1901 169.973 71.9622 169.882 71.7539C169.791 71.5456 169.661 71.3698 169.491 71.2266C169.322 71.0833 169.107 71.0117 168.847 71.0117C168.612 71.0117 168.333 71.0898 168.007 71.2461C167.695 71.4023 167.362 71.6042 167.011 71.8516C166.672 72.099 166.334 72.3789 165.995 72.6914C165.67 73.0039 165.37 73.3164 165.097 73.6289C164.823 73.9414 164.602 74.2409 164.433 74.5273C164.277 74.8138 164.198 75.0482 164.198 75.2305ZM172.777 72.418C172.777 72.0794 172.862 71.8385 173.031 71.6953C173.201 71.5391 173.474 71.4609 173.852 71.4609H174.047C174.086 71.6693 174.132 71.9102 174.184 72.1836C174.236 72.457 174.314 72.737 174.418 73.0234C174.522 73.3099 174.646 73.5768 174.789 73.8242C174.932 74.0586 175.108 74.2474 175.316 74.3906C175.329 73.9349 175.44 73.4987 175.648 73.082C175.87 72.6523 176.137 72.2747 176.449 71.9492C176.775 71.6107 177.126 71.3307 177.504 71.1094C177.895 70.875 178.279 70.7188 178.656 70.6406H179.086C179.711 70.6406 180.245 70.7839 180.688 71.0703C181.13 71.3438 181.495 71.7083 181.781 72.1641C182.081 72.6068 182.309 73.1146 182.465 73.6875C182.621 74.2604 182.738 74.8464 182.816 75.4453C182.908 76.0312 182.96 76.6042 182.973 77.1641C182.999 77.7109 183.012 78.1797 183.012 78.5703H181.586C181.508 77.7891 181.41 77.0404 181.293 76.3242C181.254 76.0378 181.202 75.7383 181.137 75.4258C181.072 75.1003 181 74.8008 180.922 74.5273C180.844 74.2409 180.759 73.9805 180.668 73.7461C180.577 73.4987 180.473 73.2904 180.355 73.1211C180.303 73.069 180.232 72.9974 180.141 72.9062C180.062 72.8151 179.978 72.724 179.887 72.6328C179.796 72.5417 179.711 72.4635 179.633 72.3984C179.555 72.3333 179.509 72.3008 179.496 72.3008C179.105 72.1966 178.767 72.2747 178.48 72.5352C178.194 72.7826 177.94 73.1211 177.719 73.5508C177.497 73.9805 177.315 74.4688 177.172 75.0156C177.042 75.5625 176.931 76.0898 176.84 76.5977C176.749 77.0924 176.684 77.5286 176.645 77.9062C176.605 78.2708 176.579 78.4922 176.566 78.5703C176.241 78.8047 175.935 78.8763 175.648 78.7852C175.362 78.681 175.089 78.4727 174.828 78.1602C174.581 77.8477 174.353 77.457 174.145 76.9883C173.949 76.5195 173.767 76.0247 173.598 75.5039C173.428 74.9701 173.272 74.4362 173.129 73.9023C172.999 73.3685 172.882 72.8737 172.777 72.418Z" fill="#8E7564"/>
</svg>
