<svg width="382" height="164" viewBox="0 0 382 164" fill="none" xmlns="http://www.w3.org/2000/svg">
<path d="M346.729 159.112C312.724 170.242 278.396 154.544 244.4 150.324C195.336 142.22 146.335 147.632 97.3438 152.708C72.7746 152.612 18.3918 159.459 5.79867 126.629C0.954286 111.335 -1.90101 94.2299 1.46194 77.9142C5.11552 60.8633 9.05785 40.1291 24.3119 35.2808C33.6987 31.197 42.7119 37.799 48.715 47.2269C57.8433 63.1934 52.7724 90.0215 41.17 101.74C24.0533 112.468 21.1339 66.7008 33.025 58.1423C41.9042 50.8686 49.4378 68.6157 43.9631 77.4281C41.6966 81.2603 39.4093 80.7499 37.4636 75.4717C39.0055 75.1639 40.4133 74.8831 41.8627 74.5875C44.584 70.2619 42.1948 61.596 37.9411 60.6581C28.358 61.596 26.92 84.0448 31.1208 93.1796C38.2506 109.224 46.6033 90.5393 48.5169 80.2663C58.8133 50.3191 30.3754 22.9951 14.1891 48.1209C0.518341 70.958 -3.22768 132.342 24.6422 138.744C35.2594 140.432 47.8752 137.486 54.4048 125.376C76.6339 92.0121 76.4282 37.203 108.167 14.0996C116.353 8.47462 124.974 11.4886 132.694 16.3907C147.865 22.9927 146.675 48.9635 145.64 65.7995C155.161 59.9205 164.424 51.1593 175.403 54.2002C188.981 58.7945 193.369 66.8327 195.49 82.4889C208.665 70.6209 221.631 61.916 236.936 72.7923C248.911 78.9937 252.904 93.3799 255.482 108.582C258.701 122.98 267.705 128.459 277.628 132.464C279.791 133.334 280.928 130.989 282.357 129.477C292.829 114.287 309.885 112.453 318.236 129.8C323.275 140.688 330.644 148.658 339.824 153.533C350.752 158.208 357.033 139.965 362.219 130.576C368.903 113.887 373.136 94.3984 367.495 76.2899C354.653 42.6571 326.379 64.3438 328.314 96.8238C328.738 107.431 336.8 120.45 345.617 115.575C349.25 112.949 353.338 102.715 350.233 98.2697C345.504 98.3235 346.466 104.471 344.334 107.217C338.208 99.0074 351.609 85.6519 354.496 98.685C356.421 117.651 337.163 128.366 328.801 111.41C319.952 93.8782 326.772 67.1697 341.146 57.9005C356.918 47.7081 372.483 67.5727 373.03 87.9845C375.582 115.904 363.515 142.718 346.729 159.112Z" fill="#EEE7D3"/>
<path d="M353.248 152.003L353.469 151.931L353.635 151.768C370.609 135.192 382.807 108.104 380.237 79.8664C379.95 69.4562 375.846 59.156 369.73 52.7182C366.663 49.4898 363.049 47.1908 359.112 46.3918C355.152 45.5883 350.958 46.3222 346.813 49.0011C339.339 53.8203 333.933 63.082 331.5 73.2655C329.064 83.4599 329.559 94.7716 334.114 103.799C336.29 108.209 339.233 110.931 342.477 112.122C345.725 113.314 349.149 112.924 352.176 111.346C358.214 108.198 362.696 100.349 361.699 90.525L361.693 90.4668L361.681 90.4097C360.926 87.0016 359.398 84.9473 357.314 84.3456C355.268 83.7546 353.161 84.7087 351.563 86.1933C348.391 89.1394 346.265 95.098 349.74 99.7556L350.526 100.808L351.332 99.771C351.986 98.929 352.367 97.8774 352.658 96.8914C352.78 96.4768 352.892 96.0496 353 95.6386C353.022 95.555 353.044 95.472 353.065 95.39C353.196 94.8962 353.324 94.4277 353.468 93.9857C353.762 93.087 354.094 92.4031 354.542 91.9417C354.865 91.609 355.284 91.3537 355.904 91.2549C356.331 92.0885 356.543 93.162 356.54 94.4187C356.537 95.9175 356.228 97.5925 355.706 99.2443C355.185 100.893 354.463 102.484 353.66 103.812C352.865 105.126 352.03 106.118 351.287 106.67C349.352 107.723 347.509 107.791 345.792 107.19C344.023 106.571 342.319 105.215 340.808 103.322C337.779 99.5284 335.725 93.8299 335.521 88.7248L335.52 88.7151L335.52 88.7054C334.567 72.708 341.072 59.5793 349.102 54.5532C353.075 52.0664 357.383 51.5693 361.448 53.5794C365.556 55.6109 369.596 60.2925 372.758 68.5579C378.277 86.3136 374.155 105.504 367.521 122.089C366.636 123.695 365.715 125.564 364.756 127.509C364.306 128.42 363.849 129.348 363.383 130.273C361.898 133.223 360.312 136.185 358.562 138.698C356.804 141.224 354.94 143.211 352.934 144.301C350.994 145.356 348.884 145.595 346.463 144.571C337.515 139.808 330.303 132.019 325.352 121.321L325.348 121.314L325.345 121.307C321.04 112.365 314.371 108.176 307.272 108.379C300.259 108.579 293.134 113.06 287.784 120.789C287.475 121.122 287.178 121.488 286.908 121.822C286.855 121.887 286.803 121.951 286.752 122.013C286.411 122.432 286.109 122.787 285.803 123.065C285.5 123.341 285.245 123.491 285.017 123.555C284.812 123.612 284.561 123.619 284.209 123.478C279.288 121.491 274.693 119.176 270.935 115.634C267.2 112.113 264.242 107.332 262.671 100.33C261.38 92.7204 259.721 85.229 256.853 78.8432C253.984 72.4571 249.879 67.1162 243.667 63.8778C235.775 58.2922 228.391 57.7077 221.302 60.1052C214.781 62.3104 208.56 67.022 202.422 72.4438C201.349 65.4551 199.715 59.9349 196.78 55.5786C193.567 50.8097 188.868 47.5411 181.932 45.194L181.905 45.185L181.878 45.1775C176.043 43.5614 170.708 45.1071 165.72 47.7093C163.229 49.0092 160.797 50.5869 158.413 52.1906C157.842 52.5749 157.275 52.9601 156.71 53.3437C155.453 54.1964 154.209 55.0408 152.964 55.849C153.437 47.7635 153.816 37.8654 152.44 29.0443C150.963 19.5715 147.405 10.983 139.373 7.44629C131.598 2.52324 122.502 -0.756641 113.808 5.21648L113.797 5.22419L113.786 5.23219C97.6261 16.9956 89.6666 36.7759 82.976 57.5243C81.7671 61.2734 80.5994 65.0537 79.4333 68.8289C74.1082 86.0687 68.8161 103.201 59.7806 116.763L59.7548 116.802L59.7327 116.843C53.478 128.442 41.3888 131.337 31.041 129.703C24.4795 128.183 19.7033 123.428 16.4389 116.604C13.1633 109.757 11.4608 100.917 11.0449 91.4927C10.2124 72.6239 14.548 51.7912 21.2466 40.5896C25.1732 34.501 29.7407 31.7316 34.1421 31.2679C38.5636 30.802 43.0373 32.6391 46.8042 36.2082C54.3495 43.3572 58.8073 57.258 53.7792 71.8822L53.7553 71.9518L53.7418 72.0242C52.7994 77.0831 50.276 84.136 47.2077 87.9014C45.6479 89.8156 44.2121 90.5689 42.9719 90.3339C41.6807 90.0892 40.006 88.6827 38.2427 84.7146L38.2427 84.7146L38.2374 84.7029C36.2455 80.3716 35.544 72.6898 36.5589 65.9346C37.0643 62.5704 37.9828 59.5305 39.309 57.3034C40.5963 55.1417 42.1904 53.8597 44.0824 53.6131C44.7943 53.8147 45.5025 54.3369 46.1469 55.1733C46.8325 56.0631 47.3949 57.2465 47.7624 58.5624C48.4629 61.0705 48.391 63.7965 47.4292 65.6386C46.1631 65.8957 44.9149 66.1449 43.5638 66.4145L43.4759 66.4321L42.3288 66.661L42.7334 67.7586C43.2364 69.1233 43.7811 70.2361 44.3765 71.0667C44.964 71.8862 45.6717 72.5289 46.5308 72.7701C47.442 73.0259 48.3124 72.774 49.0599 72.232C49.7787 71.7109 50.4284 70.8968 51.0263 69.8876C52.5211 67.4762 53.0986 64.5106 53.0199 61.5882C52.941 58.658 52.2014 55.697 50.9796 53.2476C49.7676 50.8178 48.0186 48.7722 45.8424 47.8658C43.5874 46.9266 41.0749 47.2929 38.6234 49.2901C35.3504 51.6626 33.2447 56.4344 32.1039 61.807C30.9482 67.2496 30.731 73.5497 31.4352 79.2375C32.1347 84.8877 33.7652 90.1082 36.4523 93.2486C37.8143 94.8403 39.4905 95.9449 41.4849 96.2291C43.4763 96.5129 45.6307 95.9568 47.9091 94.5289L48.0072 94.4674L48.0887 94.3851C54.0821 88.3315 58.3146 78.4747 59.9127 68.1708C61.5112 57.8646 60.5042 46.9153 55.7911 38.6716L55.7793 38.6509L55.7665 38.6309C52.7093 33.8295 48.8449 29.6788 44.4757 27.2536C40.0897 24.8191 35.1787 24.1223 30.1682 26.2844C22.1618 28.8498 17.2131 35.5566 13.8237 43.5731C10.6548 51.0679 8.77269 59.8929 7.05636 67.9406C6.93425 68.5132 6.81298 69.0818 6.69214 69.6457L6.69211 69.6457L6.69054 69.6533C3.27894 86.205 6.1837 103.498 11.0534 118.872L11.0623 118.901L11.073 118.928C17.58 135.892 34.8434 142.463 53.1576 144.876C66.5193 146.637 80.7293 146.215 92.157 145.876C96.3993 145.75 100.258 145.636 103.548 145.649L103.602 145.649L103.655 145.643C104.825 145.522 105.996 145.401 107.166 145.279C155.009 140.315 202.705 135.366 250.445 143.251L250.465 143.255L250.485 143.257C258.934 144.306 267.414 146.07 275.941 147.96C277.601 148.328 279.264 148.701 280.928 149.075C287.797 150.616 294.696 152.164 301.593 153.4C318.736 156.471 336.013 157.644 353.248 152.003Z" stroke="#8E7564" stroke-width="2"/>
<path d="M346.729 159.112C312.724 170.242 278.396 154.544 244.4 150.324C195.336 142.22 146.335 147.632 97.3438 152.708C72.7746 152.612 18.3918 159.459 5.79867 126.629C0.954286 111.335 -1.90101 94.2299 1.46194 77.9142C5.11552 60.8633 9.05785 40.1291 24.3119 35.2808C33.6987 31.197 42.7119 37.799 48.715 47.2269C57.8433 63.1934 52.7724 90.0215 41.17 101.74C24.0533 112.468 21.1339 66.7008 33.025 58.1423C41.9042 50.8686 49.4378 68.6157 43.9631 77.4281C41.6966 81.2603 39.4093 80.7499 37.4636 75.4717C39.0055 75.1639 40.4133 74.8831 41.8627 74.5875C44.584 70.2619 42.1948 61.596 37.9411 60.6581C28.358 61.596 26.92 84.0448 31.1208 93.1796C38.2506 109.224 46.6033 90.5393 48.5169 80.2663C58.8133 50.3191 30.3754 22.9951 14.1891 48.1209C0.518341 70.958 -3.22768 132.342 24.6422 138.744C35.2594 140.432 47.8752 137.486 54.4048 125.376C76.6339 92.0121 76.4282 37.203 108.167 14.0996C116.353 8.47462 124.974 11.4886 132.694 16.3907C147.865 22.9927 146.675 48.9635 145.64 65.7995C155.161 59.9205 164.424 51.1593 175.403 54.2002C188.981 58.7945 193.369 66.8327 195.49 82.4889C208.665 70.6209 221.631 61.916 236.936 72.7923C248.911 78.9937 252.904 93.3799 255.482 108.582C258.701 122.98 267.705 128.459 277.628 132.464C279.791 133.334 280.928 130.989 282.357 129.477C292.829 114.287 309.885 112.453 318.236 129.8C323.275 140.688 330.644 148.658 339.824 153.533C350.752 158.208 357.033 139.965 362.219 130.576C368.903 113.887 373.136 94.3984 367.495 76.2899C354.653 42.6571 326.379 64.3438 328.314 96.8238C328.738 107.431 336.8 120.45 345.617 115.575C349.25 112.949 353.338 102.715 350.233 98.2697C345.504 98.3235 346.466 104.471 344.334 107.217C338.208 99.0074 351.609 85.6519 354.496 98.685C356.421 117.651 337.163 128.366 328.801 111.41C319.952 93.8782 326.772 67.1697 341.146 57.9005C356.918 47.7081 372.483 67.5727 373.03 87.9845C375.582 115.904 363.515 142.718 346.729 159.112Z" fill="#EEE7D3"/>
<path d="M353.248 152.003L353.469 151.931L353.635 151.768C370.609 135.192 382.807 108.104 380.237 79.8664C379.95 69.4562 375.846 59.156 369.73 52.7182C366.663 49.4898 363.049 47.1908 359.112 46.3918C355.152 45.5883 350.958 46.3222 346.813 49.0011C339.339 53.8203 333.933 63.082 331.5 73.2655C329.064 83.4599 329.559 94.7716 334.114 103.799C336.29 108.209 339.233 110.931 342.477 112.122C345.725 113.314 349.149 112.924 352.176 111.346C358.214 108.198 362.696 100.349 361.699 90.525L361.693 90.4668L361.681 90.4097C360.926 87.0016 359.398 84.9473 357.314 84.3456C355.268 83.7546 353.161 84.7087 351.563 86.1933C348.391 89.1394 346.265 95.098 349.74 99.7556L350.526 100.808L351.332 99.771C351.986 98.929 352.367 97.8774 352.658 96.8914C352.78 96.4768 352.892 96.0496 353 95.6386C353.022 95.555 353.044 95.472 353.065 95.39C353.196 94.8962 353.324 94.4277 353.468 93.9857C353.762 93.087 354.094 92.4031 354.542 91.9417C354.865 91.609 355.284 91.3537 355.904 91.2549C356.331 92.0885 356.543 93.162 356.54 94.4187C356.537 95.9175 356.228 97.5925 355.706 99.2443C355.185 100.893 354.463 102.484 353.66 103.812C352.865 105.126 352.03 106.118 351.287 106.67C349.352 107.723 347.509 107.791 345.792 107.19C344.023 106.571 342.319 105.215 340.808 103.322C337.779 99.5284 335.725 93.8299 335.521 88.7248L335.52 88.7151L335.52 88.7054C334.567 72.708 341.072 59.5793 349.102 54.5532C353.075 52.0664 357.383 51.5693 361.448 53.5794C365.556 55.6109 369.596 60.2925 372.758 68.5579C378.277 86.3136 374.155 105.504 367.521 122.089C366.636 123.695 365.715 125.564 364.756 127.509C364.306 128.42 363.849 129.348 363.383 130.273C361.898 133.223 360.312 136.185 358.562 138.698C356.804 141.224 354.94 143.211 352.934 144.301C350.994 145.356 348.884 145.595 346.463 144.571C337.515 139.808 330.303 132.019 325.352 121.321L325.348 121.314L325.345 121.307C321.04 112.365 314.371 108.176 307.272 108.379C300.259 108.579 293.134 113.06 287.784 120.789C287.475 121.122 287.178 121.488 286.908 121.822C286.855 121.887 286.803 121.951 286.752 122.013C286.411 122.432 286.109 122.787 285.803 123.065C285.5 123.341 285.245 123.491 285.017 123.555C284.812 123.612 284.561 123.619 284.209 123.478C279.288 121.491 274.693 119.176 270.935 115.634C267.2 112.113 264.242 107.332 262.671 100.33C261.38 92.7204 259.721 85.229 256.853 78.8432C253.984 72.4571 249.879 67.1162 243.667 63.8778C235.775 58.2922 228.391 57.7077 221.302 60.1052C214.781 62.3104 208.56 67.022 202.422 72.4438C201.349 65.4551 199.715 59.9349 196.78 55.5786C193.567 50.8097 188.868 47.5411 181.932 45.194L181.905 45.185L181.878 45.1775C176.043 43.5614 170.708 45.1071 165.72 47.7093C163.229 49.0092 160.797 50.5869 158.413 52.1906C157.842 52.5749 157.275 52.9601 156.71 53.3437C155.453 54.1964 154.209 55.0408 152.964 55.849C153.437 47.7635 153.816 37.8654 152.44 29.0443C150.963 19.5715 147.405 10.983 139.373 7.44629C131.598 2.52324 122.502 -0.756641 113.808 5.21648L113.797 5.22419L113.786 5.23219C97.6261 16.9956 89.6666 36.7759 82.976 57.5243C81.7671 61.2734 80.5994 65.0537 79.4333 68.8289C74.1082 86.0687 68.8161 103.201 59.7806 116.763L59.7548 116.802L59.7327 116.843C53.478 128.442 41.3888 131.337 31.041 129.703C24.4795 128.183 19.7033 123.428 16.4389 116.604C13.1633 109.757 11.4608 100.917 11.0449 91.4927C10.2124 72.6239 14.548 51.7912 21.2466 40.5896C25.1732 34.501 29.7407 31.7316 34.1421 31.2679C38.5636 30.802 43.0373 32.6391 46.8042 36.2082C54.3495 43.3572 58.8073 57.258 53.7792 71.8822L53.7553 71.9518L53.7418 72.0242C52.7994 77.0831 50.276 84.136 47.2077 87.9014C45.6479 89.8156 44.2121 90.5689 42.9719 90.3339C41.6807 90.0892 40.006 88.6827 38.2427 84.7146L38.2427 84.7146L38.2374 84.7029C36.2455 80.3716 35.544 72.6898 36.5589 65.9346C37.0643 62.5704 37.9828 59.5305 39.309 57.3034C40.5963 55.1417 42.1904 53.8597 44.0824 53.6131C44.7943 53.8147 45.5025 54.3369 46.1469 55.1733C46.8325 56.0631 47.3949 57.2465 47.7624 58.5624C48.4629 61.0705 48.391 63.7965 47.4292 65.6386C46.1631 65.8957 44.9149 66.1449 43.5638 66.4145L43.4759 66.4321L42.3288 66.661L42.7334 67.7586C43.2364 69.1233 43.7811 70.2361 44.3765 71.0667C44.964 71.8862 45.6717 72.5289 46.5308 72.7701C47.442 73.0259 48.3124 72.774 49.0599 72.232C49.7787 71.7109 50.4284 70.8968 51.0263 69.8876C52.5211 67.4762 53.0986 64.5106 53.0199 61.5882C52.941 58.658 52.2014 55.697 50.9796 53.2476C49.7676 50.8178 48.0186 48.7722 45.8424 47.8658C43.5874 46.9266 41.0749 47.2929 38.6234 49.2901C35.3504 51.6626 33.2447 56.4344 32.1039 61.807C30.9482 67.2496 30.731 73.5497 31.4352 79.2375C32.1347 84.8877 33.7652 90.1082 36.4523 93.2486C37.8143 94.8403 39.4905 95.9449 41.4849 96.2291C43.4763 96.5129 45.6307 95.9568 47.9091 94.5289L48.0072 94.4674L48.0887 94.3851C54.0821 88.3315 58.3146 78.4747 59.9127 68.1708C61.5112 57.8646 60.5042 46.9153 55.7911 38.6716L55.7793 38.6509L55.7665 38.6309C52.7093 33.8295 48.8449 29.6788 44.4757 27.2536C40.0897 24.8191 35.1787 24.1223 30.1682 26.2844C22.1618 28.8498 17.2131 35.5566 13.8237 43.5731C10.6548 51.0679 8.77269 59.8929 7.05636 67.9406C6.93425 68.5132 6.81298 69.0818 6.69214 69.6457L6.69211 69.6457L6.69054 69.6533C3.27894 86.205 6.1837 103.498 11.0534 118.872L11.0623 118.901L11.073 118.928C17.58 135.892 34.8434 142.463 53.1576 144.876C66.5193 146.637 80.7293 146.215 92.157 145.876C96.3993 145.75 100.258 145.636 103.548 145.649L103.602 145.649L103.655 145.643C104.825 145.522 105.996 145.401 107.166 145.279C155.009 140.315 202.705 135.366 250.445 143.251L250.465 143.255L250.485 143.257C258.934 144.306 267.414 146.07 275.941 147.96C277.601 148.328 279.264 148.701 280.928 149.075C287.797 150.616 294.696 152.164 301.593 153.4C318.736 156.471 336.013 157.644 353.248 152.003Z" stroke="#8E7564" stroke-width="2"/>
</svg>
