<svg width="278" height="117" viewBox="0 0 278 117" fill="none" xmlns="http://www.w3.org/2000/svg">
<path d="M277.331 78.6168C276.475 87.0504 269.611 92.6772 264.955 99.171C254.807 111.82 225.947 111.992 211.088 109.707C196.556 108.979 182.11 107.895 167.856 104.893C151.694 102.711 135.292 97.8759 118.947 100.738C96.2199 102.329 76.1346 122.905 52.7217 114.205C35.8391 113.587 11.0908 111.738 7.8597 91.0477C4.27278 75.508 8.93011 57.9137 23.455 49.643C31.4554 45.1328 41.4279 48.7602 49.5531 51.2399C66.4697 56.2346 74.4503 77.8899 57.6527 89.3742C43.3872 99.5975 17.4537 92.8585 27.6969 71.7871C31.4795 65.4448 41.9255 63.4497 45.1353 71.678C47.7908 76.847 46.3872 87.3423 39.2006 87.1652C36.1354 86.8861 33.8996 83.7008 36.6132 81.4861C43.1264 94.3407 49.373 67.6255 36.8287 68.5876C22.3548 70.7399 23.998 97.9227 50.2449 90.4525C58.0284 88.065 63.189 82.9909 64.4622 75.1056C66.7377 57.2308 44.2662 49.0663 29.4833 50.1205C10.0204 54.2226 4.44716 81.0256 12.5114 96.9818C17.112 106.03 27.7196 108.463 36.8982 110.244C44.4988 111.191 52.1731 110.814 58.9925 106.766C77.5211 97.3488 70.024 72.5848 77.6643 56.5081C78.9389 53.4135 80.9861 50.5286 83.1468 47.9342C88.6703 42.1573 98.2515 48.4584 99.6197 55.0146C100.659 58.2906 102.529 60.9304 104.393 63.6495C111.957 75.5264 111.383 65.0268 110.674 57.7111C110.525 49.4177 111.452 40.3648 116.556 33.5875C119.963 29.1865 124.972 32.4129 125.952 37.0166C126.595 37.9107 127.369 39.0556 128.307 39.3262C131.821 39.747 132.775 34.5992 134.285 32.223C139.341 19.4747 150.955 9.50508 164.509 6.79304C177.893 3.61908 186.263 15.2069 189.124 26.7678C192.386 38.3088 184.754 55.6197 195.551 63.8267C202.352 67.7544 203.633 53.7111 210.307 55.9456C215.942 57.4107 214.516 64.8469 214.732 69.3754C215.365 72.5621 213.864 83.3919 219.671 80.1513C230.321 69.2536 231.893 85.863 231.169 93.7639C240.031 93.6364 238.503 100.33 238.659 107.035C246.343 106.851 255.561 104.568 261.396 99.2291C264.977 95.1526 268.318 90.8663 271.615 86.5574C276.795 78.169 277.588 66.0215 271.823 57.7054C265.996 50.3883 254.38 43.1024 245.681 49.4971C238.728 54.4875 232.466 63.0388 236.175 71.8338C238.957 78.3178 248.155 77.5101 252.838 73.6263C257.475 69.5398 251.344 61.8415 246.922 68.2376C247.54 68.8469 248.181 69.4689 248.749 70.0272C245.677 75.2515 240.136 66.3332 249.075 63.1423C256.072 62.3785 260.505 72.1371 253.564 75.8254C240.091 84.1018 227.487 73.0694 234.27 58.8602C242.875 42.9295 255.658 41.0549 269.66 52.1822C278.404 58.3346 278.834 68.9588 277.331 78.6168Z" fill="#EEE7D3"/>
<path d="M227.985 88.5217C228.095 86.6927 228.091 84.5521 227.911 82.4256C227.695 79.8811 227.221 77.282 226.342 75.25C225.478 73.2513 224.083 71.5113 221.891 71.3127C219.809 71.1239 217.461 72.3899 214.801 75.0831C214.224 75.3883 213.816 75.4842 213.541 75.4883C213.279 75.4923 213.1 75.4152 212.941 75.2741C212.541 74.9184 212.2 74.0929 211.987 72.7553C211.784 71.4792 211.732 69.9918 211.692 68.5704C211.689 68.4646 211.687 68.3587 211.684 68.2528C211.651 67.0358 211.619 65.8283 211.466 64.9973C211.432 64.2082 211.447 63.3362 211.464 62.3883C211.47 62.0431 211.476 61.6877 211.48 61.3227C211.496 59.958 211.479 58.4933 211.28 57.1083C211.081 55.7262 210.692 54.3507 209.911 53.2019C209.117 52.0344 207.955 51.1555 206.33 50.7253C204.279 50.0507 202.609 50.6521 201.252 51.7476C200.068 52.7046 199.056 54.0935 198.15 55.338C198.068 55.4498 197.988 55.5605 197.908 55.6695C196.882 57.0721 195.986 58.2174 195 58.8261C194.535 59.1133 194.079 59.2603 193.597 59.2629C193.124 59.2654 192.55 59.1288 191.843 58.7302C186.912 54.9456 186.101 49.0533 186.251 42.3085C186.288 40.6294 186.383 38.9211 186.481 37.1969L186.491 37.0265C186.586 35.364 186.682 33.687 186.725 32.0379C186.813 28.6417 186.683 25.2799 185.829 22.2506C184.367 16.3521 181.488 10.3813 177.192 6.27115C172.86 2.12562 167.089 -0.11248 160.034 1.55477C146.175 4.33428 134.321 14.5007 129.128 27.5082C128.724 28.164 128.367 28.9689 128.032 29.7304L127.989 29.827C127.642 30.617 127.304 31.3847 126.916 32.0698C126.11 33.4936 125.32 34.167 124.256 34.0814C124.065 34.0051 123.814 33.8202 123.499 33.4727C123.196 33.138 122.915 32.7472 122.621 32.337C122.031 29.8609 120.39 27.712 118.322 26.7563C117.244 26.2581 116.033 26.0803 114.817 26.3888C113.599 26.6976 112.467 27.4704 111.504 28.7143L111.504 28.7142L111.496 28.7248C106.179 35.7853 105.263 45.1333 105.413 53.4679L105.413 53.5072L105.417 53.5464C105.594 55.3703 105.76 57.3665 105.794 59.1536C105.829 60.9818 105.722 62.4468 105.43 63.2884C105.322 63.5987 105.226 63.7163 105.19 63.753C105.146 63.7466 105.056 63.7206 104.901 63.6319C104.55 63.4312 104.044 62.9982 103.366 62.1973C102.698 61.4083 101.907 60.3137 100.975 58.8512L100.966 58.8369L100.957 58.8229C100.88 58.7115 100.804 58.6005 100.728 58.4898C98.9391 55.8833 97.275 53.4589 96.3263 50.4974C95.5516 46.8872 92.5908 43.4727 89.137 41.6988C85.6383 39.9018 81.334 39.6651 78.1626 42.9819L78.1389 43.0067L78.117 43.033C75.9347 45.6535 73.8197 48.6204 72.4884 51.8416C70.5202 55.9932 69.5418 60.6664 68.8775 65.4194C68.5648 67.656 68.3197 69.9281 68.0767 72.1799C68.0607 72.3278 68.0448 72.4756 68.0288 72.6233C67.7692 75.0264 67.5069 77.404 67.1611 79.7259C65.7753 89.0291 63.0872 97.1361 54.278 101.613L54.2488 101.628L54.2207 101.645C47.6847 105.525 40.2828 105.924 32.794 104.995C28.2109 104.105 23.3823 103.069 19.1359 101.165C14.897 99.2636 11.3072 96.5267 9.1417 92.268C5.24049 84.5476 4.6177 74.1287 7.36952 65.1373C10.1113 56.1787 16.132 48.8264 25.3615 46.852C32.5619 46.3536 41.638 48.0976 48.6085 52.1196C55.5747 56.1392 60.2719 62.3101 59.2109 70.7014C58.0049 78.1344 53.1745 82.9367 45.7002 85.2323C39.292 87.0545 34.5169 86.7252 31.1687 85.3082C27.8332 83.8966 25.8192 81.3685 24.9611 78.5738C23.2189 72.8994 26.2072 66.3056 32.6791 65.3209C34.0493 65.2218 35.1003 65.4995 35.9104 65.988C36.7333 66.4842 37.3746 67.2389 37.846 68.1883C38.8021 70.1139 39.001 72.734 38.6192 75.0743C38.43 76.2341 38.1053 77.2777 37.6966 78.0894C37.2778 78.9213 36.8234 79.4077 36.4344 79.6109C36.1259 79.772 35.7817 79.8035 35.2916 79.4841C34.7362 79.1221 34.0249 78.3143 33.2439 76.7729L32.6822 75.6645L31.7196 76.4502C30.8945 77.1236 30.3776 77.9303 30.2001 78.8094C30.0231 79.6858 30.2029 80.5382 30.6001 81.2683C31.3801 82.7018 33.0215 83.7335 34.8486 83.8999L34.8815 83.9029L34.9146 83.9037C36.9814 83.9547 38.6707 83.2293 39.9585 82.0127C41.2264 80.815 42.0674 79.1801 42.5597 77.437C43.5309 73.9985 43.2253 69.844 41.787 67.0059C39.9948 62.468 36.1496 60.7193 32.2943 61.0103C28.4954 61.2969 24.6404 63.5535 22.5767 67.0137L22.5549 67.0503L22.5362 67.0887C19.8952 72.5215 19.5184 77.1771 20.8458 80.9342C22.173 84.6905 25.1404 87.3688 28.8236 88.9719C36.137 92.1551 46.5533 91.2385 53.9649 85.9323C62.7155 79.9446 65.0669 71.2236 62.95 63.3526C60.8484 55.5384 54.3632 48.6162 45.5794 46.021C45.0124 45.8479 44.4334 45.6683 43.8442 45.4854C40.2584 44.3726 36.2931 43.1421 32.3392 42.5694C27.7166 41.8999 22.9709 42.1045 18.7026 44.5107L18.6988 44.5128C3.68858 53.0599 -1.02288 71.1554 2.61591 86.9764C4.31754 97.7824 11.6708 103.636 20.5719 106.833C29.3819 109.998 39.8589 110.627 48.264 110.937C60.2797 115.342 71.4106 112.254 82.197 108C84.4951 107.093 86.7516 106.145 88.9993 105.201C92.1171 103.891 95.2179 102.588 98.3895 101.414C103.794 99.4118 109.209 97.8629 114.755 97.4746L114.807 97.4709L114.858 97.462C122.883 96.0567 130.952 96.5357 139.072 97.6533C143.078 98.2047 147.082 98.9091 151.097 99.6155L151.26 99.6442C155.31 100.357 159.373 101.07 163.425 101.618C177.731 104.628 192.212 105.714 206.725 106.442C214.233 107.591 225.232 108.119 235.655 106.77C246.041 105.426 256.141 102.183 261.474 95.5356L261.491 95.5145L261.507 95.4925C262.646 93.9032 263.925 92.3608 265.24 90.7852L265.4 90.5928C266.656 89.0878 267.938 87.5501 269.113 85.9523C271.559 82.6227 273.602 78.9439 274.062 74.4834C275.566 64.7946 275.224 53.6303 265.998 47.1201C258.886 41.4749 251.912 38.9911 245.505 40.1287C239.075 41.2702 233.515 46.004 229.128 54.1238L229.117 54.1458L229.106 54.1683C225.561 61.5947 227.012 68.4142 231.4 72.2653C235.776 76.106 242.777 76.7344 249.8 72.4324C251.733 71.3971 252.933 69.9023 253.467 68.2216C253.997 66.549 253.844 64.7686 253.214 63.1837C251.964 60.0385 248.729 57.4478 244.705 57.887L244.588 57.8998L244.478 57.9393C242.073 58.7976 240.526 60.085 239.692 61.5405C238.859 62.9932 238.783 64.539 239.197 65.7926C239.598 67.0067 240.523 68.0877 241.802 68.3261C243.178 68.5824 244.457 67.7903 245.35 66.273L245.746 65.5998L245.188 65.0526C244.943 64.8119 244.689 64.5635 244.43 64.3107C244.286 64.1697 244.14 64.0273 243.994 63.884C244.806 62.9509 245.583 62.6031 246.203 62.5403C246.957 62.464 247.698 62.7848 248.28 63.4171C249.464 64.7028 249.749 66.9892 247.926 68.6053C245.781 70.3789 242.56 71.4714 239.57 71.3575C236.603 71.2445 234.03 69.9666 232.833 67.18C231.121 63.1145 231.691 59.0919 233.559 55.4323C235.439 51.7506 238.617 48.4784 242.003 46.0483L242.012 46.0416C245.989 43.1179 250.67 43.2693 255.188 45.1233C259.71 46.9788 263.93 50.4978 266.759 54.041C272.222 61.9522 271.515 73.618 266.528 81.7287C263.255 86.0069 259.952 90.242 256.419 94.2665C251.081 99.1252 242.703 101.389 235.385 101.738C235.384 101.254 235.389 100.77 235.394 100.285C235.396 100.184 235.397 100.083 235.398 99.982C235.407 99.2634 235.415 98.5428 235.408 97.8428C235.39 96.2567 235.29 94.6785 234.876 93.29C234.453 91.8745 233.69 90.6139 232.338 89.7398C231.223 89.0197 229.789 88.6146 227.985 88.5217ZM105.223 63.7532C105.223 63.754 105.218 63.7553 105.206 63.7547C105.216 63.7519 105.222 63.7523 105.223 63.7532Z" stroke="#8E7564" stroke-width="2"/>
<path d="M277.331 78.6168C276.475 87.0504 269.611 92.6772 264.955 99.171C254.807 111.82 225.947 111.992 211.088 109.707C196.556 108.979 182.11 107.895 167.856 104.893C151.694 102.711 135.292 97.8759 118.947 100.738C96.2199 102.329 76.1346 122.905 52.7217 114.205C35.8391 113.587 11.0908 111.738 7.8597 91.0477C4.27278 75.508 8.93011 57.9137 23.455 49.643C31.4554 45.1328 41.4279 48.7602 49.5531 51.2399C66.4697 56.2346 74.4503 77.8899 57.6527 89.3742C43.3872 99.5975 17.4537 92.8585 27.6969 71.7871C31.4795 65.4448 41.9255 63.4497 45.1353 71.678C47.7908 76.847 46.3872 87.3423 39.2006 87.1652C36.1354 86.8861 33.8996 83.7008 36.6132 81.4861C43.1264 94.3407 49.373 67.6255 36.8287 68.5876C22.3548 70.7399 23.998 97.9227 50.2449 90.4525C58.0284 88.065 63.189 82.9909 64.4622 75.1056C66.7377 57.2308 44.2662 49.0663 29.4833 50.1205C10.0204 54.2226 4.44716 81.0256 12.5114 96.9818C17.112 106.03 27.7196 108.463 36.8982 110.244C44.4988 111.191 52.1731 110.814 58.9925 106.766C77.5211 97.3488 70.024 72.5848 77.6643 56.5081C78.9389 53.4135 80.9861 50.5286 83.1468 47.9342C88.6703 42.1573 98.2515 48.4584 99.6197 55.0146C100.659 58.2906 102.529 60.9304 104.393 63.6495C111.957 75.5264 111.383 65.0268 110.674 57.7111C110.525 49.4177 111.452 40.3648 116.556 33.5875C119.963 29.1865 124.972 32.4129 125.952 37.0166C126.595 37.9107 127.369 39.0556 128.307 39.3262C131.821 39.747 132.775 34.5992 134.285 32.223C139.341 19.4747 150.955 9.50508 164.509 6.79304C177.893 3.61908 186.263 15.2069 189.124 26.7678C192.386 38.3088 184.754 55.6197 195.551 63.8267C202.352 67.7544 203.633 53.7111 210.307 55.9456C215.942 57.4107 214.516 64.8469 214.732 69.3754C215.365 72.5621 213.864 83.3919 219.671 80.1513C230.321 69.2536 231.893 85.863 231.169 93.7639C240.031 93.6364 238.503 100.33 238.659 107.035C246.343 106.851 255.561 104.568 261.396 99.2291C264.977 95.1526 268.318 90.8663 271.615 86.5574C276.795 78.169 277.588 66.0215 271.823 57.7054C265.996 50.3883 254.38 43.1024 245.681 49.4971C238.728 54.4875 232.466 63.0388 236.175 71.8338C238.957 78.3178 248.155 77.5101 252.838 73.6263C257.475 69.5398 251.344 61.8415 246.922 68.2376C247.54 68.8469 248.181 69.4689 248.749 70.0272C245.677 75.2515 240.136 66.3332 249.075 63.1423C256.072 62.3785 260.505 72.1371 253.564 75.8254C240.091 84.1018 227.487 73.0694 234.27 58.8602C242.875 42.9295 255.658 41.0549 269.66 52.1822C278.404 58.3346 278.834 68.9588 277.331 78.6168Z" fill="#EEE7D3"/>
<path d="M227.985 88.5217C228.095 86.6927 228.091 84.5521 227.911 82.4256C227.695 79.8811 227.221 77.282 226.342 75.25C225.478 73.2513 224.083 71.5113 221.891 71.3127C219.809 71.1239 217.461 72.3899 214.801 75.0831C214.224 75.3883 213.816 75.4842 213.541 75.4883C213.279 75.4923 213.1 75.4152 212.941 75.2741C212.541 74.9184 212.2 74.0929 211.987 72.7553C211.784 71.4792 211.732 69.9918 211.692 68.5704C211.689 68.4646 211.687 68.3587 211.684 68.2528C211.651 67.0358 211.619 65.8283 211.466 64.9973C211.432 64.2082 211.447 63.3362 211.464 62.3883C211.47 62.0431 211.476 61.6877 211.48 61.3227C211.496 59.958 211.479 58.4933 211.28 57.1083C211.081 55.7262 210.692 54.3507 209.911 53.2019C209.117 52.0344 207.955 51.1555 206.33 50.7253C204.279 50.0507 202.609 50.6521 201.252 51.7476C200.068 52.7046 199.056 54.0935 198.15 55.338C198.068 55.4498 197.988 55.5605 197.908 55.6695C196.882 57.0721 195.986 58.2174 195 58.8261C194.535 59.1133 194.079 59.2603 193.597 59.2629C193.124 59.2654 192.55 59.1288 191.843 58.7302C186.912 54.9456 186.101 49.0533 186.251 42.3085C186.288 40.6294 186.383 38.9211 186.481 37.1969L186.491 37.0265C186.586 35.364 186.682 33.687 186.725 32.0379C186.813 28.6417 186.683 25.2799 185.829 22.2506C184.367 16.3521 181.488 10.3813 177.192 6.27115C172.86 2.12562 167.089 -0.11248 160.034 1.55477C146.175 4.33428 134.321 14.5007 129.128 27.5082C128.724 28.164 128.367 28.9689 128.032 29.7304L127.989 29.827C127.642 30.617 127.304 31.3847 126.916 32.0698C126.11 33.4936 125.32 34.167 124.256 34.0814C124.065 34.0051 123.814 33.8202 123.499 33.4727C123.196 33.138 122.915 32.7472 122.621 32.337C122.031 29.8609 120.39 27.712 118.322 26.7563C117.244 26.2581 116.033 26.0803 114.817 26.3888C113.599 26.6976 112.467 27.4704 111.504 28.7143L111.504 28.7142L111.496 28.7248C106.179 35.7853 105.263 45.1333 105.413 53.4679L105.413 53.5072L105.417 53.5464C105.594 55.3703 105.76 57.3665 105.794 59.1536C105.829 60.9818 105.722 62.4468 105.43 63.2884C105.322 63.5987 105.226 63.7163 105.19 63.753C105.146 63.7466 105.056 63.7206 104.901 63.6319C104.55 63.4312 104.044 62.9982 103.366 62.1973C102.698 61.4083 101.907 60.3137 100.975 58.8512L100.966 58.8369L100.957 58.8229C100.88 58.7115 100.804 58.6005 100.728 58.4898C98.9391 55.8833 97.275 53.4589 96.3263 50.4974C95.5516 46.8872 92.5908 43.4727 89.137 41.6988C85.6383 39.9018 81.334 39.6651 78.1626 42.9819L78.1389 43.0067L78.117 43.033C75.9347 45.6535 73.8197 48.6204 72.4884 51.8416C70.5202 55.9932 69.5418 60.6664 68.8775 65.4194C68.5648 67.656 68.3197 69.9281 68.0767 72.1799C68.0607 72.3278 68.0448 72.4756 68.0288 72.6233C67.7692 75.0264 67.5069 77.404 67.1611 79.7259C65.7753 89.0291 63.0872 97.1361 54.278 101.613L54.2488 101.628L54.2207 101.645C47.6847 105.525 40.2828 105.924 32.794 104.995C28.2109 104.105 23.3823 103.069 19.1359 101.165C14.897 99.2636 11.3072 96.5267 9.1417 92.268C5.24049 84.5476 4.6177 74.1287 7.36952 65.1373C10.1113 56.1787 16.132 48.8264 25.3615 46.852C32.5619 46.3536 41.638 48.0976 48.6085 52.1196C55.5747 56.1392 60.2719 62.3101 59.2109 70.7014C58.0049 78.1344 53.1745 82.9367 45.7002 85.2323C39.292 87.0545 34.5169 86.7252 31.1687 85.3082C27.8332 83.8966 25.8192 81.3685 24.9611 78.5738C23.2189 72.8994 26.2072 66.3056 32.6791 65.3209C34.0493 65.2218 35.1003 65.4995 35.9104 65.988C36.7333 66.4842 37.3746 67.2389 37.846 68.1883C38.8021 70.1139 39.001 72.734 38.6192 75.0743C38.43 76.2341 38.1053 77.2777 37.6966 78.0894C37.2778 78.9213 36.8234 79.4077 36.4344 79.6109C36.1259 79.772 35.7817 79.8035 35.2916 79.4841C34.7362 79.1221 34.0249 78.3143 33.2439 76.7729L32.6822 75.6645L31.7196 76.4502C30.8945 77.1236 30.3776 77.9303 30.2001 78.8094C30.0231 79.6858 30.2029 80.5382 30.6001 81.2683C31.3801 82.7018 33.0215 83.7335 34.8486 83.8999L34.8815 83.9029L34.9146 83.9037C36.9814 83.9547 38.6707 83.2293 39.9585 82.0127C41.2264 80.815 42.0674 79.1801 42.5597 77.437C43.5309 73.9985 43.2253 69.844 41.787 67.0059C39.9948 62.468 36.1496 60.7193 32.2943 61.0103C28.4954 61.2969 24.6404 63.5535 22.5767 67.0137L22.5549 67.0503L22.5362 67.0887C19.8952 72.5215 19.5184 77.1771 20.8458 80.9342C22.173 84.6905 25.1404 87.3688 28.8236 88.9719C36.137 92.1551 46.5533 91.2385 53.9649 85.9323C62.7155 79.9446 65.0669 71.2236 62.95 63.3526C60.8484 55.5384 54.3632 48.6162 45.5794 46.021C45.0124 45.8479 44.4334 45.6683 43.8442 45.4854C40.2584 44.3726 36.2931 43.1421 32.3392 42.5694C27.7166 41.8999 22.9709 42.1045 18.7026 44.5107L18.6988 44.5128C3.68858 53.0599 -1.02288 71.1554 2.61591 86.9764C4.31754 97.7824 11.6708 103.636 20.5719 106.833C29.3819 109.998 39.8589 110.627 48.264 110.937C60.2797 115.342 71.4106 112.254 82.197 108C84.4951 107.093 86.7516 106.145 88.9993 105.201C92.1171 103.891 95.2179 102.588 98.3895 101.414C103.794 99.4118 109.209 97.8629 114.755 97.4746L114.807 97.4709L114.858 97.462C122.883 96.0567 130.952 96.5357 139.072 97.6533C143.078 98.2047 147.082 98.9091 151.097 99.6155L151.26 99.6442C155.31 100.357 159.373 101.07 163.425 101.618C177.731 104.628 192.212 105.714 206.725 106.442C214.233 107.591 225.232 108.119 235.655 106.77C246.041 105.426 256.141 102.183 261.474 95.5356L261.491 95.5145L261.507 95.4925C262.646 93.9032 263.925 92.3608 265.24 90.7852L265.4 90.5928C266.656 89.0878 267.938 87.5501 269.113 85.9523C271.559 82.6227 273.602 78.9439 274.062 74.4834C275.566 64.7946 275.224 53.6303 265.998 47.1201C258.886 41.4749 251.912 38.9911 245.505 40.1287C239.075 41.2702 233.515 46.004 229.128 54.1238L229.117 54.1458L229.106 54.1683C225.561 61.5947 227.012 68.4142 231.4 72.2653C235.776 76.106 242.777 76.7344 249.8 72.4324C251.733 71.3971 252.933 69.9023 253.467 68.2216C253.997 66.549 253.844 64.7686 253.214 63.1837C251.964 60.0385 248.729 57.4478 244.705 57.887L244.588 57.8998L244.478 57.9393C242.073 58.7976 240.526 60.085 239.692 61.5405C238.859 62.9932 238.783 64.539 239.197 65.7926C239.598 67.0067 240.523 68.0877 241.802 68.3261C243.178 68.5824 244.457 67.7903 245.35 66.273L245.746 65.5998L245.188 65.0526C244.943 64.8119 244.689 64.5635 244.43 64.3107C244.286 64.1697 244.14 64.0273 243.994 63.884C244.806 62.9509 245.583 62.6031 246.203 62.5403C246.957 62.464 247.698 62.7848 248.28 63.4171C249.464 64.7028 249.749 66.9892 247.926 68.6053C245.781 70.3789 242.56 71.4714 239.57 71.3575C236.603 71.2445 234.03 69.9666 232.833 67.18C231.121 63.1145 231.691 59.0919 233.559 55.4323C235.439 51.7506 238.617 48.4784 242.003 46.0483L242.012 46.0416C245.989 43.1179 250.67 43.2693 255.188 45.1233C259.71 46.9788 263.93 50.4978 266.759 54.041C272.222 61.9522 271.515 73.618 266.528 81.7287C263.255 86.0069 259.952 90.242 256.419 94.2665C251.081 99.1252 242.703 101.389 235.385 101.738C235.384 101.254 235.389 100.77 235.394 100.285C235.396 100.184 235.397 100.083 235.398 99.982C235.407 99.2634 235.415 98.5428 235.408 97.8428C235.39 96.2567 235.29 94.6785 234.876 93.29C234.453 91.8745 233.69 90.6139 232.338 89.7398C231.223 89.0197 229.789 88.6146 227.985 88.5217ZM105.223 63.7532C105.223 63.754 105.218 63.7553 105.206 63.7547C105.216 63.7519 105.222 63.7523 105.223 63.7532Z" stroke="#8E7564" stroke-width="2"/>
</svg>
