<svg width="305" height="128" viewBox="0 0 305 128" fill="none" xmlns="http://www.w3.org/2000/svg">
<g opacity="0.9">
<path d="M304.111 86.0817C303.171 95.337 295.639 101.512 290.529 108.639C279.392 122.52 247.721 122.708 231.413 120.202C215.465 119.402 199.612 118.213 183.969 114.918C166.232 112.523 148.232 107.217 130.294 110.358C105.353 112.105 83.3112 134.685 57.6172 125.137C39.0896 124.459 11.93 122.43 8.38415 99.7237C4.44775 82.67 9.55885 63.3615 25.4989 54.2849C34.2788 49.3353 45.223 53.3161 54.1398 56.0374C72.7047 61.5188 81.4628 85.2839 63.0286 97.8873C47.3732 109.107 18.9129 101.711 30.1542 78.5865C34.3053 71.6263 45.7691 69.4369 49.2916 78.4668C52.2058 84.1395 50.6655 95.6574 42.7787 95.463C39.4148 95.1567 36.9612 91.661 39.9392 89.2305C47.0869 103.338 53.9422 74.0195 40.1757 75.0753C24.2916 77.4374 26.0948 107.269 54.899 99.0706C63.4409 96.4504 69.1043 90.882 70.5015 82.2283C72.9987 62.612 48.3379 53.652 32.1146 54.8089C10.7553 59.3107 4.63912 88.7252 13.489 106.236C18.5379 116.166 30.1791 118.836 40.2519 120.791C48.593 121.83 57.0151 121.416 64.4989 116.973C84.8328 106.639 76.6053 79.462 84.99 61.8189C86.3887 58.4228 88.6354 55.2568 91.0066 52.4096C97.0683 46.0698 107.583 52.9849 109.084 60.1799C110.225 63.7751 112.277 66.6721 114.323 69.6561C122.624 82.6902 121.994 71.1676 121.216 63.1391C121.052 54.0377 122.07 44.1027 127.671 36.6651C131.41 31.8353 136.907 35.376 137.982 40.4283C138.688 41.4095 139.538 42.6659 140.566 42.9629C144.423 43.4248 145.471 37.7754 147.128 35.1677C152.676 21.1773 165.422 10.2363 180.296 7.26C194.984 3.77679 204.17 16.4936 207.309 29.1809C210.89 41.8464 202.514 60.8439 214.362 69.8505C221.826 74.161 223.232 58.7493 230.556 61.2016C236.741 62.8095 235.175 70.9701 235.412 75.9399C236.107 79.4371 234.46 91.322 240.833 87.7657C252.52 75.8062 254.246 94.0339 253.451 102.705C263.177 102.565 261.5 109.911 261.671 117.269C270.104 117.067 280.22 114.562 286.622 108.702C290.553 104.229 294.22 99.5247 297.837 94.7959C303.523 85.5903 304.392 72.2592 298.066 63.1329C291.671 55.1028 278.924 47.107 269.377 54.1247C261.747 59.6015 254.875 68.9859 258.945 78.6378C261.997 85.7535 272.092 84.8672 277.231 80.6049C282.32 76.1203 275.591 67.672 270.738 74.6912C271.417 75.3599 272.12 76.0425 272.744 76.6552C269.372 82.3885 263.292 72.6013 273.102 69.0994C280.78 68.2613 285.645 78.9706 278.028 83.0183C263.242 92.1011 249.41 79.9938 256.854 64.4002C266.298 46.9173 280.326 44.86 295.692 57.0715C305.288 63.8233 305.76 75.4827 304.111 86.0817Z" fill="#EEE7D3"/>
<path d="M249.853 97.0442C249.98 95.0202 249.979 92.637 249.778 90.2698C249.542 87.4819 249.023 84.6416 248.064 82.4256C247.12 80.2428 245.611 78.376 243.261 78.163C241.018 77.9597 238.466 79.3245 235.547 82.2828C234.899 82.6278 234.431 82.741 234.107 82.7459C233.794 82.7506 233.575 82.6569 233.383 82.4862C232.915 82.0711 232.538 81.1337 232.304 79.6644C232.08 78.2568 232.022 76.6182 231.979 75.0592C231.976 74.944 231.973 74.8286 231.97 74.7135C231.934 73.3707 231.898 72.05 231.731 71.1462C231.693 70.2752 231.71 69.3118 231.728 68.268C231.735 67.8896 231.742 67.5005 231.747 67.1015C231.763 65.6046 231.745 64.0035 231.528 62.4915C231.311 60.9823 230.887 59.4891 230.041 58.2453C229.183 56.983 227.926 56.032 226.164 55.5661C223.95 54.8371 222.15 55.4832 220.681 56.6704C219.391 57.7121 218.289 59.2257 217.292 60.5938C217.203 60.7159 217.115 60.8368 217.028 60.9562C215.904 62.4922 214.91 63.7659 213.809 64.4456C213.287 64.7684 212.769 64.9366 212.219 64.9396C211.678 64.9425 211.029 64.7856 210.24 64.339C204.783 60.1546 203.894 53.6408 204.059 46.2337C204.099 44.3891 204.204 42.5127 204.312 40.6207L204.323 40.4359C204.427 38.6105 204.532 36.7708 204.579 34.962C204.676 31.2371 204.533 27.559 203.6 24.2486C201.998 17.7869 198.845 11.2522 194.148 6.75769C189.414 2.22776 183.113 -0.215286 175.406 1.60659C160.227 4.65033 147.24 15.788 141.555 30.0374C141.114 30.7514 140.724 31.6314 140.354 32.4715L140.306 32.5797C139.926 33.4451 139.553 34.2915 139.125 35.0476C138.234 36.6231 137.334 37.4093 136.099 37.303C135.866 37.2141 135.573 36.9969 135.218 36.6045C134.88 36.2318 134.568 35.7969 134.245 35.346C134.242 35.342 134.239 35.338 134.236 35.3339C133.598 32.6336 131.812 30.2937 129.568 29.2568C128.402 28.7181 127.096 28.5271 125.786 28.8595C124.474 29.1921 123.25 30.0257 122.204 31.3767L122.204 31.3767L122.196 31.3873C116.381 39.108 115.375 49.3381 115.539 58.4808L115.54 58.5201L115.544 58.5592C115.738 60.5613 115.92 62.7552 115.958 64.7204C115.997 66.7266 115.88 68.3501 115.553 69.2918C115.394 69.7477 115.25 69.8566 115.23 69.8694C115.229 69.8695 115.227 69.8696 115.225 69.8696C115.22 69.8697 115.211 69.8695 115.198 69.868C115.144 69.8615 115.025 69.8322 114.832 69.7214C114.432 69.4929 113.868 69.0077 113.121 68.1253C112.385 67.255 111.514 66.0499 110.49 64.4427L110.481 64.4283L110.471 64.4143C110.387 64.2908 110.302 64.1677 110.218 64.045C108.256 61.1863 106.421 58.5138 105.376 55.2477C104.535 51.318 101.307 47.5902 97.536 45.6534C93.72 43.6934 89.0477 43.444 85.6073 47.0422L85.5836 47.067L85.5616 47.0933C83.1688 49.9665 80.8543 53.2145 79.3989 56.7372C77.2445 61.2805 76.1723 66.3982 75.4435 71.6119C75.1007 74.0648 74.8317 76.5568 74.5651 79.0283C74.5475 79.1905 74.53 79.3527 74.5125 79.5148C74.2276 82.1518 73.9397 84.7629 73.5598 87.3132C72.0379 97.5302 69.0811 106.47 59.3693 111.406L59.3401 111.42L59.3119 111.437C52.1115 115.712 43.962 116.147 35.7326 115.126C30.7022 114.15 25.3918 113.011 20.7192 110.916C16.054 108.823 12.0938 105.807 9.7042 101.107C5.41015 92.6094 4.72667 81.1489 7.75307 71.2604C10.7695 61.4045 17.4 53.2995 27.5776 51.1253C35.4982 50.5755 45.4817 52.4927 53.1519 56.9185C60.8178 61.3418 66.0069 68.147 64.8351 77.4091C63.505 85.6103 58.1718 90.907 49.9392 93.4352C42.8916 95.4394 37.6271 95.081 33.9263 93.5148C30.2381 91.954 28.0085 89.1566 27.0587 86.0632C25.133 79.7913 28.434 72.4831 35.6108 71.3935C37.134 71.2827 38.3091 71.5908 39.2182 72.1391C40.1402 72.695 40.8556 73.5388 41.3794 74.5938C42.4404 76.7307 42.6579 79.6283 42.2368 82.2098C42.0279 83.4902 41.669 84.6453 41.2152 85.5468C40.7513 86.4684 40.2407 87.0226 39.788 87.259C39.416 87.4533 39.0007 87.4835 38.4357 87.1152C37.8052 86.7043 37.015 85.8002 36.1547 84.1023L35.593 82.9938L34.6304 83.7795C33.7392 84.5068 33.1864 85.3734 32.9967 86.3124C32.8076 87.2486 32.9992 88.1609 33.4258 88.945C34.2646 90.4864 36.0351 91.6026 38.0115 91.7826L38.0444 91.7856L38.0775 91.7864C40.3194 91.8416 42.1484 91.0556 43.5436 89.7377C44.9187 88.4386 45.8344 86.6618 46.3713 84.7605C47.4319 81.0056 47.0958 76.4696 45.5281 73.3796C43.5796 68.4408 39.4017 66.5404 35.2068 66.8569C31.0683 67.1692 26.8667 69.6289 24.6188 73.398L24.5969 73.4346L24.5783 73.473C21.6878 79.4191 21.2818 84.5007 22.7274 88.5925C24.1729 92.6835 27.406 95.6052 31.4295 97.3564C39.4236 100.836 50.8191 99.8344 58.9256 94.0302C68.4945 87.483 71.0607 77.9548 68.748 69.3556C66.4506 60.8132 59.3589 53.2419 49.7509 50.4034C49.1278 50.2132 48.4918 50.0158 47.8447 49.815C43.9091 48.5937 39.5656 47.2459 35.2348 46.6186C30.1729 45.8855 24.9894 46.1116 20.3313 48.7375L20.3276 48.7396C3.90215 58.0925 -1.26307 77.9022 2.72519 95.2373C4.58421 107.051 12.619 113.454 22.3679 116.956C32.0257 120.425 43.5168 121.114 52.7442 121.454C65.9006 126.283 78.0911 122.906 89.9286 118.237C92.4458 117.244 94.921 116.204 97.3877 115.168C100.812 113.729 104.22 112.298 107.701 111.008C113.636 108.81 119.588 107.107 125.688 106.68L125.739 106.676L125.79 106.667C134.612 105.122 143.479 105.649 152.394 106.876C156.793 107.482 161.188 108.255 165.593 109.03L165.773 109.062C170.22 109.844 174.678 110.626 179.123 111.227C194.818 114.53 210.707 115.722 226.636 116.521C234.868 117.782 246.931 118.361 258.362 116.881C269.755 115.406 280.806 111.851 286.633 104.588L286.65 104.567L286.665 104.545C287.918 102.797 289.324 101.102 290.766 99.3733L290.944 99.1608C292.321 97.5092 293.727 95.8245 295.013 94.0743C297.694 90.4258 299.925 86.4045 300.426 81.5331C302.077 70.9035 301.693 58.704 291.615 51.5943C283.821 45.407 276.195 42.6978 269.201 43.9395C262.184 45.1853 256.103 50.3528 251.297 59.2486L251.285 59.2706L251.275 59.2931C247.399 67.4117 248.992 74.8461 253.769 79.0382C258.533 83.2199 266.169 83.9153 273.848 79.2102C275.95 78.0851 277.251 76.4635 277.828 74.6442C278.403 72.8331 278.238 70.9025 277.553 69.1809C276.194 65.7625 272.681 62.9526 268.317 63.429L268.2 63.4418L268.089 63.4813C265.467 64.4173 263.79 65.8173 262.889 67.3901C261.989 68.9601 261.908 70.6276 262.354 71.9776C262.786 73.2879 263.78 74.4394 265.138 74.6926C266.593 74.9636 267.962 74.1304 268.929 72.4858L269.325 71.8126L268.768 71.2654C268.5 71.002 268.221 70.7298 267.937 70.4525C267.757 70.2765 267.575 70.0984 267.392 69.9193C268.317 68.829 269.214 68.4155 269.94 68.3419C270.803 68.2545 271.645 68.6231 272.301 69.3351C273.631 70.7802 273.953 73.3535 271.904 75.1686C269.531 77.1315 265.972 78.3384 262.667 78.2125C259.385 78.0875 256.52 76.6714 255.188 73.5692C253.294 69.0752 253.927 64.63 255.987 60.594C258.059 56.5361 261.559 52.9341 265.284 50.2609L265.293 50.2542C269.694 47.019 274.87 47.192 279.847 49.2347C284.829 51.279 289.474 55.1538 292.587 59.0536C298.612 67.7749 297.827 80.6241 292.336 89.5521C288.742 94.2502 285.113 98.903 281.231 103.325C275.325 108.703 266.05 111.19 257.981 111.558C257.979 110.992 257.984 110.426 257.991 109.86L257.995 109.525C258.004 108.737 258.014 107.948 258.005 107.182C257.986 105.443 257.876 103.722 257.425 102.212C256.966 100.675 256.141 99.314 254.68 98.3703C253.456 97.579 251.869 97.1357 249.853 97.0442Z" stroke="#8E7564" stroke-width="2"/>
</g>
<path d="M125.469 80.9688C125.469 80.7812 125.469 80.4766 125.469 80.0547C125.484 79.6172 125.492 79.1641 125.492 78.6953C125.492 78.2109 125.492 77.7578 125.492 77.3359C125.508 76.9141 125.516 76.6172 125.516 76.4453C125.531 76.3359 125.57 76.1719 125.633 75.9531C125.695 75.7188 125.766 75.4922 125.844 75.2734C125.938 75.0547 126.055 74.8672 126.195 74.7109C126.352 74.5391 126.539 74.4531 126.758 74.4531C127.273 74.4531 127.758 74.5938 128.211 74.875C128.664 75.1562 129.102 75.5312 129.523 76C129.945 76.4531 130.344 76.9609 130.719 77.5234C131.109 78.0859 131.492 78.6484 131.867 79.2109C132.242 79.7578 132.609 80.2812 132.969 80.7812C133.328 81.2656 133.688 81.6562 134.047 81.9531C134.438 81.7812 134.742 81.4688 134.961 81.0156C135.18 80.5469 135.359 80.0156 135.5 79.4219C135.641 78.8125 135.766 78.1875 135.875 77.5469C136 76.8906 136.164 76.2891 136.367 75.7422C136.57 75.1953 136.836 74.75 137.164 74.4062C137.508 74.0469 137.977 73.8672 138.57 73.8672C139.273 73.8672 139.906 74.1406 140.469 74.6875C141.047 75.2344 141.562 75.9297 142.016 76.7734C142.469 77.6172 142.852 78.5547 143.164 79.5859C143.492 80.6172 143.766 81.6094 143.984 82.5625C144.203 83.5156 144.367 84.375 144.477 85.1406C144.586 85.9062 144.641 86.4531 144.641 86.7812C144.641 86.9219 144.633 87.0781 144.617 87.25C144.602 87.4062 144.562 87.5547 144.5 87.6953C144.438 87.8203 144.336 87.9219 144.195 88C144.055 88.0625 143.852 88.0547 143.586 87.9766C143.508 87.9609 143.414 87.9219 143.305 87.8594C143.211 87.7812 143.109 87.6875 143 87.5781C142.891 87.4688 142.797 87.3672 142.719 87.2734C142.641 87.1641 142.602 87.0703 142.602 86.9922C142.461 86.2266 142.305 85.375 142.133 84.4375C141.961 83.5 141.742 82.5547 141.477 81.6016C141.227 80.6328 140.906 79.6953 140.516 78.7891C140.125 77.8828 139.641 77.1016 139.062 76.4453C138.609 76.6953 138.25 77.0781 137.984 77.5938C137.734 78.0938 137.523 78.6484 137.352 79.2578C137.18 79.8516 137.023 80.4609 136.883 81.0859C136.742 81.7109 136.555 82.2812 136.32 82.7969C136.086 83.2969 135.789 83.7109 135.43 84.0391C135.07 84.3672 134.586 84.5312 133.977 84.5312C133.555 84.5312 133.141 84.3984 132.734 84.1328C132.344 83.8516 131.961 83.4922 131.586 83.0547C131.211 82.6016 130.844 82.1094 130.484 81.5781C130.141 81.0312 129.797 80.5 129.453 79.9844C129.125 79.4531 128.797 78.9609 128.469 78.5078C128.156 78.0547 127.836 77.6953 127.508 77.4297C127.383 77.9141 127.281 78.3438 127.203 78.7188C127.141 79.0781 127.086 79.4297 127.039 79.7734C127.008 80.1172 126.984 80.4688 126.969 80.8281C126.969 81.1875 126.969 81.5859 126.969 82.0234C126.969 82.6797 127.023 83.3359 127.133 83.9922C127.242 84.6328 127.359 85.2734 127.484 85.9141C127.609 86.5547 127.727 87.2031 127.836 87.8594C127.961 88.5 128.023 89.1484 128.023 89.8047V89.9922C127.992 90.0391 127.93 90.1172 127.836 90.2266C127.742 90.3203 127.641 90.4219 127.531 90.5312C127.438 90.6406 127.336 90.7422 127.227 90.8359C127.117 90.9141 127.039 90.9688 126.992 91C126.977 91.0156 126.945 91.0234 126.898 91.0234C126.852 91.0391 126.805 91.0469 126.758 91.0469C126.727 91.0469 126.688 91.0391 126.641 91.0234C126.594 91.0078 126.555 91 126.523 91C126.414 90.0938 126.297 89.2344 126.172 88.4219C126.047 87.6094 125.93 86.8047 125.82 86.0078C125.727 85.2109 125.641 84.4062 125.562 83.5938C125.5 82.7812 125.469 81.9062 125.469 80.9688ZM156.365 87.9766C155.771 88.3828 155.256 88.75 154.818 89.0781C154.396 89.3906 153.982 89.6562 153.576 89.875C153.17 90.0938 152.732 90.2578 152.263 90.3672C151.81 90.4766 151.248 90.5312 150.576 90.5312C149.123 90.5312 148.045 90.1484 147.342 89.3828C146.638 88.6016 146.287 87.4453 146.287 85.9141C146.287 85.3203 146.365 84.7031 146.521 84.0625C146.677 83.4219 146.904 82.7891 147.201 82.1641C147.513 81.5234 147.881 80.9219 148.302 80.3594C148.724 79.7812 149.201 79.2734 149.732 78.8359C150.263 78.3984 150.826 78.0547 151.42 77.8047C152.029 77.5391 152.67 77.4062 153.342 77.4062C154.467 77.5156 155.349 77.7969 155.99 78.25C156.631 78.6875 157.115 79.2578 157.443 79.9609C157.771 80.6484 157.998 81.4219 158.123 82.2812C158.248 83.125 158.342 84 158.404 84.9062C158.482 85.8125 158.576 86.7188 158.685 87.625C158.795 88.5312 159.021 89.3672 159.365 90.1328C159.162 90.6484 158.967 91.0078 158.779 91.2109C158.607 91.4297 158.412 91.4688 158.193 91.3281C157.974 91.1875 157.717 90.8438 157.42 90.2969C157.138 89.75 156.787 88.9766 156.365 87.9766ZM148.279 85.9609C148.279 86.8516 148.443 87.5078 148.771 87.9297C149.115 88.3359 149.717 88.5391 150.576 88.5391C151.217 88.5391 151.826 88.4297 152.404 88.2109C152.998 87.9766 153.513 87.6641 153.951 87.2734C154.388 86.8672 154.74 86.3828 155.006 85.8203C155.271 85.2578 155.404 84.6328 155.404 83.9453C155.404 83.6641 155.412 83.2734 155.427 82.7734C155.443 82.2578 155.412 81.75 155.334 81.25C155.256 80.75 155.107 80.3203 154.888 79.9609C154.67 79.5859 154.342 79.3984 153.904 79.3984C153.092 79.3984 152.342 79.6094 151.654 80.0312C150.967 80.4375 150.373 80.9609 149.873 81.6016C149.373 82.2422 148.982 82.9531 148.701 83.7344C148.42 84.5 148.279 85.2422 148.279 85.9609ZM160.566 79.1875C160.566 79.1406 160.574 79.1016 160.589 79.0703C160.589 79.0391 160.597 79 160.613 78.9531C160.675 78.875 160.769 78.7734 160.894 78.6484C161.019 78.5234 161.097 78.4609 161.128 78.4609H165.839C165.839 78.2891 165.816 78.0156 165.769 77.6406C165.722 77.2656 165.675 76.8516 165.628 76.3984C165.597 75.9453 165.589 75.4766 165.605 74.9922C165.621 74.4922 165.683 74.0469 165.792 73.6562C165.917 73.25 166.105 72.9219 166.355 72.6719C166.621 72.4062 166.988 72.2734 167.457 72.2734C167.457 73.8516 167.566 75.1172 167.785 76.0703C168.003 77.0234 168.292 77.7578 168.652 78.2734C169.027 78.7891 169.449 79.125 169.917 79.2812C170.386 79.4375 170.863 79.5078 171.347 79.4922C171.847 79.4609 172.332 79.3828 172.8 79.2578C173.269 79.1328 173.683 79.0469 174.042 79C174.417 78.9531 174.714 78.9922 174.933 79.1172C175.152 79.2266 175.261 79.5 175.261 79.9375C175.261 80.2656 175.183 80.5 175.027 80.6406C174.886 80.7812 174.605 80.8906 174.183 80.9688C174.058 80.9844 173.847 81.0156 173.55 81.0625C173.269 81.0938 172.949 81.125 172.589 81.1562C172.23 81.1875 171.847 81.2266 171.441 81.2734C171.035 81.3047 170.652 81.3359 170.292 81.3672C169.933 81.3984 169.605 81.4219 169.308 81.4375C169.011 81.4375 168.792 81.4375 168.652 81.4375C168.652 81.5156 168.644 81.6484 168.628 81.8359C168.613 82.0234 168.605 82.1484 168.605 82.2109C168.605 82.8984 168.714 83.5703 168.933 84.2266C169.152 84.8672 169.386 85.5078 169.636 86.1484C169.902 86.7891 170.144 87.4297 170.363 88.0703C170.582 88.7109 170.691 89.375 170.691 90.0625C170.691 90.1875 170.675 90.3203 170.644 90.4609C170.628 90.5859 170.582 90.7031 170.503 90.8125C170.441 90.9062 170.339 90.9766 170.199 91.0234C170.074 91.0859 169.894 91.0781 169.66 91C169.066 90.8438 168.621 90.5078 168.324 89.9922C168.042 89.4766 167.832 88.8672 167.691 88.1641C167.55 87.4453 167.457 86.6875 167.41 85.8906C167.363 85.0938 167.285 84.3516 167.175 83.6641C167.082 82.9609 166.925 82.3672 166.707 81.8828C166.488 81.3828 166.136 81.0781 165.652 80.9688L161.128 79.9375C161.066 79.9375 160.972 79.875 160.847 79.75C160.722 79.6094 160.644 79.5078 160.613 79.4453C160.597 79.4141 160.589 79.375 160.589 79.3281C160.574 79.2969 160.566 79.25 160.566 79.1875ZM176.954 77.7344C176.954 77.2812 176.923 76.8438 176.861 76.4219C176.798 75.9844 176.783 75.6016 176.814 75.2734C176.845 74.9297 176.962 74.6562 177.165 74.4531C177.384 74.25 177.775 74.1484 178.337 74.1484C178.509 74.5078 178.673 75.0547 178.829 75.7891C179.001 76.5234 179.165 77.3672 179.322 78.3203C179.478 79.2734 179.626 80.3125 179.767 81.4375C179.908 82.5469 180.033 83.6641 180.142 84.7891C180.267 85.9141 180.368 87.0234 180.447 88.1172C180.54 89.1953 180.611 90.1797 180.658 91.0703C180.142 91.4141 179.728 91.4375 179.415 91.1406C179.103 90.8438 178.845 90.3438 178.642 89.6406C178.439 88.9219 178.283 88.0547 178.173 87.0391C178.064 86.0078 177.954 84.9453 177.845 83.8516C177.751 82.7422 177.634 81.6562 177.493 80.5938C177.353 79.5156 177.173 78.5625 176.954 77.7344ZM192.194 87.9766C191.601 88.3828 191.085 88.75 190.647 89.0781C190.226 89.3906 189.812 89.6562 189.405 89.875C188.999 90.0938 188.562 90.2578 188.093 90.3672C187.64 90.4766 187.077 90.5312 186.405 90.5312C184.952 90.5312 183.874 90.1484 183.171 89.3828C182.468 88.6016 182.116 87.4453 182.116 85.9141C182.116 85.3203 182.194 84.7031 182.351 84.0625C182.507 83.4219 182.733 82.7891 183.03 82.1641C183.343 81.5234 183.71 80.9219 184.132 80.3594C184.554 79.7812 185.03 79.2734 185.562 78.8359C186.093 78.3984 186.655 78.0547 187.249 77.8047C187.858 77.5391 188.499 77.4062 189.171 77.4062C190.296 77.5156 191.179 77.7969 191.819 78.25C192.46 78.6875 192.944 79.2578 193.272 79.9609C193.601 80.6484 193.827 81.4219 193.952 82.2812C194.077 83.125 194.171 84 194.233 84.9062C194.312 85.8125 194.405 86.7188 194.515 87.625C194.624 88.5312 194.851 89.3672 195.194 90.1328C194.991 90.6484 194.796 91.0078 194.608 91.2109C194.437 91.4297 194.241 91.4688 194.022 91.3281C193.804 91.1875 193.546 90.8438 193.249 90.2969C192.968 89.75 192.616 88.9766 192.194 87.9766ZM184.108 85.9609C184.108 86.8516 184.272 87.5078 184.601 87.9297C184.944 88.3359 185.546 88.5391 186.405 88.5391C187.046 88.5391 187.655 88.4297 188.233 88.2109C188.827 87.9766 189.343 87.6641 189.78 87.2734C190.218 86.8672 190.569 86.3828 190.835 85.8203C191.101 85.2578 191.233 84.6328 191.233 83.9453C191.233 83.6641 191.241 83.2734 191.257 82.7734C191.272 82.2578 191.241 81.75 191.163 81.25C191.085 80.75 190.937 80.3203 190.718 79.9609C190.499 79.5859 190.171 79.3984 189.733 79.3984C188.921 79.3984 188.171 79.6094 187.483 80.0312C186.796 80.4375 186.202 80.9609 185.702 81.6016C185.202 82.2422 184.812 82.9531 184.53 83.7344C184.249 84.5 184.108 85.2422 184.108 85.9609ZM200.45 89.9922C199.966 88.5859 199.505 87.2734 199.067 86.0547C198.645 84.8203 198.27 83.6172 197.942 82.4453C197.63 81.2578 197.38 80.0547 197.192 78.8359C197.005 77.6172 196.911 76.3125 196.911 74.9219C196.911 74.8125 196.911 74.6172 196.911 74.3359C196.927 74.0391 196.934 73.7344 196.934 73.4219C196.934 73.1094 196.934 72.8125 196.934 72.5312C196.95 72.2344 196.958 72.0312 196.958 71.9219C197.098 71.6094 197.341 71.3203 197.684 71.0547C198.044 70.7891 198.403 70.6562 198.762 70.6562C198.762 71.8125 198.778 73.0469 198.809 74.3594C198.841 75.6562 198.934 76.9531 199.091 78.25C199.262 79.5469 199.528 80.8203 199.887 82.0703C200.262 83.3047 200.786 84.4375 201.458 85.4688C201.473 85.0938 201.489 84.6797 201.505 84.2266C201.52 83.7734 201.559 83.3203 201.622 82.8672C201.7 82.4141 201.817 81.9766 201.973 81.5547C202.13 81.1328 202.356 80.7578 202.653 80.4297C202.966 80.1016 203.364 79.8438 203.848 79.6562C204.348 79.4688 204.973 79.3828 205.723 79.3984C206.395 79.3984 206.997 79.5234 207.528 79.7734C208.075 80.0234 208.528 80.3672 208.887 80.8047C209.262 81.2266 209.544 81.7266 209.731 82.3047C209.934 82.8672 210.036 83.4688 210.036 84.1094C210.036 84.9688 209.825 85.8125 209.403 86.6406C208.981 87.4688 208.419 88.2109 207.716 88.8672C207.028 89.5234 206.255 90.0547 205.395 90.4609C204.536 90.8516 203.661 91.0469 202.77 91.0469C202.317 91.0469 201.88 90.9688 201.458 90.8125C201.036 90.6406 200.7 90.3672 200.45 89.9922ZM206.005 81.4375C205.692 81.6094 205.364 81.8125 205.02 82.0469C204.677 82.2812 204.356 82.6484 204.059 83.1484C203.778 83.6328 203.536 84.2969 203.333 85.1406C203.13 85.9844 203.005 87.1016 202.958 88.4922C202.989 88.4922 203.067 88.5 203.192 88.5156C203.333 88.5312 203.427 88.5391 203.473 88.5391C203.895 88.5391 204.372 88.4062 204.903 88.1406C205.45 87.875 205.973 87.5469 206.473 87.1562C206.989 86.7656 207.434 86.3359 207.809 85.8672C208.184 85.3828 208.411 84.9219 208.489 84.4844C208.536 84.2188 208.481 83.9141 208.325 83.5703C208.169 83.2266 207.958 82.8984 207.692 82.5859C207.442 82.2578 207.161 81.9844 206.848 81.7656C206.552 81.5469 206.27 81.4375 206.005 81.4375Z" fill="#8E7564"/>
</svg>
