<svg width="372" height="159" viewBox="0 0 372 159" fill="none" xmlns="http://www.w3.org/2000/svg">
<path d="M337.21 154.826C304.138 165.651 270.753 150.384 237.691 146.279C189.973 138.398 142.318 143.661 94.6714 148.598C70.7767 148.505 17.8869 155.163 5.63948 123.235C0.928088 108.36 -1.84882 91.7253 1.42181 75.8575C4.97508 59.2747 8.80918 39.1098 23.6445 34.3945C32.7736 30.4228 41.5393 36.8436 47.3776 46.0127C56.2553 61.5408 51.3236 87.6324 40.0398 99.0297C23.393 109.463 20.5537 64.9519 32.1183 56.6285C40.7537 49.5545 48.0805 66.8143 42.7561 75.3848C40.5519 79.1118 38.3274 78.6153 36.4351 73.4821C37.9346 73.1828 39.3038 72.9096 40.7134 72.6222C43.36 68.4153 41.0364 59.9873 36.8995 59.0752C27.5795 59.9873 26.1809 81.8198 30.2664 90.7039C37.2005 106.308 45.3238 88.136 47.1849 78.145C57.1987 49.02 29.5415 22.4462 13.7995 46.8821C0.50411 69.0923 -3.13907 128.791 23.9657 135.017C34.2914 136.659 46.5609 133.794 52.9112 122.017C74.53 89.5684 74.33 36.264 105.197 13.7949C113.159 8.32432 121.543 11.2556 129.051 16.0231C143.806 22.4438 142.648 47.7016 141.642 64.0754C150.902 58.3578 159.91 49.8371 170.588 52.7945C183.793 57.2627 188.06 65.0802 190.123 80.3066C202.936 68.7645 215.547 60.2985 230.432 70.8762C242.077 76.9074 245.961 90.8986 248.468 105.683C251.599 119.686 260.356 125.014 270.006 128.91C272.109 129.756 273.216 127.475 274.605 126.005C284.79 111.232 301.378 109.448 309.499 126.319C314.4 136.908 321.567 144.659 330.494 149.4C341.123 153.947 347.231 136.205 352.274 127.074C358.775 110.843 362.892 91.8892 357.406 74.2778C344.916 41.5683 317.419 62.6597 319.3 94.248C319.713 104.564 327.554 117.225 336.129 112.484C339.662 109.931 343.637 99.9775 340.618 95.6542C336.019 95.7065 336.955 101.685 334.881 104.355C328.923 96.3716 341.956 83.3828 344.764 96.0581C346.636 114.503 327.906 124.924 319.774 108.434C311.168 91.3832 317.801 65.408 331.781 56.3933C347.119 46.4807 362.257 65.8 362.789 85.6513C365.271 112.805 353.535 138.882 337.21 154.826Z" fill="#EEE7D3"/>
<path d="M343.558 147.939L343.78 147.866L343.946 147.704C360.459 131.577 372.325 105.226 369.826 77.7545C369.546 67.6245 365.553 57.6008 359.6 51.3344C356.614 48.1916 353.094 45.9521 349.258 45.1736C345.4 44.3906 341.314 45.1061 337.276 47.7152C330 52.4071 324.74 61.4218 322.372 71.33C320.003 81.2493 320.483 92.2576 324.917 101.044C327.036 105.337 329.903 107.991 333.066 109.152C336.232 110.314 339.57 109.934 342.521 108.396C348.404 105.328 352.767 97.6835 351.797 88.1194L351.791 88.0612L351.778 88.004C351.043 84.6853 349.553 82.6753 347.512 82.086C345.509 81.5074 343.45 82.4422 341.892 83.8892C338.801 86.7602 336.725 92.5708 340.117 97.1157L340.902 98.1684L341.708 97.1311C342.347 96.308 342.72 95.2811 343.002 94.3215C343.121 93.9183 343.23 93.5029 343.335 93.1037C343.357 93.0219 343.378 92.9407 343.399 92.8605C343.526 92.3804 343.65 91.9254 343.79 91.4963C344.076 90.6236 344.397 89.9632 344.828 89.519C345.134 89.2035 345.531 88.9597 346.118 88.8623C346.525 89.6654 346.727 90.6982 346.725 91.9089C346.722 93.3631 346.422 94.9892 345.915 96.5937C345.408 98.1953 344.707 99.7409 343.927 101.03C343.155 102.306 342.346 103.266 341.628 103.801C339.753 104.82 337.97 104.886 336.308 104.304C334.594 103.704 332.941 102.39 331.473 100.551C328.531 96.8661 326.536 91.3297 326.337 86.3703L326.337 86.3605L326.336 86.3508C325.41 70.7993 331.734 58.0424 339.532 53.1612C343.39 50.7467 347.57 50.2655 351.513 52.2154C355.499 54.1868 359.425 58.7326 362.498 66.7675C367.863 84.026 363.857 102.681 357.407 118.807C356.546 120.37 355.649 122.189 354.717 124.08C354.28 124.966 353.835 125.868 353.383 126.767C351.939 129.635 350.396 132.514 348.696 134.957C346.987 137.412 345.177 139.341 343.232 140.398C341.352 141.42 339.31 141.651 336.963 140.659C328.268 136.03 321.257 128.461 316.445 118.061L316.441 118.054L316.438 118.047C312.248 109.343 305.753 105.261 298.835 105.458C292.004 105.653 285.069 110.017 279.862 117.538C279.561 117.862 279.272 118.219 279.01 118.543C278.958 118.606 278.908 118.668 278.859 118.729C278.527 119.136 278.234 119.48 277.938 119.748C277.645 120.015 277.401 120.159 277.185 120.219C276.992 120.273 276.754 120.28 276.417 120.145C271.632 118.213 267.167 115.963 263.516 112.522C259.887 109.101 257.013 104.457 255.487 97.6525C254.231 90.2515 252.618 82.9633 249.826 76.7497C247.035 70.5358 243.039 65.3363 236.992 62.183C229.31 56.7467 222.12 56.1771 215.218 58.5115C208.884 60.6534 202.842 65.2241 196.884 70.4834C195.84 63.7085 194.252 58.351 191.401 54.1198C188.272 49.4755 183.696 46.2936 176.946 44.0096L176.919 44.0006L176.892 43.9931C171.208 42.4187 166.012 43.9251 161.158 46.4575C158.733 47.7224 156.367 49.2576 154.049 50.8174C153.493 51.1913 152.941 51.5661 152.391 51.9392C151.185 52.758 149.991 53.5688 148.795 54.3455C149.254 46.4918 149.618 36.8873 148.283 28.3251C146.846 19.1109 143.383 10.746 135.56 7.29993C127.997 2.51141 119.137 -0.685672 110.668 5.133L110.657 5.14071L110.646 5.14872C94.9218 16.595 87.1787 35.8405 80.6719 56.019C79.4959 59.666 78.3601 63.3431 77.2259 67.015C72.0469 83.7813 66.9016 100.439 58.1166 113.624L58.0908 113.663L58.0686 113.704C51.9933 124.972 40.2504 127.785 30.194 126.197C23.8239 124.722 19.1847 120.105 16.0124 113.474C12.8289 106.819 11.1735 98.2255 10.7692 89.062C9.95963 70.7149 14.1757 50.4602 20.6867 39.5722C24.5022 33.656 28.9376 30.969 33.2077 30.5191C37.4979 30.0671 41.8412 31.8494 45.5004 35.3164C52.8303 42.2614 57.1636 55.7691 52.2768 69.9822L52.2529 70.0518L52.2394 70.1242C51.3233 75.0421 48.8704 81.8962 45.8904 85.5532C44.3747 87.4132 42.9877 88.1349 41.7973 87.9093C40.556 87.6741 38.9323 86.3181 37.2179 82.4601L37.2179 82.46L37.2126 82.4483C35.2784 78.2424 34.5959 70.7775 35.5824 64.2109C36.0736 60.941 36.9661 57.9884 38.2535 55.8266C39.5016 53.7306 41.0438 52.4917 42.8701 52.2515C43.5533 52.4467 44.2355 52.9494 44.8583 53.7577C45.5225 54.6198 46.068 55.7673 46.4247 57.0444C47.1035 59.4747 47.0341 62.1117 46.1088 63.8946C44.8828 64.1436 43.6736 64.3849 42.3652 64.6461L42.277 64.6637L41.1299 64.8927L41.5344 65.9902C42.0242 67.3187 42.5549 68.4034 43.136 69.214C43.709 70.0134 44.4019 70.6442 45.2459 70.8811C46.1421 71.1327 46.9971 70.8844 47.7292 70.3536C48.4326 69.8437 49.0666 69.0483 49.649 68.0653C51.1062 65.7144 51.6684 62.8248 51.5918 59.979C51.5149 57.1254 50.7947 54.2418 49.6046 51.8559C48.4244 49.4896 46.7193 47.4938 44.5944 46.6087C42.3908 45.6909 39.937 46.0502 37.5463 47.9975C34.355 50.3112 32.3055 54.9604 31.1957 60.1868C30.071 65.4832 29.8597 71.6134 30.5449 77.1479C31.2255 82.6448 32.8122 87.7285 35.4307 90.7888C36.7584 92.3405 38.3943 93.4192 40.3421 93.6968C42.287 93.974 44.3887 93.4305 46.6084 92.0393L46.7065 91.9778L46.788 91.8956C52.6221 86.0028 56.7402 76.4106 58.295 66.3858C59.8502 56.3587 58.871 45.7032 54.2833 37.6787L54.2715 37.658L54.2587 37.6379C51.2839 32.966 47.5225 28.9253 43.268 26.5638C38.9967 24.1929 34.2119 23.5133 29.3304 25.6194C21.5334 28.1183 16.7164 34.6495 13.4189 42.4485C10.336 49.7401 8.505 58.3253 6.83592 66.1515C6.71713 66.7085 6.59915 67.2617 6.4816 67.8103L6.48157 67.8103L6.47999 67.8179C3.16072 83.9217 5.9871 100.745 10.7238 115.699L10.7327 115.728L10.7434 115.756C17.0775 132.268 33.8812 138.661 51.6946 141.008C64.692 142.721 78.5158 142.311 89.6301 141.981C93.7553 141.859 97.5072 141.747 100.705 141.76L100.759 141.76L100.812 141.755C101.95 141.637 103.088 141.519 104.226 141.401C150.756 136.573 197.139 131.76 243.565 139.428L243.585 139.431L243.605 139.434C251.82 140.454 260.067 142.169 268.359 144.007C269.974 144.365 271.591 144.728 273.209 145.091C279.89 146.59 286.6 148.096 293.308 149.298C309.982 152.285 326.79 153.427 343.558 147.939Z" stroke="#8E7564" stroke-width="2"/>
<path d="M77.3906 101.641C77.3906 101.484 77.3906 101.23 77.3906 100.879C77.4036 100.514 77.4102 100.137 77.4102 99.7461C77.4102 99.3424 77.4102 98.9648 77.4102 98.6133C77.4232 98.2617 77.4297 98.0143 77.4297 97.8711C77.4427 97.7799 77.4753 97.6432 77.5273 97.4609C77.5794 97.2656 77.638 97.0768 77.7031 96.8945C77.7812 96.7122 77.8789 96.556 77.9961 96.4258C78.1263 96.2826 78.2826 96.2109 78.4648 96.2109C78.8945 96.2109 79.2982 96.3281 79.6758 96.5625C80.0534 96.7969 80.418 97.1094 80.7695 97.5C81.1211 97.8776 81.4531 98.3008 81.7656 98.7695C82.0911 99.2383 82.4102 99.707 82.7227 100.176C83.0352 100.632 83.3411 101.068 83.6406 101.484C83.9401 101.888 84.2396 102.214 84.5391 102.461C84.8646 102.318 85.1185 102.057 85.3008 101.68C85.4831 101.289 85.6328 100.846 85.75 100.352C85.8672 99.8438 85.9714 99.3229 86.0625 98.7891C86.1667 98.2422 86.3034 97.7409 86.4727 97.2852C86.6419 96.8294 86.8633 96.4583 87.1367 96.1719C87.4232 95.8724 87.8138 95.7227 88.3086 95.7227C88.8945 95.7227 89.4219 95.9505 89.8906 96.4062C90.3724 96.862 90.8021 97.4414 91.1797 98.1445C91.5573 98.8477 91.8763 99.6289 92.1367 100.488C92.4102 101.348 92.638 102.174 92.8203 102.969C93.0026 103.763 93.1393 104.479 93.2305 105.117C93.3216 105.755 93.3672 106.211 93.3672 106.484C93.3672 106.602 93.3607 106.732 93.3477 106.875C93.3346 107.005 93.3021 107.129 93.25 107.246C93.1979 107.35 93.1133 107.435 92.9961 107.5C92.8789 107.552 92.7096 107.546 92.4883 107.48C92.4232 107.467 92.3451 107.435 92.2539 107.383C92.1758 107.318 92.0911 107.24 92 107.148C91.9089 107.057 91.8307 106.973 91.7656 106.895C91.7005 106.803 91.668 106.725 91.668 106.66C91.5508 106.022 91.4206 105.312 91.2773 104.531C91.1341 103.75 90.9518 102.962 90.7305 102.168C90.5221 101.361 90.2552 100.579 89.9297 99.8242C89.6042 99.069 89.2005 98.418 88.7188 97.8711C88.3411 98.0794 88.0417 98.3984 87.8203 98.8281C87.612 99.2448 87.4362 99.707 87.293 100.215C87.1497 100.71 87.0195 101.217 86.9023 101.738C86.7852 102.259 86.6289 102.734 86.4336 103.164C86.2383 103.581 85.9909 103.926 85.6914 104.199C85.3919 104.473 84.9883 104.609 84.4805 104.609C84.1289 104.609 83.7839 104.499 83.4453 104.277C83.1198 104.043 82.8008 103.743 82.4883 103.379C82.1758 103.001 81.8698 102.591 81.5703 102.148C81.2839 101.693 80.9974 101.25 80.7109 100.82C80.4375 100.378 80.1641 99.9674 79.8906 99.5898C79.6302 99.2122 79.3633 98.9128 79.0898 98.6914C78.9857 99.0951 78.901 99.4531 78.8359 99.7656C78.7839 100.065 78.7383 100.358 78.6992 100.645C78.6732 100.931 78.6536 101.224 78.6406 101.523C78.6406 101.823 78.6406 102.155 78.6406 102.52C78.6406 103.066 78.6862 103.613 78.7773 104.16C78.8685 104.694 78.9661 105.228 79.0703 105.762C79.1745 106.296 79.2721 106.836 79.3633 107.383C79.4674 107.917 79.5195 108.457 79.5195 109.004V109.16C79.4935 109.199 79.4414 109.264 79.3633 109.355C79.2852 109.434 79.2005 109.518 79.1094 109.609C79.0312 109.701 78.9466 109.785 78.8555 109.863C78.7643 109.928 78.6992 109.974 78.6602 110C78.6471 110.013 78.6211 110.02 78.582 110.02C78.543 110.033 78.5039 110.039 78.4648 110.039C78.4388 110.039 78.4062 110.033 78.3672 110.02C78.3281 110.007 78.2956 110 78.2695 110C78.1784 109.245 78.0807 108.529 77.9766 107.852C77.8724 107.174 77.7747 106.504 77.6836 105.84C77.6055 105.176 77.5339 104.505 77.4688 103.828C77.4167 103.151 77.3906 102.422 77.3906 101.641ZM103.138 107.48C102.643 107.819 102.213 108.125 101.848 108.398C101.497 108.659 101.152 108.88 100.813 109.062C100.475 109.245 100.11 109.382 99.7195 109.473C99.3419 109.564 98.8732 109.609 98.3133 109.609C97.1023 109.609 96.2039 109.29 95.618 108.652C95.032 108.001 94.7391 107.038 94.7391 105.762C94.7391 105.267 94.8042 104.753 94.9344 104.219C95.0646 103.685 95.2534 103.158 95.5008 102.637C95.7612 102.103 96.0672 101.602 96.4188 101.133C96.7703 100.651 97.1674 100.228 97.6102 99.8633C98.0529 99.4987 98.5216 99.2122 99.0164 99.0039C99.5242 98.7826 100.058 98.6719 100.618 98.6719C101.555 98.763 102.291 98.9974 102.825 99.375C103.359 99.7396 103.763 100.215 104.036 100.801C104.309 101.374 104.498 102.018 104.602 102.734C104.707 103.438 104.785 104.167 104.837 104.922C104.902 105.677 104.98 106.432 105.071 107.188C105.162 107.943 105.351 108.639 105.638 109.277C105.468 109.707 105.305 110.007 105.149 110.176C105.006 110.358 104.843 110.391 104.661 110.273C104.479 110.156 104.264 109.87 104.016 109.414C103.782 108.958 103.489 108.314 103.138 107.48ZM96.3992 105.801C96.3992 106.543 96.5359 107.09 96.8094 107.441C97.0958 107.78 97.5971 107.949 98.3133 107.949C98.8471 107.949 99.3549 107.858 99.8367 107.676C100.332 107.48 100.761 107.22 101.126 106.895C101.49 106.556 101.783 106.152 102.005 105.684C102.226 105.215 102.337 104.694 102.337 104.121C102.337 103.887 102.343 103.561 102.356 103.145C102.369 102.715 102.343 102.292 102.278 101.875C102.213 101.458 102.089 101.1 101.907 100.801C101.725 100.488 101.451 100.332 101.087 100.332C100.41 100.332 99.7846 100.508 99.2117 100.859C98.6388 101.198 98.144 101.634 97.7273 102.168C97.3107 102.702 96.9852 103.294 96.7508 103.945C96.5164 104.583 96.3992 105.202 96.3992 105.801ZM106.677 104.121C106.677 103.574 106.795 103.001 107.029 102.402C107.276 101.803 107.602 101.263 108.005 100.781C108.409 100.286 108.871 99.8763 109.392 99.5508C109.926 99.2253 110.486 99.0625 111.072 99.0625C111.371 99.0625 111.671 99.1146 111.97 99.2188C112.27 99.3229 112.537 99.4727 112.771 99.668C113.018 99.8633 113.214 100.098 113.357 100.371C113.513 100.645 113.591 100.951 113.591 101.289C113.357 101.289 113.142 101.263 112.947 101.211C112.765 101.159 112.582 101.1 112.4 101.035C112.218 100.957 112.035 100.892 111.853 100.84C111.684 100.788 111.495 100.762 111.287 100.762C110.753 100.762 110.317 100.898 109.978 101.172C109.653 101.432 109.392 101.764 109.197 102.168C109.002 102.572 108.865 103.008 108.787 103.477C108.722 103.932 108.689 104.362 108.689 104.766C108.689 104.831 108.689 104.954 108.689 105.137C108.702 105.319 108.709 105.514 108.709 105.723C108.722 105.918 108.728 106.107 108.728 106.289C108.741 106.471 108.754 106.595 108.767 106.66C108.91 106.973 109.047 107.214 109.177 107.383C109.321 107.552 109.47 107.682 109.627 107.773C109.783 107.852 109.952 107.904 110.134 107.93C110.317 107.943 110.532 107.949 110.779 107.949C111.117 107.949 111.41 107.897 111.658 107.793C111.918 107.689 112.159 107.565 112.38 107.422C112.602 107.279 112.81 107.122 113.005 106.953C113.201 106.771 113.403 106.608 113.611 106.465C113.832 106.309 114.067 106.185 114.314 106.094C114.574 105.99 114.867 105.938 115.193 105.938C115.193 106.576 115.076 107.142 114.841 107.637C114.62 108.132 114.301 108.555 113.884 108.906C113.481 109.258 112.999 109.531 112.439 109.727C111.892 109.909 111.293 110 110.642 110C110.03 110 109.477 109.792 108.982 109.375C108.5 108.958 108.084 108.451 107.732 107.852C107.393 107.24 107.133 106.595 106.951 105.918C106.768 105.241 106.677 104.642 106.677 104.121ZM117.053 97.3047C117.053 97.1615 117.066 96.9857 117.092 96.7773C117.131 96.556 117.19 96.3477 117.268 96.1523C117.359 95.957 117.47 95.7943 117.6 95.6641C117.73 95.5208 117.899 95.4492 118.108 95.4492C118.121 95.4492 118.153 95.4557 118.205 95.4688C118.258 95.4818 118.29 95.4883 118.303 95.4883C118.524 96.2956 118.655 97.0964 118.694 97.8906C118.733 98.6849 118.72 99.4596 118.655 100.215C118.59 100.957 118.492 101.68 118.362 102.383C118.232 103.073 118.121 103.711 118.03 104.297C117.952 104.883 117.899 105.41 117.873 105.879C117.86 106.348 117.932 106.745 118.088 107.07C118.062 106.862 118.043 106.615 118.03 106.328C118.03 106.029 118.056 105.723 118.108 105.41C118.173 105.098 118.271 104.785 118.401 104.473C118.544 104.16 118.746 103.88 119.006 103.633C119.267 103.385 119.599 103.19 120.002 103.047C120.419 102.904 120.933 102.832 121.545 102.832C122.183 102.832 122.73 102.943 123.186 103.164C123.655 103.385 124.039 103.691 124.338 104.082C124.638 104.46 124.859 104.909 125.002 105.43C125.159 105.938 125.237 106.484 125.237 107.07C125.237 107.344 125.23 107.656 125.217 108.008C125.217 108.346 125.172 108.665 125.08 108.965C125.002 109.251 124.853 109.499 124.631 109.707C124.423 109.902 124.11 110 123.694 110C123.694 109.792 123.707 109.512 123.733 109.16C123.759 108.796 123.772 108.411 123.772 108.008C123.785 107.604 123.772 107.194 123.733 106.777C123.707 106.361 123.622 105.99 123.479 105.664C123.336 105.326 123.134 105.052 122.873 104.844C122.626 104.622 122.281 104.512 121.838 104.512C121.682 104.512 121.487 104.525 121.252 104.551C121.031 104.564 120.803 104.622 120.569 104.727C120.334 104.831 120.107 104.993 119.885 105.215C119.664 105.423 119.488 105.716 119.358 106.094C119.228 106.458 119.149 106.927 119.123 107.5C119.11 108.06 119.182 108.75 119.338 109.57C119.247 109.805 119.13 109.941 118.987 109.98C118.857 110.02 118.687 110.039 118.479 110.039C118.062 110.039 117.717 109.896 117.444 109.609C117.183 109.31 116.982 108.913 116.838 108.418C116.695 107.923 116.597 107.35 116.545 106.699C116.506 106.048 116.493 105.371 116.506 104.668C116.519 103.952 116.552 103.229 116.604 102.5C116.669 101.758 116.728 101.061 116.78 100.41C116.845 99.7461 116.903 99.1471 116.955 98.6133C117.021 98.0664 117.053 97.6302 117.053 97.3047ZM127.038 102.676C127.038 102.598 127.038 102.474 127.038 102.305C127.051 102.122 127.058 101.934 127.058 101.738C127.071 101.543 127.077 101.354 127.077 101.172C127.09 100.99 127.097 100.859 127.097 100.781C127.24 100.573 127.422 100.404 127.644 100.273C127.878 100.143 128.112 100.039 128.347 99.9609C128.386 100.664 128.497 101.413 128.679 102.207C128.861 103.001 129.057 103.802 129.265 104.609C129.473 105.404 129.655 106.191 129.812 106.973C129.981 107.754 130.066 108.483 130.066 109.16C130.066 109.746 129.766 110.039 129.167 110.039C128.803 110.039 128.497 109.889 128.249 109.59C128.002 109.29 127.8 108.913 127.644 108.457C127.501 107.988 127.383 107.474 127.292 106.914C127.201 106.341 127.136 105.781 127.097 105.234C127.071 104.688 127.051 104.186 127.038 103.73C127.038 103.275 127.038 102.923 127.038 102.676ZM127.312 95.3516C127.559 95.4557 127.767 95.625 127.937 95.8594C128.106 96.0938 128.178 96.3086 128.152 96.5039C128.139 96.6862 127.995 96.8164 127.722 96.8945C127.448 96.9596 126.993 96.8815 126.355 96.6602C126.355 96.3086 126.42 96.0026 126.55 95.7422C126.693 95.4818 126.947 95.3516 127.312 95.3516ZM131.027 103.418C131.027 103.079 131.112 102.839 131.281 102.695C131.451 102.539 131.724 102.461 132.102 102.461H132.297C132.336 102.669 132.382 102.91 132.434 103.184C132.486 103.457 132.564 103.737 132.668 104.023C132.772 104.31 132.896 104.577 133.039 104.824C133.182 105.059 133.358 105.247 133.566 105.391C133.579 104.935 133.69 104.499 133.898 104.082C134.12 103.652 134.387 103.275 134.699 102.949C135.025 102.611 135.376 102.331 135.754 102.109C136.145 101.875 136.529 101.719 136.906 101.641H137.336C137.961 101.641 138.495 101.784 138.938 102.07C139.38 102.344 139.745 102.708 140.031 103.164C140.331 103.607 140.559 104.115 140.715 104.688C140.871 105.26 140.988 105.846 141.066 106.445C141.158 107.031 141.21 107.604 141.223 108.164C141.249 108.711 141.262 109.18 141.262 109.57H139.836C139.758 108.789 139.66 108.04 139.543 107.324C139.504 107.038 139.452 106.738 139.387 106.426C139.322 106.1 139.25 105.801 139.172 105.527C139.094 105.241 139.009 104.98 138.918 104.746C138.827 104.499 138.723 104.29 138.605 104.121C138.553 104.069 138.482 103.997 138.391 103.906C138.312 103.815 138.228 103.724 138.137 103.633C138.046 103.542 137.961 103.464 137.883 103.398C137.805 103.333 137.759 103.301 137.746 103.301C137.355 103.197 137.017 103.275 136.73 103.535C136.444 103.783 136.19 104.121 135.969 104.551C135.747 104.98 135.565 105.469 135.422 106.016C135.292 106.562 135.181 107.09 135.09 107.598C134.999 108.092 134.934 108.529 134.895 108.906C134.855 109.271 134.829 109.492 134.816 109.57C134.491 109.805 134.185 109.876 133.898 109.785C133.612 109.681 133.339 109.473 133.078 109.16C132.831 108.848 132.603 108.457 132.395 107.988C132.199 107.52 132.017 107.025 131.848 106.504C131.678 105.97 131.522 105.436 131.379 104.902C131.249 104.368 131.132 103.874 131.027 103.418ZM142.536 104.57C142.536 103.867 142.621 103.164 142.79 102.461C142.959 101.758 143.226 101.126 143.591 100.566C143.968 100.007 144.45 99.5508 145.036 99.1992C145.635 98.8477 146.358 98.6719 147.204 98.6719C147.686 98.6719 148.109 98.763 148.473 98.9453C148.838 99.1146 149.144 99.3424 149.391 99.6289C149.639 99.9154 149.821 100.254 149.938 100.645C150.068 101.022 150.134 101.419 150.134 101.836C150.134 102.5 149.977 103.145 149.665 103.77C149.365 104.395 148.955 104.948 148.434 105.43C147.927 105.898 147.341 106.257 146.677 106.504C146.012 106.738 145.335 106.79 144.645 106.66C144.658 107.038 144.782 107.344 145.016 107.578C145.264 107.799 145.557 107.969 145.895 108.086C146.234 108.203 146.585 108.281 146.95 108.32C147.315 108.346 147.64 108.359 147.927 108.359C148.226 108.359 148.506 108.333 148.766 108.281C149.027 108.229 149.287 108.171 149.548 108.105C149.808 108.04 150.068 107.982 150.329 107.93C150.602 107.878 150.889 107.852 151.188 107.852C151.305 107.852 151.423 107.858 151.54 107.871C151.657 107.884 151.768 107.917 151.872 107.969C151.976 108.008 152.061 108.079 152.126 108.184C152.191 108.275 152.223 108.392 152.223 108.535C152.223 108.783 152.132 108.991 151.95 109.16C151.768 109.316 151.533 109.453 151.247 109.57C150.973 109.688 150.667 109.779 150.329 109.844C149.99 109.896 149.658 109.941 149.333 109.98C149.02 110.007 148.727 110.02 148.454 110.02C148.193 110.033 147.998 110.039 147.868 110.039C147.035 110.039 146.286 109.909 145.622 109.648C144.958 109.375 144.398 109.004 143.942 108.535C143.486 108.053 143.135 107.48 142.887 106.816C142.653 106.139 142.536 105.391 142.536 104.57ZM144.606 103.301C144.606 103.757 144.665 104.089 144.782 104.297C144.912 104.505 145.218 104.609 145.7 104.609C146.039 104.609 146.371 104.551 146.696 104.434C147.022 104.303 147.315 104.128 147.575 103.906C147.848 103.685 148.063 103.424 148.22 103.125C148.376 102.826 148.454 102.5 148.454 102.148C148.454 101.953 148.434 101.751 148.395 101.543C148.369 101.335 148.304 101.146 148.2 100.977C148.096 100.794 147.959 100.651 147.79 100.547C147.634 100.43 147.425 100.371 147.165 100.371C146.774 100.371 146.416 100.462 146.091 100.645C145.778 100.814 145.511 101.042 145.29 101.328C145.068 101.602 144.899 101.914 144.782 102.266C144.665 102.604 144.606 102.949 144.606 103.301ZM154.728 103.652C154.728 103.613 154.735 103.542 154.748 103.438C154.761 103.32 154.767 103.255 154.767 103.242C154.976 103.242 155.255 103.229 155.607 103.203C155.972 103.164 156.369 103.132 156.798 103.105C157.228 103.066 157.671 103.027 158.127 102.988C158.595 102.949 159.038 102.923 159.455 102.91C159.871 102.897 160.255 102.891 160.607 102.891C160.959 102.891 161.232 102.91 161.427 102.949C161.662 102.949 161.824 102.975 161.916 103.027C162.02 103.079 162.072 103.255 162.072 103.555C161.681 103.815 161.193 104.01 160.607 104.141C160.021 104.258 159.422 104.342 158.81 104.395C158.198 104.447 157.599 104.473 157.013 104.473C156.44 104.473 155.972 104.479 155.607 104.492C155.255 104.518 155.021 104.447 154.904 104.277C154.787 104.108 154.728 103.9 154.728 103.652ZM164.342 98.9453C164.342 98.5677 164.316 98.2031 164.264 97.8516C164.212 97.487 164.199 97.168 164.225 96.8945C164.251 96.6081 164.349 96.3802 164.518 96.2109C164.7 96.0417 165.026 95.957 165.495 95.957C165.638 96.2565 165.774 96.7122 165.905 97.3242C166.048 97.9362 166.185 98.6393 166.315 99.4336C166.445 100.228 166.569 101.094 166.686 102.031C166.803 102.956 166.907 103.887 166.998 104.824C167.103 105.762 167.187 106.686 167.252 107.598C167.33 108.496 167.389 109.316 167.428 110.059C166.998 110.345 166.653 110.365 166.393 110.117C166.133 109.87 165.918 109.453 165.748 108.867C165.579 108.268 165.449 107.546 165.358 106.699C165.267 105.84 165.176 104.954 165.084 104.043C165.006 103.118 164.909 102.214 164.791 101.328C164.674 100.43 164.524 99.6354 164.342 98.9453ZM168.644 104.57C168.644 103.867 168.728 103.164 168.898 102.461C169.067 101.758 169.334 101.126 169.698 100.566C170.076 100.007 170.558 99.5508 171.144 99.1992C171.743 98.8477 172.465 98.6719 173.312 98.6719C173.793 98.6719 174.217 98.763 174.581 98.9453C174.946 99.1146 175.252 99.3424 175.499 99.6289C175.747 99.9154 175.929 100.254 176.046 100.645C176.176 101.022 176.241 101.419 176.241 101.836C176.241 102.5 176.085 103.145 175.773 103.77C175.473 104.395 175.063 104.948 174.542 105.43C174.034 105.898 173.448 106.257 172.784 106.504C172.12 106.738 171.443 106.79 170.753 106.66C170.766 107.038 170.89 107.344 171.124 107.578C171.372 107.799 171.665 107.969 172.003 108.086C172.342 108.203 172.693 108.281 173.058 108.32C173.422 108.346 173.748 108.359 174.034 108.359C174.334 108.359 174.614 108.333 174.874 108.281C175.135 108.229 175.395 108.171 175.655 108.105C175.916 108.04 176.176 107.982 176.437 107.93C176.71 107.878 176.997 107.852 177.296 107.852C177.413 107.852 177.53 107.858 177.648 107.871C177.765 107.884 177.876 107.917 177.98 107.969C178.084 108.008 178.168 108.079 178.234 108.184C178.299 108.275 178.331 108.392 178.331 108.535C178.331 108.783 178.24 108.991 178.058 109.16C177.876 109.316 177.641 109.453 177.355 109.57C177.081 109.688 176.775 109.779 176.437 109.844C176.098 109.896 175.766 109.941 175.441 109.98C175.128 110.007 174.835 110.02 174.562 110.02C174.301 110.033 174.106 110.039 173.976 110.039C173.142 110.039 172.394 109.909 171.73 109.648C171.066 109.375 170.506 109.004 170.05 108.535C169.594 108.053 169.243 107.48 168.995 106.816C168.761 106.139 168.644 105.391 168.644 104.57ZM170.714 103.301C170.714 103.757 170.773 104.089 170.89 104.297C171.02 104.505 171.326 104.609 171.808 104.609C172.146 104.609 172.478 104.551 172.804 104.434C173.129 104.303 173.422 104.128 173.683 103.906C173.956 103.685 174.171 103.424 174.327 103.125C174.484 102.826 174.562 102.5 174.562 102.148C174.562 101.953 174.542 101.751 174.503 101.543C174.477 101.335 174.412 101.146 174.308 100.977C174.204 100.794 174.067 100.651 173.898 100.547C173.741 100.43 173.533 100.371 173.273 100.371C172.882 100.371 172.524 100.462 172.198 100.645C171.886 100.814 171.619 101.042 171.398 101.328C171.176 101.602 171.007 101.914 170.89 102.266C170.773 102.604 170.714 102.949 170.714 103.301ZM188.141 107.48C187.646 107.819 187.216 108.125 186.852 108.398C186.5 108.659 186.155 108.88 185.816 109.062C185.478 109.245 185.113 109.382 184.723 109.473C184.345 109.564 183.876 109.609 183.316 109.609C182.105 109.609 181.207 109.29 180.621 108.652C180.035 108.001 179.742 107.038 179.742 105.762C179.742 105.267 179.807 104.753 179.938 104.219C180.068 103.685 180.257 103.158 180.504 102.637C180.764 102.103 181.07 101.602 181.422 101.133C181.773 100.651 182.171 100.228 182.613 99.8633C183.056 99.4987 183.525 99.2122 184.02 99.0039C184.527 98.7826 185.061 98.6719 185.621 98.6719C186.559 98.763 187.294 98.9974 187.828 99.375C188.362 99.7396 188.766 100.215 189.039 100.801C189.312 101.374 189.501 102.018 189.605 102.734C189.71 103.438 189.788 104.167 189.84 104.922C189.905 105.677 189.983 106.432 190.074 107.188C190.165 107.943 190.354 108.639 190.641 109.277C190.471 109.707 190.309 110.007 190.152 110.176C190.009 110.358 189.846 110.391 189.664 110.273C189.482 110.156 189.267 109.87 189.02 109.414C188.785 108.958 188.492 108.314 188.141 107.48ZM181.402 105.801C181.402 106.543 181.539 107.09 181.812 107.441C182.099 107.78 182.6 107.949 183.316 107.949C183.85 107.949 184.358 107.858 184.84 107.676C185.335 107.48 185.764 107.22 186.129 106.895C186.493 106.556 186.786 106.152 187.008 105.684C187.229 105.215 187.34 104.694 187.34 104.121C187.34 103.887 187.346 103.561 187.359 103.145C187.372 102.715 187.346 102.292 187.281 101.875C187.216 101.458 187.092 101.1 186.91 100.801C186.728 100.488 186.454 100.332 186.09 100.332C185.413 100.332 184.788 100.508 184.215 100.859C183.642 101.198 183.147 101.634 182.73 102.168C182.314 102.702 181.988 103.294 181.754 103.945C181.52 104.583 181.402 105.202 181.402 105.801ZM192.071 101.797C192.071 101.68 192.078 101.562 192.091 101.445C192.104 101.315 192.13 101.204 192.169 101.113C192.208 101.009 192.266 100.924 192.345 100.859C192.436 100.794 192.559 100.762 192.716 100.762C192.846 100.762 192.989 100.866 193.145 101.074C193.315 101.27 193.484 101.523 193.653 101.836C193.822 102.135 193.985 102.467 194.141 102.832C194.311 103.197 194.454 103.535 194.571 103.848C194.701 104.147 194.805 104.408 194.884 104.629C194.962 104.85 195.007 104.967 195.02 104.98C195.19 104.525 195.378 104.03 195.587 103.496C195.795 102.962 196.049 102.467 196.348 102.012C196.661 101.543 197.026 101.152 197.442 100.84C197.872 100.527 198.393 100.371 199.005 100.371C199.317 100.371 199.61 100.423 199.884 100.527C200.17 100.618 200.417 100.762 200.626 100.957C200.847 101.139 201.023 101.361 201.153 101.621C201.283 101.882 201.348 102.181 201.348 102.52C201.348 102.806 201.231 103.008 200.997 103.125C200.776 103.242 200.522 103.301 200.235 103.301H200.04L199.2 102.461C199.174 102.461 199.154 102.454 199.141 102.441C199.115 102.441 199.089 102.441 199.063 102.441C199.05 102.428 199.031 102.422 199.005 102.422C198.549 102.422 198.191 102.552 197.93 102.812C197.683 103.06 197.494 103.372 197.364 103.75C197.234 104.115 197.149 104.505 197.11 104.922C197.084 105.326 197.071 105.697 197.071 106.035C197.071 106.296 197.097 106.562 197.149 106.836C197.201 107.096 197.26 107.357 197.325 107.617C197.39 107.865 197.449 108.125 197.501 108.398C197.553 108.659 197.579 108.932 197.579 109.219C197.579 109.766 197.286 110.039 196.7 110.039C196.374 110.039 196.036 109.87 195.684 109.531C195.333 109.18 194.981 108.737 194.63 108.203C194.291 107.669 193.966 107.083 193.653 106.445C193.341 105.794 193.067 105.163 192.833 104.551C192.598 103.939 192.41 103.385 192.266 102.891C192.136 102.396 192.071 102.031 192.071 101.797ZM202.252 103.418C202.252 103.079 202.336 102.839 202.505 102.695C202.675 102.539 202.948 102.461 203.326 102.461H203.521C203.56 102.669 203.606 102.91 203.658 103.184C203.71 103.457 203.788 103.737 203.892 104.023C203.996 104.31 204.12 104.577 204.263 104.824C204.407 105.059 204.582 105.247 204.791 105.391C204.804 104.935 204.914 104.499 205.123 104.082C205.344 103.652 205.611 103.275 205.923 102.949C206.249 102.611 206.601 102.331 206.978 102.109C207.369 101.875 207.753 101.719 208.13 101.641H208.56C209.185 101.641 209.719 101.784 210.162 102.07C210.604 102.344 210.969 102.708 211.255 103.164C211.555 103.607 211.783 104.115 211.939 104.688C212.095 105.26 212.213 105.846 212.291 106.445C212.382 107.031 212.434 107.604 212.447 108.164C212.473 108.711 212.486 109.18 212.486 109.57H211.06C210.982 108.789 210.884 108.04 210.767 107.324C210.728 107.038 210.676 106.738 210.611 106.426C210.546 106.1 210.474 105.801 210.396 105.527C210.318 105.241 210.233 104.98 210.142 104.746C210.051 104.499 209.947 104.29 209.83 104.121C209.778 104.069 209.706 103.997 209.615 103.906C209.537 103.815 209.452 103.724 209.361 103.633C209.27 103.542 209.185 103.464 209.107 103.398C209.029 103.333 208.983 103.301 208.97 103.301C208.58 103.197 208.241 103.275 207.955 103.535C207.668 103.783 207.414 104.121 207.193 104.551C206.972 104.98 206.789 105.469 206.646 106.016C206.516 106.562 206.405 107.09 206.314 107.598C206.223 108.092 206.158 108.529 206.119 108.906C206.08 109.271 206.054 109.492 206.041 109.57C205.715 109.805 205.409 109.876 205.123 109.785C204.836 109.681 204.563 109.473 204.302 109.16C204.055 108.848 203.827 108.457 203.619 107.988C203.423 107.52 203.241 107.025 203.072 106.504C202.903 105.97 202.746 105.436 202.603 104.902C202.473 104.368 202.356 103.874 202.252 103.418ZM214.58 102.676C214.58 102.598 214.58 102.474 214.58 102.305C214.593 102.122 214.6 101.934 214.6 101.738C214.613 101.543 214.62 101.354 214.62 101.172C214.633 100.99 214.639 100.859 214.639 100.781C214.782 100.573 214.965 100.404 215.186 100.273C215.42 100.143 215.655 100.039 215.889 99.9609C215.928 100.664 216.039 101.413 216.221 102.207C216.403 103.001 216.599 103.802 216.807 104.609C217.015 105.404 217.198 106.191 217.354 106.973C217.523 107.754 217.608 108.483 217.608 109.16C217.608 109.746 217.308 110.039 216.709 110.039C216.345 110.039 216.039 109.889 215.791 109.59C215.544 109.29 215.342 108.913 215.186 108.457C215.043 107.988 214.926 107.474 214.834 106.914C214.743 106.341 214.678 105.781 214.639 105.234C214.613 104.688 214.593 104.186 214.58 103.73C214.58 103.275 214.58 102.923 214.58 102.676ZM214.854 95.3516C215.101 95.4557 215.31 95.625 215.479 95.8594C215.648 96.0938 215.72 96.3086 215.694 96.5039C215.681 96.6862 215.538 96.8164 215.264 96.8945C214.991 96.9596 214.535 96.8815 213.897 96.6602C213.897 96.3086 213.962 96.0026 214.092 95.7422C214.235 95.4818 214.489 95.3516 214.854 95.3516ZM218.57 103.418C218.57 103.079 218.654 102.839 218.823 102.695C218.993 102.539 219.266 102.461 219.644 102.461H219.839C219.878 102.669 219.924 102.91 219.976 103.184C220.028 103.457 220.106 103.737 220.21 104.023C220.314 104.31 220.438 104.577 220.581 104.824C220.724 105.059 220.9 105.247 221.109 105.391C221.122 104.935 221.232 104.499 221.441 104.082C221.662 103.652 221.929 103.275 222.241 102.949C222.567 102.611 222.918 102.331 223.296 102.109C223.687 101.875 224.071 101.719 224.448 101.641H224.878C225.503 101.641 226.037 101.784 226.48 102.07C226.922 102.344 227.287 102.708 227.573 103.164C227.873 103.607 228.101 104.115 228.257 104.688C228.413 105.26 228.53 105.846 228.609 106.445C228.7 107.031 228.752 107.604 228.765 108.164C228.791 108.711 228.804 109.18 228.804 109.57H227.378C227.3 108.789 227.202 108.04 227.085 107.324C227.046 107.038 226.994 106.738 226.929 106.426C226.864 106.1 226.792 105.801 226.714 105.527C226.636 105.241 226.551 104.98 226.46 104.746C226.369 104.499 226.265 104.29 226.148 104.121C226.096 104.069 226.024 103.997 225.933 103.906C225.855 103.815 225.77 103.724 225.679 103.633C225.588 103.542 225.503 103.464 225.425 103.398C225.347 103.333 225.301 103.301 225.288 103.301C224.898 103.197 224.559 103.275 224.273 103.535C223.986 103.783 223.732 104.121 223.511 104.551C223.29 104.98 223.107 105.469 222.964 106.016C222.834 106.562 222.723 107.09 222.632 107.598C222.541 108.092 222.476 108.529 222.437 108.906C222.398 109.271 222.372 109.492 222.359 109.57C222.033 109.805 221.727 109.876 221.441 109.785C221.154 109.681 220.881 109.473 220.62 109.16C220.373 108.848 220.145 108.457 219.937 107.988C219.741 107.52 219.559 107.025 219.39 106.504C219.221 105.97 219.064 105.436 218.921 104.902C218.791 104.368 218.674 103.874 218.57 103.418ZM235.117 120.391C235.846 120.391 236.497 120.254 237.07 119.98C237.643 119.72 238.125 119.355 238.516 118.887C238.919 118.431 239.225 117.904 239.434 117.305C239.655 116.719 239.766 116.107 239.766 115.469C239.766 115.143 239.746 114.714 239.707 114.18C239.681 113.646 239.635 113.066 239.57 112.441C239.505 111.816 239.408 111.178 239.277 110.527C239.16 109.876 239.01 109.264 238.828 108.691C238.646 108.105 238.418 107.598 238.145 107.168C237.884 106.725 237.578 106.413 237.227 106.23C236.888 106.491 236.556 106.732 236.23 106.953C235.905 107.161 235.566 107.337 235.215 107.48C234.863 107.624 234.499 107.741 234.121 107.832C233.743 107.91 233.34 107.949 232.91 107.949C232.35 107.949 231.868 107.897 231.465 107.793C231.074 107.689 230.742 107.513 230.469 107.266C230.208 107.018 230.013 106.693 229.883 106.289C229.753 105.885 229.688 105.378 229.688 104.766C229.688 104.336 229.792 103.919 230 103.516C230.208 103.099 230.482 102.715 230.82 102.363C231.172 101.999 231.562 101.667 231.992 101.367C232.435 101.068 232.884 100.807 233.34 100.586C233.809 100.365 234.264 100.195 234.707 100.078C235.163 99.9609 235.566 99.9023 235.918 99.9023C236.257 99.9023 236.536 99.9154 236.758 99.9414C236.979 99.9544 237.168 100.007 237.324 100.098C237.48 100.176 237.611 100.306 237.715 100.488C237.832 100.658 237.943 100.892 238.047 101.191C238.346 102.207 238.691 103.301 239.082 104.473C239.473 105.645 239.844 106.849 240.195 108.086C240.547 109.323 240.84 110.566 241.074 111.816C241.322 113.079 241.445 114.297 241.445 115.469C241.445 116.51 241.296 117.389 240.996 118.105C240.71 118.835 240.326 119.427 239.844 119.883C239.375 120.352 238.835 120.71 238.223 120.957C237.624 121.204 237.018 121.361 236.406 121.426C235.794 121.504 235.202 121.523 234.629 121.484C234.056 121.445 233.561 121.367 233.145 121.25C232.728 121.146 232.409 121.022 232.188 120.879C231.979 120.736 231.927 120.612 232.031 120.508C232.148 120.417 232.448 120.352 232.93 120.312C233.411 120.273 234.141 120.299 235.117 120.391ZM235.391 101.543C234.427 101.751 233.646 102.044 233.047 102.422C232.461 102.786 232.018 103.184 231.719 103.613C231.432 104.03 231.276 104.453 231.25 104.883C231.224 105.299 231.302 105.658 231.484 105.957C231.667 106.257 231.927 106.484 232.266 106.641C232.617 106.784 233.014 106.79 233.457 106.66C233.9 106.517 234.368 106.217 234.863 105.762C235.371 105.306 235.879 104.629 236.387 103.73C236.387 103.509 236.387 103.268 236.387 103.008C236.4 102.747 236.38 102.513 236.328 102.305C236.276 102.083 236.178 101.901 236.035 101.758C235.892 101.615 235.677 101.543 235.391 101.543Z" fill="#8E7564"/>
</svg>
