<svg width="253" height="107" viewBox="0 0 253 107" fill="none" xmlns="http://www.w3.org/2000/svg">
<path d="M0.609451 71.7891C1.38947 79.4712 7.64119 84.5965 11.8822 90.5116C21.1261 102.034 47.4141 102.19 60.9494 100.109C74.1864 99.4457 87.3446 98.4584 100.328 95.7234C115.051 93.7358 129.991 89.332 144.88 91.9391C165.581 93.3886 183.876 112.13 205.203 104.206C220.581 103.643 243.124 101.959 246.067 83.1122C249.334 68.9573 245.092 52.931 231.861 45.3973C224.574 41.2891 215.49 44.5932 208.089 46.8519C192.68 51.4015 185.411 71.127 200.711 81.5879C213.705 90.9001 237.328 84.7617 227.997 65.568C224.552 59.7909 215.037 57.9737 212.113 65.4686C209.694 70.177 210.973 79.7371 217.519 79.5757C220.311 79.3215 222.348 76.42 219.876 74.4027C213.943 86.1117 208.253 61.7773 219.679 62.6537C232.863 64.6142 231.367 89.3746 207.459 82.5701C200.369 80.3953 195.668 75.7734 194.509 68.5908C192.436 52.3089 212.905 44.872 226.37 45.8323C244.099 49.5688 249.175 73.9832 241.83 88.5175C237.639 96.7598 227.977 98.9759 219.616 100.598C212.693 101.46 205.703 101.117 199.491 97.4297C182.613 88.8518 189.442 66.2947 182.483 51.6506C181.322 48.8318 179.457 46.204 177.489 43.8407C172.458 38.5786 163.73 44.3183 162.484 50.2903C161.538 53.2743 159.834 55.6788 158.136 58.1556C151.246 68.9741 151.769 59.4102 152.415 52.7464C152.551 45.1921 151.706 36.9459 147.057 30.7726C143.954 26.7638 139.391 29.7027 138.499 33.8961C137.912 34.7105 137.207 35.7534 136.354 35.9999C133.152 36.3832 132.283 31.6942 130.908 29.5297C126.303 17.9175 115.723 8.83627 103.377 6.36592C91.1865 3.4748 83.562 14.03 80.9559 24.5606C77.9844 35.0732 84.9361 50.8414 75.102 58.317C68.9071 61.8947 67.7397 49.1028 61.661 51.1382C56.5276 52.4728 57.8268 59.2463 57.6305 63.3713C57.0532 66.274 58.4208 76.1387 53.1312 73.1869C43.4301 63.2603 41.9979 78.3896 42.6578 85.5864C34.5852 85.4703 35.9774 91.5674 35.8353 97.6749C28.8358 97.5071 20.4391 95.4278 15.1249 90.5646C11.8628 86.8513 8.81895 82.947 5.81642 79.022C1.0976 71.3812 0.375702 60.3162 5.62659 52.7413C10.9343 46.0762 21.5148 39.4395 29.4389 45.2644C35.772 49.8101 41.4762 57.5994 38.0979 65.6106C35.5641 71.5167 27.1854 70.7811 22.9199 67.2433C18.6957 63.521 24.281 56.5087 28.309 62.3349C27.7459 62.8899 27.1622 63.4565 26.6443 63.965C29.4428 68.7237 34.4896 60.6002 26.3473 57.6936C19.9742 56.9979 15.9359 65.8868 22.2587 69.2464C34.531 76.7853 46.0116 66.7361 39.8335 53.7932C31.9946 39.2821 20.3513 37.5745 7.59729 47.7102C-0.368149 53.3143 -0.759445 62.9918 0.609451 71.7891Z" fill="#EEE7D3"/>
<path d="M45.4641 80.7272C45.3684 79.0769 45.3749 77.1578 45.5367 75.2509C45.7337 72.929 46.1668 70.5506 46.9728 68.687C47.7644 66.8566 49.0547 65.2326 51.1005 65.0471C53.0369 64.8716 55.1972 66.0471 57.621 68.4979C58.1318 68.7667 58.4863 68.8469 58.7161 68.8503C58.9324 68.8536 59.0737 68.7916 59.2018 68.6777C59.541 68.3763 59.8481 67.6533 60.0419 66.4359C60.2258 65.2802 60.2738 63.931 60.3096 62.6355C60.3123 62.5384 60.3149 62.4411 60.3175 62.3437C60.3471 61.2417 60.3767 60.1378 60.5162 59.3733C60.547 58.6593 60.533 57.8712 60.5178 57.0114C60.5122 56.6962 60.5065 56.3714 60.5027 56.0372C60.4886 54.7934 60.5036 53.4534 60.6859 52.1847C60.8679 50.9188 61.2256 49.6509 61.9477 48.5889C62.6824 47.5083 63.7582 46.6952 65.2578 46.2976C67.1602 45.6729 68.7119 46.2334 69.9643 47.245C71.0531 48.1246 71.9814 49.3994 72.8054 50.531C72.8799 50.6333 72.9536 50.7345 73.0265 50.8342C73.9631 52.1146 74.7698 53.1425 75.6501 53.6862C76.0625 53.9409 76.4624 54.0686 76.882 54.0708C77.2934 54.073 77.7992 53.9549 78.4297 53.6002C82.8795 50.1812 83.6202 44.8573 83.4841 38.7184C83.4503 37.1907 83.3634 35.6362 83.2739 34.0654L83.2651 33.9106C83.1788 32.3963 83.0916 30.8672 83.0524 29.3634C82.9716 26.2678 83.0899 23.1953 83.8706 20.4232C85.2054 15.0397 87.8345 9.58467 91.7625 5.82614C95.7275 2.03219 101.014 -0.0184579 107.472 1.50736C120.123 4.0452 130.943 13.3233 135.685 25.1948C136.056 25.7974 136.382 26.5337 136.685 27.2233L136.724 27.3098C137.041 28.0307 137.347 28.7263 137.698 29.3463C138.424 30.6303 139.115 31.2013 140.022 31.1347C140.176 31.0698 140.39 30.9138 140.667 30.6082C140.936 30.3111 141.185 29.9646 141.45 29.5957C141.997 27.3247 143.503 25.3506 145.411 24.4693C146.409 24.0081 147.533 23.8423 148.663 24.129C149.795 24.416 150.842 25.1333 151.729 26.2791L151.729 26.279L151.737 26.2896C156.6 32.7461 157.433 41.2874 157.296 48.8829L157.296 48.9223L157.292 48.9614C157.131 50.6223 156.98 52.4379 156.949 54.0621C156.917 55.7274 157.015 57.0474 157.276 57.7975C157.345 57.9975 157.407 58.1008 157.443 58.1501C157.483 58.1372 157.543 58.1116 157.629 58.0622C157.936 57.887 158.389 57.5017 159.004 56.7752C159.608 56.0607 160.327 55.0673 161.174 53.737L161.183 53.7227L161.193 53.7087C161.261 53.6084 161.33 53.5085 161.398 53.4089C163.029 51.033 164.537 48.8355 165.398 46.1526C166.111 42.8347 168.828 39.7066 171.992 38.0818C175.2 36.4338 179.168 36.2088 182.093 39.2682L182.117 39.293L182.139 39.3194C184.129 41.7086 186.061 44.4184 187.279 47.3638C189.077 51.1572 189.969 55.4239 190.575 59.7554C190.86 61.7941 191.083 63.8649 191.305 65.9157C191.319 66.0506 191.334 66.1854 191.348 66.3202C191.585 68.5092 191.823 70.6733 192.138 72.7862C193.399 81.2538 195.842 88.5992 203.825 92.6568L203.855 92.6716L203.883 92.6883C209.811 96.2076 216.529 96.573 223.34 95.7287C227.515 94.9182 231.902 93.9763 235.759 92.2465C239.608 90.5201 242.859 88.039 244.82 84.1835C248.361 77.174 248.929 67.7077 246.428 59.5369C243.937 51.3989 238.474 44.7351 230.112 42.9435C223.57 42.4921 215.324 44.0776 208.994 47.7304C202.668 51.3807 198.42 56.9715 199.38 64.5664C200.473 71.2966 204.843 75.6468 211.624 77.7296C217.447 79.3853 221.774 79.0826 224.8 77.8021C227.813 76.527 229.63 74.2453 230.404 71.7238C231.979 66.5957 229.276 60.6555 223.449 59.7667C222.219 59.6783 221.281 59.9281 220.562 60.362C219.83 60.8036 219.256 61.4768 218.832 62.3296C217.972 64.0619 217.791 66.4283 218.136 68.548C218.308 69.5974 218.601 70.539 218.968 71.2686C219.346 72.0185 219.749 72.4428 220.08 72.6156C220.33 72.7463 220.609 72.7792 221.031 72.5045C221.518 72.1872 222.157 71.4675 222.865 70.0693L223.427 68.9608L224.39 69.7465C225.154 70.3706 225.638 71.1225 225.805 71.9469C225.971 72.7685 225.802 73.5661 225.431 74.2469C224.705 75.5816 223.182 76.5362 221.491 76.6902L221.458 76.6932L221.425 76.694C219.518 76.741 217.957 76.0711 216.767 74.9472C215.597 73.8421 214.825 72.3371 214.373 70.7387C213.484 67.5895 213.762 63.784 215.082 61.1763C216.731 57.005 220.272 55.3952 223.816 55.6627C227.305 55.9259 230.843 57.9968 232.738 61.1743L232.76 61.211L232.778 61.2494C235.191 66.2127 235.541 70.4787 234.322 73.9297C233.103 77.3799 230.379 79.8355 227.007 81.3031C220.316 84.2154 210.795 83.3764 204.019 78.5257C196.017 73.0497 193.862 65.067 195.8 57.862C197.722 50.7138 203.653 44.3854 211.683 42.0127C212.198 41.8554 212.725 41.6919 213.261 41.5254C216.527 40.5119 220.147 39.3886 223.756 38.8659C227.977 38.2546 232.322 38.4395 236.234 40.6447L236.238 40.6469C249.954 48.4569 254.25 64.9844 250.931 79.4207C249.373 89.3048 242.643 94.656 234.517 97.575C226.483 100.461 216.934 101.035 209.28 101.318C198.308 105.335 188.146 102.512 178.321 98.6366C176.224 97.8092 174.167 96.9452 172.12 96.0849C169.282 94.8928 166.462 93.7079 163.574 92.638C158.654 90.8159 153.731 89.4081 148.691 89.0553L148.64 89.0516L148.589 89.0427C141.292 87.7649 133.952 88.2 126.559 89.2174C122.912 89.7195 119.266 90.3609 115.609 91.0045L115.461 91.0304C111.773 91.6794 108.072 92.3287 104.38 92.828C91.344 95.5707 78.1501 96.5606 64.9319 97.2239C58.0861 98.271 48.0612 98.7514 38.5596 97.5216C29.0959 96.2966 19.8643 93.3393 14.9837 87.256L14.9667 87.2349L14.951 87.2129C13.9152 85.7682 12.7522 84.3657 11.5549 82.9302L11.4073 82.7533C10.2644 81.3833 9.09451 79.981 8.02359 78.5237C5.79114 75.4857 3.9202 72.1202 3.49878 68.0354C2.12877 59.2072 2.43221 48.9898 10.8793 43.0278C17.3671 37.8784 23.7442 35.6008 29.6149 36.6431C35.5081 37.6894 40.592 42.0265 44.5948 49.4364L44.6067 49.4584L44.6174 49.4809C47.8601 56.2742 46.5384 62.5314 42.5061 66.0706C38.4857 69.5994 32.0656 70.1664 25.6429 66.2331C23.8647 65.28 22.7554 63.9012 22.2622 62.3472C21.7716 60.8013 21.9139 59.1583 22.4942 57.6984C23.6452 54.8032 26.6255 52.4129 30.3373 52.8181L30.4542 52.8308L30.565 52.8704C32.77 53.6575 34.1986 54.8419 34.9714 56.1902C35.7426 57.5358 35.8144 58.97 35.4297 60.1357C35.0582 61.2617 34.1952 62.2781 32.9882 62.503C31.6852 62.7459 30.4877 61.9914 29.6638 60.5905L29.2679 59.9172L29.8251 59.37C30.0483 59.1509 30.2794 58.9251 30.5147 58.6953C30.6267 58.5859 30.7396 58.4756 30.853 58.3647C30.1448 57.5756 29.4778 57.287 28.9543 57.2339C28.3009 57.1677 27.652 57.4449 27.1371 58.0043C26.0876 59.1442 25.8357 61.1681 27.4518 62.6021C29.3886 64.2026 32.3002 65.1906 35.0017 65.0877C37.6813 64.9857 39.9874 63.8341 41.0596 61.3365C42.6073 57.6629 42.0936 54.0268 40.401 50.7112C38.6972 47.3736 35.8132 44.4031 32.7372 42.1954L32.7281 42.1887C29.1384 39.5499 24.9101 39.6814 20.8127 41.3628C16.7115 43.0458 12.8801 46.2395 10.3111 49.4567C5.36098 56.6268 5.99791 67.2101 10.5228 74.5731C13.5022 78.4673 16.5077 82.3204 19.7213 85.9817C24.5403 90.3652 32.0979 92.4242 38.7281 92.7562C38.7284 92.3475 38.7244 91.9378 38.7197 91.5273C38.7186 91.4347 38.7175 91.3419 38.7164 91.249C38.7085 90.5954 38.7006 89.9387 38.7076 89.3008C38.7234 87.8545 38.8145 86.4065 39.1959 85.1292C39.5854 83.8249 40.2907 82.6565 41.5449 81.846C42.5579 81.1914 43.8511 80.821 45.4641 80.7272ZM157.383 58.1621C157.383 58.1628 157.388 58.1633 157.399 58.1616C157.389 58.1606 157.384 58.1614 157.383 58.1621Z" stroke="#8E7564" stroke-width="2"/>
<path d="M110.936 49.248C110.936 49.0762 110.946 48.7969 110.968 48.4102C110.968 48.002 110.968 47.583 110.968 47.1533C110.968 46.7021 110.979 46.2832 111 45.8965C111 45.4883 111 45.209 111 45.0586C111.236 44.6074 111.602 44.2852 112.096 44.0918C112.611 43.877 113.159 43.7373 113.739 43.6729C114.341 43.5869 114.921 43.5547 115.479 43.5762C116.06 43.5977 116.532 43.6084 116.897 43.6084C117.37 43.6084 117.918 43.6299 118.541 43.6729C119.186 43.7158 119.819 43.8018 120.442 43.9307C121.087 44.0381 121.721 44.21 122.344 44.4463C122.967 44.6611 123.515 44.9512 123.987 45.3164C124.481 45.6602 124.868 46.0898 125.147 46.6055C125.448 47.0996 125.599 47.6904 125.599 48.3779C125.599 49.1943 125.405 49.9355 125.019 50.6016C124.632 51.2461 124.148 51.8584 123.568 52.4385C123.01 52.9971 122.387 53.5234 121.699 54.0176C121.033 54.5117 120.41 54.9951 119.83 55.4678C119.271 55.9404 118.799 56.4238 118.412 56.918C118.025 57.4121 117.832 57.9492 117.832 58.5293C117.832 58.5723 117.843 58.6367 117.864 58.7227C117.907 58.7871 117.929 58.8301 117.929 58.8516C120.464 59.6035 122.924 60.5166 125.309 61.5908C127.715 62.665 130.078 63.8252 132.398 65.0713C132.463 65.1143 132.527 65.2002 132.592 65.3291C132.678 65.4365 132.753 65.5762 132.817 65.748C132.882 65.8984 132.946 66.0381 133.011 66.167C133.075 66.2959 133.107 66.4033 133.107 66.4893C133.107 66.6826 133.054 66.833 132.946 66.9404C132.839 67.0264 132.71 67.1016 132.56 67.166C132.409 67.209 132.259 67.2305 132.108 67.2305C131.958 67.2305 131.829 67.2305 131.722 67.2305C130.562 67.2305 129.401 66.9834 128.241 66.4893C127.103 65.9736 125.953 65.4043 124.793 64.7812C123.633 64.1582 122.451 63.5889 121.248 63.0732C120.066 62.5576 118.831 62.2998 117.542 62.2998H116.511C116.854 63.0947 117.155 63.8037 117.413 64.4268C117.692 65.0498 117.918 65.6514 118.09 66.2314C118.283 66.8115 118.423 67.4023 118.509 68.0039C118.616 68.584 118.67 69.2178 118.67 69.9053C118.67 70.0557 118.67 70.2383 118.67 70.4531C118.67 70.6465 118.659 70.8506 118.638 71.0654C118.616 71.2803 118.552 71.4736 118.444 71.6455C118.337 71.8174 118.165 71.9355 117.929 72C117.048 71.4844 116.253 70.6895 115.544 69.6152C114.856 68.5195 114.255 67.2734 113.739 65.877C113.224 64.4805 112.783 62.998 112.418 61.4297C112.074 59.8613 111.784 58.3252 111.548 56.8213C111.333 55.2959 111.172 53.8779 111.064 52.5674C110.979 51.2354 110.936 50.1289 110.936 49.248ZM113.707 51.2783C113.707 51.5576 113.686 51.9229 113.643 52.374C113.621 52.8037 113.621 53.2549 113.643 53.7275C113.664 54.1787 113.729 54.6191 113.836 55.0488C113.965 55.457 114.169 55.8115 114.448 56.1123C114.491 56.1338 114.534 56.1445 114.577 56.1445C114.599 56.166 114.652 56.1768 114.738 56.1768C115.125 56.1768 115.587 56.0586 116.124 55.8223C116.683 55.5859 117.263 55.2744 117.864 54.8877C118.466 54.501 119.057 54.0605 119.637 53.5664C120.238 53.0508 120.775 52.5244 121.248 51.9873C121.721 51.4502 122.097 50.9131 122.376 50.376C122.677 49.8174 122.827 49.3125 122.827 48.8613C122.827 48.4316 122.666 48.0664 122.344 47.7656C122.021 47.4434 121.635 47.1855 121.184 46.9922C120.732 46.7988 120.26 46.6592 119.766 46.5732C119.293 46.4873 118.906 46.4443 118.605 46.4443C118.24 46.4443 117.811 46.4443 117.316 46.4443C116.822 46.4229 116.328 46.4551 115.834 46.541C115.361 46.6055 114.932 46.7344 114.545 46.9277C114.158 47.1211 113.89 47.4111 113.739 47.7979C113.739 47.9268 113.739 48.1523 113.739 48.4746C113.739 48.7969 113.739 49.1514 113.739 49.5381C113.739 49.9033 113.729 50.2471 113.707 50.5693C113.707 50.8916 113.707 51.1279 113.707 51.2783Z" fill="#8E7564"/>
</svg>
