<svg width="315" height="135" viewBox="0 0 315 135" fill="none" xmlns="http://www.w3.org/2000/svg">
<g opacity="0.7">
<path d="M285.21 131.413C257.238 140.569 229.001 127.656 201.037 124.185C160.678 117.518 120.371 121.97 80.0724 126.145C59.8625 126.067 15.1286 131.699 4.76983 104.694C0.78497 92.113 -1.56372 78.0432 1.20255 64.6224C4.20789 50.5967 7.45074 33.5414 19.9983 29.5533C27.7197 26.1941 35.1336 31.6247 40.0716 39.3799C47.5803 52.5134 43.4092 74.5815 33.8654 84.2213C19.7856 93.0453 17.3842 55.3985 27.1655 48.3586C34.4692 42.3755 40.6662 56.9737 36.1628 64.2225C34.2985 67.3748 32.417 66.9549 30.8166 62.6132C32.0848 62.3601 33.2429 62.1291 34.4351 61.8859C36.6736 58.3278 34.7083 51.1995 31.2093 50.428C23.3265 51.1995 22.1436 69.6652 25.5991 77.1793C31.4639 90.3772 38.3346 75.0075 39.9087 66.5571C48.3782 41.9234 24.986 19.4475 11.6715 40.1152C0.426373 58.9004 -2.655 109.393 20.27 114.659C29.0035 116.048 39.3809 113.625 44.752 103.663C63.037 76.219 62.8678 31.1345 88.9751 12.1303C95.7091 7.50328 102.8 9.98252 109.151 14.0148C121.63 19.4454 120.651 40.8083 119.8 54.6572C127.631 49.8212 135.25 42.6145 144.282 45.1159C155.451 48.895 159.06 55.507 160.805 68.3854C171.642 58.6231 182.308 51.4627 194.898 60.4093C204.747 65.5104 208.032 77.3441 210.152 89.8488C212.801 101.693 220.207 106.199 228.369 109.494C230.148 110.209 231.084 108.28 232.259 107.037C240.873 94.5421 254.903 93.0332 261.772 107.302C265.917 116.259 271.979 122.814 279.53 126.825C288.519 130.67 293.685 115.664 297.951 107.941C303.45 94.2126 306.932 78.1819 302.292 63.2863C291.728 35.6208 268.471 53.4597 270.062 80.1769C270.411 88.9025 277.043 99.6111 284.295 95.6009C287.284 93.4411 290.646 85.0229 288.092 81.3663C284.202 81.4105 284.994 86.4674 283.24 88.7257C278.201 81.9731 289.224 70.9872 291.599 81.7079C293.183 97.3086 277.341 106.123 270.462 92.1753C263.184 77.7539 268.794 55.7843 280.618 48.1597C293.591 39.7757 306.395 56.1158 306.845 72.9059C308.943 95.8721 299.018 117.928 285.21 131.413Z" fill="#EEE7D3"/>
<path d="M290.627 125.735L290.849 125.662L291.015 125.5C305.01 111.832 315.067 89.5015 312.95 66.2177C312.712 57.6183 309.322 49.1047 304.259 43.7747C301.718 41.1001 298.714 39.1853 295.431 38.5191C292.125 37.8482 288.629 38.4633 285.183 40.6902C278.984 44.6871 274.518 52.3529 272.51 60.7572C270.5 69.1726 270.905 78.5223 274.675 85.994C276.48 89.6516 278.931 91.9286 281.651 92.9273C284.376 93.9274 287.244 93.5983 289.773 92.2797C294.813 89.6516 298.527 83.1197 297.701 74.9778L297.695 74.9196L297.682 74.8625C297.055 72.0324 295.772 70.2637 293.966 69.7422C292.198 69.2315 290.402 70.0607 289.065 71.3025C286.416 73.7632 284.613 78.7653 287.545 82.6947L288.33 83.7473L289.136 82.71C289.696 81.9898 290.017 81.0977 290.257 80.2826C290.358 79.9395 290.451 79.5858 290.54 79.2484C290.558 79.1791 290.576 79.1105 290.594 79.0428C290.701 78.6369 290.805 78.2558 290.922 77.8975C291.161 77.1662 291.424 76.6348 291.764 76.2846C291.979 76.0626 292.254 75.8831 292.657 75.7954C292.953 76.4312 293.105 77.2419 293.103 78.1982C293.101 79.4086 292.851 80.768 292.425 82.1144C292.001 83.4579 291.412 84.7539 290.759 85.8332C290.115 86.899 289.446 87.6898 288.863 88.1267C287.32 88.9626 285.86 89.0134 284.498 88.5367C283.084 88.0421 281.708 86.9524 280.478 85.4118C278.011 82.3224 276.334 77.6718 276.168 73.5078L276.167 73.4981L276.167 73.4884C275.386 60.3725 280.722 49.6464 287.256 45.5567C290.481 43.538 293.96 43.1426 297.239 44.7643C300.561 46.4075 303.861 50.2108 306.453 56.9846C310.971 71.5273 307.601 87.2597 302.152 100.883C301.424 102.206 300.665 103.746 299.877 105.344C299.508 106.093 299.132 106.854 298.751 107.612C297.53 110.037 296.229 112.463 294.798 114.521C293.358 116.589 291.844 118.197 290.23 119.075C288.68 119.917 287.004 120.109 285.067 119.292C277.749 115.394 271.843 109.02 267.787 100.253L267.783 100.246L267.78 100.239C264.216 92.836 258.673 89.3352 252.748 89.5044C246.91 89.6712 241.006 93.3965 236.585 99.7785C236.329 100.055 236.084 100.358 235.864 100.629C235.821 100.683 235.778 100.735 235.737 100.785C235.456 101.13 235.215 101.412 234.975 101.631C234.736 101.847 234.55 101.952 234.399 101.994C234.272 102.03 234.105 102.04 233.849 101.937C229.808 100.306 226.053 98.4114 222.986 95.5203C219.941 92.6505 217.525 88.7513 216.241 83.0266C215.178 76.7655 213.811 70.5867 211.442 65.3138C209.073 60.0405 205.676 55.6129 200.526 52.9246C193.993 48.3039 187.863 47.8157 181.98 49.8051C176.668 51.6016 171.606 55.4025 166.633 59.7754C165.747 54.1665 164.404 49.6981 162.013 46.1506C159.343 42.1873 155.441 39.4791 149.709 37.5395L149.682 37.5306L149.655 37.5231C144.794 36.1767 140.357 37.4687 136.235 39.6194C134.176 40.6934 132.169 41.9959 130.207 43.3157C129.736 43.6327 129.268 43.9502 128.803 44.266C127.869 44.8998 126.945 45.5271 126.022 46.1316C126.401 39.5453 126.684 31.5444 125.569 24.396C124.352 16.5947 121.414 9.45136 114.729 6.5004C108.323 2.44674 100.756 -0.297963 93.5153 4.67698L93.5041 4.68469L93.4931 4.69269C80.1486 14.4065 73.5878 30.7309 68.085 47.7958C67.0888 50.8852 66.127 53.9986 65.167 57.1062C60.7867 71.2862 56.4429 85.3481 49.0263 96.4799L49.0005 96.5187L48.9783 96.5597C43.8822 106.011 34.0313 108.383 25.5673 107.048C20.2421 105.813 16.3515 101.951 13.6823 96.3713C11.0019 90.7682 9.60401 83.5225 9.26255 75.7838C8.57875 60.2864 12.1418 43.1894 17.6277 34.0138C20.8363 29.0398 24.5499 26.8032 28.103 26.4288C31.6761 26.0524 35.307 27.5353 38.3779 30.4449C44.5311 36.275 48.1842 47.6354 44.0696 59.6029L44.0456 59.6725L44.0321 59.7449C43.2596 63.8925 41.1915 69.6609 38.6943 72.7255C37.4199 74.2893 36.2987 74.8382 35.3806 74.6642C34.4115 74.4805 33.0666 73.4006 31.6195 70.1441L31.6196 70.1441L31.6142 70.1324C29.9951 66.6115 29.4161 60.3307 30.2478 54.7947C30.6617 52.04 31.4121 49.5643 32.487 47.7592C33.5212 46.0226 34.7796 45.019 36.2473 44.8138C36.7744 44.9734 37.3147 45.3705 37.8187 46.0246C38.3659 46.7349 38.8196 47.6865 39.1172 48.7519C39.677 50.7564 39.6214 52.9078 38.8948 54.368C37.8821 54.5734 36.8807 54.7733 35.7988 54.9893L35.7274 55.0035L34.5803 55.2325L34.9849 56.33C35.4016 57.4606 35.8562 58.3921 36.3588 59.0932C36.8533 59.7831 37.4654 60.348 38.227 60.5618C39.0408 60.7903 39.812 60.5615 40.4596 60.092C41.0783 59.6435 41.6272 58.9512 42.1246 58.1119C43.3766 56.0914 43.8555 53.6158 43.7901 51.1883C43.7246 48.753 43.1102 46.2919 42.0932 44.2531C41.0861 42.234 39.6215 40.5099 37.7769 39.7416C35.8538 38.9406 33.7203 39.2615 31.6624 40.9363C28.917 42.929 27.1744 46.9084 26.2343 51.3362C25.2792 55.8337 25.1002 61.0359 25.6817 65.7327C26.2585 70.392 27.6055 74.7284 29.8499 77.3514C30.9905 78.6845 32.4057 79.622 34.0993 79.8634C35.7901 80.1044 37.6042 79.6295 39.503 78.4395L39.6011 78.378L39.6826 78.2957C44.6467 73.2817 48.1396 65.1348 49.4579 56.6349C50.7766 48.1327 49.9496 39.0817 46.0463 32.2544L46.0345 32.2338L46.0217 32.2137C43.4971 28.2487 40.2987 24.8091 36.6706 22.7952C33.0257 20.7721 28.9309 20.187 24.7533 21.9868C18.1001 24.1221 14.0029 29.694 11.2076 36.3052C8.59407 42.4866 7.04256 49.7618 5.63167 56.3776C5.53095 56.8499 5.43094 57.3188 5.33132 57.7838L5.33129 57.7837L5.32971 57.7914C2.51479 71.4483 4.91295 85.7061 8.92308 98.367L8.93207 98.3954L8.94273 98.4232C14.3325 112.474 28.6251 117.892 43.7028 119.879C54.7093 121.33 66.4234 120.982 75.8264 120.703C79.3113 120.6 82.4788 120.506 85.1751 120.516L85.2287 120.517L85.282 120.511C86.2418 120.412 87.2014 120.312 88.161 120.212C127.522 116.128 166.735 112.06 205.981 118.542L206.001 118.545L206.02 118.548C212.961 119.41 219.93 120.859 226.943 122.413C228.308 122.716 229.674 123.023 231.043 123.33C236.694 124.598 242.374 125.872 248.051 126.889C262.163 129.418 276.409 130.388 290.627 125.735Z" stroke="#8E7564" stroke-width="2"/>
</g>
<path d="M84.5068 94.1182C84.5752 93.79 84.7461 93.5234 85.0195 93.3184C85.3066 93.0996 85.6279 92.9014 85.9834 92.7236C86.3525 92.5459 86.7354 92.3818 87.1318 92.2314C87.5283 92.0674 87.8906 91.8965 88.2188 91.7188C88.5605 91.541 88.8408 91.3359 89.0596 91.1035C89.2783 90.8574 89.3877 90.5635 89.3877 90.2217C89.3877 89.7842 89.2715 89.4219 89.0391 89.1348C88.8203 88.8477 88.5195 88.6016 88.1367 88.3965C87.7676 88.1914 87.3438 88.0205 86.8652 87.8838C86.3867 87.7471 85.8945 87.6104 85.3887 87.4736C84.8965 87.3232 84.4111 87.166 83.9326 87.002C83.4541 86.8242 83.0234 86.6055 82.6406 86.3457C82.2715 86.0859 81.9707 85.7715 81.7383 85.4023C81.5195 85.0332 81.4102 84.5752 81.4102 84.0283C81.4102 83.5771 81.499 83.1533 81.6768 82.7568C81.8682 82.3467 82.1143 81.9639 82.415 81.6084C82.7295 81.2393 83.085 80.9043 83.4814 80.6035C83.8916 80.3027 84.3154 80.0498 84.7529 79.8447C85.2041 79.6396 85.6553 79.4824 86.1064 79.373C86.5576 79.25 86.9746 79.1885 87.3574 79.1885H87.583C87.7061 79.2295 87.8701 79.2979 88.0752 79.3936C88.2803 79.4893 88.4785 79.585 88.6699 79.6807C88.8613 79.7627 89.0254 79.8447 89.1621 79.9268C89.2988 79.9951 89.3672 80.0361 89.3672 80.0498V80.5215C89.1074 80.5488 88.7725 80.6035 88.3623 80.6855C87.9521 80.7539 87.5215 80.8496 87.0703 80.9727C86.6191 81.0957 86.1611 81.2529 85.6963 81.4443C85.2314 81.6221 84.8145 81.834 84.4453 82.0801C84.0762 82.3262 83.7754 82.6133 83.543 82.9414C83.3105 83.2559 83.1943 83.6182 83.1943 84.0283C83.1943 84.6162 83.3994 85.0811 83.8096 85.4229C84.2197 85.751 84.7324 86.0244 85.3477 86.2432C85.9629 86.4619 86.6328 86.6602 87.3574 86.8379C88.0957 87.002 88.7725 87.207 89.3877 87.4531C90.0029 87.6855 90.5156 88 90.9258 88.3965C91.3359 88.7793 91.541 89.2988 91.541 89.9551C91.541 90.3105 91.4316 90.6865 91.2129 91.083C91.0078 91.4658 90.7275 91.8486 90.3721 92.2314C90.0303 92.6006 89.6406 92.9561 89.2031 93.2979C88.7656 93.6396 88.3145 93.9404 87.8496 94.2002C87.3984 94.4463 86.9541 94.6514 86.5166 94.8154C86.0791 94.9658 85.6895 95.041 85.3477 95.041C85.2383 95.041 85.1221 95.0273 84.999 95C84.876 94.9727 84.7666 94.9316 84.6709 94.877C84.5889 94.8086 84.5205 94.7129 84.4658 94.5898C84.4248 94.4668 84.4385 94.3096 84.5068 94.1182ZM92.1407 84.6641C92.1407 84.623 92.1475 84.5889 92.1612 84.5615C92.1612 84.5342 92.168 84.5 92.1817 84.459C92.2364 84.3906 92.3184 84.3018 92.4278 84.1924C92.5371 84.083 92.6055 84.0283 92.6329 84.0283H96.7549C96.7549 83.8779 96.7344 83.6387 96.6934 83.3105C96.6524 82.9824 96.6114 82.6201 96.5704 82.2236C96.543 81.8271 96.5362 81.417 96.5498 80.9932C96.5635 80.5557 96.6182 80.166 96.7139 79.8242C96.8233 79.4688 96.9873 79.1816 97.2061 78.9629C97.4385 78.7305 97.7598 78.6143 98.17 78.6143C98.17 79.9951 98.2657 81.1025 98.4571 81.9365C98.6485 82.7705 98.9014 83.4131 99.2159 83.8643C99.544 84.3154 99.9131 84.6094 100.323 84.7461C100.733 84.8828 101.15 84.9443 101.574 84.9307C102.012 84.9033 102.436 84.835 102.846 84.7256C103.256 84.6162 103.618 84.541 103.933 84.5C104.261 84.459 104.521 84.4932 104.712 84.6025C104.903 84.6982 104.999 84.9375 104.999 85.3203C104.999 85.6074 104.931 85.8125 104.794 85.9355C104.671 86.0586 104.425 86.1543 104.056 86.2227C103.946 86.2363 103.762 86.2637 103.502 86.3047C103.256 86.332 102.976 86.3594 102.661 86.3867C102.347 86.4141 102.012 86.4482 101.656 86.4893C101.301 86.5166 100.966 86.5439 100.651 86.5713C100.337 86.5986 100.05 86.6191 99.7901 86.6328C99.5303 86.6328 99.3389 86.6328 99.2159 86.6328C99.2159 86.7012 99.209 86.8174 99.1954 86.9814C99.1817 87.1455 99.1748 87.2549 99.1748 87.3096C99.1748 87.9111 99.2705 88.499 99.462 89.0732C99.6534 89.6338 99.8584 90.1943 100.077 90.7549C100.31 91.3154 100.522 91.876 100.713 92.4365C100.904 92.9971 101 93.5781 101 94.1797C101 94.2891 100.986 94.4053 100.959 94.5283C100.945 94.6377 100.904 94.7402 100.836 94.8359C100.781 94.918 100.692 94.9795 100.569 95.0205C100.46 95.0752 100.303 95.0684 100.098 95C99.5782 94.8633 99.1885 94.5693 98.9288 94.1182C98.6827 93.667 98.4981 93.1338 98.375 92.5186C98.252 91.8896 98.17 91.2266 98.1289 90.5293C98.0879 89.832 98.0196 89.1826 97.9239 88.5811C97.8418 87.9658 97.7051 87.4463 97.5137 87.0225C97.3223 86.585 97.0147 86.3184 96.5909 86.2227L92.6329 85.3203C92.5782 85.3203 92.4961 85.2656 92.3868 85.1562C92.2774 85.0332 92.209 84.9443 92.1817 84.8896C92.168 84.8623 92.1612 84.8281 92.1612 84.7871C92.1475 84.7598 92.1407 84.7188 92.1407 84.6641ZM114.807 92.3545C114.287 92.71 113.836 93.0312 113.453 93.3184C113.084 93.5918 112.722 93.8242 112.366 94.0156C112.011 94.207 111.628 94.3506 111.218 94.4463C110.821 94.542 110.329 94.5898 109.741 94.5898C108.47 94.5898 107.526 94.2549 106.911 93.585C106.296 92.9014 105.988 91.8896 105.988 90.5498C105.988 90.0303 106.057 89.4902 106.193 88.9297C106.33 88.3691 106.528 87.8154 106.788 87.2686C107.062 86.708 107.383 86.1816 107.752 85.6895C108.121 85.1836 108.538 84.7393 109.003 84.3564C109.468 83.9736 109.96 83.6729 110.48 83.4541C111.013 83.2217 111.573 83.1055 112.161 83.1055C113.146 83.2012 113.918 83.4473 114.479 83.8438C115.039 84.2266 115.463 84.7256 115.75 85.3408C116.037 85.9424 116.235 86.6191 116.345 87.3711C116.454 88.1094 116.536 88.875 116.591 89.668C116.659 90.4609 116.741 91.2539 116.837 92.0469C116.933 92.8398 117.131 93.5713 117.432 94.2412C117.254 94.6924 117.083 95.0068 116.919 95.1846C116.769 95.376 116.598 95.4102 116.406 95.2871C116.215 95.1641 115.989 94.8633 115.73 94.3848C115.483 93.9062 115.176 93.2295 114.807 92.3545ZM107.732 90.5908C107.732 91.3701 107.875 91.9443 108.162 92.3135C108.463 92.6689 108.989 92.8467 109.741 92.8467C110.302 92.8467 110.835 92.751 111.341 92.5596C111.86 92.3545 112.312 92.0811 112.694 91.7393C113.077 91.3838 113.385 90.96 113.617 90.4678C113.85 89.9756 113.966 89.4287 113.966 88.8271C113.966 88.5811 113.973 88.2393 113.986 87.8018C114 87.3506 113.973 86.9062 113.904 86.4688C113.836 86.0312 113.706 85.6553 113.515 85.3408C113.323 85.0127 113.036 84.8486 112.653 84.8486C111.942 84.8486 111.286 85.0332 110.685 85.4023C110.083 85.7578 109.564 86.2158 109.126 86.7764C108.689 87.3369 108.347 87.959 108.101 88.6426C107.855 89.3125 107.732 89.9619 107.732 90.5908ZM118.483 84.6641C118.483 84.623 118.489 84.5889 118.503 84.5615C118.503 84.5342 118.51 84.5 118.524 84.459C118.578 84.3906 118.66 84.3018 118.77 84.1924C118.879 84.083 118.947 84.0283 118.975 84.0283H123.097C123.097 83.8779 123.076 83.6387 123.035 83.3105C122.994 82.9824 122.953 82.6201 122.912 82.2236C122.885 81.8271 122.878 81.417 122.892 80.9932C122.905 80.5557 122.96 80.166 123.056 79.8242C123.165 79.4688 123.329 79.1816 123.548 78.9629C123.78 78.7305 124.102 78.6143 124.512 78.6143C124.512 79.9951 124.608 81.1025 124.799 81.9365C124.99 82.7705 125.243 83.4131 125.558 83.8643C125.886 84.3154 126.255 84.6094 126.665 84.7461C127.075 84.8828 127.492 84.9443 127.916 84.9307C128.354 84.9033 128.777 84.835 129.188 84.7256C129.598 84.6162 129.96 84.541 130.275 84.5C130.603 84.459 130.862 84.4932 131.054 84.6025C131.245 84.6982 131.341 84.9375 131.341 85.3203C131.341 85.6074 131.273 85.8125 131.136 85.9355C131.013 86.0586 130.767 86.1543 130.398 86.2227C130.288 86.2363 130.104 86.2637 129.844 86.3047C129.598 86.332 129.318 86.3594 129.003 86.3867C128.689 86.4141 128.354 86.4482 127.998 86.4893C127.643 86.5166 127.308 86.5439 126.993 86.5713C126.679 86.5986 126.392 86.6191 126.132 86.6328C125.872 86.6328 125.681 86.6328 125.558 86.6328C125.558 86.7012 125.551 86.8174 125.537 86.9814C125.524 87.1455 125.517 87.2549 125.517 87.3096C125.517 87.9111 125.612 88.499 125.804 89.0732C125.995 89.6338 126.2 90.1943 126.419 90.7549C126.651 91.3154 126.863 91.876 127.055 92.4365C127.246 92.9971 127.342 93.5781 127.342 94.1797C127.342 94.2891 127.328 94.4053 127.301 94.5283C127.287 94.6377 127.246 94.7402 127.178 94.8359C127.123 94.918 127.034 94.9795 126.911 95.0205C126.802 95.0752 126.645 95.0684 126.44 95C125.92 94.8633 125.53 94.5693 125.271 94.1182C125.025 93.667 124.84 93.1338 124.717 92.5186C124.594 91.8896 124.512 91.2266 124.471 90.5293C124.43 89.832 124.361 89.1826 124.266 88.5811C124.184 87.9658 124.047 87.4463 123.856 87.0225C123.664 86.585 123.357 86.3184 122.933 86.2227L118.975 85.3203C118.92 85.3203 118.838 85.2656 118.729 85.1562C118.619 85.0332 118.551 84.9443 118.524 84.8896C118.51 84.8623 118.503 84.8281 118.503 84.7871C118.489 84.7598 118.483 84.7188 118.483 84.6641ZM133.192 87.3096C133.192 87.2275 133.192 87.0977 133.192 86.9199C133.205 86.7285 133.212 86.5303 133.212 86.3252C133.226 86.1201 133.233 85.9219 133.233 85.7305C133.246 85.5391 133.253 85.4023 133.253 85.3203C133.403 85.1016 133.595 84.9238 133.827 84.7871C134.073 84.6504 134.319 84.541 134.566 84.459C134.607 85.1973 134.723 85.9834 134.914 86.8174C135.106 87.6514 135.311 88.4922 135.529 89.3398C135.748 90.1738 135.94 91.001 136.104 91.8213C136.281 92.6416 136.37 93.4072 136.37 94.1182C136.37 94.7334 136.056 95.041 135.427 95.041C135.044 95.041 134.723 94.8838 134.463 94.5693C134.203 94.2549 133.991 93.8584 133.827 93.3799C133.677 92.8877 133.554 92.3477 133.458 91.7598C133.362 91.1582 133.294 90.5703 133.253 89.9961C133.226 89.4219 133.205 88.8955 133.192 88.417C133.192 87.9385 133.192 87.5693 133.192 87.3096ZM133.479 79.6191C133.738 79.7285 133.957 79.9062 134.135 80.1523C134.313 80.3984 134.388 80.624 134.361 80.8291C134.347 81.0205 134.196 81.1572 133.909 81.2393C133.622 81.3076 133.144 81.2256 132.474 80.9932C132.474 80.624 132.542 80.3027 132.679 80.0293C132.829 79.7559 133.096 79.6191 133.479 79.6191ZM141.318 94.0771C141.536 93.9268 141.796 93.7354 142.097 93.5029C142.411 93.2568 142.726 92.9971 143.04 92.7236C143.355 92.4502 143.649 92.1631 143.922 91.8623C144.196 91.5615 144.407 91.2744 144.558 91.001C144.722 90.7139 144.804 90.4473 144.804 90.2012C144.804 89.9551 144.681 89.75 144.435 89.5859C143.997 89.5859 143.519 89.6064 142.999 89.6475C142.48 89.6748 141.96 89.6885 141.441 89.6885C140.921 89.6748 140.415 89.627 139.923 89.5449C139.445 89.4629 139.014 89.3125 138.631 89.0938C138.248 88.875 137.941 88.5674 137.708 88.1709C137.489 87.7607 137.38 87.2412 137.38 86.6123C137.38 85.874 137.517 85.2109 137.79 84.623C138.077 84.0215 138.453 83.4951 138.918 83.0439C139.383 82.5791 139.903 82.1758 140.477 81.834C141.065 81.4785 141.653 81.1777 142.24 80.9316C142.596 81.0273 142.924 81.1982 143.225 81.4443C143.526 81.6904 143.785 81.9639 144.004 82.2646C143.908 82.5654 143.717 82.7979 143.43 82.9619C143.156 83.126 142.835 83.2695 142.466 83.3926C142.111 83.5156 141.735 83.6455 141.338 83.7822C140.942 83.9189 140.579 84.1035 140.251 84.3359C139.937 84.5547 139.67 84.8486 139.451 85.2178C139.233 85.5732 139.123 86.0449 139.123 86.6328C139.123 87.0703 139.233 87.3916 139.451 87.5967C139.67 87.8018 139.957 87.9453 140.313 88.0273C140.668 88.0957 141.071 88.123 141.523 88.1094C141.974 88.082 142.432 88.0479 142.897 88.0068C143.375 87.9658 143.84 87.9453 144.291 87.9453C144.742 87.9316 145.146 87.9863 145.501 88.1094C145.857 88.2188 146.137 88.4033 146.342 88.6631C146.561 88.9229 146.67 89.3057 146.67 89.8115C146.67 90.0303 146.595 90.3105 146.445 90.6523C146.308 90.9941 146.116 91.3633 145.87 91.7598C145.638 92.1426 145.358 92.5254 145.029 92.9082C144.715 93.291 144.38 93.6396 144.025 93.9541C143.683 94.2549 143.334 94.5078 142.979 94.7129C142.637 94.9043 142.316 95 142.015 95C141.728 95 141.536 94.8975 141.441 94.6924C141.359 94.4873 141.318 94.2822 141.318 94.0771ZM147.249 84.6641C147.249 84.623 147.256 84.5889 147.27 84.5615C147.27 84.5342 147.277 84.5 147.29 84.459C147.345 84.3906 147.427 84.3018 147.536 84.1924C147.646 84.083 147.714 84.0283 147.741 84.0283H151.864C151.864 83.8779 151.843 83.6387 151.802 83.3105C151.761 82.9824 151.72 82.6201 151.679 82.2236C151.652 81.8271 151.645 81.417 151.658 80.9932C151.672 80.5557 151.727 80.166 151.823 79.8242C151.932 79.4688 152.096 79.1816 152.315 78.9629C152.547 78.7305 152.868 78.6143 153.279 78.6143C153.279 79.9951 153.374 81.1025 153.566 81.9365C153.757 82.7705 154.01 83.4131 154.324 83.8643C154.653 84.3154 155.022 84.6094 155.432 84.7461C155.842 84.8828 156.259 84.9443 156.683 84.9307C157.12 84.9033 157.544 84.835 157.954 84.7256C158.364 84.6162 158.727 84.541 159.041 84.5C159.369 84.459 159.629 84.4932 159.821 84.6025C160.012 84.6982 160.108 84.9375 160.108 85.3203C160.108 85.6074 160.039 85.8125 159.903 85.9355C159.78 86.0586 159.533 86.1543 159.164 86.2227C159.055 86.2363 158.87 86.2637 158.611 86.3047C158.364 86.332 158.084 86.3594 157.77 86.3867C157.455 86.4141 157.12 86.4482 156.765 86.4893C156.409 86.5166 156.074 86.5439 155.76 86.5713C155.446 86.5986 155.158 86.6191 154.899 86.6328C154.639 86.6328 154.448 86.6328 154.324 86.6328C154.324 86.7012 154.318 86.8174 154.304 86.9814C154.29 87.1455 154.283 87.2549 154.283 87.3096C154.283 87.9111 154.379 88.499 154.571 89.0732C154.762 89.6338 154.967 90.1943 155.186 90.7549C155.418 91.3154 155.63 91.876 155.822 92.4365C156.013 92.9971 156.109 93.5781 156.109 94.1797C156.109 94.2891 156.095 94.4053 156.068 94.5283C156.054 94.6377 156.013 94.7402 155.945 94.8359C155.89 94.918 155.801 94.9795 155.678 95.0205C155.569 95.0752 155.411 95.0684 155.206 95C154.687 94.8633 154.297 94.5693 154.037 94.1182C153.791 93.667 153.607 93.1338 153.484 92.5186C153.361 91.8896 153.279 91.2266 153.238 90.5293C153.197 89.832 153.128 89.1826 153.032 88.5811C152.95 87.9658 152.814 87.4463 152.622 87.0225C152.431 86.585 152.123 86.3184 151.699 86.2227L147.741 85.3203C147.687 85.3203 147.605 85.2656 147.495 85.1562C147.386 85.0332 147.318 84.9443 147.29 84.8896C147.277 84.8623 147.27 84.8281 147.27 84.7871C147.256 84.7598 147.249 84.7188 147.249 84.6641ZM161.958 87.3096C161.958 87.2275 161.958 87.0977 161.958 86.9199C161.972 86.7285 161.979 86.5303 161.979 86.3252C161.992 86.1201 161.999 85.9219 161.999 85.7305C162.013 85.5391 162.02 85.4023 162.02 85.3203C162.17 85.1016 162.362 84.9238 162.594 84.7871C162.84 84.6504 163.086 84.541 163.332 84.459C163.373 85.1973 163.49 85.9834 163.681 86.8174C163.872 87.6514 164.077 88.4922 164.296 89.3398C164.515 90.1738 164.706 91.001 164.87 91.8213C165.048 92.6416 165.137 93.4072 165.137 94.1182C165.137 94.7334 164.823 95.041 164.194 95.041C163.811 95.041 163.49 94.8838 163.23 94.5693C162.97 94.2549 162.758 93.8584 162.594 93.3799C162.444 92.8877 162.321 92.3477 162.225 91.7598C162.129 91.1582 162.061 90.5703 162.02 89.9961C161.992 89.4219 161.972 88.8955 161.958 88.417C161.958 87.9385 161.958 87.5693 161.958 87.3096ZM162.245 79.6191C162.505 79.7285 162.724 79.9062 162.902 80.1523C163.079 80.3984 163.155 80.624 163.127 80.8291C163.114 81.0205 162.963 81.1572 162.676 81.2393C162.389 81.3076 161.91 81.2256 161.241 80.9932C161.241 80.624 161.309 80.3027 161.446 80.0293C161.596 79.7559 161.863 79.6191 162.245 79.6191ZM165.737 88.8271C165.737 88.2529 165.86 87.6514 166.106 87.0225C166.366 86.3936 166.707 85.8262 167.131 85.3203C167.555 84.8008 168.04 84.3701 168.587 84.0283C169.148 83.6865 169.736 83.5156 170.351 83.5156C170.665 83.5156 170.98 83.5703 171.294 83.6797C171.609 83.7891 171.889 83.9463 172.135 84.1514C172.395 84.3564 172.6 84.6025 172.75 84.8896C172.914 85.1768 172.996 85.498 172.996 85.8535C172.75 85.8535 172.525 85.8262 172.32 85.7715C172.128 85.7168 171.937 85.6553 171.745 85.5869C171.554 85.5049 171.363 85.4365 171.171 85.3818C170.993 85.3271 170.795 85.2998 170.576 85.2998C170.016 85.2998 169.558 85.4434 169.202 85.7305C168.861 86.0039 168.587 86.3525 168.382 86.7764C168.177 87.2002 168.034 87.6582 167.951 88.1504C167.883 88.6289 167.849 89.0801 167.849 89.5039C167.849 89.5723 167.849 89.7021 167.849 89.8936C167.863 90.085 167.869 90.29 167.869 90.5088C167.883 90.7139 167.89 90.9121 167.89 91.1035C167.904 91.2949 167.917 91.4248 167.931 91.4932C168.081 91.8213 168.225 92.0742 168.362 92.252C168.512 92.4297 168.669 92.5664 168.833 92.6621C168.997 92.7441 169.175 92.7988 169.367 92.8262C169.558 92.8398 169.784 92.8467 170.043 92.8467C170.399 92.8467 170.706 92.792 170.966 92.6826C171.24 92.5732 171.493 92.4434 171.725 92.293C171.957 92.1426 172.176 91.9785 172.381 91.8008C172.586 91.6094 172.798 91.4385 173.017 91.2881C173.249 91.124 173.495 90.9941 173.755 90.8984C174.029 90.7891 174.336 90.7344 174.678 90.7344C174.678 91.4043 174.555 91.999 174.309 92.5186C174.076 93.0381 173.742 93.4824 173.304 93.8516C172.88 94.2207 172.374 94.5078 171.786 94.7129C171.212 94.9043 170.583 95 169.9 95C169.257 95 168.676 94.7812 168.157 94.3438C167.651 93.9062 167.213 93.373 166.844 92.7441C166.489 92.1016 166.215 91.4248 166.024 90.7139C165.832 90.0029 165.737 89.374 165.737 88.8271ZM179.974 94.0771C180.193 93.9268 180.452 93.7354 180.753 93.5029C181.068 93.2568 181.382 92.9971 181.697 92.7236C182.011 92.4502 182.305 92.1631 182.578 91.8623C182.852 91.5615 183.064 91.2744 183.214 91.001C183.378 90.7139 183.46 90.4473 183.46 90.2012C183.46 89.9551 183.337 89.75 183.091 89.5859C182.654 89.5859 182.175 89.6064 181.656 89.6475C181.136 89.6748 180.617 89.6885 180.097 89.6885C179.577 89.6748 179.072 89.627 178.579 89.5449C178.101 89.4629 177.67 89.3125 177.287 89.0938C176.905 88.875 176.597 88.5674 176.365 88.1709C176.146 87.7607 176.036 87.2412 176.036 86.6123C176.036 85.874 176.173 85.2109 176.447 84.623C176.734 84.0215 177.11 83.4951 177.575 83.0439C178.039 82.5791 178.559 82.1758 179.133 81.834C179.721 81.4785 180.309 81.1777 180.897 80.9316C181.252 81.0273 181.58 81.1982 181.881 81.4443C182.182 81.6904 182.442 81.9639 182.661 82.2646C182.565 82.5654 182.373 82.7979 182.086 82.9619C181.813 83.126 181.492 83.2695 181.122 83.3926C180.767 83.5156 180.391 83.6455 179.994 83.7822C179.598 83.9189 179.236 84.1035 178.908 84.3359C178.593 84.5547 178.327 84.8486 178.108 85.2178C177.889 85.5732 177.78 86.0449 177.78 86.6328C177.78 87.0703 177.889 87.3916 178.108 87.5967C178.327 87.8018 178.614 87.9453 178.969 88.0273C179.325 88.0957 179.728 88.123 180.179 88.1094C180.63 88.082 181.088 88.0479 181.553 88.0068C182.032 87.9658 182.496 87.9453 182.948 87.9453C183.399 87.9316 183.802 87.9863 184.158 88.1094C184.513 88.2188 184.793 88.4033 184.998 88.6631C185.217 88.9229 185.327 89.3057 185.327 89.8115C185.327 90.0303 185.251 90.3105 185.101 90.6523C184.964 90.9941 184.773 91.3633 184.527 91.7598C184.294 92.1426 184.014 92.5254 183.686 92.9082C183.371 93.291 183.036 93.6396 182.681 93.9541C182.339 94.2549 181.991 94.5078 181.635 94.7129C181.293 94.9043 180.972 95 180.671 95C180.384 95 180.193 94.8975 180.097 94.6924C180.015 94.4873 179.974 94.2822 179.974 94.0771Z" fill="#8E7564"/>
</svg>
