<svg width="320" height="134" viewBox="0 0 320 134" fill="none" xmlns="http://www.w3.org/2000/svg">
<path d="M319.228 90.4181C318.239 100.151 310.319 106.644 304.946 114.138C293.234 128.736 259.929 128.934 242.781 126.298C226.011 125.457 209.34 124.206 192.89 120.741C174.239 118.223 155.31 112.644 136.447 115.947C110.22 117.783 87.0408 141.528 60.0217 131.488C40.5386 130.775 11.9783 128.641 8.24953 104.764C4.11011 86.8305 9.48481 66.5262 26.247 56.9815C35.4797 51.7766 46.9883 55.9628 56.3649 58.8244C75.8873 64.5885 85.0971 89.5793 65.7122 102.833C49.2494 114.631 19.3212 106.854 31.1423 82.5364C35.5075 75.2173 47.5625 72.9149 51.2667 82.4105C54.3312 88.3757 52.7114 100.488 44.4179 100.283C40.8806 99.9612 38.3004 96.2852 41.4319 93.7294C48.9483 108.564 56.1571 77.7338 41.6806 78.8441C24.9774 81.328 26.8736 112.698 57.1634 104.077C66.1457 101.322 72.1013 95.466 73.5705 86.3661C76.1965 65.738 50.2638 56.316 33.2038 57.5326C10.743 62.2665 4.31135 93.198 13.6177 111.612C18.9269 122.054 31.1685 124.862 41.7608 126.917C50.5321 128.01 59.3885 127.575 67.2583 122.903C88.6409 112.035 79.9891 83.4571 88.8062 64.904C90.2771 61.3328 92.6396 58.0035 95.1331 55.0094C101.507 48.3427 112.564 55.6145 114.143 63.1805C115.343 66.9611 117.501 70.0075 119.652 73.1455C128.381 86.8517 127.718 74.7349 126.9 66.2923C126.728 56.7215 127.798 46.2742 133.689 38.453C137.62 33.3741 143.401 37.0974 144.531 42.4102C145.274 43.442 146.167 44.7633 147.249 45.0756C151.305 45.5612 152.406 39.6206 154.148 36.8783C159.983 22.1664 173.386 10.6611 189.028 7.53134C204.473 3.86849 214.132 17.2412 217.434 30.5828C221.199 43.9015 212.391 63.8788 224.851 73.3499C232.699 77.8827 234.178 61.6762 241.88 64.2549C248.383 65.9457 246.737 74.5272 246.986 79.7533C247.717 83.4309 245.985 95.9287 252.686 92.189C264.977 79.6127 266.791 98.7805 265.955 107.898C276.183 107.751 274.419 115.476 274.599 123.214C283.467 123.001 294.105 120.367 300.838 114.205C304.97 109.501 308.827 104.554 312.631 99.5818C318.609 89.9014 319.524 75.8828 312.871 66.2858C306.147 57.8416 292.742 49.4334 282.703 56.8131C274.679 62.5723 267.452 72.4407 271.732 82.5904C274.943 90.0731 285.558 89.141 290.962 84.6589C296.314 79.943 289.237 71.059 284.134 78.4403C284.848 79.1434 285.587 79.8612 286.243 80.5055C282.698 86.5345 276.304 76.2425 286.62 72.5601C294.694 71.6787 299.81 82.9403 291.8 87.1968C276.251 96.748 261.706 84.0163 269.533 67.6185C279.465 49.2339 294.216 47.0705 310.375 59.9118C320.466 67.0118 320.962 79.2726 319.228 90.4181Z" fill="#EEE7D3"/>
<path d="M262.117 101.995C262.254 99.8581 262.255 97.3338 262.042 94.8266C261.793 91.8973 261.248 88.9168 260.244 86.5939C259.253 84.3042 257.678 82.3638 255.235 82.1423C252.9 81.9306 250.229 83.3528 247.159 86.465C246.469 86.8332 245.967 86.9565 245.615 86.9618C245.273 86.967 245.029 86.8637 244.818 86.6757C244.312 86.2261 243.913 85.2236 243.667 83.678C243.431 82.1939 243.37 80.4676 243.325 78.8286C243.321 78.7081 243.318 78.5876 243.315 78.4674C243.277 77.0512 243.24 75.6644 243.064 74.7182C243.024 73.7995 243.042 72.7828 243.061 71.6832C243.068 71.2855 243.075 70.8771 243.08 70.4585C243.098 68.8848 243.079 67.2044 242.851 65.6186C242.623 64.0356 242.179 62.474 241.296 61.1751C240.4 59.8576 239.089 58.8648 237.247 58.3782C234.939 57.6176 233.063 58.2897 231.528 59.5301C230.177 60.621 229.022 62.207 227.973 63.6469C227.88 63.775 227.787 63.9019 227.696 64.0272C226.515 65.6408 225.464 66.989 224.297 67.7101C223.741 68.0534 223.187 68.234 222.597 68.2372C222.016 68.2403 221.325 68.0716 220.487 67.5972C214.725 63.1805 213.792 56.3057 213.964 48.5138C214.007 46.573 214.118 44.599 214.231 42.6096L214.242 42.4154C214.351 40.4956 214.462 38.5618 214.511 36.6606C214.613 32.7447 214.462 28.883 213.483 25.4093C211.801 18.6204 208.489 11.7582 203.558 7.04033C198.591 2.28709 191.982 -0.275005 183.897 1.63669C167.95 4.83393 154.307 16.5358 148.335 31.5067C147.873 32.2544 147.463 33.178 147.073 34.0638L147.022 34.1784C146.622 35.0876 146.23 35.9799 145.778 36.7774C144.837 38.4407 143.874 39.2928 142.54 39.1745C142.282 39.0781 141.965 38.8419 141.587 38.4238C141.23 38.0295 140.9 37.5694 140.56 37.0955C140.555 37.0886 140.55 37.0818 140.545 37.0749C139.879 34.2443 138.008 31.7934 135.662 30.7094C134.445 30.1471 133.084 29.9485 131.719 30.2947C130.353 30.6412 129.074 31.51 127.98 32.9233L127.98 32.9233L127.972 32.9339C121.869 41.0383 120.81 51.7807 120.983 61.3927L120.984 61.4321L120.987 61.4712C121.191 63.5769 121.383 65.8854 121.423 67.9541C121.464 70.0637 121.341 71.7793 120.994 72.7792C120.817 73.2887 120.652 73.4044 120.627 73.417C120.624 73.4189 120.622 73.4196 120.618 73.4202C120.613 73.421 120.597 73.423 120.567 73.4194C120.501 73.4116 120.369 73.3777 120.161 73.2588C119.734 73.0141 119.136 72.4986 118.349 71.569C117.573 70.6514 116.655 69.382 115.578 67.6908L115.569 67.6764L115.559 67.6624C115.47 67.5319 115.381 67.4018 115.292 67.272C113.229 64.2668 111.295 61.4502 110.194 58.0072C109.314 53.8918 105.931 49.9821 101.976 47.9506C97.9756 45.896 93.0896 45.6391 89.4928 49.4008L89.4691 49.4256L89.4472 49.452C86.9321 52.472 84.5017 55.8833 82.9742 59.5812C80.7117 64.3519 79.5848 69.7278 78.8187 75.2092C78.4583 77.7877 78.1756 80.4073 77.8951 83.0064C77.8767 83.177 77.8583 83.3476 77.8399 83.518C77.5403 86.291 77.2374 89.0377 76.8377 91.7207C75.2368 102.468 72.1239 111.892 61.8877 117.094L61.8585 117.109L61.8304 117.126C54.244 121.629 45.6601 122.086 37.0005 121.012C31.7104 119.985 26.12 118.787 21.1998 116.58C16.2871 114.376 12.1117 111.197 9.59189 106.242C5.06962 97.2925 4.35091 85.227 7.53681 74.8173C10.7127 64.4403 17.6975 55.898 28.4259 53.6077C36.7648 53.0281 47.2755 55.0459 55.3521 59.7062C63.4245 64.364 68.8994 71.5377 67.6631 81.3058C66.2609 89.9531 60.6356 95.5369 51.9625 98.2003C44.5436 100.31 38.9947 99.9349 35.0891 98.2821C31.1961 96.6345 28.8411 93.6806 27.8381 90.4137C25.8059 83.7949 29.2884 76.0715 36.8749 74.921C38.4868 74.8035 39.734 75.1293 40.7007 75.7122C41.6802 76.3029 42.4386 77.1984 42.9929 78.3148C44.1148 80.5744 44.3432 83.6332 43.8992 86.3548C43.6789 87.7053 43.3001 88.9252 42.8201 89.8788C42.3299 90.8525 41.7867 91.4462 41.2971 91.7018C40.8881 91.9155 40.4316 91.9448 39.823 91.5481C39.149 91.1088 38.3129 90.1488 37.4065 88.3599L36.8449 87.2514L35.8822 88.0371C34.9526 88.7958 34.3789 89.6971 34.1822 90.6709C33.9861 91.6419 34.1845 92.5889 34.6282 93.4044C35.5011 95.0086 37.3466 96.1737 39.4097 96.3616L39.4427 96.3646L39.4758 96.3654C41.8193 96.4232 43.7296 95.6019 45.187 94.2252C46.6245 92.8672 47.5835 91.008 48.1464 89.0148C49.2589 85.076 48.9052 80.3184 47.2622 77.0821C45.223 71.9105 40.8518 69.9218 36.4597 70.2532C32.1239 70.5804 27.7209 73.1581 25.366 77.1067L25.3441 77.1433L25.3255 77.1817C22.29 83.4259 21.867 88.755 23.3814 93.0412C24.8955 97.3266 28.283 100.39 32.5042 102.227C40.8937 105.879 52.858 104.828 61.3682 98.7343C71.4125 91.8621 74.1035 81.865 71.677 72.8428C69.2658 63.8774 61.8218 55.929 51.7351 52.9491C51.0794 52.749 50.4102 52.5413 49.7296 52.3301C45.5907 51.0457 41.0276 49.6298 36.4778 48.9708C31.1607 48.2007 25.7229 48.4393 20.8384 51.1928L20.8347 51.195C3.58714 61.016 -1.84167 81.8215 2.3496 100.036C4.30005 112.436 12.7308 119.157 22.9722 122.836C33.1225 126.482 45.2026 127.206 54.9077 127.564C68.7266 132.638 81.5327 129.094 93.9808 124.184C96.6252 123.141 99.2275 122.048 101.821 120.958C105.424 119.444 109.01 117.938 112.67 116.582C118.913 114.269 125.178 112.476 131.599 112.027L131.651 112.023L131.702 112.014C140.986 110.389 150.317 110.944 159.694 112.234C164.32 112.871 168.943 113.684 173.575 114.499L173.764 114.533C178.441 115.356 183.129 116.178 187.803 116.81C204.305 120.283 221.011 121.536 237.762 122.376C246.415 123.701 259.097 124.31 271.113 122.755C283.091 121.204 294.694 117.468 300.808 109.847L300.825 109.825L300.841 109.803C302.16 107.964 303.639 106.18 305.156 104.362L305.34 104.141C306.79 102.403 308.268 100.632 309.619 98.7923C312.437 94.9586 314.777 90.7384 315.302 85.6283C317.038 74.4521 316.63 61.6513 306.057 54.1933C297.867 47.6912 289.861 44.8511 282.527 46.1533C275.169 47.4595 268.785 52.879 263.736 62.2257L263.724 62.2476L263.713 62.2702C259.646 70.7909 261.322 78.5824 266.324 82.9725C271.314 87.3523 279.319 88.0867 287.379 83.1474C289.579 81.9702 290.938 80.2749 291.541 78.3751C292.141 76.4836 291.969 74.4657 291.253 72.6648C289.831 69.0875 286.156 66.1504 281.594 66.6484L281.477 66.6612L281.366 66.7007C278.617 67.6819 276.866 69.1473 275.925 70.7881C274.986 72.4262 274.902 74.1646 275.366 75.5704C275.817 76.9366 276.851 78.1292 278.255 78.3909C279.755 78.6705 281.177 77.8134 282.188 76.0949L282.584 75.4217L282.026 74.8745C281.745 74.5979 281.452 74.3119 281.154 74.0204C280.953 73.8242 280.749 73.6254 280.545 73.4255C281.536 72.2439 282.501 71.792 283.29 71.7121C284.217 71.6182 285.117 72.0146 285.815 72.7729C287.231 74.3105 287.574 77.0506 285.394 78.9814C282.888 81.0542 279.133 82.3274 275.645 82.1946C272.179 82.0627 269.145 80.5661 267.735 77.2801C265.736 72.5374 266.405 67.8468 268.577 63.5924C270.76 59.316 274.447 55.5224 278.368 52.708L278.377 52.7013C283.025 49.2851 288.488 49.4707 293.733 51.6231C298.982 53.7769 303.873 57.8582 307.151 61.965C313.502 71.157 312.673 84.6939 306.888 94.0967C303.107 99.0387 299.289 103.934 295.205 108.587C288.969 114.267 279.173 116.884 270.668 117.262C270.665 116.649 270.671 116.035 270.678 115.422L270.682 115.069C270.692 114.241 270.702 113.412 270.693 112.607C270.673 110.78 270.558 108.976 270.086 107.396C269.605 105.788 268.743 104.368 267.22 103.384C265.932 102.551 264.256 102.086 262.117 101.995Z" stroke="#8E7564" stroke-width="2"/>
</svg>
