<svg width="220" height="93" viewBox="0 0 220 93" fill="none" xmlns="http://www.w3.org/2000/svg">
<path d="M219.316 62.5705C218.639 69.2379 213.213 73.6862 209.532 78.82C201.509 88.8199 178.694 88.9555 166.946 87.1497C155.458 86.574 144.038 85.717 132.769 83.3433C119.992 81.6182 107.025 77.7962 94.1026 80.0589C76.1358 81.3169 60.257 97.5832 41.7477 90.7052C28.4008 90.2168 8.83566 88.755 6.28129 72.398C3.44559 60.1128 7.12751 46.2034 18.6104 39.6649C24.9352 36.0993 32.8191 38.967 39.2426 40.9273C52.6163 44.876 58.9255 61.9959 45.6459 71.075C34.3681 79.1572 13.8659 73.8296 21.9639 57.1712C24.9543 52.1572 33.2125 50.58 35.7501 57.085C37.8494 61.1714 36.7398 69.4687 31.0583 69.3286C28.6351 69.108 26.8675 66.5898 29.0128 64.8389C34.1619 75.0013 39.1003 53.8812 29.1832 54.6418C17.7406 56.3434 19.0397 77.8331 39.7896 71.9275C45.9429 70.04 50.0227 66.0286 51.0292 59.7947C52.8282 45.6635 35.063 39.209 23.3762 40.0424C7.98943 43.2853 3.58346 64.4748 9.95873 77.0893C13.5958 84.2428 21.9818 86.1662 29.2381 87.5743C35.2468 88.3226 41.3139 88.0246 46.7051 84.8242C61.3532 77.3794 55.4262 57.8019 61.4664 45.0922C62.474 42.6457 64.0925 40.365 65.8006 38.3139C70.1674 33.7469 77.7419 38.7284 78.8235 43.9115C79.6451 46.5014 81.1235 48.5883 82.5973 50.738C88.577 60.1274 88.123 51.8268 87.5626 46.0432C87.4449 39.4868 88.1779 32.3299 92.2129 26.972C94.9063 23.4927 98.8662 26.0434 99.6407 29.6829C100.15 30.3897 100.761 31.2948 101.502 31.5088C104.281 31.8415 105.035 27.7718 106.229 25.8933C110.226 15.8149 119.408 7.93324 130.123 5.78919C140.703 3.27997 147.321 12.4409 149.583 21.5805C152.162 30.7045 146.128 44.3898 154.663 50.878C160.04 53.9831 161.053 42.8809 166.329 44.6475C170.784 45.8058 169.657 51.6845 169.827 55.2646C170.328 57.784 169.141 66.3456 173.732 63.7837C182.152 55.1683 183.395 68.2992 182.822 74.5454C189.828 74.4445 188.62 79.7363 188.743 85.0371C194.818 84.8914 202.106 83.0868 206.718 78.8659C209.549 75.6431 212.191 72.2546 214.797 68.8481C218.892 62.2165 219.519 52.6132 214.962 46.0388C210.355 40.2541 201.172 34.4941 194.295 39.5495C188.798 43.4948 183.847 50.2552 186.779 57.2082C188.979 62.3342 196.25 61.6957 199.953 58.6252C203.619 55.3946 198.771 49.3086 195.275 54.3651C195.764 54.8468 196.271 55.3386 196.72 55.7799C194.291 59.9101 189.911 52.8596 196.978 50.3369C202.509 49.7331 206.014 57.4479 200.526 60.3638C189.875 66.9068 179.911 58.185 185.273 46.9517C192.076 34.3574 202.182 32.8754 213.251 41.6723C220.164 46.5361 220.504 54.9353 219.316 62.5705Z" fill="#EEE7D3"/>
<path d="M180.525 70.2046C180.601 68.7961 180.591 67.1751 180.455 65.5639C180.283 63.5426 179.906 61.4622 179.198 59.8258C178.505 58.2227 177.355 56.7552 175.506 56.5876C173.768 56.43 171.86 57.483 169.756 59.6066C169.334 59.8261 169.052 59.8853 168.883 59.8879C168.728 59.8902 168.638 59.8486 168.551 59.7714C168.294 59.5433 168.032 58.9586 167.864 57.9037C167.706 56.9105 167.665 55.748 167.634 54.6225C167.631 54.5371 167.629 54.4513 167.627 54.3654C167.601 53.4183 167.576 52.4544 167.454 51.78C167.428 51.1673 167.44 50.4921 167.453 49.7509C167.458 49.4767 167.463 49.1934 167.466 48.9008C167.478 47.8203 167.466 46.6488 167.306 45.5369C167.146 44.4279 166.832 43.3055 166.189 42.3606C165.534 41.3972 164.575 40.6731 163.245 40.3196C161.543 39.7622 160.152 40.2673 159.039 41.1658C158.08 41.9408 157.264 43.0616 156.551 44.0408C156.486 44.1304 156.421 44.2188 156.358 44.3056C155.542 45.4212 154.856 46.2906 154.118 46.7465C153.777 46.9574 153.453 47.0588 153.118 47.0606C152.79 47.0624 152.376 46.9692 151.848 46.6738C148.048 43.7485 147.402 39.1919 147.52 33.8711C147.55 32.5479 147.625 31.2009 147.703 29.8374L147.71 29.7029C147.785 28.389 147.861 27.0598 147.895 25.7524C147.965 23.0628 147.863 20.3808 147.181 17.9558C146.018 13.2679 143.727 8.50912 140.295 5.2253C136.826 1.90606 132.194 0.108504 126.541 1.44337C115.52 3.65492 106.098 11.7336 101.964 22.0715C101.639 22.6022 101.354 23.2456 101.094 23.8383L101.062 23.9109C100.785 24.5387 100.522 25.1368 100.221 25.669C99.6023 26.762 99.0462 27.1968 98.3507 27.156C98.2442 27.1057 98.08 26.987 97.8569 26.7406C97.6336 26.4941 97.426 26.2071 97.2016 25.8944C96.7139 23.9003 95.387 22.1622 93.697 21.3814C92.8073 20.9703 91.8007 20.8206 90.7862 21.0779C89.7705 21.3355 88.8379 21.9777 88.0534 22.9912L88.0533 22.9911L88.0453 23.0017C83.7971 28.6428 83.0756 36.0948 83.194 42.6925L83.1947 42.7318L83.1985 42.771C83.3381 44.2118 83.4684 45.7833 83.4955 47.1877C83.5235 48.6331 83.4365 49.7573 83.219 50.3838C83.1914 50.4634 83.1659 50.5224 83.1446 50.5653C83.1317 50.5586 83.1177 50.5509 83.1025 50.5422C82.8565 50.4014 82.4748 50.0806 81.9451 49.4546C81.4255 48.8406 80.8054 47.9837 80.0721 46.8321L80.0629 46.8178L80.0533 46.8038C79.9948 46.7185 79.9365 46.6335 79.8784 46.5488C78.4615 44.4843 77.1635 42.593 76.4226 40.2862C75.7911 37.363 73.4037 34.6217 70.6321 33.1982C67.8155 31.7515 64.302 31.5423 61.7091 34.2541L61.6854 34.2789L61.6634 34.3053C59.9336 36.3824 58.2473 38.7451 57.1831 41.3181C55.6149 44.6279 54.8384 48.3457 54.3125 52.1082C54.0648 53.8798 53.8707 55.6792 53.6787 57.4587C53.666 57.5759 53.6534 57.6929 53.6408 57.8099C53.4355 59.7099 53.2286 61.5856 52.9558 63.4165C51.8626 70.7557 49.7521 77.073 42.8832 80.564L42.854 80.5789L42.8258 80.5956C37.718 83.6278 31.9233 83.9478 26.0265 83.2174C22.4046 82.5141 18.612 81.6989 15.2817 80.2052C11.9589 78.7149 9.16535 76.5791 7.48165 73.268C4.4249 67.2185 3.93253 59.0383 6.09414 51.9755C8.24571 44.9454 12.9555 39.2111 20.147 37.6663C25.7994 37.2783 32.9248 38.65 38.3913 41.8042C43.8534 44.9559 47.4933 49.7635 46.6706 56.2831C45.7311 62.0646 41.9815 65.8041 36.1374 67.5997C31.1035 69.0307 27.3806 68.7639 24.7903 67.6677C22.2127 66.5768 20.6623 64.6278 20.0014 62.4751C18.6534 58.0848 20.9698 53.027 25.9261 52.2676C26.9676 52.1937 27.7518 52.4058 28.3491 52.766C28.959 53.1338 29.4413 53.6969 29.8 54.4193C30.5305 55.8907 30.6893 57.9145 30.3921 59.7363C30.2452 60.6368 29.9939 61.4406 29.6824 62.0594C29.3606 62.6985 29.0269 63.039 28.7746 63.1708C28.6028 63.2605 28.4114 63.2951 28.0825 63.0808C27.6882 62.8238 27.1465 62.2231 26.5361 61.0182L25.9744 59.9098L25.0117 60.6955C24.3287 61.2529 23.8892 61.9309 23.7376 62.6814C23.5866 63.429 23.7411 64.1528 24.0752 64.7668C24.7289 65.9683 26.0928 66.8186 27.5988 66.9558L27.6318 66.9588L27.6649 66.9596C29.3554 67.0013 30.7441 66.4063 31.8014 65.4075C32.8388 64.4275 33.5193 63.0978 33.9156 61.6948C34.6947 58.9364 34.4545 55.6019 33.2943 53.3054C31.8382 49.629 28.7081 48.2068 25.5828 48.4426C22.5139 48.6742 19.4039 50.4943 17.7363 53.2903L17.7144 53.3269L17.6958 53.3653C15.5911 57.6948 15.2771 61.4348 16.3503 64.4724C17.4233 67.5093 19.8195 69.6643 22.7711 70.949C28.6213 73.4953 36.9329 72.7612 42.8506 68.5256C49.8423 63.7405 51.7321 56.7546 50.0361 50.4488C48.3555 44.1999 43.1739 38.6731 36.1615 36.6009C35.7153 36.4647 35.259 36.3231 34.7941 36.1788C31.9603 35.2993 28.8076 34.3208 25.6641 33.8655C21.9858 33.3328 18.181 33.4911 14.7505 35.425L14.7468 35.4272C2.7786 42.2421 -0.957508 56.6526 1.93009 69.2192C3.2934 77.8585 9.18163 82.5318 16.2604 85.0747C23.2478 87.5848 31.5451 88.0841 38.1828 88.33C47.7466 91.8233 56.5996 89.3578 65.1267 85.9946C66.954 85.2739 68.7404 84.5233 70.5173 83.7767C72.9763 82.7434 75.4173 81.7178 77.9239 80.7894C82.1879 79.2099 86.4476 77.9928 90.8037 77.6878L90.8554 77.6842L90.9063 77.6752C97.2199 76.5697 103.575 76.9454 109.985 77.8276C113.148 78.263 116.31 78.8193 119.485 79.378L119.612 79.4003C122.811 79.9633 126.025 80.527 129.23 80.9607C140.551 83.3421 152.007 84.2015 163.477 84.7772C169.428 85.6869 178.138 86.1038 186.396 85.035C194.615 83.9711 202.673 81.3995 206.943 76.0771L206.96 76.056L206.976 76.034C207.872 74.7846 208.878 73.5709 209.918 72.3246L210.046 72.1703C211.038 70.982 212.056 69.7621 212.988 68.4938C214.931 65.8495 216.569 62.907 216.939 59.3296C218.129 51.6633 217.877 42.7243 210.482 37.5027C204.836 33.0226 199.265 31.0233 194.119 31.937C188.95 32.8547 184.51 36.6562 181.024 43.1077L181.013 43.1297L181.002 43.1522C178.167 49.0906 179.314 54.5886 182.866 57.7067C186.407 60.8144 192.043 61.2985 197.655 57.8632C199.224 57.021 200.21 55.7987 200.649 54.4158C201.086 53.041 200.958 51.5834 200.445 50.2923C199.428 47.7347 196.791 45.6149 193.501 45.9741L193.384 45.9869L193.273 46.0264C191.337 46.7176 190.068 47.763 189.378 48.9665C188.69 50.1673 188.624 51.451 188.97 52.4979C189.302 53.5051 190.081 54.4343 191.19 54.641C192.395 54.8656 193.482 54.162 194.213 52.9181L194.609 52.2449L194.052 51.6977C193.857 51.5067 193.657 51.3105 193.452 51.1109C193.386 51.0458 193.319 50.9804 193.251 50.9147C193.816 50.3199 194.334 50.1094 194.729 50.0694C195.247 50.0169 195.771 50.2351 196.195 50.6961C197.063 51.6392 197.27 53.3086 195.933 54.4967C194.278 55.8636 191.784 56.7104 189.472 56.6224C187.182 56.5352 185.237 55.555 184.331 53.4488C183.006 50.3037 183.442 47.1886 184.898 44.3369C186.365 41.4639 188.851 38.9008 191.509 36.9932L191.518 36.9865C194.584 34.7325 198.202 34.8371 201.731 36.2855C205.264 37.7355 208.571 40.4899 210.79 43.2669C215.046 49.4365 214.505 58.5582 210.603 64.9119C208.02 68.2875 205.417 71.625 202.634 74.7957C198.516 78.538 192.066 80.3202 186.365 80.629C186.365 80.3212 186.368 80.0126 186.372 79.7031L186.375 79.4636C186.382 78.8958 186.388 78.3236 186.382 77.7677C186.369 76.5101 186.29 75.2379 185.953 74.1108C185.608 72.9565 184.981 71.9127 183.859 71.1881C182.984 70.6224 181.881 70.2991 180.525 70.2046ZM83.2611 50.6131C83.2613 50.6133 83.2583 50.6131 83.252 50.6114C83.2579 50.612 83.261 50.6128 83.2611 50.6131Z" stroke="#8E7564" stroke-width="2"/>
<path d="M219.316 62.5705C218.639 69.2379 213.213 73.6862 209.532 78.82C201.509 88.8199 178.694 88.9555 166.946 87.1497C155.458 86.574 144.038 85.717 132.769 83.3433C119.992 81.6182 107.025 77.7962 94.1026 80.0589C76.1358 81.3169 60.257 97.5832 41.7477 90.7052C28.4008 90.2168 8.83566 88.755 6.28129 72.398C3.44559 60.1128 7.12751 46.2034 18.6104 39.6649C24.9352 36.0993 32.8191 38.967 39.2426 40.9273C52.6163 44.876 58.9255 61.9959 45.6459 71.075C34.3681 79.1572 13.8659 73.8296 21.9639 57.1712C24.9543 52.1572 33.2125 50.58 35.7501 57.085C37.8494 61.1714 36.7398 69.4687 31.0583 69.3286C28.6351 69.108 26.8675 66.5898 29.0128 64.8389C34.1619 75.0013 39.1003 53.8812 29.1832 54.6418C17.7406 56.3434 19.0397 77.8331 39.7896 71.9275C45.9429 70.04 50.0227 66.0286 51.0292 59.7947C52.8282 45.6635 35.063 39.209 23.3762 40.0424C7.98943 43.2853 3.58346 64.4748 9.95873 77.0893C13.5958 84.2428 21.9818 86.1662 29.2381 87.5743C35.2468 88.3226 41.3139 88.0246 46.7051 84.8242C61.3532 77.3794 55.4262 57.8019 61.4664 45.0922C62.474 42.6457 64.0925 40.365 65.8006 38.3139C70.1674 33.7469 77.7419 38.7284 78.8235 43.9115C79.6451 46.5014 81.1235 48.5883 82.5973 50.738C88.577 60.1274 88.123 51.8268 87.5626 46.0432C87.4449 39.4868 88.1779 32.3299 92.2129 26.972C94.9063 23.4927 98.8662 26.0434 99.6407 29.6829C100.15 30.3897 100.761 31.2948 101.502 31.5088C104.281 31.8415 105.035 27.7718 106.229 25.8933C110.226 15.8149 119.408 7.93324 130.123 5.78919C140.703 3.27997 147.321 12.4409 149.583 21.5805C152.162 30.7045 146.128 44.3898 154.663 50.878C160.04 53.9831 161.053 42.8809 166.329 44.6475C170.784 45.8058 169.657 51.6845 169.827 55.2646C170.328 57.784 169.141 66.3456 173.732 63.7837C182.152 55.1683 183.395 68.2992 182.822 74.5454C189.828 74.4445 188.62 79.7363 188.743 85.0371C194.818 84.8914 202.106 83.0868 206.718 78.8659C209.549 75.6431 212.191 72.2546 214.797 68.8481C218.892 62.2165 219.519 52.6132 214.962 46.0388C210.355 40.2541 201.172 34.4941 194.295 39.5495C188.798 43.4948 183.847 50.2552 186.779 57.2082C188.979 62.3342 196.25 61.6957 199.953 58.6252C203.619 55.3946 198.771 49.3086 195.275 54.3651C195.764 54.8468 196.271 55.3386 196.72 55.7799C194.291 59.9101 189.911 52.8596 196.978 50.3369C202.509 49.7331 206.014 57.4479 200.526 60.3638C189.875 66.9068 179.911 58.185 185.273 46.9517C192.076 34.3574 202.182 32.8754 213.251 41.6723C220.164 46.5361 220.504 54.9353 219.316 62.5705Z" fill="#EEE7D3"/>
<path d="M180.525 70.2046C180.601 68.7961 180.591 67.1751 180.455 65.5639C180.283 63.5426 179.906 61.4622 179.198 59.8258C178.505 58.2227 177.355 56.7552 175.506 56.5876C173.768 56.43 171.86 57.483 169.756 59.6066C169.334 59.8261 169.052 59.8853 168.883 59.8879C168.728 59.8902 168.638 59.8486 168.551 59.7714C168.294 59.5433 168.032 58.9586 167.864 57.9037C167.706 56.9105 167.665 55.748 167.634 54.6225C167.631 54.5371 167.629 54.4513 167.627 54.3654C167.601 53.4183 167.576 52.4544 167.454 51.78C167.428 51.1673 167.44 50.4921 167.453 49.7509C167.458 49.4767 167.463 49.1934 167.466 48.9008C167.478 47.8203 167.466 46.6488 167.306 45.5369C167.146 44.4279 166.832 43.3055 166.189 42.3606C165.534 41.3972 164.575 40.6731 163.245 40.3196C161.543 39.7622 160.152 40.2673 159.039 41.1658C158.08 41.9408 157.264 43.0616 156.551 44.0408C156.486 44.1304 156.421 44.2188 156.358 44.3056C155.542 45.4212 154.856 46.2906 154.118 46.7465C153.777 46.9574 153.453 47.0588 153.118 47.0606C152.79 47.0624 152.376 46.9692 151.848 46.6738C148.048 43.7485 147.402 39.1919 147.52 33.8711C147.55 32.5479 147.625 31.2009 147.703 29.8374L147.71 29.7029C147.785 28.389 147.861 27.0598 147.895 25.7524C147.965 23.0628 147.863 20.3808 147.181 17.9558C146.018 13.2679 143.727 8.50912 140.295 5.2253C136.826 1.90606 132.194 0.108504 126.541 1.44337C115.52 3.65492 106.098 11.7336 101.964 22.0715C101.639 22.6022 101.354 23.2456 101.094 23.8383L101.062 23.9109C100.785 24.5387 100.522 25.1368 100.221 25.669C99.6023 26.762 99.0462 27.1968 98.3507 27.156C98.2442 27.1057 98.08 26.987 97.8569 26.7406C97.6336 26.4941 97.426 26.2071 97.2016 25.8944C96.7139 23.9003 95.387 22.1622 93.697 21.3814C92.8073 20.9703 91.8007 20.8206 90.7862 21.0779C89.7705 21.3355 88.8379 21.9777 88.0534 22.9912L88.0533 22.9911L88.0453 23.0017C83.7971 28.6428 83.0756 36.0948 83.194 42.6925L83.1947 42.7318L83.1985 42.771C83.3381 44.2118 83.4684 45.7833 83.4955 47.1877C83.5235 48.6331 83.4365 49.7573 83.219 50.3838C83.1914 50.4634 83.1659 50.5224 83.1446 50.5653C83.1317 50.5586 83.1177 50.5509 83.1025 50.5422C82.8565 50.4014 82.4748 50.0806 81.9451 49.4546C81.4255 48.8406 80.8054 47.9837 80.0721 46.8321L80.0629 46.8178L80.0533 46.8038C79.9948 46.7185 79.9365 46.6335 79.8784 46.5488C78.4615 44.4843 77.1635 42.593 76.4226 40.2862C75.7911 37.363 73.4037 34.6217 70.6321 33.1982C67.8155 31.7515 64.302 31.5423 61.7091 34.2541L61.6854 34.2789L61.6634 34.3053C59.9336 36.3824 58.2473 38.7451 57.1831 41.3181C55.6149 44.6279 54.8384 48.3457 54.3125 52.1082C54.0648 53.8798 53.8707 55.6792 53.6787 57.4587C53.666 57.5759 53.6534 57.6929 53.6408 57.8099C53.4355 59.7099 53.2286 61.5856 52.9558 63.4165C51.8626 70.7557 49.7521 77.073 42.8832 80.564L42.854 80.5789L42.8258 80.5956C37.718 83.6278 31.9233 83.9478 26.0265 83.2174C22.4046 82.5141 18.612 81.6989 15.2817 80.2052C11.9589 78.7149 9.16535 76.5791 7.48165 73.268C4.4249 67.2185 3.93253 59.0383 6.09414 51.9755C8.24571 44.9454 12.9555 39.2111 20.147 37.6663C25.7994 37.2783 32.9248 38.65 38.3913 41.8042C43.8534 44.9559 47.4933 49.7635 46.6706 56.2831C45.7311 62.0646 41.9815 65.8041 36.1374 67.5997C31.1035 69.0307 27.3806 68.7639 24.7903 67.6677C22.2127 66.5768 20.6623 64.6278 20.0014 62.4751C18.6534 58.0848 20.9698 53.027 25.9261 52.2676C26.9676 52.1937 27.7518 52.4058 28.3491 52.766C28.959 53.1338 29.4413 53.6969 29.8 54.4193C30.5305 55.8907 30.6893 57.9145 30.3921 59.7363C30.2452 60.6368 29.9939 61.4406 29.6824 62.0594C29.3606 62.6985 29.0269 63.039 28.7746 63.1708C28.6028 63.2605 28.4114 63.2951 28.0825 63.0808C27.6882 62.8238 27.1465 62.2231 26.5361 61.0182L25.9744 59.9098L25.0117 60.6955C24.3287 61.2529 23.8892 61.9309 23.7376 62.6814C23.5866 63.429 23.7411 64.1528 24.0752 64.7668C24.7289 65.9683 26.0928 66.8186 27.5988 66.9558L27.6318 66.9588L27.6649 66.9596C29.3554 67.0013 30.7441 66.4063 31.8014 65.4075C32.8388 64.4275 33.5193 63.0978 33.9156 61.6948C34.6947 58.9364 34.4545 55.6019 33.2943 53.3054C31.8382 49.629 28.7081 48.2068 25.5828 48.4426C22.5139 48.6742 19.4039 50.4943 17.7363 53.2903L17.7144 53.3269L17.6958 53.3653C15.5911 57.6948 15.2771 61.4348 16.3503 64.4724C17.4233 67.5093 19.8195 69.6643 22.7711 70.949C28.6213 73.4953 36.9329 72.7612 42.8506 68.5256C49.8423 63.7405 51.7321 56.7546 50.0361 50.4488C48.3555 44.1999 43.1739 38.6731 36.1615 36.6009C35.7153 36.4647 35.259 36.3231 34.7941 36.1788C31.9603 35.2993 28.8076 34.3208 25.6641 33.8655C21.9858 33.3328 18.181 33.4911 14.7505 35.425L14.7468 35.4272C2.7786 42.2421 -0.957508 56.6526 1.93009 69.2192C3.2934 77.8585 9.18163 82.5318 16.2604 85.0747C23.2478 87.5848 31.5451 88.0841 38.1828 88.33C47.7466 91.8233 56.5996 89.3578 65.1267 85.9946C66.954 85.2739 68.7404 84.5233 70.5173 83.7767C72.9763 82.7434 75.4173 81.7178 77.9239 80.7894C82.1879 79.2099 86.4476 77.9928 90.8037 77.6878L90.8554 77.6842L90.9063 77.6752C97.2199 76.5697 103.575 76.9454 109.985 77.8276C113.148 78.263 116.31 78.8193 119.485 79.378L119.612 79.4003C122.811 79.9633 126.025 80.527 129.23 80.9607C140.551 83.3421 152.007 84.2015 163.477 84.7772C169.428 85.6869 178.138 86.1038 186.396 85.035C194.615 83.9711 202.673 81.3995 206.943 76.0771L206.96 76.056L206.976 76.034C207.872 74.7846 208.878 73.5709 209.918 72.3246L210.046 72.1703C211.038 70.982 212.056 69.7621 212.988 68.4938C214.931 65.8495 216.569 62.907 216.939 59.3296C218.129 51.6633 217.877 42.7243 210.482 37.5027C204.836 33.0226 199.265 31.0233 194.119 31.937C188.95 32.8547 184.51 36.6562 181.024 43.1077L181.013 43.1297L181.002 43.1522C178.167 49.0906 179.314 54.5886 182.866 57.7067C186.407 60.8144 192.043 61.2985 197.655 57.8632C199.224 57.021 200.21 55.7987 200.649 54.4158C201.086 53.041 200.958 51.5834 200.445 50.2923C199.428 47.7347 196.791 45.6149 193.501 45.9741L193.384 45.9869L193.273 46.0264C191.337 46.7176 190.068 47.763 189.378 48.9665C188.69 50.1673 188.624 51.451 188.97 52.4979C189.302 53.5051 190.081 54.4343 191.19 54.641C192.395 54.8656 193.482 54.162 194.213 52.9181L194.609 52.2449L194.052 51.6977C193.857 51.5067 193.657 51.3105 193.452 51.1109C193.386 51.0458 193.319 50.9804 193.251 50.9147C193.816 50.3199 194.334 50.1094 194.729 50.0694C195.247 50.0169 195.771 50.2351 196.195 50.6961C197.063 51.6392 197.27 53.3086 195.933 54.4967C194.278 55.8636 191.784 56.7104 189.472 56.6224C187.182 56.5352 185.237 55.555 184.331 53.4488C183.006 50.3037 183.442 47.1886 184.898 44.3369C186.365 41.4639 188.851 38.9008 191.509 36.9932L191.518 36.9865C194.584 34.7325 198.202 34.8371 201.731 36.2855C205.264 37.7355 208.571 40.4899 210.79 43.2669C215.046 49.4365 214.505 58.5582 210.603 64.9119C208.02 68.2875 205.417 71.625 202.634 74.7957C198.516 78.538 192.066 80.3202 186.365 80.629C186.365 80.3212 186.368 80.0126 186.372 79.7031L186.375 79.4636C186.382 78.8958 186.388 78.3236 186.382 77.7677C186.369 76.5101 186.29 75.2379 185.953 74.1108C185.608 72.9565 184.981 71.9127 183.859 71.1881C182.984 70.6224 181.881 70.2991 180.525 70.2046ZM83.2611 50.6131C83.2613 50.6133 83.2583 50.6131 83.252 50.6114C83.2579 50.612 83.261 50.6128 83.2611 50.6131Z" stroke="#8E7564" stroke-width="2"/>
</svg>
