<svg width="312" height="131" viewBox="0 0 312 131" fill="none" xmlns="http://www.w3.org/2000/svg">
<path d="M311.094 87.9779C310.133 97.442 302.431 103.756 297.206 111.044C285.818 125.238 253.432 125.431 236.757 122.867C220.449 122.05 204.239 120.834 188.243 117.464C170.106 115.016 151.7 109.59 133.358 112.802C107.854 114.588 85.3149 137.677 59.0415 127.914C40.0961 127.221 12.324 125.146 8.69812 101.928C4.67294 84.4893 9.89931 64.7453 26.1989 55.4641C35.1768 50.4029 46.3677 54.4734 55.4856 57.2561C74.4692 62.8611 83.4248 87.1622 64.5749 100.05C48.5665 111.522 19.4643 103.96 30.9591 80.3137C35.2038 73.1966 46.9262 70.9577 50.5281 80.1913C53.508 85.9919 51.933 97.7696 43.8683 97.5708C40.4286 97.2576 37.9196 93.6831 40.9648 91.1978C48.2737 105.623 55.2836 75.6437 41.2066 76.7234C24.9643 79.1387 26.8082 109.643 56.262 101.26C64.9965 98.5805 70.7877 92.8865 72.2164 84.0377C74.7699 63.9789 49.5529 54.8169 32.9637 55.9999C11.1228 60.6032 4.86863 90.681 13.9181 108.587C19.0808 118.741 30.9846 121.471 41.2846 123.47C49.8138 124.532 58.4258 124.109 66.0784 119.566C86.8709 108.999 78.4578 81.2089 87.0316 63.168C88.4619 59.6952 90.7592 56.4579 93.1839 53.5464C99.3823 47.0637 110.134 54.1348 111.669 61.492C112.836 65.1683 114.934 68.1306 117.026 71.1819C125.514 84.5099 124.87 72.7275 124.074 64.5179C123.907 55.2112 124.948 45.0523 130.675 37.4469C134.498 32.5082 140.119 36.1288 141.219 41.2949C141.941 42.2982 142.81 43.583 143.861 43.8867C147.805 44.359 148.876 38.5822 150.571 35.9157C156.244 21.6098 169.277 10.422 184.487 7.37863C199.506 3.81686 208.899 16.8205 212.11 29.7939C215.77 42.7451 207.206 62.171 219.322 71.3807C226.953 75.7884 228.392 60.0292 235.88 62.5367C242.205 64.1809 240.604 72.5256 240.846 77.6074C241.557 81.1835 239.872 93.3364 246.389 89.6999C258.34 77.4707 260.105 96.1095 259.292 104.976C269.237 104.833 267.522 112.344 267.697 119.868C276.32 119.662 286.664 117.1 293.211 111.109C297.23 106.534 300.98 101.724 304.679 96.8887C310.493 87.4754 311.382 73.8437 304.913 64.5116C298.374 56.3004 285.339 48.1243 275.577 55.3003C267.775 60.9005 260.747 70.4966 264.909 80.3662C268.031 87.6424 278.353 86.7361 283.608 82.3777C288.812 77.7919 281.931 69.153 276.969 76.3306C277.663 77.0143 278.382 77.7124 279.02 78.3389C275.572 84.2015 269.355 74.1935 279.386 70.6127C287.237 69.7556 292.212 80.7065 284.423 84.8455C269.304 94.1331 255.16 81.7528 262.771 65.8075C272.428 47.9303 286.773 45.8266 302.485 58.3135C312.298 65.2176 312.78 77.14 311.094 87.9779Z" fill="#EEE7D3"/>
<path d="M255.589 99.2092C255.721 97.1357 255.72 94.6908 255.514 92.2624C255.272 89.4127 254.742 86.5111 253.763 84.2483C252.799 82.0188 251.261 80.1198 248.87 79.9031C246.587 79.6961 243.983 81.086 240.998 84.1116C240.331 84.4667 239.848 84.5844 239.512 84.5894C239.187 84.5943 238.957 84.4965 238.756 84.3182C238.272 83.888 237.885 82.9221 237.646 81.4195C237.417 79.9784 237.358 78.3015 237.313 76.7075C237.31 76.5898 237.307 76.472 237.304 76.3543C237.267 74.9797 237.231 73.6304 237.06 72.7082C237.021 71.8162 237.038 70.8293 237.057 69.7609C237.064 69.3742 237.071 68.9769 237.076 68.5695C237.093 67.039 237.074 65.4032 236.852 63.8589C236.631 62.3175 236.197 60.7943 235.335 59.5265C234.461 58.24 233.181 57.2707 231.383 56.7958C229.128 56.053 227.295 56.7105 225.797 57.9209C224.481 58.9841 223.355 60.5294 222.336 61.9289C222.245 62.0536 222.155 62.1772 222.066 62.2991C220.917 63.8691 219.898 65.1753 218.768 65.8731C218.231 66.2049 217.697 66.3785 217.13 66.3816C216.572 66.3846 215.904 66.2225 215.094 65.7638C209.503 61.4779 208.595 54.8062 208.763 47.2307C208.805 45.3441 208.912 43.425 209.022 41.4904L209.033 41.301C209.14 39.4345 209.247 37.5538 209.295 35.7048C209.394 31.8963 209.248 28.138 208.295 24.7561C206.658 18.1513 203.435 11.4735 198.636 6.88129C193.8 2.25371 187.364 -0.2414 179.492 1.61975C163.977 4.73061 150.703 16.115 144.893 30.6799C144.443 31.4086 144.044 32.3077 143.665 33.1678L143.616 33.2787C143.227 34.1633 142.846 35.0298 142.407 35.804C141.494 37.418 140.567 38.233 139.289 38.1214C139.045 38.0292 138.742 37.8037 138.376 37.4001C138.03 37.018 137.71 36.5721 137.379 36.1112C137.376 36.1059 137.372 36.1006 137.368 36.0952C136.718 33.338 134.895 30.9495 132.606 29.892C131.418 29.343 130.088 29.1487 128.753 29.4871C127.418 29.8258 126.17 30.6747 125.103 32.053L125.103 32.053L125.095 32.0636C119.154 39.9521 118.125 50.4062 118.293 59.7541L118.293 59.7935L118.297 59.8326C118.496 61.88 118.682 64.124 118.721 66.1344C118.76 68.1859 118.641 69.8497 118.305 70.8168C118.134 71.3099 117.977 71.414 117.962 71.4214C117.961 71.422 117.962 71.4218 117.96 71.422C117.959 71.4222 117.946 71.4242 117.919 71.421C117.859 71.4139 117.735 71.3826 117.535 71.2682C117.124 71.0327 116.544 70.5342 115.78 69.6312C115.026 68.7402 114.135 67.5069 113.088 65.863L113.079 65.8487L113.069 65.8347C112.983 65.7081 112.896 65.582 112.81 65.4562C110.803 62.5334 108.926 59.7978 107.856 56.4544C106.997 52.4435 103.702 48.6362 99.8505 46.6579C95.9539 44.6566 91.1882 44.4039 87.6794 48.0736L87.6557 48.0984L87.6337 48.1247C85.1874 51.0621 82.8223 54.3815 81.3353 57.9808C79.1337 62.6236 78.0375 67.8542 77.2924 73.185C76.9419 75.6927 76.667 78.2404 76.3943 80.7675C76.3763 80.9335 76.3584 81.0995 76.3405 81.2654C76.0492 83.9618 75.7547 86.6322 75.3662 89.2405C73.8097 99.6896 70.7846 108.841 60.8435 113.893L60.8143 113.908L60.7862 113.925C53.417 118.299 45.0774 118.744 36.6599 117.7C31.516 116.701 26.0832 115.537 21.3024 113.393C16.5293 111.252 12.4753 108.164 10.0287 103.354C5.63429 94.6584 4.93519 82.9327 8.03149 72.8158C11.1177 62.732 17.9031 54.4358 28.3215 52.2108C36.425 51.648 46.6391 53.6092 54.487 58.1375C62.3306 62.6634 67.6448 69.6297 66.4447 79.1131C65.0831 87.5094 59.6222 92.9316 51.1969 95.5189C43.987 97.5693 38.5981 97.2036 34.8077 95.5995C31.03 94.0007 28.7456 91.1349 27.7725 87.9656C25.8002 81.542 29.1806 74.0523 36.5366 72.936C38.0986 72.8223 39.3052 73.1381 40.2395 73.7015C41.1866 74.2727 41.9208 75.1391 42.458 76.221C43.5456 78.4115 43.7678 81.3796 43.3367 84.0224C43.1229 85.3334 42.7553 86.5169 42.29 87.4411C41.8145 88.3855 41.2897 88.957 40.8209 89.2018C40.4327 89.4046 39.9994 89.4343 39.4153 89.0536C38.7658 88.6303 37.9555 87.7018 37.0751 85.9641L36.5134 84.8556L35.5507 85.6413C34.6428 86.3823 34.0808 87.2641 33.8881 88.2183C33.696 89.1697 33.8905 90.0972 34.3246 90.895C35.1782 92.4639 36.9816 93.6015 38.9959 93.7849L39.0288 93.7879L39.0619 93.7887C41.3483 93.8451 43.2128 93.0436 44.6352 91.7C46.0376 90.3752 46.9722 88.5624 47.5206 86.6208C48.6038 82.7855 48.26 78.1526 46.6594 74.9986C44.6712 69.9581 40.4088 68.019 36.1277 68.3421C31.9029 68.6609 27.6133 71.1721 25.3185 75.0197L25.2967 75.0564L25.278 75.0948C22.3241 81.1712 21.9107 86.361 23.3864 90.5378C24.8618 94.7139 28.1625 97.6974 32.2724 99.4863C40.4394 103.041 52.0837 102.018 60.3667 96.0872C70.1435 89.398 72.7642 79.6646 70.4018 70.8805C68.0546 62.153 60.8087 54.4167 50.9912 51.5165C50.3539 51.322 49.7036 51.1201 49.042 50.9148C45.0175 49.666 40.5779 48.2883 36.1514 47.6472C30.9779 46.8979 25.6831 47.1294 20.9261 49.8112L20.9223 49.8133C4.13738 59.3709 -1.14311 79.6161 2.93394 97.3358C4.83295 109.406 13.0409 115.948 23.0051 119.527C32.8783 123.074 44.627 123.778 54.0632 124.126C67.5094 129.062 79.969 125.612 92.0735 120.837C94.6464 119.823 97.1772 118.759 99.6996 117.7C103.202 116.229 106.687 114.764 110.247 113.446C116.316 111.197 122.406 109.455 128.646 109.018L128.697 109.014L128.748 109.005C137.772 107.425 146.842 107.964 155.959 109.219C160.457 109.838 164.951 110.629 169.456 111.422L169.64 111.454C174.188 112.254 178.746 113.054 183.291 113.669C199.339 117.046 215.585 118.265 231.874 119.082C240.29 120.37 252.624 120.962 264.311 119.45C275.96 117.942 287.252 114.307 293.205 106.888L293.221 106.866L293.237 106.844C294.519 105.057 295.957 103.323 297.432 101.555L297.612 101.339C299.021 99.6495 300.458 97.9269 301.773 96.1374C304.514 92.4079 306.792 88.2997 307.304 83.3239C308.992 72.4552 308.598 59.9927 298.303 52.7308C290.336 46.4058 282.544 43.6394 275.401 44.9076C268.235 46.1798 262.022 51.4574 257.11 60.5504L257.098 60.5724L257.087 60.5949C253.128 68.8894 254.757 76.4799 259.632 80.7586C264.495 85.0269 272.292 85.7394 280.138 80.9318C282.283 79.784 283.609 78.1302 284.197 76.2757C284.783 74.4294 284.615 72.4606 283.917 70.7044C282.53 67.2165 278.946 64.351 274.495 64.8368L274.379 64.8496L274.268 64.8891C271.591 65.8449 269.881 67.2735 268.963 68.876C268.046 70.4758 267.963 72.1743 268.417 73.5487C268.857 74.8834 269.868 76.0529 271.247 76.3098C272.721 76.5846 274.114 75.741 275.1 74.064L275.496 73.3908L274.939 72.8436C274.665 72.5747 274.38 72.2968 274.091 72.0137C273.901 71.8285 273.709 71.6411 273.516 71.4524C274.471 70.3222 275.397 69.892 276.151 69.8157C277.042 69.7254 277.909 70.1062 278.584 70.8384C279.951 72.324 280.282 74.9702 278.176 76.8359C275.745 78.8468 272.1 80.0827 268.715 79.9539C265.352 79.8258 262.413 78.3744 261.047 75.1917C259.108 70.589 259.756 66.0366 261.866 61.9052C263.986 57.7517 267.568 54.066 271.378 51.331L271.387 51.3242C275.896 48.0099 281.198 48.1885 286.292 50.2791C291.391 52.3714 296.144 56.3365 299.328 60.3268C305.496 69.254 304.692 82.4038 299.072 91.5394C295.397 96.3441 291.685 101.103 287.715 105.626C281.664 111.136 272.161 113.68 263.902 114.052C263.899 113.466 263.905 112.879 263.911 112.292C263.913 112.178 263.914 112.064 263.916 111.949C263.925 111.144 263.935 110.338 263.926 109.554C263.907 107.777 263.795 106.02 263.335 104.479C262.866 102.911 262.025 101.524 260.537 100.563C259.284 99.7532 257.658 99.3003 255.589 99.2092Z" stroke="#8E7564" stroke-width="2"/>
</svg>
