<svg width="22" height="22" viewBox="0 0 22 22" fill="none" xmlns="http://www.w3.org/2000/svg">
<mask id="mask0_1_152" style="mask-type:luminance" maskUnits="userSpaceOnUse" x="0" y="0" width="22" height="22">
<path d="M22 0H0V21.8571H22V0Z" fill="white"/>
</mask>
<g mask="url(#mask0_1_152)">
<path d="M21.8454 0.170108C21.5231 -0.0621126 21.1769 0.00272548 20.8721 0.0594434C20.8042 0.0721703 20.7366 0.084893 20.6698 0.0942074C17.8334 0.48701 15.0411 1.14703 12.3304 2.06532C10.66 2.63573 9.02017 3.17855 7.45697 3.67878C6.86287 3.86876 6.47986 4.21599 6.25067 4.77136C5.54518 6.48009 5.12264 7.95687 4.91954 9.41863C4.90636 9.51353 4.89577 9.60908 4.8851 9.70592C4.86268 9.97595 4.81608 10.2435 4.74586 10.5053C4.68087 10.4426 4.61738 10.3818 4.55613 10.3226C4.35728 10.1306 4.16948 9.94939 3.97658 9.77969C3.6038 9.45193 3.34743 9.42925 2.92136 9.68747C2.77693 9.76946 2.64254 9.86776 2.52091 9.98046C1.77207 10.7168 1.02435 11.4605 0.298634 12.191C0.177256 12.2969 0.0880029 12.4345 0.0409572 12.5881C-0.00608809 12.7417 -0.0090771 12.9053 0.0323 13.0605C0.0355329 13.0762 0.0427301 13.0906 0.0531958 13.1028C0.214529 13.291 0.378633 13.4891 0.546929 13.692C0.936799 14.1624 1.33938 14.6478 1.78264 15.1062C3.16576 16.5375 4.69427 18.0822 6.59166 19.9676C7.03871 20.4119 7.51583 20.8396 7.97727 21.2531C8.18993 21.4438 8.4026 21.6345 8.61323 21.8274C8.63093 21.8435 8.65416 21.8525 8.67821 21.8524H9.25018C9.26906 21.8524 9.28751 21.8469 9.3032 21.8365C9.31888 21.8261 9.33114 21.8112 9.33837 21.7939C9.34673 21.7736 9.3536 21.7515 9.36028 21.7294C9.36538 21.7079 9.37318 21.6874 9.38358 21.6679C9.77011 21.3305 10.1576 20.9939 10.546 20.6585C11.0187 20.2491 11.4909 19.8386 11.9622 19.4272C12.2161 19.2048 12.4804 18.9201 12.515 18.4952C12.5156 18.4884 12.5154 18.4814 12.5145 18.4745C12.4614 18.0964 12.2094 17.8645 11.9657 17.6401C11.7819 17.4706 11.6073 17.3098 11.5126 17.0908L11.5581 17.0676C11.6295 17.0294 11.7033 16.9954 11.7791 16.9662C12.2376 16.8028 12.6967 16.6408 13.1564 16.4804C14.1463 16.1332 15.1698 15.7742 16.1674 15.3958C16.7522 15.1739 17.3082 14.8585 17.8456 14.5536L17.8742 14.5375C18.3076 14.2916 18.5798 13.8842 18.6835 13.3269C18.7671 12.8773 18.8739 12.4154 19.0014 11.9541C20.1588 7.76506 21.0494 4.56062 21.8889 1.56426C22.0392 1.02862 22.0359 0.611588 21.8788 0.212257C21.8719 0.195315 21.8602 0.180682 21.8454 0.170108ZM12.7761 10.8636C12.5256 10.9409 12.2545 10.919 12.0199 10.8025C11.7851 10.6859 11.6048 10.4836 11.5167 10.2381C11.3019 9.69642 11.5089 9.19932 12.0438 8.97172C12.3222 8.85453 12.6181 8.78325 12.9196 8.7607C12.9571 8.75793 12.9933 8.75656 13.0284 8.75656C13.2174 8.74472 13.4038 8.80555 13.5489 8.92643C13.6921 9.05877 13.764 9.26822 13.763 9.54895C13.7608 10.1177 13.3182 10.7072 12.776 10.864L12.7761 10.8636ZM18.8615 2.41632C18.5584 2.70978 18.2719 2.9869 17.9971 3.28562C17.7092 3.59919 17.4075 3.91026 17.1156 4.21138C16.7144 4.62583 16.2988 5.0544 15.9118 5.49552C15.4495 6.02185 15.0219 6.56015 14.5692 7.13009C14.3848 7.36213 14.1988 7.59639 14.0086 7.83193L13.9108 7.80268C13.7924 7.76716 13.6695 7.73027 13.547 7.69817C12.8751 7.53059 12.1664 7.58612 11.5293 7.85626C10.5151 8.25855 9.9825 9.16363 10.1395 10.2184C10.1948 10.6228 10.3477 11.0079 10.5851 11.3409C10.8226 11.6739 11.1376 11.9449 11.5033 12.1309C11.8488 12.3005 12.2309 12.3833 12.616 12.372C13.0012 12.3608 13.3777 12.2558 13.7126 12.0663C14.2408 11.7939 14.6701 11.364 14.9399 10.8369C15.3606 10.0025 15.3275 9.27006 14.8384 8.59775C14.8244 8.57847 14.8095 8.55985 14.7945 8.54122C14.7451 8.48649 14.7084 8.42157 14.6872 8.35113C14.6825 8.33813 14.6779 8.32532 14.6726 8.3125C14.6726 8.30706 14.6726 8.30152 14.6719 8.29608C14.6708 8.28452 14.6708 8.27289 14.6719 8.26132C14.6752 8.24695 14.6819 8.23355 14.6915 8.2222C16.5541 6.37699 18.4176 4.53268 20.3539 2.61626C20.3401 2.71636 20.3192 2.8154 20.2916 2.91268C20.0329 3.75339 19.7729 4.59376 19.5119 5.4338C19.0886 6.79816 18.6511 8.2091 18.2289 9.59939C17.9848 10.4036 17.7521 11.2652 17.5374 12.1605C17.4781 12.4409 17.3541 12.7037 17.1751 12.9282C16.9961 13.1528 16.7669 13.3329 16.5058 13.4544C16.0269 13.6917 15.5791 13.9063 15.1371 14.1097C14.7099 14.3065 14.2645 14.4869 13.8341 14.6616C12.7573 15.0982 11.6447 15.5494 10.6856 16.3032L5.69547 11.3686C5.70141 11.3019 5.70477 11.2388 5.70821 11.1785C5.70837 11.0573 5.725 10.9365 5.75766 10.8197C6.29494 9.27588 6.84914 7.7063 7.38511 6.18848L7.81408 4.97333C8.5722 4.71198 9.33847 4.44029 10.0799 4.17745C13.2513 3.05286 16.5278 1.89102 20.0059 1.24213C19.6265 1.67595 19.2384 2.05148 18.8614 2.41622L18.8615 2.41632ZM10.9475 18.4119L8.8981 20.3726C7.6078 19.3674 2.07328 13.9799 1.29503 12.9716C1.7743 12.2546 2.74637 11.1865 3.33387 10.7305L3.34901 10.7397C3.39714 10.7668 3.44208 10.799 3.48303 10.8359C5.66614 12.9946 7.84778 15.1546 10.028 17.3159L10.1414 17.4275C10.4384 17.7189 10.7451 18.0198 10.9475 18.4119Z" fill="#C9B97E"/>
</g>
</svg>
