<svg width="53" height="53" viewBox="0 0 53 53" fill="none" xmlns="http://www.w3.org/2000/svg">
<mask id="mask0_30_559" style="mask-type:luminance" maskUnits="userSpaceOnUse" x="0" y="0" width="53" height="53">
<path d="M53 0H0V52.6558H53V0Z" fill="white"/>
</mask>
<g mask="url(#mask0_30_559)">
<path d="M52.6274 0.409815C51.851 -0.149626 51.0171 0.00657495 50.2826 0.143214C50.1192 0.173874 49.9564 0.204524 49.7953 0.226963C42.9621 1.17326 36.2352 2.7633 29.7049 4.97555C25.6807 6.34973 21.7303 7.65742 17.9644 8.86251C16.5332 9.3202 15.6105 10.1567 15.0584 11.4947C13.3588 15.6111 12.3408 19.1688 11.8515 22.6903C11.8198 22.919 11.7943 23.1491 11.7686 23.3824C11.7146 24.033 11.6023 24.6775 11.4331 25.3083C11.2766 25.1572 11.1236 25.0107 10.976 24.8681C10.497 24.4056 10.0446 23.969 9.57987 23.5602C8.6818 22.7706 8.06418 22.7159 7.03773 23.338C6.68979 23.5355 6.36604 23.7723 6.07303 24.0438C4.269 25.8177 2.46768 27.6093 0.719358 29.3692C0.426946 29.6245 0.211928 29.9558 0.0985905 30.3259C-0.0147458 30.6958 -0.0219466 31.09 0.0777347 31.4639C0.0855229 31.5017 0.102862 31.5365 0.128074 31.5659C0.51674 32.0193 0.912082 32.4966 1.31752 32.9854C2.25675 34.1185 3.22662 35.2879 4.29447 36.3923C7.62651 39.8404 11.3088 43.5617 15.8798 48.1039C16.9568 49.1742 18.1062 50.2046 19.2179 51.2006C19.7302 51.66 20.2425 52.1195 20.75 52.5841C20.7926 52.623 20.8486 52.6447 20.9065 52.6443H22.2845C22.3299 52.6443 22.3744 52.6313 22.4122 52.6061C22.45 52.581 22.4795 52.5452 22.4969 52.5036C22.517 52.4547 22.5336 52.4014 22.5497 52.348C22.562 52.2964 22.5808 52.2468 22.6058 52.2C23.537 51.3871 24.4704 50.5763 25.4061 49.7682C26.545 48.7819 27.6824 47.7931 28.818 46.8019C29.4296 46.2661 30.0663 45.5802 30.1497 44.5567C30.1511 44.5401 30.1506 44.5233 30.1484 44.5068C30.0207 43.5958 29.4135 43.0372 28.8263 42.4966C28.3835 42.0884 27.9629 41.7009 27.7347 41.1733L27.8443 41.1175C28.0165 41.0253 28.1943 40.9434 28.3768 40.8732C29.4813 40.4795 30.5874 40.0892 31.695 39.7027C34.0795 38.8664 36.5453 38.0015 38.9486 37.0899C40.3575 36.5554 41.697 35.7955 42.9917 35.0611L43.0605 35.0222C44.1047 34.4299 44.7603 33.4484 45.0102 32.1058C45.2115 31.0226 45.4689 29.9098 45.7759 28.7984C48.5643 18.7067 50.7097 10.987 52.7323 3.76846C53.0944 2.47804 53.0865 1.47338 52.7079 0.511355C52.6914 0.470541 52.6632 0.435289 52.6274 0.409815ZM30.7788 26.1714C30.1752 26.3576 29.5222 26.3049 28.9569 26.0241C28.3913 25.7433 27.957 25.256 27.7448 24.6646C27.2273 23.3596 27.7258 22.162 29.0146 21.6137C29.6853 21.3314 30.398 21.1596 31.1243 21.1053C31.2146 21.0987 31.3021 21.0954 31.3866 21.0954C31.8419 21.0668 32.291 21.2134 32.6405 21.5046C32.9853 21.8234 33.1586 22.328 33.1562 23.0043C33.151 24.3744 32.0846 25.7946 30.7786 26.1723L30.7788 26.1714ZM45.439 5.82114C44.7087 6.5281 44.0187 7.19573 43.3565 7.91536C42.663 8.67078 41.9362 9.42018 41.2331 10.1456C40.2663 11.1441 39.2652 12.1765 38.3329 13.2392C37.2192 14.5072 36.1891 15.804 35.0985 17.177C34.6542 17.7361 34.2061 18.3004 33.7479 18.8678L33.5124 18.7974C33.2271 18.7118 32.931 18.6229 32.6358 18.5456C31.0172 18.1419 29.31 18.2757 27.775 18.9265C25.3316 19.8956 24.0487 22.076 24.4268 24.6171C24.5601 25.5913 24.9284 26.5191 25.5005 27.3212C26.0725 28.1235 26.8315 28.7764 27.7124 29.2244C28.5447 29.6329 29.4652 29.8324 30.393 29.8053C31.3211 29.7782 32.2281 29.5254 33.0347 29.0688C34.3073 28.4125 35.3415 27.377 35.9916 26.1072C37.0051 24.0969 36.9253 22.3324 35.7469 20.7128C35.7131 20.6663 35.6773 20.6215 35.6412 20.5766C35.5221 20.4447 35.4337 20.2883 35.3828 20.1186C35.3714 20.0873 35.3604 20.0565 35.3476 20.0256C35.3476 20.0125 35.3476 19.9991 35.3459 19.986C35.3432 19.9582 35.3432 19.9302 35.3459 19.9023C35.3538 19.8677 35.37 19.8354 35.3931 19.808C39.8802 15.3628 44.3697 10.9196 49.0344 6.30282C49.001 6.54397 48.9508 6.78257 48.8843 7.01691C48.2611 9.04226 47.6347 11.0668 47.0059 13.0905C45.9862 16.3774 44.932 19.7765 43.9151 23.1258C43.3269 25.0632 42.7663 27.139 42.249 29.2959C42.1062 29.9713 41.8075 30.6043 41.3762 31.1453C40.945 31.6863 40.393 32.1202 39.7639 32.4128C38.6102 32.9845 37.5313 33.5015 36.4665 33.9916C35.4375 34.4657 34.3644 34.9003 33.3275 35.3212C30.7334 36.373 28.053 37.4598 25.7424 39.2759L13.7208 27.388C13.7351 27.2274 13.7432 27.0752 13.7515 26.9301C13.7519 26.638 13.792 26.3471 13.8706 26.0657C15.165 22.3464 16.5001 18.5652 17.7913 14.9086L18.8248 11.9812C20.6511 11.3516 22.4971 10.6971 24.2833 10.0639C31.9235 7.35463 39.8169 4.55564 48.196 2.9924C47.2819 4.03752 46.3469 4.9422 45.4386 5.8209L45.439 5.82114ZM26.3735 44.356L21.4362 49.0796C18.3278 46.6577 4.99465 33.679 3.11976 31.2497C4.27437 29.5225 6.61618 26.9492 8.03152 25.8508L8.068 25.873C8.18394 25.9381 8.29221 26.0159 8.39085 26.1048C13.6502 31.3053 18.9059 36.5089 24.1582 41.7157L24.4315 41.9844C25.1469 42.6865 25.8858 43.4113 26.3735 44.356Z" fill="#AB996F"/>
</g>
</svg>
