<svg width="1440" height="1113" viewBox="0 0 1440 1113" fill="none" xmlns="http://www.w3.org/2000/svg">
<mask id="mask0_30_3" style="mask-type:alpha" maskUnits="userSpaceOnUse" x="0" y="0" width="1440" height="1113">
<rect width="1440" height="1113" fill="#B4B4B4"/>
</mask>
<g mask="url(#mask0_30_3)">
<path d="M-108.285 -39C-108.026 -14.4904 -108.242 10.0192 -108.76 34.5287C-109.884 92.0816 -112.348 149.585 -110.057 207.088C-107.766 264.244 -104.524 321.301 -100.374 378.308C-93.1981 477.438 -83.6013 576.32 -72.6212 675.003C-63.9755 747.142 -54.811 819.183 -45.4304 891.173C-35.7904 965.149 -25.6317 1039.02 -15.9485 1113H1499C1494.59 996.803 1489.23 880.705 1483.22 764.557C1469.35 497.036 1454.04 229.067 1456.16 -39L-108.285 -39Z" fill="#F3EAD2"/>
<path opacity="0.3" d="M-72.1331 700.388C-63.49 768.347 -54.3284 836.212 -44.9507 904.03C-35.3137 973.718 -25.1581 1043.31 -15.4779 1113H1499C1494.59 1003.54 1489.23 894.168 1483.23 784.752C1478.47 698.566 1473.59 612.379 1469.22 526.099C1451.72 521.051 1434.39 515.396 1416.85 510.394C1383.1 500.813 1349.39 495.765 1314.47 496.98C1278.73 498.196 1243.34 503.571 1207.77 507.216C1172.77 510.768 1137.98 510.955 1102.89 509.927C1081.41 509.32 1059.8 508.478 1038.33 509.086C1019.61 511.096 1001.03 515.115 982.232 514.554C959.285 513.9 936.122 508.712 913.779 503.29C879.942 495.017 846.536 484.361 812.396 477.677C778.775 471.087 746.234 469.919 712.569 477.07C650.08 490.39 591.653 518.667 527.651 524.042C459.846 529.744 391.005 527.641 324.323 511.843C291.912 504.178 259.89 493.989 229.336 479.827C198.351 465.478 166.977 448.465 133.399 442.763C65.8099 431.265 5.61111 479.407 -60.076 488.754C-71.3984 490.39 -82.7208 491.325 -94 491.839C-87.7338 561.48 -80.344 630.981 -72.1331 700.388Z" fill="#BCA87A"/>
</g>
<g opacity="0.5">
<path d="M554.928 503.977C569.247 503.977 580.855 494.58 580.855 482.988C580.855 471.397 569.247 462 554.928 462C540.608 462 529 471.397 529 482.988C529 494.58 540.608 503.977 554.928 503.977Z" fill="#E3D6B8"/>
<path d="M1280.93 357.138C1295.25 357.138 1306.86 347.741 1306.86 336.15C1306.86 324.558 1295.25 315.161 1280.93 315.161C1266.61 315.161 1255 324.558 1255 336.15C1255 347.741 1266.61 357.138 1280.93 357.138Z" fill="#E3D6B8"/>
<path d="M692.864 376.407C692.864 387.999 678.896 390.194 664.581 390.194C650.265 390.194 641.009 387.999 641.009 376.407C641.009 364.815 658.115 353.839 672.438 353.839C686.76 353.839 692.864 364.815 692.864 376.407Z" fill="#E3D6B8"/>
<path d="M1418.86 229.568C1418.86 241.16 1404.9 243.355 1390.58 243.355C1376.26 243.355 1367.01 241.16 1367.01 229.568C1367.01 217.976 1384.12 207 1398.44 207C1412.76 207 1418.86 217.976 1418.86 229.568Z" fill="#E3D6B8"/>
<path d="M428.855 484.568C428.855 496.16 414.888 498.355 400.572 498.355C386.256 498.355 377 496.16 377 484.568C377 472.976 394.107 462 408.429 462C422.751 462 428.855 472.976 428.855 484.568Z" fill="#E3D6B8"/>
<path d="M1154.86 337.729C1154.86 349.321 1140.89 351.516 1126.57 351.516C1112.26 351.516 1103 349.321 1103 337.729C1103 326.137 1120.11 315.161 1134.43 315.161C1148.75 315.161 1154.86 326.137 1154.86 337.729Z" fill="#E3D6B8"/>
<path d="M169.642 412.568C169.642 424.16 158.425 426.355 146.927 426.355C135.429 426.355 128 424.16 128 412.568C128 400.976 141.74 390 153.238 390C164.743 390.007 169.642 400.976 169.642 412.568Z" fill="#E3D6B8"/>
<path d="M836.303 277.395C836.303 282.776 827.368 291.275 820.923 291.275C814.478 291.275 812.972 282.776 812.972 277.395C812.972 272.014 821.552 273.219 827.997 273.219C834.442 273.219 836.303 272.014 836.303 277.395Z" fill="#E3D6B8"/>
<path d="M725.668 434.583C725.668 445.345 707.792 462.351 694.909 462.351C682.025 462.351 679 445.345 679 434.583C679 423.821 696.167 426.23 709.057 426.23C721.934 426.23 725.668 423.821 725.668 434.583Z" fill="#E3D6B8"/>
<path d="M527.139 309.827C527.139 314.532 529.395 321.961 522.796 321.961C516.197 321.961 503.233 314.532 503.233 309.827C503.233 305.122 512.027 306.18 518.626 306.18C525.225 306.18 527.139 305.129 527.139 309.827Z" fill="#E3D6B8"/>
<path d="M1123.14 211.827C1123.14 216.532 1125.39 223.961 1118.8 223.961C1112.2 223.961 1099.23 216.532 1099.23 211.827C1099.23 207.122 1108.03 208.18 1114.63 208.18C1121.23 208.18 1123.14 207.129 1123.14 211.827Z" fill="#E3D6B8"/>
<path d="M429.486 313.113C434.173 313.113 437.973 308.163 437.973 302.056C437.973 295.95 434.173 291 429.486 291C424.799 291 421 295.95 421 302.056C421 308.163 424.799 313.113 429.486 313.113Z" fill="#E3D6B8"/>
<path d="M1415.49 128.113C1420.17 128.113 1423.97 123.163 1423.97 117.056C1423.97 110.95 1420.17 106 1415.49 106C1410.8 106 1407 110.95 1407 117.056C1407 123.163 1410.8 128.113 1415.49 128.113Z" fill="#E3D6B8"/>
<path d="M1025.49 215.113C1030.17 215.113 1033.97 210.163 1033.97 204.056C1033.97 197.95 1030.17 193 1025.49 193C1020.8 193 1017 197.95 1017 204.056C1017 210.163 1020.8 215.113 1025.49 215.113Z" fill="#E3D6B8"/>
<path d="M278.486 288.113C283.173 288.113 286.973 283.163 286.973 277.056C286.973 270.95 283.173 266 278.486 266C273.799 266 270 270.95 270 277.056C270 283.163 273.799 288.113 278.486 288.113Z" fill="#E3D6B8"/>
<path d="M1199.49 266.113C1204.17 266.113 1207.97 261.163 1207.97 255.056C1207.97 248.95 1204.17 244 1199.49 244C1194.8 244 1191 248.95 1191 255.056C1191 261.163 1194.8 266.113 1199.49 266.113Z" fill="#E3D6B8"/>
<path d="M1378.49 471.113C1383.17 471.113 1386.97 466.163 1386.97 460.056C1386.97 453.95 1383.17 449 1378.49 449C1373.8 449 1370 453.95 1370 460.056C1370 466.163 1373.8 471.113 1378.49 471.113Z" fill="#E3D6B8"/>
<path d="M578.559 397.937C583.246 397.937 587.045 392.987 587.045 386.881C587.045 380.774 583.246 375.824 578.559 375.824C573.872 375.824 570.073 380.774 570.073 386.881C570.073 392.987 573.872 397.937 578.559 397.937Z" fill="#E3D6B8"/>
<path d="M1304.56 251.098C1309.25 251.098 1313.05 246.148 1313.05 240.042C1313.05 233.935 1309.25 228.985 1304.56 228.985C1299.87 228.985 1296.07 233.935 1296.07 240.042C1296.07 246.148 1299.87 251.098 1304.56 251.098Z" fill="#E3D6B8"/>
<path d="M306.828 222.113C311.515 222.113 315.314 217.163 315.314 211.056C315.314 204.95 311.515 200 306.828 200C302.141 200 298.341 204.95 298.341 211.056C298.341 217.163 302.141 222.113 306.828 222.113Z" fill="#E3D6B8"/>
<path d="M1406.83 405.113C1411.51 405.113 1415.31 400.163 1415.31 394.056C1415.31 387.95 1411.51 383 1406.83 383C1402.14 383 1398.34 387.95 1398.34 394.056C1398.34 400.163 1402.14 405.113 1406.83 405.113Z" fill="#E3D6B8"/>
<path d="M26.4864 435.113C31.1733 435.113 34.9728 430.163 34.9728 424.056C34.9728 417.95 31.1733 413 26.4864 413C21.7995 413 18 417.95 18 424.056C18 430.163 21.7995 435.113 26.4864 435.113Z" fill="#E3D6B8"/>
<path d="M53.4864 371.113C58.1733 371.113 61.9727 366.163 61.9727 360.056C61.9727 353.95 58.1733 349 53.4864 349C48.7995 349 45 353.95 45 360.056C45 366.163 48.7995 371.113 53.4864 371.113Z" fill="#E3D6B8"/>
<path d="M238.422 344.134C241.634 344.134 244.238 340.739 244.238 336.552C244.238 332.364 241.634 328.969 238.422 328.969C235.21 328.969 232.606 332.364 232.606 336.552C232.606 340.739 235.21 344.134 238.422 344.134Z" fill="#E3D6B8"/>
<path d="M1159.82 490.166C1163.03 490.166 1165.63 486.771 1165.63 482.583C1165.63 478.395 1163.03 475 1159.82 475C1156.6 475 1154 478.395 1154 482.583C1154 486.771 1156.6 490.166 1159.82 490.166Z" fill="#E3D6B8"/>
<path d="M1325.82 304.166C1329.03 304.166 1331.63 300.771 1331.63 296.583C1331.63 292.395 1329.03 289 1325.82 289C1322.6 289 1320 292.395 1320 296.583C1320 300.771 1322.6 304.166 1325.82 304.166Z" fill="#E3D6B8"/>
<path d="M128.403 168.958C128.403 177.545 119.809 184.506 109.201 184.506C98.5935 184.506 90 177.545 90 168.958C90 160.372 98.5935 165.545 109.201 165.545C119.809 165.545 128.403 160.372 128.403 168.958Z" fill="#E3D6B8"/>
<path d="M201.103 269.303C201.103 277.89 190.763 279.51 180.155 279.51C169.554 279.51 162.7 277.883 162.7 269.303C162.7 260.723 175.37 252.592 185.971 252.592C196.572 252.592 201.103 260.717 201.103 269.303Z" fill="#E3D6B8"/>
<path d="M1382.4 331.712C1382.4 340.298 1372.06 341.918 1361.45 341.918C1350.85 341.918 1344 340.292 1344 331.712C1344 323.132 1356.67 315 1367.27 315C1377.87 315 1382.4 323.125 1382.4 331.712Z" fill="#E3D6B8"/>
<path d="M46.4028 126.712C46.4028 135.298 36.0626 136.918 25.4546 136.918C14.8533 136.918 8 135.292 8 126.712C8 118.132 20.6693 110 31.2706 110C41.8719 110 46.4028 118.125 46.4028 126.712Z" fill="#E3D6B8"/>
<path d="M845.907 335.093C845.907 339.383 840.734 340.199 835.433 340.199C830.132 340.199 826.706 339.389 826.706 335.093C826.706 330.802 833.037 326.74 838.344 326.74C843.645 326.74 845.907 330.802 845.907 335.093Z" fill="#E3D6B8"/>
<path d="M1036.2 361.353C1036.2 365.643 1031.03 366.459 1025.73 366.459C1020.43 366.459 1017 365.649 1017 361.353C1017 357.062 1023.33 353 1028.64 353C1033.94 353 1036.2 357.062 1036.2 361.353Z" fill="#E3D6B8"/>
<path d="M923.334 427.718C923.334 432.711 917.317 433.654 911.153 433.654C904.989 433.654 901 432.711 901 427.718C901 422.725 908.369 418 914.533 418C920.703 418 923.334 422.725 923.334 427.718Z" fill="#E3D6B8"/>
<path d="M116.393 286.751C116.393 295.338 120.014 308.904 109.413 308.904C98.8114 308.904 77.9971 295.338 77.9971 286.751C77.9971 278.164 92.1187 280.085 102.727 280.085C113.321 280.085 116.393 278.164 116.393 286.751Z" fill="#E3D6B8"/>
<path d="M289.396 453.849C289.396 462.436 293.017 476.002 282.416 476.002C271.814 476.002 251 462.436 251 453.849C251 445.263 265.122 447.184 275.73 447.184C286.324 447.184 289.396 445.263 289.396 453.849Z" fill="#E3D6B8"/>
<path d="M893.873 279.603C895.828 281.778 899.964 283.619 896.912 288.284C893.86 292.949 884.785 298.671 882.824 296.502C880.87 294.327 885.367 288.605 888.419 283.94C891.471 279.262 891.913 277.428 893.873 279.603Z" fill="#E3D6B8"/>
<path d="M936.358 280.489C941.009 276.868 955.298 276.092 959.769 285.85C964.24 295.608 957.206 312.193 952.561 315.813C947.909 319.434 949.087 309.957 944.617 300.199C940.139 290.441 931.706 284.11 936.358 280.489Z" fill="#E3D6B8"/>
<path d="M389.557 204.103C389.557 209.089 384.564 213.138 378.4 213.138C372.236 213.138 367.243 209.095 367.243 204.103C367.243 199.11 372.236 202.122 378.4 202.122C384.557 202.122 389.557 199.117 389.557 204.103Z" fill="#E3D6B8"/>
<path d="M57.1429 249.519C57.1429 254.505 52.1501 258.554 45.9861 258.554C39.8221 258.554 34.8293 254.512 34.8293 249.519C34.8293 244.526 39.8221 247.538 45.9861 247.538C52.1501 247.538 57.1429 244.526 57.1429 249.519Z" fill="#E3D6B8"/>
<path d="M592.387 301.18C592.387 306.167 587.394 310.216 581.23 310.216C575.066 310.216 570.073 306.173 570.073 301.18C570.073 296.194 575.066 299.199 581.23 299.199C587.394 299.199 592.387 296.194 592.387 301.18Z" fill="#E3D6B8"/>
<path d="M189.244 349.154C189.244 354.14 183.233 355.084 177.069 355.084C170.906 355.084 166.923 354.14 166.923 349.154C166.923 344.168 174.285 339.443 180.449 339.443C186.613 339.443 189.244 344.168 189.244 349.154Z" fill="#E3D6B8"/>
<path d="M1322.32 137.711C1322.32 142.697 1316.31 143.641 1310.15 143.641C1303.98 143.641 1300 142.697 1300 137.711C1300 132.725 1307.36 128 1313.53 128C1319.69 128 1322.32 132.725 1322.32 137.711Z" fill="#E3D6B8"/>
<path d="M490.977 385.649C490.977 388.547 487.484 389.095 483.896 389.095C480.316 389.095 478 388.547 478 385.649C478 382.751 482.283 380 485.864 380C489.451 380 490.977 382.751 490.977 385.649Z" fill="#E3D6B8"/>
<path d="M1086.98 287.649C1086.98 290.547 1083.48 291.095 1079.9 291.095C1076.32 291.095 1074 290.547 1074 287.649C1074 284.751 1078.28 282 1081.86 282C1085.45 282 1086.98 284.751 1086.98 287.649Z" fill="#E3D6B8"/>
<path d="M721.666 332.004C725.3 331.824 733.9 337.358 734.128 344.981C734.355 352.598 726.116 359.418 722.482 359.598C718.848 359.779 721.887 354.693 721.659 347.076C721.432 339.453 718.038 332.185 721.666 332.004Z" fill="#E3D6B8"/>
<path d="M641.799 294.488C644.503 292.38 652.802 291.931 655.405 297.6C658.002 303.269 653.92 312.906 651.216 315.014C648.512 317.123 649.201 311.608 646.598 305.939C643.994 300.277 639.095 296.596 641.799 294.488Z" fill="#E3D6B8"/>
</g>
<path opacity="0.5" d="M-41.9413 1001.26C-32.4979 1057.2 -22.5463 1113.06 -13.0605 1169H1471C1469.22 1132.57 1467.27 1096.14 1465.16 1059.71C1445.63 1061.81 1425.65 1060.91 1407.01 1057.2C1333.24 1042.57 1280.06 991.694 1217.42 957.703C1179.35 937.031 1136.63 920.674 1091.82 933.054C1052.02 944.047 1015.85 962.731 972.7 958.491C930.141 954.327 891.943 937.519 851.798 925.363C829.227 918.535 805.555 912.608 781.544 913.02C755.882 913.471 729.923 919.211 705.488 926.001C652.469 940.708 602.754 962.843 554.139 986.554C511.241 1007.49 467.242 1023.96 417.865 1026.66C367.769 1029.4 318.053 1020.92 270.878 1006.1C222.348 990.868 174.58 970.121 123.171 963.819C96.4919 960.555 69.2203 960.48 42.9226 966.295C15.8204 972.297 -9.20687 983.177 -35.1234 992.182C-37.7489 993.082 -40.3745 993.982 -43 994.883C-42.6612 996.984 -42.3224 999.122 -41.9413 1001.26Z" fill="#988965"/>
<path d="M870.611 969.168L870.654 968.996C876.345 969.056 883.859 954.515 881.648 953.296C879.337 952.019 871.19 956.594 868.421 960.922C866.577 963.803 866.462 965.751 867.165 967.023L860.307 965.002L865.945 953.457L863.661 952.17L856.486 963.876L850.617 962.147L858.706 946.161L856.422 944.875L846.747 961.109L840.752 959.623L851.231 939.294L848.947 938.007L836.825 958.65L830.844 957.167L842.931 933.915L840.65 932.629L826.909 956.192L820.922 954.708L831.176 934.788L828.892 933.502L816.998 953.736L810.998 952.249L819.706 935.139L817.422 933.853L807.084 951.278L801.954 950.007C804.462 938.688 803.849 929.167 796.374 927.315C785.896 924.718 769.15 933.766 766.777 943.343C764.403 952.921 774.985 968.742 785.466 971.34C792.94 973.192 797.929 965.059 800.997 953.879L806.127 955.151L807.131 975.388L809.751 975.317L810.041 956.121L816.041 957.608L817.109 981.055L819.73 980.984L819.965 958.581L825.952 960.064L827.098 987.317L829.719 987.246L829.889 961.04L835.871 962.523L836.948 986.439L839.569 986.369L839.797 963.499L845.792 964.984L846.765 983.861L849.386 983.79L849.697 965.879L855.695 967.088L856.572 980.787L859.192 980.716L859.597 967.876L866.606 969.29C865.39 970.086 864.585 971.863 864.87 975.271C865.297 980.392 870.365 988.242 873.005 988.192C875.525 988.14 875.672 971.773 870.611 969.168ZM783.56 943.755C781.557 943.258 780.333 941.234 780.828 939.235C781.324 937.235 783.35 936.014 785.356 936.511C787.362 937.008 788.581 939.031 788.085 941.033C787.589 943.033 785.564 944.251 783.56 943.755Z" fill="#E3D6B8"/>
<path d="M867.353 957.411C869.134 955.427 871.515 953.66 873.719 952.402C875.195 951.559 876.748 950.854 878.187 950.451C878.906 950.25 879.681 950.1 880.454 950.08C881.2 950.062 882.171 950.158 883.097 950.669L867.353 957.411ZM867.353 957.411L868.641 954.773C869.338 953.346 868.802 951.622 867.418 950.843L865.134 949.556C863.728 948.764 861.947 949.227 861.104 950.602L855.129 960.349M867.353 957.411L855.129 960.349M855.129 960.349L854.92 960.287L861.383 947.516C862.108 946.084 861.577 944.335 860.179 943.547L857.895 942.261C856.476 941.462 854.679 941.94 853.845 943.339L845.309 957.662L845.158 957.624L853.897 940.668C854.637 939.234 854.109 937.471 852.703 936.68L850.419 935.393C848.994 934.591 847.188 935.078 846.36 936.488L835.373 955.199L835.262 955.172L845.593 935.299C846.339 933.864 845.813 932.096 844.404 931.302L842.123 930.016C840.694 929.211 838.884 929.702 838.058 931.118L825.449 952.74L825.325 952.709L833.844 936.161C834.582 934.727 834.054 932.966 832.649 932.174L830.365 930.888C828.94 930.085 827.135 930.572 826.306 931.981L815.546 950.285L815.384 950.245L822.38 936.5C823.109 935.067 822.579 933.314 821.179 932.525L818.895 931.239C817.474 930.438 815.674 930.919 814.842 932.322L805.641 947.83L805.46 947.785C806.319 942.999 806.595 938.403 805.854 934.545C804.937 929.774 802.321 925.698 797.096 924.403C790.846 922.854 783.244 924.805 777.109 928.125C771.029 931.415 765.353 936.619 763.865 942.622C762.377 948.624 764.966 955.877 768.806 961.625C772.682 967.426 778.493 972.702 784.744 974.251C789.969 975.546 794.186 973.164 797.224 969.373C799.682 966.308 801.584 962.115 803.059 957.482L803.241 957.526L804.134 975.537C804.215 977.165 805.582 978.431 807.212 978.387L809.832 978.316C811.439 978.273 812.726 976.97 812.751 975.363L812.984 959.941L813.146 959.981L814.112 981.192C814.187 982.825 815.556 984.098 817.19 984.054L819.811 983.983C821.423 983.939 822.713 982.629 822.73 981.016L822.925 962.405L823.049 962.436L824.101 987.443C824.17 989.081 825.541 990.36 827.179 990.316L829.8 990.245C831.417 990.201 832.708 988.883 832.719 987.266L832.864 964.868L832.975 964.896L833.951 986.575C834.025 988.209 835.394 989.483 837.029 989.438L839.65 989.368C841.263 989.324 842.552 988.012 842.569 986.399L842.759 967.324L842.91 967.361L843.769 984.015C843.853 985.641 845.219 986.903 846.846 986.859L849.467 986.789C851.071 986.745 852.357 985.447 852.385 983.842L852.634 969.532L852.848 969.575L853.578 980.979C853.681 982.589 855.039 983.829 856.653 983.786L859.273 983.715C860.861 983.672 862.14 982.399 862.19 980.811L862.283 977.868C862.932 980.457 864.213 983.136 865.576 985.28C866.488 986.714 867.532 988.063 868.616 989.091C869.157 989.605 869.773 990.099 870.447 990.478C871.098 990.843 872.003 991.212 873.061 991.192L873.067 991.192C875.159 991.148 876.174 989.474 876.501 988.839C876.931 988.002 877.19 987.019 877.357 986.103C877.701 984.22 877.796 981.833 877.645 979.447C877.493 977.06 877.083 974.483 876.31 972.25C876.089 971.614 875.818 970.943 875.482 970.284C876.087 969.858 876.64 969.392 877.132 968.932C878.859 967.318 880.424 965.232 881.673 963.192C882.921 961.153 883.951 958.998 884.525 957.172C884.805 956.284 885.035 955.293 885.044 954.352C885.051 953.635 884.931 951.682 883.099 950.67L855.129 960.349ZM864.87 975.271C864.761 973.959 864.812 972.889 864.987 972.024L862.484 971.519L862.359 975.481L864.87 975.271ZM864.87 975.271L862.359 975.481M864.87 975.271L862.359 975.481M862.359 975.481L861.881 975.521C861.881 975.521 861.881 975.521 861.881 975.521C861.758 974.055 861.801 972.673 862.049 971.431L859.501 970.917L862.359 975.481ZM784.282 940.843C783.88 940.743 783.645 940.341 783.74 939.956C783.836 939.568 784.233 939.323 784.634 939.423C785.034 939.522 785.27 939.919 785.173 940.311C785.077 940.698 784.682 940.942 784.282 940.843Z" stroke="#DFD1B2" stroke-opacity="0.2" stroke-width="6" stroke-linejoin="round"/>
<path d="M382.018 1093.6L382.021 1093.53C384.349 1093.08 386.202 1086.52 385.198 1086.2C384.149 1085.88 381.205 1088.42 380.436 1090.42C379.924 1091.75 380.039 1092.55 380.432 1093.01L377.465 1092.76L378.803 1087.58L377.763 1087.24L375.811 1092.62L373.272 1092.41L375.24 1085.21L374.2 1084.87L371.606 1092.3L369.035 1092.2L371.616 1083.03L370.576 1082.69L367.351 1092.13L364.786 1092.02L367.78 1081.52L366.741 1081.19L363.099 1091.95L360.531 1091.85L363.055 1082.86L362.015 1082.53L358.849 1091.78L356.276 1091.67L358.403 1083.96L357.363 1083.63L354.597 1091.6L352.398 1091.51C352.477 1086.68 351.432 1082.85 348.227 1082.71C343.734 1082.53 337.654 1087.62 337.485 1091.73C337.315 1095.83 342.954 1101.41 347.448 1101.59C350.653 1101.72 352.011 1097.99 352.33 1093.17L354.53 1093.26L356.628 1101.44L357.692 1101.19L356.208 1093.33L358.781 1093.44L361.173 1102.92L362.237 1102.67L360.464 1093.51L363.031 1093.61L365.773 1104.64L366.836 1104.39L364.72 1093.68L367.285 1093.79L368.969 1093.86L371.539 1093.97L373.511 1101.59L374.575 1101.34L373.208 1094.01L375.757 1094L377.257 1099.52L378.321 1099.27L377.415 1093.99L380.393 1093.99C379.964 1094.41 379.783 1095.21 380.184 1096.57C380.786 1098.63 383.509 1101.41 384.582 1101.17C385.606 1100.94 384.301 1094.24 382.018 1093.6ZM344.369 1090.49C343.51 1090.46 342.841 1089.73 342.877 1088.88C342.912 1088.02 343.637 1087.35 344.497 1087.39C345.357 1087.42 346.024 1088.15 345.988 1089C345.953 1089.86 345.228 1090.53 344.369 1090.49Z" fill="#E3D6B8"/>
<path d="M29.3003 980.285L29.2647 980.248C30.1825 978.854 27.7899 974.695 27.1386 975.046C26.4572 975.413 26.2923 978.147 26.9201 979.517C27.3377 980.428 27.7995 980.766 28.2247 980.794L26.6384 982.165L24.6868 978.943L24.0073 979.302L25.7545 982.928L24.3971 984.1L21.7398 979.57L21.0603 979.929L23.5271 984.89L22.2098 986.132L18.8607 980.323L18.1812 980.682L21.3468 986.945L20.0323 988.185L19.5 988.5L19.1676 989L17.8519 990.24L14.5681 984.552L13.8886 984.911L16.9895 991.054L15.671 992.297L15.5001 992.5L15.0001 993L14.8108 993.108L13.6834 994.171C11.2912 991.756 8.84672 990.397 7.20413 991.946C4.90146 994.117 4.47515 999.681 6.4595 1001.79C8.44386 1003.89 14.0231 1003.79 16.3263 1001.62C17.9689 1000.07 16.7556 997.551 14.4862 995.021L15.6136 993.958L20.7618 996.921L21.1601 996.264L16.4738 993.147L17.7923 991.904L23.742 995.361L24.1403 994.703L18.6547 991.091L19.9704 989.85L26.8706 993.892L27.2688 993.234L20.8356 989.035L22.1501 987.795L28.2171 991.324L28.6153 990.667L23.0137 986.982L24.331 985.74L29.1389 988.495L29.5372 987.838L25.1713 984.919L26.421 983.632L29.937 985.59L30.3353 984.933L27.2343 982.795L28.6948 981.292C28.6983 981.718 29.0085 982.198 29.894 982.669C31.2241 983.376 33.9633 983.372 34.3699 982.714C34.7569 982.084 30.7455 979.451 29.3003 980.285ZM9.22385 997.713C8.7836 998.128 8.09037 998.109 7.67599 997.669C7.26161 997.23 7.28204 996.537 7.72285 996.121C8.16365 995.705 8.85576 995.726 9.27067 996.166C9.68505 996.605 9.66409 997.298 9.22385 997.713Z" fill="#E3D6B8"/>
<path d="M123.464 1058.68C81.493 1065.42 83.3111 1111.38 44.2966 1105.12C5.28853 1098.85 22.6417 1068.72 15.8541 1037.78C15.5338 1036.34 15.3314 1034.91 15.2354 1033.49C13.1649 1004.52 53.8512 981.441 53.8512 981.441C80.9427 968.032 143.516 984.085 161.375 1004.1C162.524 1005.39 163.484 1006.69 164.243 1008C176.794 1029.72 165.441 1051.93 123.464 1058.68Z" fill="#E3D6B8"/>
<g opacity="0.32">
<path d="M123.464 1058.68C81.4931 1065.42 83.3111 1111.38 44.2966 1105.12C5.28857 1098.85 22.6417 1068.72 15.8542 1037.78C15.5338 1036.34 15.3314 1034.91 15.2355 1033.48C18.8238 1039.41 23.2997 1044.57 28.7243 1048.38C38.727 1055.39 52.2708 1057.11 63.1864 1050.67C67.8429 1047.93 71.9469 1043.83 76.9295 1042.07C81.3656 1040.5 86.0488 1040.95 90.6358 1040.83C102.958 1040.49 115.36 1035.81 125.615 1027.62C131.718 1022.75 137.058 1016.7 143.35 1012.15C148.851 1008.19 155.019 1005.43 161.379 1004.11C162.528 1005.4 163.488 1006.69 164.247 1008.01C176.794 1029.72 165.441 1051.93 123.464 1058.68Z" fill="#C7BC9F"/>
</g>
<path d="M340.733 1069C336.925 1076.15 331.451 1081.27 331.451 1081.27C312.901 1104.52 274.359 1101.84 238.74 1095.42C203.123 1088.99 185.042 1060.85 192.422 1026.68C192.578 1025.97 192.746 1025.28 192.935 1024.63C201.891 993.509 251.456 1017.12 310.771 1030.37C348.909 1038.88 347.22 1056.86 340.733 1069Z" fill="#E3D6B8"/>
<g opacity="0.4">
<path d="M340.733 1069C336.925 1076.15 331.451 1081.27 331.451 1081.27C312.901 1104.52 274.359 1101.84 238.74 1095.42C203.123 1088.99 185.042 1060.85 192.422 1026.68C192.578 1025.97 192.746 1025.28 192.935 1024.63C200.789 1047.49 219.072 1063.62 237.168 1077.46C240.135 1079.73 243.198 1082.01 246.735 1082.94C251.367 1084.17 256.3 1082.96 261.03 1081.75C276.951 1077.68 292.868 1073.61 308.79 1069.54C317.519 1067.31 326.54 1065.07 335.193 1066.87C337.078 1067.27 339.015 1067.98 340.733 1069Z" fill="#D7C8A6"/>
</g>
<path d="M954.378 977.125C953.304 980.083 951.479 982.351 951.479 982.351C945.617 992.3 930.653 993.372 916.61 992.848C902.566 992.322 894.079 982.491 895.051 968.951C895.072 968.67 895.099 968.397 895.136 968.135C896.881 955.682 917.225 962.055 940.751 963.91C955.877 965.101 956.209 972.103 954.378 977.125Z" fill="#E3D6B8"/>
<g opacity="0.4">
<path d="M954.378 977.126C953.304 980.083 951.479 982.351 951.479 982.351C945.617 992.301 930.653 993.373 916.61 992.848C902.566 992.322 894.079 982.491 895.051 968.951C895.072 968.67 895.099 968.397 895.136 968.135C899.404 976.496 907.313 981.698 915.025 986.03C916.289 986.74 917.592 987.45 919.002 987.617C920.85 987.835 922.68 987.1 924.433 986.377C930.331 983.945 936.228 981.51 942.127 979.076C945.361 977.742 948.707 976.389 952.132 976.609C952.878 976.66 953.661 976.825 954.378 977.126Z" fill="#D7C8A6"/>
</g>
<path d="M483.791 1050.97C472.395 1020.24 463.656 1038.97 430.35 1033.74C422.34 1032.48 415.244 1032.78 409.085 1033.95C389.631 1037.66 379.524 1050.13 379.524 1050.13C364.103 1068.05 412.673 1102.24 439.098 1107.79C441.952 1108.39 444.548 1108.66 446.776 1108.53C469.64 1107.25 495.182 1081.71 483.791 1050.97Z" fill="#E3D6B8"/>
<g opacity="0.5">
<path d="M483.791 1050.97C472.395 1020.24 463.656 1038.97 430.35 1033.74C422.34 1032.48 415.243 1032.78 409.085 1033.95C417.339 1038.43 427.392 1040.04 437.337 1040.1C442 1040.13 446.757 1039.84 451.225 1040.79C456.173 1041.85 460.59 1044.45 463.592 1048.09C468.266 1053.74 469.312 1061.61 467.379 1068.85C465.45 1076.1 460.775 1082.74 455.018 1088.26C449.194 1093.84 441.888 1098.89 439.524 1106.14C439.349 1106.68 439.206 1107.24 439.104 1107.79C441.958 1108.39 444.554 1108.66 446.782 1108.53C469.64 1107.25 495.182 1081.71 483.791 1050.97Z" fill="#D7C8A6"/>
</g>
<path d="M606.442 1010.3C614.698 1001.3 607.003 1001.58 603.078 989.653C602.134 986.783 600.83 984.48 599.393 982.638C594.86 976.817 589.005 975.586 589.005 975.586C580.444 973.517 577.359 995.431 580.009 1005.14C580.294 1006.18 580.648 1007.09 581.067 1007.81C585.377 1015.17 598.187 1019.3 606.442 1010.3Z" fill="#E3D6B8"/>
<g opacity="0.5">
<path d="M606.443 1010.3C614.698 1001.3 607.003 1001.58 603.078 989.652C602.134 986.783 600.83 984.48 599.394 982.638C599.311 986.136 600.486 989.743 602.156 993.05C602.939 994.601 603.842 996.13 604.285 997.773C604.775 999.593 604.662 1001.5 603.967 1003.11C602.888 1005.62 600.457 1007.31 597.726 1007.9C594.996 1008.49 592 1008.07 589.191 1007.1C586.351 1006.11 583.434 1004.55 580.628 1005C580.419 1005.03 580.212 1005.08 580.01 1005.14C580.296 1006.19 580.65 1007.09 581.069 1007.81C585.377 1015.17 598.187 1019.3 606.443 1010.3Z" fill="#D7C8A6"/>
</g>
<path d="M783.855 1080.69C750.19 1099.84 741.382 1112.18 687.942 1092C634.496 1071.83 648.139 1072.1 629.811 1039.33C622.571 1026.39 620.085 1015.15 619.793 1006.04C619.345 992.078 624.062 983.109 624.758 980.648C634.212 947.288 660.561 954.889 698.001 940.543C735.445 926.203 754.099 960.272 774.839 1003.44C779.316 1012.75 783.843 1020.75 787.86 1027.75C802.46 1053.25 810.26 1065.67 783.855 1080.69Z" fill="#E3D6B8"/>
<g opacity="0.32">
<path d="M783.855 1080.69C750.19 1099.84 741.382 1112.18 687.942 1092C634.496 1071.83 648.139 1072.1 629.811 1039.33C622.571 1026.39 620.085 1015.15 619.793 1006.04C628.304 1032.54 644.726 1055.54 666.038 1070.3C670.101 1073.11 674.476 1075.69 679.306 1076.16C684.769 1076.68 690.243 1074.46 695.334 1071.86C707.185 1065.82 718.194 1057.52 730.445 1052.67C741.506 1048.28 753.366 1046.81 764.03 1041.25C772.105 1037.03 779.395 1030.52 787.859 1027.76C802.46 1053.25 810.26 1065.67 783.855 1080.69Z" fill="#D7C8A6"/>
</g>
<path d="M1046.76 1019.81C1033.59 1021.53 1029.2 1024.31 1014.84 1010.99C1000.48 997.667 1004.78 999.519 1003.2 986.741C1002.58 981.697 1003.24 977.804 1004.33 974.876C1005.99 970.385 1008.65 968.148 1009.19 967.456C1016.51 958.088 1023.89 963.911 1037.64 964.202C1051.38 964.495 1052.89 977.725 1053.89 994.116C1054.11 997.65 1054.51 1000.77 1054.88 1003.52C1056.22 1013.5 1057.08 1018.46 1046.76 1019.81Z" fill="#E3D6B8"/>
<g opacity="0.32">
<path d="M1046.76 1019.81C1033.59 1021.53 1029.2 1024.31 1014.84 1010.99C1000.48 997.667 1004.78 999.519 1003.2 986.741C1002.58 981.697 1003.24 977.804 1004.33 974.876C1003.6 984.392 1005.84 993.819 1010.69 1001.26C1011.62 1002.68 1012.68 1004.07 1014.15 1004.84C1015.82 1005.71 1017.84 1005.72 1019.79 1005.55C1024.34 1005.16 1028.91 1003.95 1033.43 1004C1037.51 1004.04 1041.46 1005.11 1045.57 1004.72C1048.68 1004.43 1051.83 1003.3 1054.88 1003.52C1056.21 1013.5 1057.08 1018.46 1046.76 1019.81Z" fill="#D7C8A6"/>
</g>
<path d="M565.097 1101.57C528.993 1108.3 544.064 1091.15 524.063 1066.2C504.062 1041.25 518.183 1015.27 518.183 1015.27C520.971 1009.77 526.494 1006.99 533.483 1006.22C557.847 1003.52 600.085 1025.12 606.918 1040.44C612.098 1052.02 609.202 1068.8 598.593 1082.02C591.173 1091.28 579.966 1098.8 565.097 1101.57Z" fill="#E3D6B8"/>
<g opacity="0.32">
<path d="M565.096 1101.57C528.993 1108.3 544.063 1091.15 524.062 1066.2C504.062 1041.25 518.183 1015.27 518.183 1015.27C520.971 1009.77 526.493 1006.99 533.483 1006.22C531.776 1018.61 534.535 1031.18 539.514 1042.04C542.415 1048.35 546.093 1054.34 551.288 1058.82C564.519 1070.24 585.689 1070.48 598.588 1082.03C591.172 1091.28 579.966 1098.8 565.096 1101.57Z" fill="#D7C8A6"/>
</g>
<path d="M1069.82 1102.16C1048.64 1106.1 1057.48 1096.04 1045.75 1081.4C1034.01 1066.76 1042.3 1051.52 1042.3 1051.52C1043.93 1048.3 1047.17 1046.66 1051.27 1046.21C1065.57 1044.62 1090.35 1057.3 1094.36 1066.29C1097.4 1073.09 1095.7 1082.93 1089.48 1090.69C1085.12 1096.12 1078.55 1100.53 1069.82 1102.16Z" fill="#E3D6B8"/>
<g opacity="0.32">
<path d="M1069.82 1102.16C1048.64 1106.1 1057.48 1096.04 1045.75 1081.4C1034.01 1066.76 1042.3 1051.52 1042.3 1051.52C1043.93 1048.3 1047.17 1046.66 1051.27 1046.21C1050.27 1053.48 1051.89 1060.86 1054.81 1067.23C1056.51 1070.93 1058.67 1074.45 1061.72 1077.08C1069.48 1083.77 1081.9 1083.91 1089.47 1090.69C1085.12 1096.12 1078.55 1100.53 1069.82 1102.16Z" fill="#D7C8A6"/>
</g>
<path d="M132.39 1078.83C132.852 1059.53 140.032 1069.15 155.035 1061.57C170.039 1053.99 181.864 1064.08 181.864 1064.08C184.389 1066.11 185.22 1069.25 184.856 1072.93C183.601 1085.75 167.904 1105.13 159.286 1106.98C152.765 1108.38 144.451 1105.07 138.804 1098.18C134.848 1093.36 132.199 1086.78 132.39 1078.83Z" fill="#E3D6B8"/>
<g opacity="0.32">
<path d="M132.391 1078.83C132.853 1059.53 140.033 1069.15 155.036 1061.57C170.039 1053.99 181.865 1064.08 181.865 1064.08C184.389 1066.11 185.221 1069.25 184.857 1072.93C178.67 1070.71 171.906 1070.76 165.781 1072.14C162.224 1072.95 158.741 1074.19 155.872 1076.37C148.567 1081.94 146.142 1092.8 138.803 1098.18C134.849 1093.36 132.199 1086.78 132.391 1078.83Z" fill="#D7C8A6"/>
</g>
<path d="M622.451 1072.18C635.128 1063.57 632.236 1072.64 644.06 1078.83C655.883 1085.02 654.833 1097.32 654.833 1097.32C654.688 1099.89 653.042 1101.88 650.499 1103.34C641.637 1108.45 621.873 1107.26 616.697 1102.55C612.777 1098.99 611.075 1092.09 612.918 1085.26C614.204 1080.48 617.23 1075.73 622.451 1072.18Z" fill="#E3D6B8"/>
<g opacity="0.32">
<path d="M622.451 1072.18C635.128 1063.57 632.237 1072.64 644.06 1078.83C655.883 1085.02 654.834 1097.32 654.834 1097.32C654.688 1099.89 653.043 1101.88 650.499 1103.34C649.078 1098.32 645.918 1093.97 642.197 1090.66C640.033 1088.73 637.622 1087.05 634.886 1086.21C627.918 1084.06 619.783 1087.51 612.919 1085.26C614.205 1080.48 617.23 1075.73 622.451 1072.18Z" fill="#D7C8A6"/>
</g>
<path d="M993.348 1095.34C965.501 1103.69 913.926 1101.44 878.02 1090.85C864.099 1086.75 852.54 1081.4 845.624 1074.93C820.873 1051.76 834.187 1034.85 834.187 1034.85C845.92 1007.53 930.834 998.62 978.813 1005.2C993.167 1007.16 1004.22 1010.51 1009.01 1015.17C1029.85 1035.41 1031.99 1083.75 993.348 1095.34Z" fill="#E3D6B8"/>
<g opacity="0.32">
<path d="M993.348 1095.34C965.501 1103.69 913.926 1101.44 878.02 1090.85C887.582 1089.27 896.469 1085.23 903.547 1079.12C906.257 1076.77 908.752 1074.11 911.982 1072.48C916.996 1069.93 923.183 1070.15 928.758 1068.82C941.156 1065.87 949.539 1055.66 959.08 1047.76C964.151 1043.56 969.814 1039.8 973.254 1034.14C976.559 1028.71 977.516 1021.97 977.819 1015.32C977.974 1011.98 978.075 1008.39 978.813 1005.2C993.167 1007.16 1004.22 1010.51 1009.01 1015.17C1029.85 1035.41 1031.99 1083.75 993.348 1095.34Z" fill="#D7C8A6"/>
</g>
<path d="M839.58 1007.72C836.504 1017.48 837.017 1021.45 823.046 1027.15C809.075 1032.85 811.765 1030.45 802.326 1027.4C798.599 1026.2 796.096 1024.47 794.403 1022.76C791.807 1020.14 791.108 1017.55 790.8 1016.95C786.634 1008.79 793.101 1005.53 797.77 996.022C802.441 986.516 812.175 989.758 823.95 994.387C826.489 995.384 828.803 996.118 830.84 996.753C838.249 999.064 841.991 1000.07 839.58 1007.72Z" fill="#E3D6B8"/>
<g opacity="0.32">
<path d="M839.58 1007.72C836.504 1017.48 837.017 1021.45 823.046 1027.15C809.075 1032.85 811.765 1030.45 802.326 1027.4C798.599 1026.2 796.096 1024.47 794.403 1022.76C800.814 1026.36 808.127 1027.86 814.906 1026.89C816.197 1026.7 817.507 1026.41 818.526 1025.63C819.678 1024.75 820.339 1023.34 820.857 1021.92C822.064 1018.62 822.704 1015.04 824.204 1011.9C825.557 1009.06 827.589 1006.64 828.652 1003.65C829.458 1001.38 829.698 998.809 830.841 996.754C838.249 999.063 841.991 1000.07 839.58 1007.72Z" fill="#D7C8A6"/>
</g>
<path d="M1394.06 1087.72C1396.54 1095.57 1396.12 1098.76 1407.37 1103.35C1418.61 1107.94 1416.44 1106 1424.04 1103.55C1427.03 1102.58 1429.05 1101.19 1430.41 1099.81C1432.5 1097.7 1433.06 1095.63 1433.31 1095.14C1436.66 1088.58 1431.46 1085.95 1427.7 1078.3C1423.94 1070.66 1416.11 1073.26 1406.64 1076.99C1404.59 1077.79 1402.73 1078.38 1401.09 1078.89C1395.13 1080.75 1392.12 1081.56 1394.06 1087.72Z" fill="#E3D6B8"/>
<g opacity="0.32">
<path d="M1394.06 1087.72C1396.54 1095.57 1396.12 1098.76 1407.37 1103.35C1418.61 1107.93 1416.44 1106 1424.04 1103.55C1427.03 1102.58 1429.05 1101.19 1430.41 1099.81C1425.25 1102.71 1419.37 1103.92 1413.91 1103.14C1412.88 1102.99 1411.82 1102.75 1411 1102.13C1410.07 1101.42 1409.54 1100.28 1409.13 1099.14C1408.16 1096.49 1407.64 1093.6 1406.43 1091.07C1405.35 1088.79 1403.71 1086.85 1402.85 1084.44C1402.21 1082.62 1402.01 1080.55 1401.09 1078.89C1395.13 1080.75 1392.12 1081.56 1394.06 1087.72Z" fill="#D7C8A6"/>
</g>
<path d="M1300.81 1104.57C1323.32 1119 1380.24 1084.96 1380.24 1084.96C1392.85 1075.95 1379.12 1063.55 1358.9 1051.08C1336.33 1037.17 1305.66 1023.16 1294.5 1013.68C1274.59 996.761 1239.6 1015.82 1233.24 1066.03C1232.84 1069.16 1232.56 1072.41 1232.39 1075.77C1229.6 1133.22 1278.31 1090.14 1300.81 1104.57Z" fill="#E3D6B8"/>
<g opacity="0.32">
<path d="M1300.81 1104.57C1323.32 1119 1380.24 1084.96 1380.24 1084.96C1392.85 1075.95 1379.12 1063.55 1358.9 1051.08C1355.64 1064.42 1345.84 1075.26 1333.77 1078.66C1321.19 1082.21 1307.35 1078.09 1294.66 1081.22C1290.62 1082.22 1286.71 1083.95 1282.54 1084C1277.7 1084.07 1272.99 1081.89 1268.24 1080.52C1263.01 1079.02 1257.51 1078.44 1252.7 1075.58C1249.2 1073.49 1246.29 1070.31 1242.87 1068.06C1239.94 1066.12 1236.28 1064.94 1233.24 1066.03C1232.84 1069.16 1232.56 1072.41 1232.39 1075.77C1229.6 1133.22 1278.31 1090.14 1300.81 1104.57Z" fill="#C7BC9F"/>
</g>
<g opacity="0.3">
<path d="M379.177 448.712C384.187 448.197 389.251 446.258 393.886 442.292C408.397 429.913 412.017 406.926 413.592 389.305C416.69 355.486 412.172 293.965 373.865 280.603C353.657 273.525 332.733 294.828 321.152 308.537C304.143 328.318 291.259 353.414 285.086 378.522C279.437 401.933 289.513 418.712 308.034 432.848C326.688 446.779 356.878 461.833 379.177 448.712Z" fill="#E3D6B8"/>
<path d="M282.658 377.926L282.656 377.936C279.71 390.146 280.844 400.776 285.229 410.216C289.587 419.601 297.07 427.625 306.517 434.835L306.527 434.843L306.538 434.851C316.006 441.921 328.476 449.339 341.509 453.315C354.359 457.236 368.094 457.904 379.976 451.138C385.294 450.49 390.64 448.359 395.509 444.194C403.264 437.578 407.99 428.237 410.98 418.498C413.973 408.749 415.29 398.391 416.082 389.53C417.648 372.43 417.299 348.291 411.675 326.654C406.074 305.104 395.038 285.342 374.69 278.243C363.493 274.322 352.352 278.366 342.884 284.697C333.384 291.048 325.079 300.015 319.249 306.915C301.988 326.993 288.924 352.44 282.658 377.926Z" stroke="#9B8F71" stroke-opacity="0.3" stroke-width="5"/>
</g>
<path d="M319.436 366.344C319.436 366.005 319.546 365.785 319.766 365.684C320.003 365.582 320.257 365.531 320.528 365.531C320.579 365.531 320.672 365.54 320.807 365.557C320.959 365.574 321.053 365.582 321.086 365.582C321.137 366.107 321.188 366.742 321.239 367.486C321.29 368.214 321.349 369.01 321.417 369.873C321.484 370.719 321.569 371.6 321.67 372.514C321.772 373.428 321.916 374.325 322.102 375.205C322.288 376.068 322.517 376.898 322.788 377.693C323.058 378.472 323.389 379.149 323.778 379.725C323.862 379.877 323.939 379.995 324.006 380.08C324.091 380.148 324.167 380.207 324.235 380.258C324.32 380.292 324.413 380.317 324.514 380.334C324.616 380.334 324.743 380.334 324.895 380.334C325.589 380.334 326.249 380.215 326.876 379.979C327.519 379.742 328.154 379.479 328.78 379.191C329.406 378.904 330.041 378.641 330.684 378.404C331.327 378.167 332.004 378.049 332.715 378.049C332.868 378.049 333.062 378.049 333.299 378.049C333.536 378.032 333.756 378.04 333.959 378.074C334.163 378.108 334.34 378.193 334.493 378.328C334.645 378.464 334.721 378.667 334.721 378.938C334.721 379.191 334.493 379.471 334.036 379.775C333.579 380.063 332.995 380.359 332.284 380.664C331.573 380.952 330.794 381.24 329.948 381.527C329.118 381.815 328.314 382.069 327.536 382.289C326.774 382.509 326.097 382.687 325.504 382.822C324.912 382.941 324.523 383 324.336 383C323.727 383 323.185 382.797 322.711 382.391C322.254 381.967 321.848 381.409 321.493 380.715C321.154 380.004 320.866 379.2 320.629 378.303C320.392 377.389 320.198 376.441 320.045 375.459C319.893 374.477 319.775 373.504 319.69 372.539C319.605 371.574 319.546 370.677 319.512 369.848C319.478 369.018 319.453 368.29 319.436 367.664C319.436 367.038 319.436 366.598 319.436 366.344ZM335.971 377.846C335.971 376.796 336.217 375.823 336.708 374.926C337.199 374.012 337.842 373.233 338.637 372.59C339.45 371.93 340.356 371.413 341.354 371.041C342.37 370.669 343.394 370.482 344.427 370.482C345.002 370.482 345.51 370.669 345.95 371.041C346.407 371.413 346.788 371.87 347.093 372.412C347.397 372.937 347.626 373.495 347.778 374.088C347.947 374.68 348.032 375.197 348.032 375.637C348.032 376.585 347.803 377.507 347.346 378.404C346.889 379.285 346.297 380.072 345.569 380.766C344.841 381.443 344.02 381.993 343.106 382.416C342.192 382.839 341.278 383.051 340.364 383.051C339.552 383.051 338.866 382.915 338.307 382.645C337.749 382.357 337.3 381.984 336.962 381.527C336.623 381.053 336.369 380.503 336.2 379.877C336.048 379.234 335.971 378.557 335.971 377.846ZM338.13 378.1C338.13 378.54 338.164 378.929 338.231 379.268C338.316 379.589 338.451 379.868 338.637 380.105C338.841 380.342 339.103 380.529 339.425 380.664C339.746 380.783 340.144 380.842 340.618 380.842C341.244 380.842 341.871 380.673 342.497 380.334C343.123 379.979 343.682 379.538 344.173 379.014C344.68 378.472 345.087 377.88 345.391 377.236C345.696 376.593 345.848 375.967 345.848 375.357C345.848 375.087 345.823 374.79 345.772 374.469C345.721 374.147 345.637 373.851 345.518 373.58C345.4 373.309 345.231 373.081 345.011 372.895C344.79 372.708 344.511 372.615 344.173 372.615C343.868 372.615 343.504 372.717 343.081 372.92C342.675 373.123 342.243 373.385 341.786 373.707C341.346 374.029 340.906 374.393 340.466 374.799C340.042 375.205 339.653 375.611 339.298 376.018C338.942 376.424 338.654 376.813 338.434 377.186C338.231 377.558 338.13 377.863 338.13 378.1ZM355.833 396.508C356.781 396.508 357.627 396.33 358.372 395.975C359.117 395.636 359.743 395.162 360.251 394.553C360.776 393.96 361.174 393.275 361.444 392.496C361.732 391.734 361.876 390.939 361.876 390.109C361.876 389.686 361.851 389.128 361.8 388.434C361.766 387.74 361.707 386.986 361.622 386.174C361.537 385.361 361.41 384.532 361.241 383.686C361.089 382.839 360.894 382.044 360.657 381.299C360.42 380.537 360.124 379.877 359.769 379.318C359.43 378.743 359.032 378.337 358.575 378.1C358.135 378.438 357.703 378.751 357.28 379.039C356.857 379.31 356.417 379.538 355.96 379.725C355.503 379.911 355.029 380.063 354.538 380.182C354.047 380.283 353.522 380.334 352.964 380.334C352.236 380.334 351.61 380.266 351.085 380.131C350.577 379.995 350.146 379.767 349.79 379.445C349.451 379.124 349.198 378.701 349.028 378.176C348.859 377.651 348.774 376.991 348.774 376.195C348.774 375.637 348.91 375.095 349.181 374.57C349.451 374.029 349.807 373.529 350.247 373.072C350.704 372.598 351.212 372.167 351.771 371.777C352.346 371.388 352.93 371.049 353.522 370.762C354.132 370.474 354.724 370.254 355.3 370.102C355.892 369.949 356.417 369.873 356.874 369.873C357.314 369.873 357.678 369.89 357.966 369.924C358.254 369.941 358.499 370.008 358.702 370.127C358.905 370.229 359.075 370.398 359.21 370.635C359.362 370.855 359.506 371.16 359.642 371.549C360.031 372.869 360.479 374.291 360.987 375.814C361.495 377.338 361.978 378.904 362.435 380.512C362.892 382.12 363.272 383.736 363.577 385.361C363.899 387.003 364.06 388.586 364.06 390.109C364.06 391.464 363.865 392.606 363.476 393.537C363.103 394.485 362.604 395.255 361.978 395.848C361.368 396.457 360.666 396.923 359.87 397.244C359.091 397.566 358.304 397.769 357.509 397.854C356.713 397.955 355.943 397.98 355.198 397.93C354.453 397.879 353.81 397.777 353.269 397.625C352.727 397.49 352.312 397.329 352.024 397.143C351.754 396.956 351.686 396.796 351.821 396.66C351.974 396.542 352.363 396.457 352.989 396.406C353.616 396.355 354.563 396.389 355.833 396.508ZM356.188 372.006C354.936 372.277 353.92 372.658 353.142 373.148C352.38 373.622 351.804 374.139 351.415 374.697C351.043 375.239 350.84 375.789 350.806 376.348C350.772 376.889 350.873 377.355 351.11 377.744C351.347 378.133 351.686 378.43 352.126 378.633C352.583 378.819 353.099 378.827 353.675 378.658C354.25 378.472 354.86 378.083 355.503 377.49C356.163 376.898 356.823 376.018 357.483 374.85C357.483 374.562 357.483 374.249 357.483 373.91C357.5 373.572 357.475 373.267 357.407 372.996C357.34 372.708 357.213 372.471 357.026 372.285C356.84 372.099 356.561 372.006 356.188 372.006ZM364.243 377.846C364.243 376.796 364.489 375.823 364.98 374.926C365.471 374.012 366.114 373.233 366.909 372.59C367.722 371.93 368.628 371.413 369.626 371.041C370.642 370.669 371.666 370.482 372.698 370.482C373.274 370.482 373.782 370.669 374.222 371.041C374.679 371.413 375.06 371.87 375.364 372.412C375.669 372.937 375.898 373.495 376.05 374.088C376.219 374.68 376.304 375.197 376.304 375.637C376.304 376.585 376.075 377.507 375.618 378.404C375.161 379.285 374.569 380.072 373.841 380.766C373.113 381.443 372.292 381.993 371.378 382.416C370.464 382.839 369.55 383.051 368.636 383.051C367.823 383.051 367.138 382.915 366.579 382.645C366.021 382.357 365.572 381.984 365.234 381.527C364.895 381.053 364.641 380.503 364.472 379.877C364.32 379.234 364.243 378.557 364.243 377.846ZM366.402 378.1C366.402 378.54 366.435 378.929 366.503 379.268C366.588 379.589 366.723 379.868 366.909 380.105C367.113 380.342 367.375 380.529 367.697 380.664C368.018 380.783 368.416 380.842 368.89 380.842C369.516 380.842 370.142 380.673 370.769 380.334C371.395 379.979 371.954 379.538 372.445 379.014C372.952 378.472 373.359 377.88 373.663 377.236C373.968 376.593 374.12 375.967 374.12 375.357C374.12 375.087 374.095 374.79 374.044 374.469C373.993 374.147 373.909 373.851 373.79 373.58C373.672 373.309 373.503 373.081 373.282 372.895C373.062 372.708 372.783 372.615 372.445 372.615C372.14 372.615 371.776 372.717 371.353 372.92C370.947 373.123 370.515 373.385 370.058 373.707C369.618 374.029 369.178 374.393 368.738 374.799C368.314 375.205 367.925 375.611 367.57 376.018C367.214 376.424 366.926 376.813 366.706 377.186C366.503 377.558 366.402 377.863 366.402 378.1ZM382.429 381.857C382.7 381.671 383.022 381.434 383.394 381.146C383.783 380.842 384.173 380.52 384.562 380.182C384.951 379.843 385.315 379.488 385.654 379.115C385.992 378.743 386.255 378.387 386.441 378.049C386.644 377.693 386.746 377.363 386.746 377.059C386.746 376.754 386.593 376.5 386.289 376.297C385.747 376.297 385.154 376.322 384.511 376.373C383.868 376.407 383.225 376.424 382.582 376.424C381.938 376.407 381.312 376.348 380.703 376.246C380.11 376.145 379.577 375.958 379.103 375.688C378.629 375.417 378.248 375.036 377.96 374.545C377.69 374.037 377.554 373.394 377.554 372.615C377.554 371.701 377.723 370.88 378.062 370.152C378.417 369.408 378.883 368.756 379.458 368.197C380.034 367.622 380.677 367.122 381.388 366.699C382.116 366.259 382.844 365.887 383.572 365.582C384.012 365.701 384.418 365.912 384.791 366.217C385.163 366.521 385.485 366.86 385.755 367.232C385.637 367.605 385.4 367.893 385.044 368.096C384.706 368.299 384.308 368.477 383.851 368.629C383.411 368.781 382.945 368.942 382.455 369.111C381.964 369.281 381.515 369.509 381.109 369.797C380.72 370.068 380.389 370.432 380.119 370.889C379.848 371.329 379.712 371.913 379.712 372.641C379.712 373.182 379.848 373.58 380.119 373.834C380.389 374.088 380.745 374.266 381.185 374.367C381.625 374.452 382.124 374.486 382.683 374.469C383.242 374.435 383.809 374.393 384.384 374.342C384.977 374.291 385.552 374.266 386.111 374.266C386.669 374.249 387.169 374.316 387.609 374.469C388.049 374.604 388.396 374.833 388.65 375.154C388.921 375.476 389.056 375.95 389.056 376.576C389.056 376.847 388.963 377.194 388.777 377.617C388.608 378.04 388.371 378.497 388.066 378.988C387.778 379.462 387.431 379.936 387.025 380.41C386.636 380.884 386.221 381.316 385.781 381.705C385.358 382.077 384.926 382.391 384.486 382.645C384.063 382.882 383.665 383 383.292 383C382.937 383 382.7 382.873 382.582 382.619C382.48 382.365 382.429 382.111 382.429 381.857Z" fill="#77705D"/>
<g opacity="0.3">
<path d="M658.614 754.108C655.598 750.415 651.653 747.414 646.085 745.567C628.917 740.258 608.965 749.491 594.349 757.571C566.276 772.807 520.108 808.588 529.156 846.215C534.028 866.068 561.636 871.608 578.109 873.686C602.469 876.917 628.685 874.147 651.885 865.837C673.23 858.219 681.35 841.368 682.742 818.976C684.134 797.045 680.422 765.189 658.614 754.108Z" fill="#BCA87A"/>
<path d="M646.872 743.194L646.848 743.186L646.824 743.179C637.588 740.322 627.763 741.422 618.55 744.151C609.33 746.883 600.503 751.313 593.148 755.378C578.946 763.087 560.134 776.003 545.969 791.829C531.86 807.593 521.911 826.778 526.725 846.8L526.728 846.811C529.438 857.852 538.422 864.656 548.292 868.912C558.191 873.18 569.492 875.118 577.787 876.165C602.539 879.447 629.154 876.635 652.727 868.191C663.896 864.204 671.737 857.738 676.928 849.251C682.087 840.819 684.526 830.566 685.237 819.134C685.944 807.991 685.365 794.236 681.78 781.782C678.248 769.51 671.69 758.164 660.213 752.121C656.957 748.268 652.713 745.131 646.872 743.194Z" stroke="#9B8F71" stroke-opacity="0.3" stroke-width="5"/>
</g>
<path d="M565.797 806.516C565.984 805.562 566.328 804.812 566.828 804.266C567.328 803.703 567.898 803.32 568.539 803.117C569.195 802.914 569.891 802.867 570.625 802.977C571.375 803.07 572.078 803.297 572.734 803.656C573.406 804.016 573.992 804.484 574.492 805.062C574.992 805.625 575.344 806.273 575.547 807.008C575.75 807.727 575.75 808.508 575.547 809.352C575.344 810.195 574.883 811.062 574.164 811.953C574.727 812.156 575.25 812.359 575.734 812.562C576.219 812.766 576.625 813.016 576.953 813.312C577.297 813.609 577.562 813.969 577.75 814.391C577.938 814.812 578.031 815.336 578.031 815.961C578.031 816.477 577.938 817.023 577.75 817.602C577.562 818.18 577.297 818.75 576.953 819.312C576.625 819.875 576.234 820.414 575.781 820.93C575.344 821.43 574.867 821.875 574.352 822.266C573.836 822.656 573.305 822.969 572.758 823.203C572.227 823.422 571.703 823.531 571.188 823.531C570.844 823.531 570.508 823.312 570.18 822.875C569.852 822.438 569.531 821.859 569.219 821.141C568.906 820.422 568.602 819.594 568.305 818.656C568.008 817.719 567.734 816.75 567.484 815.75C567.234 814.734 567.008 813.734 566.805 812.75C566.602 811.75 566.422 810.828 566.266 809.984C566.125 809.141 566.008 808.414 565.914 807.805C565.836 807.18 565.797 806.75 565.797 806.516ZM569.969 816.664C569.969 816.93 570.031 817.281 570.156 817.719C570.281 818.156 570.438 818.594 570.625 819.031C570.828 819.469 571.047 819.875 571.281 820.25C571.516 820.609 571.766 820.852 572.031 820.977C572.25 821.102 572.508 821.094 572.805 820.953C573.102 820.797 573.398 820.562 573.695 820.25C574.008 819.922 574.305 819.555 574.586 819.148C574.867 818.727 575.117 818.312 575.336 817.906C575.57 817.5 575.75 817.125 575.875 816.781C576.016 816.422 576.086 816.148 576.086 815.961C576.086 815.555 576.031 815.227 575.922 814.977C575.812 814.711 575.648 814.5 575.43 814.344C575.227 814.188 574.977 814.078 574.68 814.016C574.398 813.953 574.086 813.922 573.742 813.922C573.352 813.922 572.938 813.984 572.5 814.109C572.062 814.234 571.656 814.414 571.281 814.648C570.922 814.883 570.609 815.172 570.344 815.516C570.094 815.859 569.969 816.242 569.969 816.664ZM568.469 808.695C568.469 808.977 568.461 809.328 568.445 809.75C568.43 810.156 568.43 810.578 568.445 811.016C568.461 811.453 568.508 811.891 568.586 812.328C568.664 812.766 568.805 813.141 569.008 813.453C569.773 813.312 570.438 813.047 571 812.656C571.578 812.266 572.039 811.812 572.383 811.297C572.742 810.766 573 810.203 573.156 809.609C573.312 809.016 573.367 808.438 573.32 807.875C573.289 807.312 573.156 806.797 572.922 806.328C572.703 805.859 572.391 805.5 571.984 805.25C571.578 804.984 571.086 804.852 570.508 804.852C569.93 804.852 569.266 805.039 568.516 805.414C568.516 805.539 568.508 805.758 568.492 806.07C568.492 806.383 568.484 806.711 568.469 807.055C568.469 807.398 568.469 807.727 568.469 808.039C568.469 808.352 568.469 808.57 568.469 808.695ZM579.771 814.156C579.771 814.016 579.779 813.875 579.795 813.734C579.81 813.578 579.842 813.445 579.888 813.336C579.935 813.211 580.006 813.109 580.099 813.031C580.209 812.953 580.357 812.914 580.545 812.914C580.701 812.914 580.873 813.039 581.06 813.289C581.263 813.523 581.467 813.828 581.67 814.203C581.873 814.562 582.068 814.961 582.256 815.398C582.459 815.836 582.631 816.242 582.771 816.617C582.927 816.977 583.052 817.289 583.146 817.555C583.24 817.82 583.295 817.961 583.31 817.977C583.513 817.43 583.74 816.836 583.99 816.195C584.24 815.555 584.545 814.961 584.904 814.414C585.279 813.852 585.717 813.383 586.217 813.008C586.732 812.633 587.357 812.445 588.092 812.445C588.467 812.445 588.818 812.508 589.146 812.633C589.49 812.742 589.787 812.914 590.037 813.148C590.302 813.367 590.513 813.633 590.67 813.945C590.826 814.258 590.904 814.617 590.904 815.023C590.904 815.367 590.763 815.609 590.482 815.75C590.217 815.891 589.912 815.961 589.568 815.961H589.334L588.326 814.953C588.295 814.953 588.271 814.945 588.256 814.93C588.224 814.93 588.193 814.93 588.162 814.93C588.146 814.914 588.123 814.906 588.092 814.906C587.545 814.906 587.115 815.062 586.802 815.375C586.506 815.672 586.279 816.047 586.123 816.5C585.967 816.938 585.865 817.406 585.818 817.906C585.787 818.391 585.771 818.836 585.771 819.242C585.771 819.555 585.802 819.875 585.865 820.203C585.927 820.516 585.998 820.828 586.076 821.141C586.154 821.438 586.224 821.75 586.287 822.078C586.349 822.391 586.381 822.719 586.381 823.062C586.381 823.719 586.029 824.047 585.326 824.047C584.935 824.047 584.529 823.844 584.107 823.438C583.685 823.016 583.263 822.484 582.842 821.844C582.435 821.203 582.045 820.5 581.67 819.734C581.295 818.953 580.967 818.195 580.685 817.461C580.404 816.727 580.177 816.062 580.006 815.469C579.849 814.875 579.771 814.438 579.771 814.156ZM602.066 820.977C601.472 821.383 600.957 821.75 600.519 822.078C600.097 822.391 599.683 822.656 599.277 822.875C598.871 823.094 598.433 823.258 597.964 823.367C597.511 823.477 596.949 823.531 596.277 823.531C594.824 823.531 593.746 823.148 593.042 822.383C592.339 821.602 591.988 820.445 591.988 818.914C591.988 818.32 592.066 817.703 592.222 817.062C592.378 816.422 592.605 815.789 592.902 815.164C593.214 814.523 593.582 813.922 594.003 813.359C594.425 812.781 594.902 812.273 595.433 811.836C595.964 811.398 596.527 811.055 597.121 810.805C597.73 810.539 598.371 810.406 599.042 810.406C600.167 810.516 601.05 810.797 601.691 811.25C602.332 811.688 602.816 812.258 603.144 812.961C603.472 813.648 603.699 814.422 603.824 815.281C603.949 816.125 604.042 817 604.105 817.906C604.183 818.812 604.277 819.719 604.386 820.625C604.496 821.531 604.722 822.367 605.066 823.133C604.863 823.648 604.667 824.008 604.48 824.211C604.308 824.43 604.113 824.469 603.894 824.328C603.675 824.188 603.417 823.844 603.121 823.297C602.839 822.75 602.488 821.977 602.066 820.977ZM593.98 818.961C593.98 819.852 594.144 820.508 594.472 820.93C594.816 821.336 595.417 821.539 596.277 821.539C596.917 821.539 597.527 821.43 598.105 821.211C598.699 820.977 599.214 820.664 599.652 820.273C600.089 819.867 600.441 819.383 600.707 818.82C600.972 818.258 601.105 817.633 601.105 816.945C601.105 816.664 601.113 816.273 601.128 815.773C601.144 815.258 601.113 814.75 601.035 814.25C600.957 813.75 600.808 813.32 600.589 812.961C600.371 812.586 600.042 812.398 599.605 812.398C598.792 812.398 598.042 812.609 597.355 813.031C596.667 813.438 596.074 813.961 595.574 814.602C595.074 815.242 594.683 815.953 594.402 816.734C594.121 817.5 593.98 818.242 593.98 818.961ZM606.783 816.102C606.783 815.695 606.884 815.406 607.087 815.234C607.29 815.047 607.618 814.953 608.072 814.953H608.306C608.353 815.203 608.408 815.492 608.47 815.82C608.533 816.148 608.626 816.484 608.751 816.828C608.876 817.172 609.025 817.492 609.197 817.789C609.368 818.07 609.579 818.297 609.829 818.469C609.845 817.922 609.978 817.398 610.228 816.898C610.493 816.383 610.814 815.93 611.189 815.539C611.579 815.133 612.001 814.797 612.454 814.531C612.923 814.25 613.384 814.062 613.837 813.969H614.353C615.103 813.969 615.743 814.141 616.275 814.484C616.806 814.812 617.243 815.25 617.587 815.797C617.947 816.328 618.22 816.938 618.408 817.625C618.595 818.312 618.736 819.016 618.829 819.734C618.939 820.438 619.001 821.125 619.017 821.797C619.048 822.453 619.064 823.016 619.064 823.484H617.353C617.259 822.547 617.142 821.648 617.001 820.789C616.954 820.445 616.892 820.086 616.814 819.711C616.736 819.32 616.65 818.961 616.556 818.633C616.462 818.289 616.361 817.977 616.251 817.695C616.142 817.398 616.017 817.148 615.876 816.945C615.814 816.883 615.728 816.797 615.618 816.688C615.525 816.578 615.423 816.469 615.314 816.359C615.204 816.25 615.103 816.156 615.009 816.078C614.915 816 614.861 815.961 614.845 815.961C614.376 815.836 613.97 815.93 613.626 816.242C613.283 816.539 612.978 816.945 612.712 817.461C612.447 817.977 612.228 818.562 612.056 819.219C611.9 819.875 611.767 820.508 611.658 821.117C611.548 821.711 611.47 822.234 611.423 822.688C611.376 823.125 611.345 823.391 611.329 823.484C610.939 823.766 610.572 823.852 610.228 823.742C609.884 823.617 609.556 823.367 609.243 822.992C608.947 822.617 608.673 822.148 608.423 821.586C608.189 821.023 607.97 820.43 607.767 819.805C607.564 819.164 607.376 818.523 607.204 817.883C607.048 817.242 606.908 816.648 606.783 816.102ZM620.077 821.234C620.077 820.328 620.304 819.523 620.757 818.82C621.21 818.117 621.772 817.508 622.444 816.992C623.116 816.461 623.843 816.016 624.624 815.656C625.405 815.281 626.132 814.977 626.804 814.742C627.476 814.492 628.038 814.297 628.491 814.156C628.944 814 629.171 813.875 629.171 813.781C629.171 813.234 629.14 812.703 629.077 812.188C629.03 811.656 628.976 811.125 628.913 810.594C628.851 810.062 628.788 809.539 628.726 809.023C628.679 808.492 628.655 807.969 628.655 807.453V805.93C629.296 805.695 629.749 805.719 630.015 806C630.296 806.281 630.343 806.766 630.155 807.453C630.218 807.797 630.304 808.336 630.413 809.07C630.522 809.805 630.64 810.633 630.765 811.555C630.905 812.477 631.046 813.445 631.187 814.461C631.343 815.477 631.483 816.453 631.608 817.391C631.749 818.312 631.866 819.141 631.96 819.875C632.054 820.594 632.124 821.133 632.171 821.492C632.187 821.57 632.202 821.727 632.218 821.961C632.233 822.18 632.241 822.422 632.241 822.688C632.257 822.938 632.265 823.172 632.265 823.391C632.28 823.609 632.288 823.766 632.288 823.859C631.694 823.859 631.288 823.836 631.069 823.789C630.866 823.742 630.733 823.648 630.671 823.508C630.624 823.367 630.601 823.164 630.601 822.898C630.601 822.633 630.522 822.266 630.366 821.797C629.788 822.25 629.241 822.625 628.726 822.922C628.21 823.219 627.694 823.461 627.179 823.648C626.663 823.82 626.14 823.938 625.608 824C625.093 824.078 624.538 824.117 623.944 824.117C623.444 824.117 622.96 824.078 622.491 824C622.038 823.906 621.632 823.75 621.272 823.531C620.913 823.312 620.624 823.016 620.405 822.641C620.187 822.266 620.077 821.797 620.077 821.234ZM622.116 820.742C622.116 820.992 622.171 821.195 622.28 821.352C622.39 821.508 622.53 821.641 622.702 821.75C622.874 821.859 623.054 821.938 623.241 821.984C623.444 822.016 623.64 822.031 623.827 822.031C624.374 822.031 624.96 821.93 625.585 821.727C626.226 821.508 626.812 821.211 627.343 820.836C627.89 820.445 628.335 819.984 628.679 819.453C629.038 818.922 629.218 818.344 629.218 817.719C629.218 817.234 629.132 816.898 628.96 816.711C628.788 816.523 628.46 816.43 627.976 816.43C627.476 816.43 626.89 816.547 626.218 816.781C625.562 817.016 624.921 817.328 624.296 817.719C623.687 818.109 623.171 818.57 622.749 819.102C622.327 819.617 622.116 820.164 622.116 820.742ZM634.895 815.211C634.895 815.117 634.895 814.969 634.895 814.766C634.911 814.547 634.919 814.32 634.919 814.086C634.934 813.852 634.942 813.625 634.942 813.406C634.958 813.188 634.966 813.031 634.966 812.938C635.137 812.688 635.356 812.484 635.622 812.328C635.903 812.172 636.184 812.047 636.466 811.953C636.512 812.797 636.645 813.695 636.864 814.648C637.083 815.602 637.317 816.562 637.567 817.531C637.817 818.484 638.036 819.43 638.223 820.367C638.427 821.305 638.528 822.18 638.528 822.992C638.528 823.695 638.169 824.047 637.45 824.047C637.012 824.047 636.645 823.867 636.348 823.508C636.052 823.148 635.809 822.695 635.622 822.148C635.45 821.586 635.309 820.969 635.2 820.297C635.091 819.609 635.012 818.938 634.966 818.281C634.934 817.625 634.911 817.023 634.895 816.477C634.895 815.93 634.895 815.508 634.895 815.211ZM635.223 806.422C635.52 806.547 635.77 806.75 635.973 807.031C636.177 807.312 636.262 807.57 636.231 807.805C636.216 808.023 636.044 808.18 635.716 808.273C635.387 808.352 634.841 808.258 634.075 807.992C634.075 807.57 634.153 807.203 634.309 806.891C634.481 806.578 634.786 806.422 635.223 806.422ZM639.682 816.102C639.682 815.695 639.784 815.406 639.987 815.234C640.19 815.047 640.518 814.953 640.971 814.953H641.206C641.253 815.203 641.307 815.492 641.37 815.82C641.432 816.148 641.526 816.484 641.651 816.828C641.776 817.172 641.924 817.492 642.096 817.789C642.268 818.07 642.479 818.297 642.729 818.469C642.745 817.922 642.878 817.398 643.128 816.898C643.393 816.383 643.713 815.93 644.088 815.539C644.479 815.133 644.901 814.797 645.354 814.531C645.823 814.25 646.284 814.062 646.737 813.969H647.253C648.003 813.969 648.643 814.141 649.174 814.484C649.706 814.812 650.143 815.25 650.487 815.797C650.846 816.328 651.12 816.938 651.307 817.625C651.495 818.312 651.635 819.016 651.729 819.734C651.838 820.438 651.901 821.125 651.917 821.797C651.948 822.453 651.963 823.016 651.963 823.484H650.253C650.159 822.547 650.042 821.648 649.901 820.789C649.854 820.445 649.792 820.086 649.713 819.711C649.635 819.32 649.549 818.961 649.456 818.633C649.362 818.289 649.26 817.977 649.151 817.695C649.042 817.398 648.917 817.148 648.776 816.945C648.713 816.883 648.628 816.797 648.518 816.688C648.424 816.578 648.323 816.469 648.213 816.359C648.104 816.25 648.003 816.156 647.909 816.078C647.815 816 647.76 815.961 647.745 815.961C647.276 815.836 646.87 815.93 646.526 816.242C646.182 816.539 645.878 816.945 645.612 817.461C645.346 817.977 645.128 818.562 644.956 819.219C644.799 819.875 644.667 820.508 644.557 821.117C644.448 821.711 644.37 822.234 644.323 822.688C644.276 823.125 644.245 823.391 644.229 823.484C643.838 823.766 643.471 823.852 643.128 823.742C642.784 823.617 642.456 823.367 642.143 822.992C641.846 822.617 641.573 822.148 641.323 821.586C641.088 821.023 640.87 820.43 640.667 819.805C640.463 819.164 640.276 818.523 640.104 817.883C639.948 817.242 639.807 816.648 639.682 816.102ZM659.539 836.469C660.414 836.469 661.196 836.305 661.883 835.977C662.571 835.664 663.149 835.227 663.618 834.664C664.102 834.117 664.469 833.484 664.719 832.766C664.985 832.062 665.118 831.328 665.118 830.562C665.118 830.172 665.094 829.656 665.047 829.016C665.016 828.375 664.961 827.68 664.883 826.93C664.805 826.18 664.688 825.414 664.532 824.633C664.391 823.852 664.211 823.117 663.993 822.43C663.774 821.727 663.5 821.117 663.172 820.602C662.86 820.07 662.493 819.695 662.071 819.477C661.664 819.789 661.266 820.078 660.875 820.344C660.485 820.594 660.078 820.805 659.657 820.977C659.235 821.148 658.797 821.289 658.344 821.398C657.891 821.492 657.407 821.539 656.891 821.539C656.219 821.539 655.641 821.477 655.157 821.352C654.688 821.227 654.289 821.016 653.961 820.719C653.649 820.422 653.414 820.031 653.258 819.547C653.102 819.062 653.024 818.453 653.024 817.719C653.024 817.203 653.149 816.703 653.399 816.219C653.649 815.719 653.977 815.258 654.383 814.836C654.805 814.398 655.274 814 655.789 813.641C656.321 813.281 656.86 812.969 657.407 812.703C657.969 812.438 658.516 812.234 659.047 812.094C659.594 811.953 660.078 811.883 660.5 811.883C660.907 811.883 661.243 811.898 661.508 811.93C661.774 811.945 662 812.008 662.188 812.117C662.375 812.211 662.532 812.367 662.657 812.586C662.797 812.789 662.93 813.07 663.055 813.43C663.414 814.648 663.828 815.961 664.297 817.367C664.766 818.773 665.211 820.219 665.633 821.703C666.055 823.188 666.407 824.68 666.688 826.18C666.985 827.695 667.133 829.156 667.133 830.562C667.133 831.812 666.953 832.867 666.594 833.727C666.25 834.602 665.789 835.312 665.211 835.859C664.649 836.422 664 836.852 663.266 837.148C662.547 837.445 661.821 837.633 661.086 837.711C660.352 837.805 659.641 837.828 658.953 837.781C658.266 837.734 657.672 837.641 657.172 837.5C656.672 837.375 656.289 837.227 656.024 837.055C655.774 836.883 655.711 836.734 655.836 836.609C655.977 836.5 656.336 836.422 656.914 836.375C657.493 836.328 658.368 836.359 659.539 836.469ZM659.868 813.852C658.711 814.102 657.774 814.453 657.055 814.906C656.352 815.344 655.821 815.82 655.461 816.336C655.118 816.836 654.93 817.344 654.899 817.859C654.868 818.359 654.961 818.789 655.18 819.148C655.399 819.508 655.711 819.781 656.118 819.969C656.539 820.141 657.016 820.148 657.547 819.992C658.078 819.82 658.641 819.461 659.235 818.914C659.844 818.367 660.453 817.555 661.063 816.477C661.063 816.211 661.063 815.922 661.063 815.609C661.078 815.297 661.055 815.016 660.993 814.766C660.93 814.5 660.813 814.281 660.641 814.109C660.469 813.938 660.211 813.852 659.868 813.852Z" fill="#77705D"/>
<g opacity="0.3">
<path d="M171.955 943.458C175.79 941.825 179.269 939.245 182.175 935.02C190.812 921.9 187.918 902.902 184.693 888.665C178.737 861.389 159.939 813.92 126.148 812.355C108.295 811.612 96.9231 833.441 91.1689 846.763C82.5253 866.427 78.4684 889.11 79.7969 910.609C80.9958 930.382 93.1658 941.302 111.625 947.921C129.696 954.429 157.343 959.068 171.955 943.458Z" fill="#BCA87A"/>
<path d="M184.235 936.437L184.249 936.416L184.263 936.394C188.957 929.264 190.431 920.679 190.382 912.247C190.333 903.808 188.757 895.293 187.133 888.122C184.114 874.3 177.841 855.327 167.979 839.544C158.161 823.831 144.4 810.698 126.263 809.858L126.252 809.858C116.179 809.438 108.194 815.413 102.192 822.695C96.1706 830.001 91.7784 839.048 88.8772 845.764C80.0757 865.79 75.9487 888.868 77.3016 910.764C77.9336 921.176 81.4793 929.402 87.3914 935.883C93.2607 942.317 101.326 946.884 110.778 950.274C119.981 953.588 131.706 956.461 143.082 956.484C154.269 956.506 165.471 953.762 173.418 945.547C177.473 943.729 181.166 940.898 184.235 936.437Z" stroke="#9B8F71" stroke-opacity="0.3" stroke-width="5"/>
</g>
<path d="M97.3444 880.922C97.5944 881.109 97.7975 881.344 97.9537 881.625C98.11 881.891 98.235 882.164 98.3287 882.445C98.3444 883.039 98.3522 883.75 98.3522 884.578C98.3522 885.406 98.3834 886.266 98.4459 887.156C98.5084 888.047 98.6256 888.938 98.7975 889.828C98.9694 890.703 99.235 891.492 99.5944 892.195C99.9694 892.898 100.462 893.469 101.071 893.906C101.696 894.328 102.477 894.539 103.415 894.539C104.274 894.539 105.008 894.336 105.618 893.93C106.243 893.523 106.758 893.008 107.165 892.383C107.587 891.758 107.891 891.062 108.079 890.297C108.282 889.516 108.383 888.758 108.383 888.023C108.383 886.602 108.313 885.156 108.172 883.688C108.032 882.203 107.774 880.773 107.399 879.398C107.508 879.117 107.649 878.961 107.821 878.93C107.993 878.883 108.18 878.859 108.383 878.859C108.79 878.859 109.11 879.023 109.344 879.352C109.579 879.68 109.751 880.102 109.86 880.617C109.985 881.117 110.055 881.672 110.071 882.281C110.102 882.875 110.102 883.445 110.071 883.992C110.055 884.523 110.024 885 109.977 885.422C109.946 885.828 109.93 886.086 109.93 886.195C109.93 887.008 109.907 887.836 109.86 888.68C109.829 889.508 109.735 890.305 109.579 891.07C109.438 891.836 109.219 892.555 108.922 893.227C108.641 893.883 108.258 894.461 107.774 894.961C107.29 895.445 106.688 895.828 105.969 896.109C105.251 896.391 104.391 896.531 103.391 896.531C102.126 896.531 101.087 896.289 100.274 895.805C99.4615 895.32 98.8053 894.68 98.3053 893.883C97.8209 893.07 97.4537 892.148 97.2037 891.117C96.9694 890.086 96.7975 889.031 96.6881 887.953C96.5944 886.875 96.524 885.812 96.4772 884.766C96.4459 883.719 96.399 882.773 96.3365 881.93L97.3444 880.922ZM118.655 893.742C118.655 892.914 118.553 892.016 118.35 891.047C118.147 890.078 117.928 889.086 117.694 888.07C117.459 887.055 117.233 886.047 117.014 885.047C116.795 884.031 116.678 883.078 116.662 882.188H111.436C111.436 882.062 111.436 881.883 111.436 881.648C111.436 881.414 111.459 881.18 111.506 880.945C111.553 880.695 111.623 880.477 111.717 880.289C111.811 880.086 111.952 879.961 112.139 879.914H125.03C125.014 880.414 124.912 880.797 124.725 881.062C124.537 881.328 124.287 881.531 123.975 881.672C123.678 881.812 123.342 881.906 122.967 881.953C122.592 881.984 122.217 882.023 121.842 882.07C121.467 882.117 121.1 882.18 120.741 882.258C120.381 882.32 120.069 882.453 119.803 882.656C119.553 882.859 119.358 883.141 119.217 883.5C119.092 883.844 119.061 884.312 119.123 884.906C119.123 885.234 119.147 885.672 119.194 886.219C119.241 886.75 119.319 887.328 119.428 887.953C119.537 888.578 119.678 889.211 119.85 889.852C120.022 890.477 120.233 891.055 120.483 891.586C120.748 892.102 121.045 892.523 121.373 892.852C121.717 893.164 122.116 893.32 122.569 893.32C122.881 893.352 123.28 893.359 123.764 893.344C124.264 893.312 124.764 893.289 125.264 893.273C125.764 893.258 126.233 893.266 126.67 893.297C127.123 893.328 127.452 893.422 127.655 893.578C127.858 893.734 127.905 893.969 127.795 894.281C127.686 894.578 127.342 894.984 126.764 895.5C125.764 895.875 124.748 896.133 123.717 896.273C122.702 896.398 121.678 896.469 120.647 896.484C119.616 896.484 118.584 896.469 117.553 896.438C116.522 896.391 115.498 896.367 114.483 896.367C113.905 895.664 113.561 895.125 113.452 894.75C113.342 894.375 113.381 894.117 113.569 893.977C113.772 893.82 114.084 893.742 114.506 893.742C114.944 893.727 115.412 893.742 115.912 893.789C116.412 893.82 116.912 893.852 117.412 893.883C117.912 893.898 118.327 893.852 118.655 893.742ZM130.402 895.148C130.434 895.039 130.481 894.844 130.543 894.562C130.621 894.281 130.692 893.984 130.754 893.672C130.832 893.344 130.902 893.047 130.965 892.781C131.027 892.5 131.074 892.305 131.106 892.195C131.215 891.758 131.379 891.156 131.598 890.391C131.817 889.609 132.082 888.781 132.395 887.906C132.723 887.016 133.09 886.125 133.496 885.234C133.918 884.328 134.379 883.539 134.879 882.867C135.395 882.18 135.949 881.656 136.543 881.297C137.137 880.938 137.777 880.852 138.465 881.039C138.246 881.914 137.965 882.742 137.621 883.523C137.293 884.289 136.934 885.047 136.543 885.797C136.168 886.531 135.777 887.266 135.371 888C134.981 888.719 134.598 889.453 134.223 890.203C133.848 890.953 133.504 891.734 133.192 892.547C132.895 893.359 132.66 894.227 132.488 895.148C132.41 895.602 132.262 895.867 132.043 895.945C131.824 896.008 131.574 896 131.293 895.922C131.09 895.875 130.902 895.805 130.731 895.711C130.559 895.617 130.449 895.43 130.402 895.148ZM140.064 880.922C140.314 881.109 140.517 881.344 140.674 881.625C140.83 881.891 140.955 882.164 141.049 882.445C141.064 883.039 141.072 883.75 141.072 884.578C141.072 885.406 141.103 886.266 141.166 887.156C141.228 888.047 141.346 888.938 141.517 889.828C141.689 890.703 141.955 891.492 142.314 892.195C142.689 892.898 143.182 893.469 143.791 893.906C144.416 894.328 145.197 894.539 146.135 894.539C146.994 894.539 147.728 894.336 148.338 893.93C148.963 893.523 149.478 893.008 149.885 892.383C150.307 891.758 150.611 891.062 150.799 890.297C151.002 889.516 151.103 888.758 151.103 888.023C151.103 886.602 151.033 885.156 150.892 883.688C150.752 882.203 150.494 880.773 150.119 879.398C150.228 879.117 150.369 878.961 150.541 878.93C150.713 878.883 150.9 878.859 151.103 878.859C151.51 878.859 151.83 879.023 152.064 879.352C152.299 879.68 152.471 880.102 152.58 880.617C152.705 881.117 152.775 881.672 152.791 882.281C152.822 882.875 152.822 883.445 152.791 883.992C152.775 884.523 152.744 885 152.697 885.422C152.666 885.828 152.65 886.086 152.65 886.195C152.65 887.008 152.627 887.836 152.58 888.68C152.549 889.508 152.455 890.305 152.299 891.07C152.158 891.836 151.939 892.555 151.642 893.227C151.361 893.883 150.978 894.461 150.494 894.961C150.01 895.445 149.408 895.828 148.689 896.109C147.971 896.391 147.111 896.531 146.111 896.531C144.846 896.531 143.807 896.289 142.994 895.805C142.182 895.32 141.525 894.68 141.025 893.883C140.541 893.07 140.174 892.148 139.924 891.117C139.689 890.086 139.517 889.031 139.408 887.953C139.314 886.875 139.244 885.812 139.197 884.766C139.166 883.719 139.119 882.773 139.057 881.93L140.064 880.922ZM157.32 894.539C157.32 893.883 157.375 893.242 157.484 892.617C157.593 891.992 157.711 891.367 157.836 890.742C157.961 890.117 158.078 889.5 158.187 888.891C158.312 888.266 158.375 887.625 158.375 886.969V886.453C158.297 886.391 158.14 886.258 157.906 886.055C157.672 885.836 157.406 885.578 157.109 885.281C156.828 884.984 156.515 884.656 156.172 884.297C155.843 883.922 155.539 883.539 155.257 883.148C154.992 882.758 154.765 882.375 154.578 882C154.406 881.625 154.32 881.266 154.32 880.922C154.32 880.859 154.32 880.766 154.32 880.641C154.336 880.516 154.351 880.406 154.367 880.312C154.398 880.203 154.453 880.109 154.531 880.031C154.609 879.953 154.711 879.914 154.836 879.914C155.211 879.914 155.531 880.016 155.797 880.219C156.078 880.422 156.328 880.68 156.547 880.992C156.765 881.289 156.968 881.617 157.156 881.977C157.343 882.32 157.539 882.648 157.742 882.961C157.961 883.258 158.195 883.508 158.445 883.711C158.711 883.914 159.023 884.016 159.382 884.016C159.742 884.016 160.07 883.898 160.367 883.664C160.664 883.43 160.945 883.141 161.211 882.797C161.492 882.438 161.773 882.055 162.054 881.648C162.351 881.227 162.672 880.844 163.015 880.5C163.359 880.141 163.75 879.844 164.187 879.609C164.625 879.375 165.132 879.258 165.711 879.258C165.711 879.68 165.609 880.062 165.406 880.406C165.218 880.75 164.984 881.078 164.703 881.391C164.422 881.688 164.109 881.984 163.765 882.281C163.437 882.578 163.125 882.891 162.828 883.219C162.547 883.531 162.312 883.875 162.125 884.25C161.937 884.625 161.843 885.039 161.843 885.492C161.843 885.711 162 886.016 162.312 886.406C162.625 886.797 163.007 887.227 163.461 887.695C163.929 888.148 164.437 888.617 164.984 889.102C165.531 889.57 166.047 890.008 166.531 890.414C167.015 890.82 167.429 891.164 167.773 891.445C168.117 891.727 168.328 891.898 168.406 891.961C168.406 891.992 168.414 892.078 168.429 892.219C168.445 892.344 168.453 892.43 168.453 892.477C168.453 892.742 168.39 892.984 168.265 893.203C168.156 893.422 167.953 893.531 167.656 893.531C167.625 893.531 167.578 893.523 167.515 893.508C167.468 893.492 167.437 893.484 167.422 893.484C167.297 893.375 167.117 893.219 166.882 893.016C166.664 892.797 166.406 892.555 166.109 892.289C165.812 892.023 165.5 891.75 165.172 891.469C164.843 891.172 164.531 890.898 164.234 890.648C163.937 890.383 163.664 890.148 163.414 889.945C163.164 889.727 162.984 889.57 162.875 889.477C162.734 889.352 162.554 889.203 162.336 889.031C162.117 888.844 161.898 888.672 161.679 888.516C161.476 888.344 161.297 888.203 161.14 888.094C160.984 887.984 160.898 887.938 160.882 887.953L160.367 888.469C160.242 888.609 160.148 888.914 160.086 889.383C160.039 889.852 159.992 890.406 159.945 891.047C159.898 891.672 159.851 892.336 159.804 893.039C159.757 893.742 159.679 894.391 159.57 894.984C159.476 895.578 159.328 896.07 159.125 896.461C158.922 896.852 158.656 897.047 158.328 897.047C158.031 897.047 157.804 896.953 157.648 896.766C157.507 896.578 157.414 896.352 157.367 896.086C157.32 895.805 157.297 895.523 157.297 895.242C157.312 894.961 157.32 894.727 157.32 894.539Z" fill="#77705D"/>
<g opacity="0.3">
<path d="M1231.19 1014.17C1231.7 1009.24 1230.86 1003.96 1227.97 998.685C1218.97 982.184 1197.53 974.039 1180.85 968.953C1148.86 959.119 1088.61 951.023 1067.97 985.266C1057.05 1003.33 1073.36 1027.82 1084.24 1041.76C1099.88 1062.17 1121.47 1079.68 1144.44 1090.72C1165.88 1100.9 1184.1 1094.58 1201.48 1079.58C1218.7 1064.41 1239.33 1038.34 1231.19 1014.17Z" fill="#DDD6C4"/>
<path d="M1143.36 1092.97L1143.37 1092.97C1154.56 1098.29 1165.05 1099.35 1175.05 1097.03C1184.99 1094.72 1194.25 1089.13 1203.12 1081.47L1203.13 1081.46L1203.14 1081.46C1211.88 1073.75 1221.56 1063.22 1228.03 1051.45C1234.42 1039.85 1237.85 1026.73 1233.73 1013.89C1234.18 1008.62 1233.2 1003.03 1230.17 997.488C1225.35 988.66 1217.29 982.207 1208.5 977.35C1199.7 972.488 1189.97 969.12 1181.59 966.562C1165.41 961.59 1142.05 957.039 1120.04 958.084C1098.11 959.124 1076.8 965.769 1065.83 983.974C1059.77 993.995 1061.42 1005.57 1065.61 1015.99C1069.82 1026.44 1076.79 1036.27 1082.26 1043.29C1098.14 1064.01 1120.04 1081.77 1143.36 1092.97Z" stroke="#9B8F71" stroke-opacity="0.3" stroke-width="5"/>
</g>
<path d="M1114.87 999.512C1115.56 999.512 1116.13 999.716 1116.58 1000.12C1117.03 1000.53 1117.42 1001.06 1117.73 1001.72C1118.04 1002.36 1118.3 1003.1 1118.5 1003.94C1118.71 1004.77 1118.9 1005.63 1119.09 1006.52C1119.28 1007.4 1119.46 1008.25 1119.65 1009.1C1119.85 1009.93 1120.1 1010.67 1120.4 1011.32C1120.71 1011.98 1121.08 1012.51 1121.5 1012.92C1121.94 1013.31 1122.49 1013.5 1123.17 1013.5C1123.2 1013.5 1123.24 1013.5 1123.28 1013.48C1123.32 1013.47 1123.35 1013.45 1123.4 1013.43C1123.46 1013.42 1123.56 1013.35 1123.68 1013.22C1123.81 1013.08 1123.89 1012.99 1123.92 1012.94C1123.95 1012.86 1124.01 1012.61 1124.1 1012.17C1124.2 1011.73 1124.32 1011.18 1124.48 1010.5C1124.65 1009.83 1124.84 1009.07 1125.04 1008.23C1125.24 1007.39 1125.46 1006.54 1125.67 1005.68C1125.91 1004.8 1126.14 1003.96 1126.38 1003.15C1126.61 1002.32 1126.84 1001.58 1127.06 1000.94C1127.28 1000.3 1127.48 999.794 1127.67 999.419C1127.87 999.028 1128.04 998.833 1128.18 998.833C1128.37 998.833 1128.52 998.872 1128.63 998.95C1128.74 999.028 1128.82 999.13 1128.86 999.255C1128.91 999.38 1128.94 999.52 1128.96 999.677C1128.97 999.817 1128.98 999.958 1128.98 1000.1C1128.98 1000.33 1128.93 1000.75 1128.84 1001.34C1128.76 1001.93 1128.64 1002.64 1128.49 1003.45C1128.35 1004.25 1128.17 1005.12 1127.95 1006.07C1127.74 1007.03 1127.52 1008 1127.27 1008.98C1127.02 1009.95 1126.74 1010.89 1126.45 1011.79C1126.15 1012.68 1125.85 1013.48 1125.53 1014.18C1125.24 1014.87 1124.92 1015.43 1124.6 1015.85C1124.28 1016.25 1123.97 1016.46 1123.66 1016.46C1123.24 1016.46 1122.83 1016.34 1122.44 1016.11C1122.05 1015.87 1121.68 1015.57 1121.34 1015.19C1120.99 1014.82 1120.67 1014.4 1120.35 1013.93C1120.06 1013.44 1119.78 1012.96 1119.53 1012.47C1119.3 1011.99 1119.08 1011.53 1118.88 1011.09C1118.67 1010.65 1118.51 1010.27 1118.39 1009.94C1118.21 1009.52 1118 1009.01 1117.75 1008.42C1117.52 1007.81 1117.27 1007.18 1117 1006.52C1116.75 1005.86 1116.49 1005.21 1116.23 1004.55C1115.98 1003.88 1115.75 1003.29 1115.55 1002.77C1115.35 1002.24 1115.18 1001.8 1115.06 1001.46C1114.93 1001.11 1114.87 1000.93 1114.87 1000.9V999.512ZM1131.63 1007.67C1131.63 1007.57 1131.63 1007.43 1131.63 1007.22C1131.65 1007 1131.66 1006.78 1131.66 1006.54C1131.67 1006.31 1131.68 1006.08 1131.68 1005.86C1131.7 1005.65 1131.7 1005.49 1131.7 1005.4C1131.88 1005.15 1132.09 1004.94 1132.36 1004.79C1132.64 1004.63 1132.92 1004.5 1133.2 1004.41C1133.25 1005.25 1133.38 1006.15 1133.6 1007.11C1133.82 1008.06 1134.06 1009.02 1134.31 1009.99C1134.56 1010.94 1134.77 1011.89 1134.96 1012.82C1135.16 1013.76 1135.27 1014.64 1135.27 1015.45C1135.27 1016.15 1134.91 1016.5 1134.19 1016.5C1133.75 1016.5 1133.38 1016.32 1133.09 1015.97C1132.79 1015.61 1132.55 1015.15 1132.36 1014.61C1132.19 1014.04 1132.05 1013.43 1131.94 1012.75C1131.83 1012.07 1131.75 1011.4 1131.7 1010.74C1131.67 1010.08 1131.65 1009.48 1131.63 1008.93C1131.63 1008.39 1131.63 1007.97 1131.63 1007.67ZM1131.96 998.88C1132.26 999.005 1132.51 999.208 1132.71 999.489C1132.91 999.77 1133 1000.03 1132.97 1000.26C1132.95 1000.48 1132.78 1000.64 1132.45 1000.73C1132.13 1000.81 1131.58 1000.72 1130.81 1000.45C1130.81 1000.03 1130.89 999.661 1131.05 999.348C1131.22 999.036 1131.52 998.88 1131.96 998.88ZM1136.42 1006.61C1136.42 1006.47 1136.43 1006.33 1136.44 1006.19C1136.46 1006.04 1136.49 1005.9 1136.54 1005.79C1136.58 1005.67 1136.65 1005.57 1136.75 1005.49C1136.86 1005.41 1137.01 1005.37 1137.19 1005.37C1137.35 1005.37 1137.52 1005.5 1137.71 1005.75C1137.91 1005.98 1138.12 1006.29 1138.32 1006.66C1138.52 1007.02 1138.72 1007.42 1138.9 1007.86C1139.11 1008.29 1139.28 1008.7 1139.42 1009.07C1139.58 1009.43 1139.7 1009.75 1139.8 1010.01C1139.89 1010.28 1139.94 1010.42 1139.96 1010.43C1140.16 1009.89 1140.39 1009.29 1140.64 1008.65C1140.89 1008.01 1141.19 1007.42 1141.55 1006.87C1141.93 1006.31 1142.37 1005.84 1142.87 1005.47C1143.38 1005.09 1144.01 1004.9 1144.74 1004.9C1145.12 1004.9 1145.47 1004.97 1145.8 1005.09C1146.14 1005.2 1146.44 1005.37 1146.69 1005.61C1146.95 1005.82 1147.16 1006.09 1147.32 1006.4C1147.47 1006.72 1147.55 1007.07 1147.55 1007.48C1147.55 1007.82 1147.41 1008.07 1147.13 1008.21C1146.87 1008.35 1146.56 1008.42 1146.22 1008.42H1145.98L1144.97 1007.41C1144.94 1007.41 1144.92 1007.4 1144.9 1007.39C1144.87 1007.39 1144.84 1007.39 1144.81 1007.39C1144.8 1007.37 1144.77 1007.36 1144.74 1007.36C1144.19 1007.36 1143.76 1007.52 1143.45 1007.83C1143.15 1008.13 1142.93 1008.5 1142.77 1008.96C1142.62 1009.4 1142.51 1009.86 1142.47 1010.36C1142.44 1010.85 1142.42 1011.29 1142.42 1011.7C1142.42 1012.01 1142.45 1012.33 1142.51 1012.66C1142.58 1012.97 1142.65 1013.29 1142.72 1013.6C1142.8 1013.9 1142.87 1014.21 1142.94 1014.54C1143 1014.85 1143.03 1015.18 1143.03 1015.52C1143.03 1016.18 1142.68 1016.5 1141.97 1016.5C1141.58 1016.5 1141.18 1016.3 1140.76 1015.9C1140.33 1015.47 1139.91 1014.94 1139.49 1014.3C1139.08 1013.66 1138.69 1012.96 1138.32 1012.19C1137.94 1011.41 1137.62 1010.65 1137.33 1009.92C1137.05 1009.18 1136.83 1008.52 1136.65 1007.93C1136.5 1007.33 1136.42 1006.9 1136.42 1006.61ZM1148.12 1004.65C1148.12 1004.6 1148.13 1004.56 1148.14 1004.53C1148.14 1004.5 1148.15 1004.46 1148.17 1004.41C1148.23 1004.33 1148.32 1004.23 1148.45 1004.11C1148.57 1003.98 1148.65 1003.92 1148.68 1003.92H1153.39C1153.39 1003.75 1153.37 1003.47 1153.32 1003.1C1153.28 1002.72 1153.23 1002.31 1153.18 1001.86C1153.15 1001.4 1153.14 1000.93 1153.16 1000.45C1153.18 999.95 1153.24 999.505 1153.35 999.114C1153.47 998.708 1153.66 998.38 1153.91 998.13C1154.18 997.864 1154.54 997.731 1155.01 997.731C1155.01 999.309 1155.12 1000.57 1155.34 1001.53C1155.56 1002.48 1155.85 1003.22 1156.21 1003.73C1156.58 1004.25 1157 1004.58 1157.47 1004.74C1157.94 1004.9 1158.42 1004.97 1158.9 1004.95C1159.4 1004.92 1159.89 1004.84 1160.36 1004.72C1160.82 1004.59 1161.24 1004.5 1161.6 1004.46C1161.97 1004.41 1162.27 1004.45 1162.49 1004.57C1162.71 1004.68 1162.82 1004.96 1162.82 1005.4C1162.82 1005.72 1162.74 1005.96 1162.58 1006.1C1162.44 1006.24 1162.16 1006.35 1161.74 1006.43C1161.61 1006.44 1161.4 1006.47 1161.11 1006.52C1160.82 1006.55 1160.5 1006.58 1160.14 1006.61C1159.79 1006.65 1159.4 1006.68 1159 1006.73C1158.59 1006.76 1158.21 1006.79 1157.85 1006.82C1157.49 1006.86 1157.16 1006.88 1156.86 1006.9C1156.57 1006.9 1156.35 1006.9 1156.21 1006.9C1156.21 1006.97 1156.2 1007.11 1156.18 1007.29C1156.17 1007.48 1156.16 1007.61 1156.16 1007.67C1156.16 1008.36 1156.27 1009.03 1156.49 1009.68C1156.71 1010.32 1156.94 1010.97 1157.19 1011.61C1157.46 1012.25 1157.7 1012.89 1157.92 1013.53C1158.14 1014.17 1158.25 1014.83 1158.25 1015.52C1158.25 1015.65 1158.23 1015.78 1158.2 1015.92C1158.18 1016.04 1158.14 1016.16 1158.06 1016.27C1158 1016.36 1157.89 1016.43 1157.75 1016.48C1157.63 1016.54 1157.45 1016.54 1157.21 1016.46C1156.62 1016.3 1156.18 1015.97 1155.88 1015.45C1155.6 1014.93 1155.39 1014.32 1155.25 1013.62C1155.11 1012.9 1155.01 1012.15 1154.96 1011.35C1154.92 1010.55 1154.84 1009.81 1154.73 1009.12C1154.64 1008.42 1154.48 1007.82 1154.26 1007.34C1154.04 1006.84 1153.69 1006.54 1153.21 1006.43L1148.68 1005.4C1148.62 1005.4 1148.53 1005.33 1148.4 1005.21C1148.28 1005.07 1148.2 1004.97 1148.17 1004.9C1148.15 1004.87 1148.14 1004.83 1148.14 1004.79C1148.13 1004.75 1148.12 1004.71 1148.12 1004.65ZM1163.95 1006.9C1163.95 1006.8 1163.95 1006.64 1163.95 1006.4C1163.96 1006.15 1163.97 1005.9 1163.97 1005.63C1163.97 1005.36 1163.97 1005.12 1163.97 1004.9C1163.99 1004.67 1163.99 1004.5 1163.99 1004.41C1164.1 1004.22 1164.23 1004.04 1164.37 1003.87C1164.53 1003.68 1164.68 1003.56 1164.84 1003.5C1165.01 1003.42 1165.19 1003.4 1165.38 1003.45C1165.58 1003.5 1165.78 1003.65 1165.99 1003.92V1004.11V1004.41C1165.97 1004.49 1165.94 1004.68 1165.89 1004.97C1165.85 1005.25 1165.79 1005.57 1165.73 1005.91C1165.67 1006.25 1165.6 1006.57 1165.54 1006.87C1165.49 1007.15 1165.47 1007.33 1165.47 1007.41C1165.47 1007.71 1165.5 1008.08 1165.56 1008.54C1165.63 1008.97 1165.71 1009.43 1165.82 1009.92C1165.95 1010.4 1166.1 1010.89 1166.27 1011.37C1166.45 1011.86 1166.67 1012.29 1166.92 1012.68C1167.17 1013.06 1167.45 1013.37 1167.74 1013.62C1168.06 1013.87 1168.42 1014 1168.82 1014C1169.32 1014 1169.76 1013.86 1170.13 1013.6C1170.53 1013.33 1170.86 1012.99 1171.14 1012.57C1171.42 1012.15 1171.65 1011.67 1171.82 1011.14C1172.01 1010.61 1172.16 1010.07 1172.27 1009.54C1172.38 1009 1172.45 1008.47 1172.5 1007.97C1172.55 1007.47 1172.57 1007.04 1172.57 1006.66C1172.57 1006.29 1172.54 1005.93 1172.48 1005.61C1172.43 1005.26 1172.37 1004.93 1172.29 1004.6C1172.21 1004.27 1172.14 1003.95 1172.08 1003.64C1172.03 1003.31 1172.01 1002.98 1172.01 1002.65C1172.01 1002.36 1172.11 1002.15 1172.31 1002.02C1172.53 1001.9 1172.78 1001.83 1173.04 1001.83C1173.37 1001.83 1173.63 1001.93 1173.84 1002.14C1174.04 1002.32 1174.2 1002.57 1174.31 1002.86C1174.43 1003.16 1174.51 1003.5 1174.54 1003.9C1174.59 1004.27 1174.61 1004.65 1174.61 1005.02C1174.61 1005.4 1174.6 1005.75 1174.59 1006.1C1174.57 1006.43 1174.56 1006.69 1174.56 1006.9C1174.56 1007.43 1174.53 1008.03 1174.45 1008.7C1174.37 1009.37 1174.23 1010.07 1174.03 1010.79C1173.84 1011.49 1173.6 1012.18 1173.3 1012.87C1173.02 1013.56 1172.67 1014.18 1172.24 1014.72C1171.84 1015.25 1171.36 1015.68 1170.81 1016.01C1170.28 1016.34 1169.68 1016.5 1169.01 1016.5C1168.31 1016.5 1167.69 1016.34 1167.16 1016.01C1166.63 1015.67 1166.17 1015.22 1165.8 1014.68C1165.44 1014.11 1165.13 1013.48 1164.88 1012.78C1164.63 1012.07 1164.44 1011.37 1164.3 1010.67C1164.17 1009.97 1164.08 1009.29 1164.02 1008.63C1163.97 1007.96 1163.95 1007.38 1163.95 1006.9ZM1186.31 1013.43C1185.72 1013.84 1185.2 1014.21 1184.77 1014.54C1184.34 1014.85 1183.93 1015.11 1183.52 1015.33C1183.12 1015.55 1182.68 1015.72 1182.21 1015.82C1181.76 1015.93 1181.19 1015.99 1180.52 1015.99C1179.07 1015.99 1177.99 1015.61 1177.29 1014.84C1176.59 1014.06 1176.23 1012.9 1176.23 1011.37C1176.23 1010.78 1176.31 1010.16 1176.47 1009.52C1176.62 1008.88 1176.85 1008.25 1177.15 1007.62C1177.46 1006.98 1177.83 1006.38 1178.25 1005.82C1178.67 1005.24 1179.15 1004.73 1179.68 1004.29C1180.21 1003.86 1180.77 1003.51 1181.37 1003.26C1181.98 1003 1182.62 1002.86 1183.29 1002.86C1184.41 1002.97 1185.3 1003.25 1185.94 1003.71C1186.58 1004.15 1187.06 1004.72 1187.39 1005.42C1187.72 1006.11 1187.94 1006.88 1188.07 1007.74C1188.19 1008.58 1188.29 1009.46 1188.35 1010.36C1188.43 1011.27 1188.52 1012.18 1188.63 1013.08C1188.74 1013.99 1188.97 1014.82 1189.31 1015.59C1189.11 1016.11 1188.91 1016.47 1188.73 1016.67C1188.55 1016.89 1188.36 1016.93 1188.14 1016.79C1187.92 1016.65 1187.66 1016.3 1187.37 1015.75C1187.09 1015.21 1186.73 1014.43 1186.31 1013.43ZM1178.23 1011.42C1178.23 1012.31 1178.39 1012.97 1178.72 1013.39C1179.06 1013.79 1179.66 1014 1180.52 1014C1181.16 1014 1181.77 1013.89 1182.35 1013.67C1182.94 1013.43 1183.46 1013.12 1183.9 1012.73C1184.34 1012.32 1184.69 1011.84 1184.95 1011.28C1185.22 1010.72 1185.35 1010.09 1185.35 1009.4C1185.35 1009.12 1185.36 1008.73 1185.37 1008.23C1185.39 1007.72 1185.36 1007.21 1185.28 1006.71C1185.2 1006.21 1185.05 1005.78 1184.84 1005.42C1184.62 1005.04 1184.29 1004.86 1183.85 1004.86C1183.04 1004.86 1182.29 1005.07 1181.6 1005.49C1180.91 1005.9 1180.32 1006.42 1179.82 1007.06C1179.32 1007.7 1178.93 1008.41 1178.65 1009.19C1178.37 1009.96 1178.23 1010.7 1178.23 1011.42ZM1191.59 1003.19C1191.59 1002.74 1191.56 1002.3 1191.5 1001.88C1191.43 1001.44 1191.42 1001.06 1191.45 1000.73C1191.48 1000.39 1191.6 1000.11 1191.8 999.911C1192.02 999.708 1192.41 999.606 1192.97 999.606C1193.15 999.966 1193.31 1000.51 1193.47 1001.25C1193.64 1001.98 1193.8 1002.82 1193.96 1003.78C1194.11 1004.73 1194.26 1005.77 1194.4 1006.9C1194.54 1008 1194.67 1009.12 1194.78 1010.25C1194.9 1011.37 1195.01 1012.48 1195.08 1013.57C1195.18 1014.65 1195.25 1015.64 1195.29 1016.53C1194.78 1016.87 1194.36 1016.9 1194.05 1016.6C1193.74 1016.3 1193.48 1015.8 1193.28 1015.1C1193.08 1014.38 1192.92 1013.51 1192.81 1012.5C1192.7 1011.47 1192.59 1010.4 1192.48 1009.31C1192.39 1008.2 1192.27 1007.11 1192.13 1006.05C1191.99 1004.97 1191.81 1004.02 1191.59 1003.19ZM1113.78 1028.91C1113.78 1028.79 1113.79 1028.58 1113.8 1028.3C1113.8 1028 1113.8 1027.7 1113.8 1027.39C1113.8 1027.06 1113.81 1026.75 1113.83 1026.47C1113.83 1026.18 1113.83 1025.97 1113.83 1025.86C1114 1025.54 1114.26 1025.3 1114.62 1025.16C1115 1025 1115.4 1024.9 1115.82 1024.86C1116.26 1024.79 1116.68 1024.77 1117.08 1024.79C1117.51 1024.8 1117.85 1024.81 1118.12 1024.81C1118.46 1024.81 1118.86 1024.82 1119.31 1024.86C1119.78 1024.89 1120.24 1024.95 1120.69 1025.04C1121.16 1025.12 1121.62 1025.25 1122.08 1025.42C1122.53 1025.57 1122.93 1025.79 1123.27 1026.05C1123.63 1026.3 1123.91 1026.61 1124.12 1026.99C1124.33 1027.35 1124.44 1027.78 1124.44 1028.28C1124.44 1028.87 1124.3 1029.41 1124.02 1029.9C1123.74 1030.36 1123.39 1030.81 1122.97 1031.23C1122.56 1031.64 1122.11 1032.02 1121.61 1032.38C1121.12 1032.74 1120.67 1033.09 1120.25 1033.43C1119.84 1033.78 1119.5 1034.13 1119.22 1034.49C1118.94 1034.85 1118.8 1035.24 1118.8 1035.66C1118.8 1035.69 1118.8 1035.74 1118.82 1035.8C1118.85 1035.85 1118.87 1035.88 1118.87 1035.9C1120.71 1036.44 1122.5 1037.11 1124.23 1037.89C1125.98 1038.67 1127.7 1039.51 1129.39 1040.42C1129.44 1040.45 1129.48 1040.51 1129.53 1040.61C1129.59 1040.68 1129.65 1040.79 1129.69 1040.91C1129.74 1041.02 1129.79 1041.12 1129.83 1041.22C1129.88 1041.31 1129.9 1041.39 1129.9 1041.45C1129.9 1041.59 1129.87 1041.7 1129.79 1041.78C1129.71 1041.84 1129.62 1041.9 1129.51 1041.94C1129.4 1041.97 1129.29 1041.99 1129.18 1041.99C1129.07 1041.99 1128.98 1041.99 1128.9 1041.99C1128.05 1041.99 1127.21 1041.81 1126.37 1041.45C1125.54 1041.07 1124.7 1040.66 1123.86 1040.21C1123.01 1039.75 1122.15 1039.34 1121.28 1038.97C1120.42 1038.59 1119.52 1038.4 1118.58 1038.4H1117.83C1118.08 1038.98 1118.3 1039.5 1118.49 1039.95C1118.69 1040.4 1118.86 1040.84 1118.98 1041.26C1119.12 1041.68 1119.23 1042.11 1119.29 1042.55C1119.37 1042.97 1119.4 1043.43 1119.4 1043.93C1119.4 1044.04 1119.4 1044.18 1119.4 1044.33C1119.4 1044.47 1119.4 1044.62 1119.38 1044.78C1119.37 1044.93 1119.32 1045.07 1119.24 1045.2C1119.16 1045.32 1119.04 1045.41 1118.87 1045.46C1118.23 1045.08 1117.65 1044.5 1117.13 1043.72C1116.63 1042.93 1116.19 1042.02 1115.82 1041C1115.44 1039.99 1115.12 1038.91 1114.86 1037.77C1114.61 1036.63 1114.4 1035.51 1114.23 1034.42C1114.07 1033.31 1113.95 1032.28 1113.87 1031.32C1113.81 1030.36 1113.78 1029.55 1113.78 1028.91ZM1115.8 1030.39C1115.8 1030.59 1115.78 1030.86 1115.75 1031.18C1115.73 1031.5 1115.73 1031.82 1115.75 1032.17C1115.76 1032.5 1115.81 1032.82 1115.89 1033.13C1115.98 1033.43 1116.13 1033.68 1116.33 1033.9C1116.37 1033.92 1116.4 1033.93 1116.43 1033.93C1116.44 1033.94 1116.48 1033.95 1116.55 1033.95C1116.83 1033.95 1117.16 1033.86 1117.55 1033.69C1117.96 1033.52 1118.38 1033.29 1118.82 1033.01C1119.26 1032.73 1119.69 1032.41 1120.11 1032.05C1120.55 1031.68 1120.94 1031.29 1121.28 1030.9C1121.62 1030.51 1121.9 1030.12 1122.1 1029.73C1122.32 1029.32 1122.43 1028.96 1122.43 1028.63C1122.43 1028.32 1122.31 1028.05 1122.08 1027.83C1121.84 1027.6 1121.56 1027.41 1121.23 1027.27C1120.9 1027.13 1120.56 1027.03 1120.2 1026.97C1119.86 1026.9 1119.58 1026.87 1119.36 1026.87C1119.09 1026.87 1118.78 1026.87 1118.42 1026.87C1118.06 1026.86 1117.7 1026.88 1117.34 1026.94C1117 1026.99 1116.69 1027.08 1116.4 1027.22C1116.12 1027.36 1115.93 1027.57 1115.82 1027.86C1115.82 1027.95 1115.82 1028.11 1115.82 1028.35C1115.82 1028.58 1115.82 1028.84 1115.82 1029.12C1115.82 1029.39 1115.81 1029.64 1115.8 1029.87C1115.8 1030.11 1115.8 1030.28 1115.8 1030.39ZM1131.08 1038.94C1131.08 1038.1 1131.18 1037.25 1131.39 1036.41C1131.59 1035.57 1131.91 1034.81 1132.35 1034.14C1132.8 1033.47 1133.38 1032.92 1134.08 1032.5C1134.8 1032.07 1135.67 1031.86 1136.68 1031.86C1137.26 1031.86 1137.77 1031.97 1138.21 1032.19C1138.64 1032.4 1139.01 1032.67 1139.31 1033.01C1139.61 1033.36 1139.82 1033.76 1139.97 1034.23C1140.12 1034.68 1140.2 1035.16 1140.2 1035.66C1140.2 1036.46 1140.01 1037.23 1139.64 1037.98C1139.28 1038.73 1138.79 1039.4 1138.16 1039.97C1137.55 1040.54 1136.85 1040.97 1136.05 1041.26C1135.25 1041.54 1134.44 1041.61 1133.61 1041.45C1133.63 1041.9 1133.78 1042.27 1134.06 1042.55C1134.36 1042.82 1134.71 1043.02 1135.11 1043.16C1135.52 1043.3 1135.94 1043.4 1136.38 1043.44C1136.82 1043.47 1137.21 1043.49 1137.55 1043.49C1137.91 1043.49 1138.25 1043.46 1138.56 1043.4C1138.87 1043.33 1139.18 1043.26 1139.5 1043.18C1139.81 1043.11 1140.12 1043.04 1140.43 1042.97C1140.76 1042.91 1141.11 1042.88 1141.47 1042.88C1141.61 1042.88 1141.75 1042.89 1141.89 1042.9C1142.03 1042.92 1142.16 1042.96 1142.29 1043.02C1142.41 1043.07 1142.51 1043.15 1142.59 1043.28C1142.67 1043.39 1142.71 1043.53 1142.71 1043.7C1142.71 1044 1142.6 1044.25 1142.38 1044.45C1142.16 1044.64 1141.88 1044.8 1141.54 1044.94C1141.21 1045.08 1140.84 1045.19 1140.43 1045.27C1140.03 1045.33 1139.63 1045.39 1139.24 1045.43C1138.86 1045.47 1138.51 1045.48 1138.18 1045.48C1137.87 1045.5 1137.64 1045.5 1137.48 1045.5C1136.48 1045.5 1135.58 1045.35 1134.79 1045.04C1133.99 1044.71 1133.32 1044.26 1132.77 1043.7C1132.22 1043.12 1131.8 1042.43 1131.5 1041.64C1131.22 1040.82 1131.08 1039.93 1131.08 1038.94ZM1133.57 1037.42C1133.57 1037.97 1133.64 1038.36 1133.78 1038.61C1133.93 1038.86 1134.3 1038.99 1134.88 1038.99C1135.29 1038.99 1135.68 1038.92 1136.07 1038.78C1136.47 1038.62 1136.82 1038.41 1137.13 1038.15C1137.46 1037.88 1137.72 1037.57 1137.9 1037.21C1138.09 1036.85 1138.18 1036.46 1138.18 1036.04C1138.18 1035.8 1138.16 1035.56 1138.11 1035.31C1138.08 1035.06 1138 1034.83 1137.88 1034.63C1137.75 1034.41 1137.59 1034.24 1137.39 1034.11C1137.2 1033.97 1136.95 1033.9 1136.64 1033.9C1136.17 1033.9 1135.74 1034.01 1135.35 1034.23C1134.97 1034.43 1134.65 1034.71 1134.39 1035.05C1134.12 1035.38 1133.92 1035.75 1133.78 1036.18C1133.64 1036.58 1133.57 1037 1133.57 1037.42ZM1154.48 1042.43C1153.88 1042.84 1153.37 1043.21 1152.93 1043.54C1152.51 1043.85 1152.1 1044.11 1151.69 1044.33C1151.28 1044.55 1150.85 1044.72 1150.38 1044.82C1149.92 1044.93 1149.36 1044.99 1148.69 1044.99C1147.24 1044.99 1146.16 1044.61 1145.46 1043.84C1144.75 1043.06 1144.4 1041.9 1144.4 1040.37C1144.4 1039.78 1144.48 1039.16 1144.63 1038.52C1144.79 1037.88 1145.02 1037.25 1145.31 1036.62C1145.63 1035.98 1145.99 1035.38 1146.42 1034.82C1146.84 1034.24 1147.31 1033.73 1147.85 1033.29C1148.38 1032.86 1148.94 1032.51 1149.53 1032.26C1150.14 1032 1150.78 1031.86 1151.46 1031.86C1152.58 1031.97 1153.46 1032.25 1154.1 1032.71C1154.74 1033.15 1155.23 1033.72 1155.56 1034.42C1155.88 1035.11 1156.11 1035.88 1156.24 1036.74C1156.36 1037.58 1156.46 1038.46 1156.52 1039.36C1156.6 1040.27 1156.69 1041.18 1156.8 1042.08C1156.91 1042.99 1157.13 1043.82 1157.48 1044.59C1157.28 1045.11 1157.08 1045.47 1156.89 1045.67C1156.72 1045.89 1156.53 1045.93 1156.31 1045.79C1156.09 1045.65 1155.83 1045.3 1155.53 1044.75C1155.25 1044.21 1154.9 1043.43 1154.48 1042.43ZM1146.39 1040.42C1146.39 1041.31 1146.56 1041.97 1146.88 1042.39C1147.23 1042.79 1147.83 1043 1148.69 1043C1149.33 1043 1149.94 1042.89 1150.52 1042.67C1151.11 1042.43 1151.63 1042.12 1152.06 1041.73C1152.5 1041.32 1152.85 1040.84 1153.12 1040.28C1153.38 1039.72 1153.52 1039.09 1153.52 1038.4C1153.52 1038.12 1153.53 1037.73 1153.54 1037.23C1153.56 1036.72 1153.53 1036.21 1153.45 1035.71C1153.37 1035.21 1153.22 1034.78 1153 1034.42C1152.78 1034.04 1152.46 1033.86 1152.02 1033.86C1151.21 1033.86 1150.46 1034.07 1149.77 1034.49C1149.08 1034.9 1148.49 1035.42 1147.99 1036.06C1147.49 1036.7 1147.1 1037.41 1146.81 1038.19C1146.53 1038.96 1146.39 1039.7 1146.39 1040.42ZM1159.76 1032.19C1159.76 1031.74 1159.73 1031.3 1159.66 1030.88C1159.6 1030.44 1159.59 1030.06 1159.62 1029.73C1159.65 1029.39 1159.77 1029.11 1159.97 1028.91C1160.19 1028.71 1160.58 1028.61 1161.14 1028.61C1161.31 1028.97 1161.48 1029.51 1161.63 1030.25C1161.8 1030.98 1161.97 1031.82 1162.12 1032.78C1162.28 1033.73 1162.43 1034.77 1162.57 1035.9C1162.71 1037 1162.84 1038.12 1162.95 1039.25C1163.07 1040.37 1163.17 1041.48 1163.25 1042.57C1163.34 1043.65 1163.41 1044.64 1163.46 1045.53C1162.95 1045.87 1162.53 1045.9 1162.22 1045.6C1161.91 1045.3 1161.65 1044.8 1161.45 1044.1C1161.24 1043.38 1161.09 1042.51 1160.98 1041.5C1160.87 1040.47 1160.76 1039.4 1160.65 1038.31C1160.55 1037.2 1160.44 1036.11 1160.3 1035.05C1160.16 1033.97 1159.98 1033.02 1159.76 1032.19ZM1165.9 1036.67C1165.9 1036.57 1165.9 1036.43 1165.9 1036.22C1165.92 1036 1165.93 1035.78 1165.93 1035.54C1165.94 1035.31 1165.95 1035.08 1165.95 1034.86C1165.97 1034.65 1165.97 1034.49 1165.97 1034.4C1166.15 1034.15 1166.36 1033.94 1166.63 1033.79C1166.91 1033.63 1167.19 1033.5 1167.47 1033.41C1167.52 1034.25 1167.65 1035.15 1167.87 1036.11C1168.09 1037.06 1168.33 1038.02 1168.58 1038.99C1168.83 1039.94 1169.04 1040.89 1169.23 1041.82C1169.44 1042.76 1169.54 1043.64 1169.54 1044.45C1169.54 1045.15 1169.18 1045.5 1168.46 1045.5C1168.02 1045.5 1167.65 1045.32 1167.36 1044.97C1167.06 1044.61 1166.82 1044.15 1166.63 1043.61C1166.46 1043.04 1166.32 1042.43 1166.21 1041.75C1166.1 1041.07 1166.02 1040.4 1165.97 1039.74C1165.94 1039.08 1165.92 1038.48 1165.9 1037.93C1165.9 1037.39 1165.9 1036.97 1165.9 1036.67ZM1166.23 1027.88C1166.53 1028 1166.78 1028.21 1166.98 1028.49C1167.19 1028.77 1167.27 1029.03 1167.24 1029.26C1167.22 1029.48 1167.05 1029.64 1166.72 1029.73C1166.4 1029.81 1165.85 1029.72 1165.08 1029.45C1165.08 1029.03 1165.16 1028.66 1165.32 1028.35C1165.49 1028.04 1165.79 1027.88 1166.23 1027.88ZM1170.18 1033.65C1170.18 1033.6 1170.18 1033.56 1170.2 1033.53C1170.2 1033.5 1170.21 1033.46 1170.22 1033.41C1170.28 1033.33 1170.38 1033.23 1170.5 1033.11C1170.63 1032.98 1170.71 1032.92 1170.74 1032.92H1175.45C1175.45 1032.75 1175.43 1032.47 1175.38 1032.1C1175.33 1031.72 1175.28 1031.31 1175.24 1030.86C1175.21 1030.4 1175.2 1029.93 1175.21 1029.45C1175.23 1028.95 1175.29 1028.5 1175.4 1028.11C1175.53 1027.71 1175.71 1027.38 1175.96 1027.13C1176.23 1026.86 1176.6 1026.73 1177.07 1026.73C1177.07 1028.31 1177.18 1029.57 1177.39 1030.53C1177.61 1031.48 1177.9 1032.22 1178.26 1032.73C1178.64 1033.25 1179.06 1033.58 1179.53 1033.74C1180 1033.9 1180.47 1033.97 1180.96 1033.95C1181.46 1033.92 1181.94 1033.84 1182.41 1033.72C1182.88 1033.59 1183.29 1033.5 1183.65 1033.46C1184.03 1033.41 1184.32 1033.45 1184.54 1033.57C1184.76 1033.68 1184.87 1033.96 1184.87 1034.4C1184.87 1034.72 1184.79 1034.96 1184.64 1035.1C1184.5 1035.24 1184.21 1035.35 1183.79 1035.43C1183.67 1035.44 1183.46 1035.47 1183.16 1035.52C1182.88 1035.55 1182.56 1035.58 1182.2 1035.61C1181.84 1035.65 1181.46 1035.68 1181.05 1035.73C1180.64 1035.76 1180.26 1035.79 1179.9 1035.82C1179.54 1035.86 1179.21 1035.88 1178.92 1035.9C1178.62 1035.9 1178.4 1035.9 1178.26 1035.9C1178.26 1035.97 1178.25 1036.11 1178.24 1036.29C1178.22 1036.48 1178.21 1036.61 1178.21 1036.67C1178.21 1037.36 1178.32 1038.03 1178.54 1038.68C1178.76 1039.32 1179 1039.97 1179.25 1040.61C1179.51 1041.25 1179.75 1041.89 1179.97 1042.53C1180.19 1043.17 1180.3 1043.83 1180.3 1044.52C1180.3 1044.65 1180.28 1044.78 1180.25 1044.92C1180.24 1045.04 1180.19 1045.16 1180.11 1045.27C1180.05 1045.36 1179.95 1045.43 1179.81 1045.48C1179.68 1045.54 1179.5 1045.54 1179.27 1045.46C1178.68 1045.3 1178.23 1044.97 1177.93 1044.45C1177.65 1043.93 1177.44 1043.32 1177.3 1042.62C1177.16 1041.9 1177.07 1041.15 1177.02 1040.35C1176.97 1039.55 1176.89 1038.81 1176.78 1038.12C1176.69 1037.42 1176.53 1036.82 1176.32 1036.34C1176.1 1035.84 1175.75 1035.54 1175.26 1035.43L1170.74 1034.4C1170.68 1034.4 1170.58 1034.33 1170.46 1034.21C1170.33 1034.07 1170.25 1033.97 1170.22 1033.9C1170.21 1033.87 1170.2 1033.83 1170.2 1033.79C1170.18 1033.75 1170.18 1033.71 1170.18 1033.65ZM1185.6 1033.34C1185.6 1033.2 1185.6 1033.06 1185.6 1032.92C1185.62 1032.76 1185.65 1032.62 1185.7 1032.5C1185.76 1032.36 1185.84 1032.25 1185.93 1032.19C1186.04 1032.11 1186.2 1032.07 1186.4 1032.07C1186.42 1032.07 1186.43 1032.07 1186.45 1032.07C1186.48 1032.07 1186.51 1032.07 1186.54 1032.07C1186.59 1032.09 1186.63 1032.1 1186.66 1032.1C1186.95 1032.5 1187.21 1033.03 1187.43 1033.67C1187.65 1034.29 1187.86 1034.97 1188.06 1035.68C1188.27 1036.39 1188.49 1037.11 1188.72 1037.84C1188.95 1038.56 1189.26 1039.21 1189.63 1039.79C1190.01 1040.36 1190.47 1040.82 1191.02 1041.17C1191.56 1041.51 1192.24 1041.66 1193.06 1041.61C1193.42 1041.61 1193.65 1041.42 1193.76 1041.03C1193.87 1040.64 1193.92 1040.14 1193.92 1039.53C1193.94 1038.92 1193.92 1038.25 1193.88 1037.51C1193.85 1036.78 1193.85 1036.08 1193.88 1035.43C1193.92 1034.75 1194.04 1034.17 1194.23 1033.67C1194.43 1033.17 1194.77 1032.83 1195.26 1032.66C1195.46 1033.07 1195.63 1033.71 1195.75 1034.58C1195.89 1035.44 1195.99 1036.44 1196.06 1037.58C1196.12 1038.71 1196.15 1039.93 1196.15 1041.26C1196.15 1042.57 1196.12 1043.89 1196.06 1045.2C1195.99 1046.5 1195.9 1047.75 1195.77 1048.95C1195.65 1050.15 1195.51 1051.21 1195.35 1052.11C1195.2 1053.02 1195.01 1053.73 1194.79 1054.25C1194.59 1054.78 1194.37 1055 1194.13 1054.93C1193.81 1054.61 1193.55 1054.21 1193.36 1053.71C1193.19 1053.21 1193.06 1052.65 1192.99 1052.04C1192.92 1051.43 1192.9 1050.79 1192.92 1050.1C1192.93 1049.43 1192.95 1048.75 1192.99 1048.06C1193.03 1047.37 1193.08 1046.7 1193.13 1046.04C1193.19 1045.39 1193.22 1044.79 1193.22 1044.24C1192.66 1044.29 1192.08 1044.2 1191.49 1043.98C1190.91 1043.76 1190.34 1043.43 1189.77 1042.97C1189.21 1042.5 1188.67 1041.94 1188.16 1041.29C1187.66 1040.63 1187.21 1039.89 1186.82 1039.06C1186.45 1038.23 1186.15 1037.34 1185.93 1036.39C1185.71 1035.42 1185.6 1034.4 1185.6 1033.34Z" fill="#77705D"/>
</svg>
