<svg width="25" height="25" viewBox="0 0 25 25" fill="none" xmlns="http://www.w3.org/2000/svg">
<path d="M5.80718 2.16045C6.07785 2.29054 6.25 2.56427 6.25 2.8646C6.25 3.72901 6.57511 4.2267 6.98243 4.83279L7.01204 4.87683C7.35844 5.39145 7.8125 6.06604 7.8125 7.03126C7.8125 8.01617 7.31544 8.88499 6.55849 9.40054C6.75764 9.5675 6.93408 9.77342 7.08568 10.0188C7.58126 10.8208 7.8125 12.0464 7.8125 13.8072C7.8125 15.5906 7.57295 17.7323 7.18272 19.4421C6.98869 20.2923 6.74837 21.0766 6.46117 21.666C6.31873 21.9583 6.14529 22.2439 5.92934 22.4672C5.71577 22.6879 5.38578 22.9218 4.94792 22.9218C4.51005 22.9218 4.18006 22.6879 3.96649 22.4672C3.75054 22.2439 3.5771 21.9583 3.43467 21.666C3.14747 21.0766 2.90715 20.2923 2.71312 19.4421C2.32289 17.7323 2.08333 15.5906 2.08333 13.8072C2.08333 12.0464 2.31457 10.8208 2.81016 10.0188C2.96175 9.77342 3.1382 9.5675 3.33734 9.40054C2.5804 8.88499 2.08333 8.01617 2.08333 7.03126C2.08333 6.64772 2.08369 5.98843 2.48272 5.13717C2.87322 4.30409 3.61527 3.34689 4.98071 2.25454C5.21522 2.06693 5.5365 2.03036 5.80718 2.16045ZM3.64583 7.02995V7.03126C3.64583 7.75038 4.22879 8.33335 4.94792 8.33335C5.66704 8.33335 6.25 7.75038 6.25 7.03126C6.25 6.57393 6.05748 6.25774 5.68556 5.70433L5.67283 5.68538C5.43443 5.3307 5.15284 4.91179 4.95189 4.37246C4.38597 4.94791 4.07344 5.425 3.89749 5.80035C3.64583 6.33723 3.64583 6.71927 3.64583 7.02995ZM4.13941 10.8401C3.88096 11.2583 3.64583 12.1161 3.64583 13.8072C3.64583 15.4755 3.87265 17.5005 4.23644 19.0944C4.41942 19.8961 4.62801 20.5479 4.83931 20.9817C4.87821 21.0615 4.91465 21.1285 4.94792 21.1843C4.98119 21.1285 5.01763 21.0615 5.05652 20.9817C5.26782 20.5479 5.47642 19.8961 5.6594 19.0944C6.02319 17.5005 6.25 15.4755 6.25 13.8072C6.25 12.1161 6.01488 11.2583 5.75643 10.8401C5.63882 10.6497 5.52207 10.5596 5.41776 10.509C5.30544 10.4545 5.15696 10.4218 4.94792 10.4218C4.73888 10.4218 4.5904 10.4545 4.47807 10.509C4.37376 10.5596 4.25701 10.6497 4.13941 10.8401Z" fill="#C9B97E"/>
<path d="M10.4166 15.5385C9.85585 15.4445 9.32043 15.2757 8.8209 15.0429C8.84275 14.6197 8.8541 14.2052 8.8541 13.8072C8.8541 13.6241 8.85175 13.4444 8.84685 13.2683C9.31676 13.5841 9.84698 13.8171 10.4166 13.9464V10.9375C10.4166 10.0746 11.1161 9.375 11.9791 9.375H16.1457C16.1457 6.78617 14.0471 4.6875 11.4582 4.6875C10.387 4.6875 9.39969 5.04685 8.61027 5.65158C8.40243 5.07615 8.10538 4.63536 7.8987 4.32869L7.85675 4.26637C8.87475 3.54739 10.1172 3.125 11.4582 3.125C14.91 3.125 17.7082 5.92322 17.7082 9.375H21.3541C22.2171 9.375 22.9166 10.0746 22.9166 10.9375V20.3125C22.9166 21.1754 22.2171 21.875 21.3541 21.875H11.9791C11.1161 21.875 10.4166 21.1754 10.4166 20.3125V15.5385ZM11.9791 15.6036V20.3125H21.3541V10.9375H17.5114C16.8594 13.4708 14.659 15.3825 11.9791 15.6036ZM15.8791 10.9375H11.9791V14.0339C13.7906 13.8336 15.291 12.601 15.8791 10.9375Z" fill="#C9B97E"/>
</svg>
