<svg width="60" height="60" viewBox="0 0 60 60" fill="none" xmlns="http://www.w3.org/2000/svg">
<path d="M13.9372 5.18508C14.5869 5.4973 15 6.15425 15 6.87503C15 8.94963 15.7803 10.1441 16.7578 11.5987L16.8289 11.7044C17.6603 12.9395 18.75 14.5585 18.75 16.875C18.75 19.2388 17.5571 21.324 15.7404 22.5613C16.2183 22.962 16.6418 23.4562 17.0056 24.0451C18.195 25.97 18.75 28.9112 18.75 33.1372C18.75 37.4175 18.1751 42.5575 17.2385 46.661C16.7729 48.7015 16.1961 50.5837 15.5068 51.9985C15.165 52.7 14.7487 53.3852 14.2304 53.9212C13.7179 54.451 12.9259 55.0122 11.875 55.0122C10.8241 55.0122 10.0322 54.451 9.51958 53.9212C9.0013 53.3852 8.58505 52.7 8.2432 51.9985C7.55393 50.5837 6.97715 48.7015 6.51147 46.661C5.57492 42.5575 5 37.4175 5 33.1372C5 28.9112 5.55498 25.97 6.74438 24.0451C7.1082 23.4562 7.53168 22.962 8.00962 22.5613C6.19295 21.324 5 19.2388 5 16.875C5 15.9545 5.00085 14.3722 5.95852 12.3292C6.89572 10.3298 8.67665 8.03253 11.9537 5.4109C12.5165 4.96063 13.2876 4.87285 13.9372 5.18508ZM8.75 16.8719V16.875C8.75 18.6009 10.1491 20 11.875 20C13.6009 20 15 18.6009 15 16.875C15 15.7774 14.5379 15.0186 13.6453 13.6904L13.6148 13.6449C13.0426 12.7937 12.3668 11.7883 11.8845 10.4939C10.5263 11.875 9.77625 13.02 9.35398 13.9208C8.75 15.2093 8.75 16.1263 8.75 16.8719ZM9.93458 26.0163C9.3143 27.02 8.75 29.0788 8.75 33.1372C8.75 37.1413 9.29435 42.0012 10.1674 45.8265C10.6066 47.7507 11.1072 49.315 11.6144 50.356C11.7077 50.5475 11.7951 50.7085 11.875 50.8422C11.9549 50.7085 12.0423 50.5475 12.1356 50.356C12.6428 49.315 13.1434 47.7507 13.5826 45.8265C14.4557 42.0012 15 37.1413 15 33.1372C15 29.0788 14.4357 27.02 13.8154 26.0163C13.5332 25.5592 13.253 25.343 13.0026 25.2215C12.733 25.0908 12.3767 25.0123 11.875 25.0123C11.3733 25.0123 11.017 25.0908 10.7474 25.2215C10.497 25.343 10.2168 25.5592 9.93458 26.0163Z" fill="#A89F89"/>
<path d="M24.9999 37.2925C23.6541 37.0667 22.369 36.6618 21.1701 36.103C21.2226 35.0872 21.2499 34.0925 21.2499 33.1372C21.2499 32.6978 21.2442 32.2665 21.2325 31.844C22.3602 32.6018 23.6328 33.161 24.9999 33.4713V26.25C24.9999 24.1789 26.6788 22.5 28.7498 22.5H38.7497C38.7497 16.2868 33.713 11.25 27.4998 11.25C24.9288 11.25 22.5592 12.1124 20.6647 13.5638C20.1658 12.1827 19.4529 11.1249 18.9569 10.3888L18.8562 10.2393C21.2994 8.51372 24.2813 7.5 27.4998 7.5C35.784 7.5 42.4998 14.2157 42.4998 22.5H51.2497C53.321 22.5 54.9997 24.1789 54.9997 26.25V48.75C54.9997 50.821 53.321 52.5 51.2497 52.5H28.7498C26.6788 52.5 24.9999 50.821 24.9999 48.75V37.2925ZM28.7498 37.4487V48.75H51.2497V26.25H42.0272C40.4625 32.33 35.1815 36.918 28.7498 37.4487ZM38.1098 26.25H28.7498V33.6812C33.0975 33.2008 36.6985 30.2425 38.1098 26.25Z" fill="#A89F89"/>
</svg>
