<svg width="33" height="17" viewBox="0 0 33 17" fill="none" xmlns="http://www.w3.org/2000/svg">
<path d="M2.499 17C1.12106 17 0 15.8033 0 14.3354C0 12.8676 1.12106 11.6727 2.499 11.6727C2.96556 11.6727 3.4255 11.8182 3.83067 12.0912L3.8845 12.1271L10.1537 6.8886L10.1471 6.83287C10.1207 6.65435 10.1056 6.54667 10.1056 6.43899C10.1056 4.96927 11.2257 3.77536 12.6036 3.77536C13.9806 3.77536 15.1026 4.97022 15.1026 6.43899C15.1026 6.84515 15.0082 7.25036 14.8231 7.63857L14.7966 7.69619L17.3192 11.0843L17.3787 11.0626C17.6281 10.9804 17.8793 10.9379 18.1296 10.9379C18.6216 10.9379 19.0995 11.0918 19.5113 11.3865L19.5708 11.4262L27.3303 3.73286L27.3067 3.67052C27.1811 3.34465 27.1178 3.0065 27.1178 2.66174C27.1178 1.19391 28.2389 0 29.6168 0C30.9948 0 32.1111 1.19297 32.1111 2.65985C32.1111 4.12863 30.9901 5.32348 29.6121 5.32348C29.2277 5.32348 28.8462 5.22147 28.4807 5.01934L28.4249 4.99005L20.5096 12.8402L20.5247 12.8969C20.5927 13.1604 20.6248 13.3833 20.6248 13.5996C20.6248 15.0665 19.5037 16.2642 18.1258 16.2642C16.7478 16.2642 15.6268 15.0656 15.6268 13.5996C15.6268 13.1141 15.7571 12.6447 16.0149 12.2036L16.048 12.146L13.6142 8.87687L13.5518 8.90143C13.2515 9.03462 12.9323 9.10073 12.6036 9.10073C12.0341 9.10073 11.4788 8.89199 11.0368 8.51228L10.9811 8.46316L10.8819 8.46505L4.85822 13.4967L4.87617 13.5609C4.95833 13.8461 4.99706 14.0927 4.99706 14.3335C4.99706 15.8033 3.876 17 2.499 17ZM2.499 13.3928C2.01072 13.3928 1.61311 13.8159 1.61311 14.3354C1.61311 14.8578 2.01072 15.28 2.499 15.28C2.98728 15.28 3.38489 14.8578 3.38489 14.3354C3.38394 13.8159 2.98728 13.3928 2.499 13.3928ZM18.1267 12.656C17.9265 12.656 17.7414 12.7221 17.5884 12.8497C17.3674 13.0291 17.2408 13.3021 17.2408 13.5987C17.2408 14.1191 17.6384 14.5423 18.1267 14.5423C18.615 14.5423 19.0126 14.1191 19.0126 13.5987C19.0126 13.0782 18.615 12.656 18.1267 12.656ZM12.6027 5.49539C12.1144 5.49539 11.7168 5.91855 11.7168 6.43899C11.7168 6.72425 11.8377 6.9925 12.0483 7.17385C12.1748 7.28153 12.3977 7.35143 12.6178 7.35143C12.7916 7.35143 13.0381 7.30892 13.2279 7.10584C13.3951 6.92827 13.4876 6.69119 13.4876 6.43899C13.4876 5.91949 13.09 5.49539 12.6027 5.49539ZM29.6121 1.71814C29.1238 1.71814 28.7262 2.13846 28.7262 2.65985C28.7262 3.1803 29.1238 3.60346 29.6121 3.60346C30.1004 3.60346 30.498 3.1803 30.498 2.65985C30.4989 2.1394 30.1004 1.71814 29.6121 1.71814Z" fill="#C9B97E"/>
</svg>
