<svg width="61" height="75" viewBox="0 0 61 75" fill="none" xmlns="http://www.w3.org/2000/svg">
<g filter="url(#filter0_d_47_5307)">
<path d="M3.26356 35.8732C3.17123 27.5501 3.07039 19.2264 3.00046 10.9029C2.99248 10.0211 3.08832 9.14157 3.28596 8.28269C4.13588 4.63632 5.39068 3.63783 9.09631 3.42199C19.4313 2.82363 29.7717 2.98252 40.1128 3.16832C41.4545 3.19252 42.6726 3.40245 43.7423 4.38254C47.5095 7.8301 51.3106 11.239 55.1455 14.609C55.8192 15.1636 56.358 15.8669 56.7206 16.6647C57.0832 17.4626 57.2598 18.334 57.2371 19.2116C57.4267 29.303 57.8193 39.3912 57.9788 49.4821C58.0642 54.8783 57.8749 60.2811 57.7084 65.6776C57.6168 68.6327 55.9606 70.404 53.0597 70.8596C51.9328 71.0277 50.7949 71.1093 49.6558 71.1035C39.225 71.1246 28.7942 71.1854 18.3634 71.0863C15.0357 70.9893 11.7151 70.7212 8.41444 70.2826C5.6383 69.9704 3.87705 67.9505 3.79669 65.0817C3.61048 58.4462 3.46391 51.8093 3.35703 45.171C3.30294 42.0722 3.34779 38.9719 3.34779 35.8724L3.26356 35.8732ZM39.2621 6.55827C38.7398 6.46039 38.2128 6.3899 37.6832 6.3471C31.0219 6.25758 24.3604 6.17521 17.6986 6.1C15.162 6.06761 12.6211 5.90483 10.0899 6.0028C7.37678 6.1078 6.84906 6.6332 6.62537 9.29089C6.4778 11.0454 6.59985 12.8232 6.60641 14.5906C6.66282 30.1802 6.71922 45.7701 6.77562 61.3603C6.72619 62.2442 6.723 63.1302 6.766 64.0145C7.00591 66.2186 8.26607 67.4493 10.5241 67.5906C23.937 68.4384 37.3456 67.4543 50.7549 67.6261C53.7088 67.6651 54.4853 66.7127 54.425 63.7584C54.3369 59.422 54.1932 55.0867 54.1094 50.7503C53.9221 41.2764 53.7431 31.8024 53.5724 22.3283C53.5608 21.7405 53.4402 21.155 53.3603 20.486C52.7808 20.486 52.3512 20.4809 51.9231 20.486C49.4684 20.52 47.0102 20.6628 44.5609 20.564C41.2385 20.4325 40.479 19.5523 40.2102 16.2705C39.9506 13.1031 39.5963 9.94234 39.2641 6.55827L39.2621 6.55827ZM42.78 9.07896C43.2216 11.924 43.6326 14.5727 44.0614 17.3389C46.622 17.1136 48.9195 17.171 51.3062 16.7113C49.7022 14.6691 44.6123 10.0883 42.78 9.07896Z" fill="#A4946F" fill-opacity="0.7" shape-rendering="crispEdges"/>
</g>
<mask id="path-2-outside-1_47_5307" maskUnits="userSpaceOnUse" x="9.7832" y="51.368" width="41" height="15" fill="black">
<rect fill="white" x="9.7832" y="51.368" width="41" height="15"/>
<path d="M11.4556 60.8653C11.8356 60.8653 12.0256 61.0657 12.0256 61.4667C11.9327 61.7141 11.8145 61.8762 11.6709 61.953C11.5274 62.0383 11.3922 62.0682 11.2656 62.0426C11.1473 62.0255 11.0375 61.9658 10.9362 61.8634C10.8433 61.7611 10.7926 61.6459 10.7842 61.5179C10.7757 61.3899 10.8222 61.2662 10.9235 61.1468C11.0249 61.0188 11.2022 60.925 11.4556 60.8653Z"/>
<path d="M14.9965 61.326C15.1316 61.2321 15.292 61.1127 15.4778 60.9676C15.6721 60.8141 15.8663 60.652 16.0606 60.4813C16.2548 60.3107 16.4364 60.1316 16.6053 59.9439C16.7742 59.7562 16.9051 59.577 16.998 59.4064C17.0993 59.2272 17.15 59.0609 17.15 58.9073C17.15 58.7537 17.074 58.6258 16.922 58.5234C16.6517 58.5234 16.3561 58.5362 16.0352 58.5618C15.7143 58.5788 15.3934 58.5874 15.0725 58.5874C14.7516 58.5788 14.4391 58.549 14.1351 58.4978C13.8395 58.4466 13.5734 58.3528 13.337 58.2163C13.1005 58.0798 12.9105 57.8878 12.7669 57.6404C12.6318 57.3844 12.5643 57.0603 12.5643 56.6678C12.5643 56.2071 12.6487 55.7933 12.8176 55.4265C12.995 55.0511 13.2272 54.7226 13.5143 54.4411C13.8015 54.151 14.1224 53.8994 14.4771 53.6861C14.8402 53.4643 15.2034 53.2766 15.5665 53.123C15.7861 53.1827 15.9888 53.2894 16.1746 53.4429C16.3604 53.5965 16.5208 53.7671 16.6559 53.9548C16.5968 54.1425 16.4786 54.2875 16.3012 54.3899C16.1323 54.4923 15.9339 54.5819 15.7059 54.6587C15.4863 54.7354 15.254 54.8165 15.0091 54.9018C14.7642 54.9871 14.5404 55.1023 14.3377 55.2473C14.1435 55.3838 13.9788 55.5673 13.8437 55.7976C13.7086 56.0194 13.641 56.3138 13.641 56.6806C13.641 56.9536 13.7086 57.1541 13.8437 57.2821C13.9788 57.41 14.1562 57.4996 14.3757 57.5508C14.5953 57.5935 14.8444 57.6105 15.1231 57.602C15.4018 57.5849 15.6847 57.5636 15.9719 57.538C16.2675 57.5124 16.5546 57.4996 16.8333 57.4996C17.112 57.4911 17.3611 57.5252 17.5807 57.602C17.8003 57.6702 17.9734 57.7854 18.1001 57.9475C18.2352 58.1096 18.3027 58.3485 18.3027 58.6642C18.3027 58.8007 18.2563 58.9756 18.1634 59.1888C18.0789 59.4021 17.9607 59.6325 17.8087 59.8799C17.6651 60.1188 17.492 60.3576 17.2893 60.5965C17.0951 60.8354 16.8882 61.053 16.6686 61.2492C16.4575 61.4369 16.2421 61.5947 16.0225 61.7227C15.8114 61.8421 15.613 61.9018 15.4272 61.9018C15.2498 61.9018 15.1316 61.8378 15.0725 61.7099C15.0218 61.5819 14.9965 61.4539 14.9965 61.326Z"/>
<path d="M18.9174 53.5837C18.9174 53.4899 18.9258 53.3747 18.9427 53.2382C18.9681 53.0932 19.0061 52.9566 19.0567 52.8287C19.1158 52.7007 19.1876 52.5941 19.2721 52.5087C19.3565 52.4149 19.4663 52.368 19.6014 52.368C19.6099 52.368 19.631 52.3722 19.6648 52.3808C19.6986 52.3893 19.7197 52.3936 19.7281 52.3936C19.8717 52.9225 19.9561 53.4472 19.9815 53.9676C20.0068 54.488 19.9984 54.9957 19.9561 55.4905C19.9139 55.9768 19.8506 56.4503 19.7661 56.911C19.6817 57.3631 19.6099 57.7812 19.5508 58.1651C19.5001 58.549 19.4663 58.8945 19.4494 59.2016C19.441 59.5088 19.4874 59.769 19.5888 59.9823C19.5719 59.8458 19.5592 59.6837 19.5508 59.496C19.5508 59.2997 19.5677 59.0993 19.6014 58.8945C19.6437 58.6898 19.707 58.485 19.7915 58.2802C19.8844 58.0755 20.0153 57.8921 20.1842 57.73C20.3531 57.5679 20.5684 57.4399 20.8302 57.3461C21.1005 57.2522 21.434 57.2053 21.831 57.2053C22.2448 57.2053 22.5995 57.2778 22.8951 57.4228C23.1991 57.5679 23.4482 57.7684 23.6425 58.0243C23.8367 58.2717 23.9803 58.566 24.0732 58.9073C24.1745 59.24 24.2252 59.5983 24.2252 59.9823C24.2252 60.1614 24.221 60.3662 24.2125 60.5965C24.2125 60.8183 24.183 61.0274 24.1238 61.2236C24.0732 61.4113 23.976 61.5734 23.8325 61.7099C23.6974 61.8378 23.4947 61.9018 23.2244 61.9018C23.2244 61.7653 23.2329 61.5819 23.2498 61.3516C23.2667 61.1127 23.2751 60.861 23.2751 60.5965C23.2835 60.332 23.2751 60.0633 23.2498 59.7903C23.2329 59.5173 23.178 59.2742 23.0851 59.0609C22.9922 58.8391 22.8613 58.6599 22.6924 58.5234C22.5319 58.3784 22.3081 58.3058 22.021 58.3058C21.9196 58.3058 21.793 58.3144 21.641 58.3314C21.4974 58.34 21.3496 58.3784 21.1976 58.4466C21.0456 58.5149 20.8978 58.6215 20.7542 58.7665C20.6106 58.903 20.4966 59.095 20.4122 59.3424C20.3277 59.5813 20.2771 59.8884 20.2602 60.2638C20.2517 60.6306 20.2982 61.0828 20.3995 61.6203C20.3404 61.7739 20.2644 61.8634 20.1715 61.889C20.087 61.9146 19.9773 61.9274 19.8421 61.9274C19.5719 61.9274 19.3481 61.8336 19.1707 61.6459C19.0018 61.4497 18.8709 61.1895 18.778 60.8653C18.6851 60.5411 18.6218 60.1657 18.588 59.7391C18.5627 59.3125 18.5542 58.8689 18.5627 58.4082C18.5711 57.939 18.5922 57.4655 18.626 56.9877C18.6683 56.5014 18.7063 56.045 18.74 55.6184C18.7823 55.1833 18.8203 54.7909 18.854 54.4411C18.8963 54.0828 18.9174 53.797 18.9174 53.5837Z"/>
<path d="M24.4725 58.3442C24.4725 57.8835 24.5273 57.4228 24.6371 56.9621C24.7469 56.5014 24.92 56.0877 25.1565 55.7208C25.4014 55.354 25.7139 55.0554 26.0939 54.825C26.4824 54.5947 26.9511 54.4795 27.5 54.4795C27.8125 54.4795 28.087 54.5392 28.3235 54.6587C28.5599 54.7696 28.7584 54.9189 28.9188 55.1066C29.0793 55.2943 29.1975 55.5161 29.2735 55.772C29.358 56.0194 29.4002 56.2796 29.4002 56.5526C29.4002 56.9877 29.2989 57.41 29.0962 57.8195C28.9019 58.2291 28.6359 58.5916 28.2981 58.9073C27.9688 59.2144 27.5887 59.449 27.158 59.6111C26.7273 59.7647 26.2882 59.7988 25.8406 59.7135C25.849 59.9609 25.9292 60.1614 26.0813 60.315C26.2417 60.46 26.4317 60.5709 26.6513 60.6477C26.8709 60.7245 27.0989 60.7757 27.3354 60.8013C27.5718 60.8183 27.783 60.8269 27.9688 60.8269C28.163 60.8269 28.3446 60.8098 28.5135 60.7757C28.6824 60.7416 28.8513 60.7032 29.0202 60.6605C29.1891 60.6178 29.358 60.5795 29.5269 60.5453C29.7042 60.5112 29.89 60.4941 30.0843 60.4941C30.1603 60.4941 30.2363 60.4984 30.3123 60.5069C30.3883 60.5155 30.4601 60.5368 30.5276 60.5709C30.5952 60.5965 30.6501 60.6434 30.6923 60.7117C30.7345 60.7714 30.7557 60.8482 30.7557 60.942C30.7557 61.1041 30.6965 61.2406 30.5783 61.3516C30.4601 61.4539 30.3081 61.5435 30.1223 61.6203C29.9449 61.6971 29.7465 61.7568 29.5269 61.7994C29.3073 61.8336 29.092 61.8634 28.8808 61.889C28.6781 61.9061 28.4881 61.9146 28.3108 61.9146C28.1419 61.9232 28.0152 61.9274 27.9307 61.9274C27.3903 61.9274 26.9047 61.8421 26.474 61.6715C26.0433 61.4923 25.6801 61.2492 25.3845 60.942C25.089 60.6264 24.8609 60.251 24.7005 59.8159C24.5485 59.3723 24.4725 58.8817 24.4725 58.3442ZM25.8152 57.5124C25.8152 57.811 25.8532 58.0286 25.9292 58.1651C26.0137 58.3016 26.2122 58.3698 26.5246 58.3698C26.7442 58.3698 26.9596 58.3314 27.1707 58.2547C27.3818 58.1693 27.5718 58.0542 27.7407 57.9091C27.9181 57.7641 28.0574 57.5935 28.1588 57.3972C28.2601 57.201 28.3108 56.9877 28.3108 56.7574C28.3108 56.6294 28.2981 56.4972 28.2728 56.3607C28.2559 56.2242 28.2137 56.1005 28.1461 55.9896C28.0785 55.8701 27.9899 55.7763 27.8801 55.708C27.7787 55.6312 27.6436 55.5929 27.4747 55.5929C27.2214 55.5929 26.9891 55.6526 26.778 55.772C26.5753 55.8829 26.4022 56.0322 26.2586 56.2199C26.115 56.3991 26.0053 56.6038 25.9292 56.8342C25.8532 57.056 25.8152 57.2821 25.8152 57.5124Z"/>
<path d="M31.2816 58.3442C31.2816 57.8835 31.3365 57.4228 31.4463 56.9621C31.5561 56.5014 31.7292 56.0877 31.9657 55.7208C32.2106 55.354 32.5231 55.0554 32.9031 54.825C33.2916 54.5947 33.7603 54.4795 34.3092 54.4795C34.6217 54.4795 34.8962 54.5392 35.1326 54.6587C35.3691 54.7696 35.5676 54.9189 35.728 55.1066C35.8885 55.2943 36.0067 55.5161 36.0827 55.772C36.1672 56.0194 36.2094 56.2796 36.2094 56.5526C36.2094 56.9877 36.108 57.41 35.9054 57.8195C35.7111 58.2291 35.4451 58.5916 35.1073 58.9073C34.7779 59.2144 34.3979 59.449 33.9672 59.6111C33.5365 59.7647 33.0973 59.7988 32.6497 59.7135C32.6582 59.9609 32.7384 60.1614 32.8904 60.315C33.0509 60.46 33.2409 60.5709 33.4605 60.6477C33.6801 60.7245 33.9081 60.7757 34.1445 60.8013C34.381 60.8183 34.5921 60.8269 34.7779 60.8269C34.9722 60.8269 35.1537 60.8098 35.3226 60.7757C35.4915 60.7416 35.6604 60.7032 35.8294 60.6605C35.9983 60.6178 36.1672 60.5795 36.3361 60.5453C36.5134 60.5112 36.6992 60.4941 36.8934 60.4941C36.9695 60.4941 37.0455 60.4984 37.1215 60.5069C37.1975 60.5155 37.2693 60.5368 37.3368 60.5709C37.4044 60.5965 37.4593 60.6434 37.5015 60.7117C37.5437 60.7714 37.5648 60.8482 37.5648 60.942C37.5648 61.1041 37.5057 61.2406 37.3875 61.3516C37.2693 61.4539 37.1172 61.5435 36.9314 61.6203C36.7541 61.6971 36.5556 61.7568 36.3361 61.7994C36.1165 61.8336 35.9011 61.8634 35.69 61.889C35.4873 61.9061 35.2973 61.9146 35.12 61.9146C34.9511 61.9232 34.8244 61.9274 34.7399 61.9274C34.1994 61.9274 33.7138 61.8421 33.2831 61.6715C32.8524 61.4923 32.4893 61.2492 32.1937 60.942C31.8981 60.6264 31.6701 60.251 31.5096 59.8159C31.3576 59.3723 31.2816 58.8817 31.2816 58.3442ZM32.6244 57.5124C32.6244 57.811 32.6624 58.0286 32.7384 58.1651C32.8229 58.3016 33.0213 58.3698 33.3338 58.3698C33.5534 58.3698 33.7687 58.3314 33.9799 58.2547C34.191 58.1693 34.381 58.0542 34.5499 57.9091C34.7273 57.7641 34.8666 57.5935 34.9679 57.3972C35.0693 57.201 35.12 56.9877 35.12 56.7574C35.12 56.6294 35.1073 56.4972 35.082 56.3607C35.0651 56.2242 35.0228 56.1005 34.9553 55.9896C34.8877 55.8701 34.799 55.7763 34.6893 55.708C34.5879 55.6312 34.4528 55.5929 34.2839 55.5929C34.0305 55.5929 33.7983 55.6526 33.5872 55.772C33.3845 55.8829 33.2113 56.0322 33.0678 56.2199C32.9242 56.3991 32.8144 56.6038 32.7384 56.8342C32.6624 57.056 32.6244 57.2821 32.6244 57.5124Z"/>
<path d="M38.0908 58.3442C38.0908 57.8835 38.1457 57.4228 38.2555 56.9621C38.3653 56.5014 38.5384 56.0877 38.7749 55.7208C39.0198 55.354 39.3322 55.0554 39.7123 54.825C40.1007 54.5947 40.5695 54.4795 41.1184 54.4795C41.4309 54.4795 41.7053 54.5392 41.9418 54.6587C42.1783 54.7696 42.3767 54.9189 42.5372 55.1066C42.6976 55.2943 42.8159 55.5161 42.8919 55.772C42.9763 56.0194 43.0186 56.2796 43.0186 56.5526C43.0186 56.9877 42.9172 57.41 42.7145 57.8195C42.5203 58.2291 42.2543 58.5916 41.9165 58.9073C41.5871 59.2144 41.2071 59.449 40.7764 59.6111C40.3457 59.7647 39.9065 59.7988 39.4589 59.7135C39.4674 59.9609 39.5476 60.1614 39.6996 60.315C39.8601 60.46 40.0501 60.5709 40.2697 60.6477C40.4892 60.7245 40.7172 60.7757 40.9537 60.8013C41.1902 60.8183 41.4013 60.8269 41.5871 60.8269C41.7813 60.8269 41.9629 60.8098 42.1318 60.7757C42.3007 60.7416 42.4696 60.7032 42.6385 60.6605C42.8074 60.6178 42.9763 60.5795 43.1452 60.5453C43.3226 60.5112 43.5084 60.4941 43.7026 60.4941C43.7786 60.4941 43.8546 60.4984 43.9306 60.5069C44.0066 60.5155 44.0784 60.5368 44.146 60.5709C44.2136 60.5965 44.2684 60.6434 44.3107 60.7117C44.3529 60.7714 44.374 60.8482 44.374 60.942C44.374 61.1041 44.3149 61.2406 44.1967 61.3515C44.0784 61.4539 43.9264 61.5435 43.7406 61.6203C43.5633 61.6971 43.3648 61.7568 43.1452 61.7994C42.9257 61.8336 42.7103 61.8634 42.4992 61.889C42.2965 61.9061 42.1065 61.9146 41.9291 61.9146C41.7602 61.9232 41.6335 61.9274 41.5491 61.9274C41.0086 61.9274 40.523 61.8421 40.0923 61.6715C39.6616 61.4923 39.2985 61.2492 39.0029 60.942C38.7073 60.6264 38.4793 60.251 38.3188 59.8159C38.1668 59.3723 38.0908 58.8817 38.0908 58.3442ZM39.4336 57.5124C39.4336 57.811 39.4716 58.0286 39.5476 58.1651C39.632 58.3016 39.8305 58.3698 40.143 58.3698C40.3626 58.3698 40.5779 58.3314 40.789 58.2547C41.0002 58.1693 41.1902 58.0542 41.3591 57.9091C41.5364 57.7641 41.6758 57.5935 41.7771 57.3972C41.8785 57.201 41.9291 56.9877 41.9291 56.7574C41.9291 56.6294 41.9165 56.4972 41.8911 56.3607C41.8742 56.2242 41.832 56.1005 41.7645 55.9896C41.6969 55.8701 41.6082 55.7763 41.4984 55.708C41.3971 55.6312 41.262 55.5929 41.0931 55.5929C40.8397 55.5929 40.6075 55.6526 40.3963 55.772C40.1936 55.8829 40.0205 56.0322 39.877 56.2199C39.7334 56.3991 39.6236 56.6038 39.5476 56.8342C39.4716 57.056 39.4336 57.2821 39.4336 57.5124Z"/>
<path d="M44.9 57.1797C44.9 56.3521 45.09 55.7379 45.47 55.3369C45.8501 54.9359 46.4328 54.7354 47.2182 54.7354C47.5391 54.7354 47.8685 54.7653 48.2063 54.825C48.5525 54.8847 48.8692 54.9914 49.1563 55.145C49.4435 55.29 49.6757 55.4947 49.8531 55.7592C50.0389 56.0237 50.1318 56.3649 50.1318 56.783C50.1318 57.2437 50.0304 57.6788 49.8277 58.0883C49.6335 58.4893 49.3844 58.8689 49.0803 59.2272C48.7848 59.577 48.4554 59.9055 48.0922 60.2126C47.7376 60.5112 47.404 60.797 47.0915 61.07C47.0746 61.1041 47.0577 61.1767 47.0408 61.2876C47.0324 61.3899 47.0282 61.4582 47.0282 61.4923C47.0282 61.7739 47.1084 62.0554 47.2688 62.3369C47.4377 62.627 47.6193 62.9171 47.8136 63.2071C48.0078 63.5057 48.1851 63.8129 48.3456 64.1285C48.5061 64.4442 48.5863 64.7726 48.5863 65.1139C48.5863 65.3187 48.5441 65.4381 48.4596 65.4722C48.3752 65.5149 48.1978 65.5362 47.9276 65.5362C47.7587 65.468 47.5898 65.3059 47.4209 65.0499C47.2604 64.8025 47.0957 64.4954 46.9268 64.1285C46.7664 63.7617 46.6059 63.3479 46.4454 62.8872C46.2934 62.435 46.1456 61.9743 46.0021 61.5051C45.8669 61.0274 45.736 60.5581 45.6094 60.0974C45.4911 59.6282 45.3856 59.1974 45.2927 58.8049C45.1998 58.4125 45.1153 58.0755 45.0393 57.794C44.9718 57.5039 44.9253 57.2991 44.9 57.1797ZM45.9767 57.2949C45.9767 57.4228 45.9852 57.6105 46.0021 57.8579C46.019 58.0968 46.0527 58.3357 46.1034 58.5746C46.1625 58.8135 46.247 59.0225 46.3568 59.2016C46.4666 59.3723 46.6186 59.4576 46.8128 59.4576C47.0746 59.4576 47.3364 59.368 47.5982 59.1888C47.8685 59.0097 48.1049 58.7836 48.3076 58.5106C48.5187 58.2376 48.6876 57.9475 48.8143 57.6404C48.9494 57.3247 49.017 57.0389 49.017 56.783C49.017 56.5697 48.9663 56.4033 48.865 56.2839C48.7636 56.1559 48.6327 56.0578 48.4723 55.9896C48.3203 55.9128 48.1556 55.8659 47.9782 55.8488C47.8009 55.8232 47.632 55.8104 47.4715 55.8104C46.9902 55.8104 46.6186 55.9426 46.3568 56.2071C46.1034 56.4631 45.9767 56.8256 45.9767 57.2949Z"/>
</mask>
<path d="M11.4556 60.8653C11.8356 60.8653 12.0256 61.0657 12.0256 61.4667C11.9327 61.7141 11.8145 61.8762 11.6709 61.953C11.5274 62.0383 11.3922 62.0682 11.2656 62.0426C11.1473 62.0255 11.0375 61.9658 10.9362 61.8634C10.8433 61.7611 10.7926 61.6459 10.7842 61.5179C10.7757 61.3899 10.8222 61.2662 10.9235 61.1468C11.0249 61.0188 11.2022 60.925 11.4556 60.8653Z" fill="#A4946F"/>
<path d="M14.9965 61.326C15.1316 61.2321 15.292 61.1127 15.4778 60.9676C15.6721 60.8141 15.8663 60.652 16.0606 60.4813C16.2548 60.3107 16.4364 60.1316 16.6053 59.9439C16.7742 59.7562 16.9051 59.577 16.998 59.4064C17.0993 59.2272 17.15 59.0609 17.15 58.9073C17.15 58.7537 17.074 58.6258 16.922 58.5234C16.6517 58.5234 16.3561 58.5362 16.0352 58.5618C15.7143 58.5788 15.3934 58.5874 15.0725 58.5874C14.7516 58.5788 14.4391 58.549 14.1351 58.4978C13.8395 58.4466 13.5734 58.3528 13.337 58.2163C13.1005 58.0798 12.9105 57.8878 12.7669 57.6404C12.6318 57.3844 12.5643 57.0603 12.5643 56.6678C12.5643 56.2071 12.6487 55.7933 12.8176 55.4265C12.995 55.0511 13.2272 54.7226 13.5143 54.4411C13.8015 54.151 14.1224 53.8994 14.4771 53.6861C14.8402 53.4643 15.2034 53.2766 15.5665 53.123C15.7861 53.1827 15.9888 53.2894 16.1746 53.4429C16.3604 53.5965 16.5208 53.7671 16.6559 53.9548C16.5968 54.1425 16.4786 54.2875 16.3012 54.3899C16.1323 54.4923 15.9339 54.5819 15.7059 54.6587C15.4863 54.7354 15.254 54.8165 15.0091 54.9018C14.7642 54.9871 14.5404 55.1023 14.3377 55.2473C14.1435 55.3838 13.9788 55.5673 13.8437 55.7976C13.7086 56.0194 13.641 56.3138 13.641 56.6806C13.641 56.9536 13.7086 57.1541 13.8437 57.2821C13.9788 57.41 14.1562 57.4996 14.3757 57.5508C14.5953 57.5935 14.8444 57.6105 15.1231 57.602C15.4018 57.5849 15.6847 57.5636 15.9719 57.538C16.2675 57.5124 16.5546 57.4996 16.8333 57.4996C17.112 57.4911 17.3611 57.5252 17.5807 57.602C17.8003 57.6702 17.9734 57.7854 18.1001 57.9475C18.2352 58.1096 18.3027 58.3485 18.3027 58.6642C18.3027 58.8007 18.2563 58.9756 18.1634 59.1888C18.0789 59.4021 17.9607 59.6325 17.8087 59.8799C17.6651 60.1188 17.492 60.3576 17.2893 60.5965C17.0951 60.8354 16.8882 61.053 16.6686 61.2492C16.4575 61.4369 16.2421 61.5947 16.0225 61.7227C15.8114 61.8421 15.613 61.9018 15.4272 61.9018C15.2498 61.9018 15.1316 61.8378 15.0725 61.7099C15.0218 61.5819 14.9965 61.4539 14.9965 61.326Z" fill="#A4946F"/>
<path d="M18.9174 53.5837C18.9174 53.4899 18.9258 53.3747 18.9427 53.2382C18.9681 53.0932 19.0061 52.9566 19.0567 52.8287C19.1158 52.7007 19.1876 52.5941 19.2721 52.5087C19.3565 52.4149 19.4663 52.368 19.6014 52.368C19.6099 52.368 19.631 52.3722 19.6648 52.3808C19.6986 52.3893 19.7197 52.3936 19.7281 52.3936C19.8717 52.9225 19.9561 53.4472 19.9815 53.9676C20.0068 54.488 19.9984 54.9957 19.9561 55.4905C19.9139 55.9768 19.8506 56.4503 19.7661 56.911C19.6817 57.3631 19.6099 57.7812 19.5508 58.1651C19.5001 58.549 19.4663 58.8945 19.4494 59.2016C19.441 59.5088 19.4874 59.769 19.5888 59.9823C19.5719 59.8458 19.5592 59.6837 19.5508 59.496C19.5508 59.2997 19.5677 59.0993 19.6014 58.8945C19.6437 58.6898 19.707 58.485 19.7915 58.2802C19.8844 58.0755 20.0153 57.8921 20.1842 57.73C20.3531 57.5679 20.5684 57.4399 20.8302 57.3461C21.1005 57.2522 21.434 57.2053 21.831 57.2053C22.2448 57.2053 22.5995 57.2778 22.8951 57.4228C23.1991 57.5679 23.4482 57.7684 23.6425 58.0243C23.8367 58.2717 23.9803 58.566 24.0732 58.9073C24.1745 59.24 24.2252 59.5983 24.2252 59.9823C24.2252 60.1614 24.221 60.3662 24.2125 60.5965C24.2125 60.8183 24.183 61.0274 24.1238 61.2236C24.0732 61.4113 23.976 61.5734 23.8325 61.7099C23.6974 61.8378 23.4947 61.9018 23.2244 61.9018C23.2244 61.7653 23.2329 61.5819 23.2498 61.3516C23.2667 61.1127 23.2751 60.861 23.2751 60.5965C23.2835 60.332 23.2751 60.0633 23.2498 59.7903C23.2329 59.5173 23.178 59.2742 23.0851 59.0609C22.9922 58.8391 22.8613 58.6599 22.6924 58.5234C22.5319 58.3784 22.3081 58.3058 22.021 58.3058C21.9196 58.3058 21.793 58.3144 21.641 58.3314C21.4974 58.34 21.3496 58.3784 21.1976 58.4466C21.0456 58.5149 20.8978 58.6215 20.7542 58.7665C20.6106 58.903 20.4966 59.095 20.4122 59.3424C20.3277 59.5813 20.2771 59.8884 20.2602 60.2638C20.2517 60.6306 20.2982 61.0828 20.3995 61.6203C20.3404 61.7739 20.2644 61.8634 20.1715 61.889C20.087 61.9146 19.9773 61.9274 19.8421 61.9274C19.5719 61.9274 19.3481 61.8336 19.1707 61.6459C19.0018 61.4497 18.8709 61.1895 18.778 60.8653C18.6851 60.5411 18.6218 60.1657 18.588 59.7391C18.5627 59.3125 18.5542 58.8689 18.5627 58.4082C18.5711 57.939 18.5922 57.4655 18.626 56.9877C18.6683 56.5014 18.7063 56.045 18.74 55.6184C18.7823 55.1833 18.8203 54.7909 18.854 54.4411C18.8963 54.0828 18.9174 53.797 18.9174 53.5837Z" fill="#A4946F"/>
<path d="M24.4725 58.3442C24.4725 57.8835 24.5273 57.4228 24.6371 56.9621C24.7469 56.5014 24.92 56.0877 25.1565 55.7208C25.4014 55.354 25.7139 55.0554 26.0939 54.825C26.4824 54.5947 26.9511 54.4795 27.5 54.4795C27.8125 54.4795 28.087 54.5392 28.3235 54.6587C28.5599 54.7696 28.7584 54.9189 28.9188 55.1066C29.0793 55.2943 29.1975 55.5161 29.2735 55.772C29.358 56.0194 29.4002 56.2796 29.4002 56.5526C29.4002 56.9877 29.2989 57.41 29.0962 57.8195C28.9019 58.2291 28.6359 58.5916 28.2981 58.9073C27.9688 59.2144 27.5887 59.449 27.158 59.6111C26.7273 59.7647 26.2882 59.7988 25.8406 59.7135C25.849 59.9609 25.9292 60.1614 26.0813 60.315C26.2417 60.46 26.4317 60.5709 26.6513 60.6477C26.8709 60.7245 27.0989 60.7757 27.3354 60.8013C27.5718 60.8183 27.783 60.8269 27.9688 60.8269C28.163 60.8269 28.3446 60.8098 28.5135 60.7757C28.6824 60.7416 28.8513 60.7032 29.0202 60.6605C29.1891 60.6178 29.358 60.5795 29.5269 60.5453C29.7042 60.5112 29.89 60.4941 30.0843 60.4941C30.1603 60.4941 30.2363 60.4984 30.3123 60.5069C30.3883 60.5155 30.4601 60.5368 30.5276 60.5709C30.5952 60.5965 30.6501 60.6434 30.6923 60.7117C30.7345 60.7714 30.7557 60.8482 30.7557 60.942C30.7557 61.1041 30.6965 61.2406 30.5783 61.3516C30.4601 61.4539 30.3081 61.5435 30.1223 61.6203C29.9449 61.6971 29.7465 61.7568 29.5269 61.7994C29.3073 61.8336 29.092 61.8634 28.8808 61.889C28.6781 61.9061 28.4881 61.9146 28.3108 61.9146C28.1419 61.9232 28.0152 61.9274 27.9307 61.9274C27.3903 61.9274 26.9047 61.8421 26.474 61.6715C26.0433 61.4923 25.6801 61.2492 25.3845 60.942C25.089 60.6264 24.8609 60.251 24.7005 59.8159C24.5485 59.3723 24.4725 58.8817 24.4725 58.3442ZM25.8152 57.5124C25.8152 57.811 25.8532 58.0286 25.9292 58.1651C26.0137 58.3016 26.2122 58.3698 26.5246 58.3698C26.7442 58.3698 26.9596 58.3314 27.1707 58.2547C27.3818 58.1693 27.5718 58.0542 27.7407 57.9091C27.9181 57.7641 28.0574 57.5935 28.1588 57.3972C28.2601 57.201 28.3108 56.9877 28.3108 56.7574C28.3108 56.6294 28.2981 56.4972 28.2728 56.3607C28.2559 56.2242 28.2137 56.1005 28.1461 55.9896C28.0785 55.8701 27.9899 55.7763 27.8801 55.708C27.7787 55.6312 27.6436 55.5929 27.4747 55.5929C27.2214 55.5929 26.9891 55.6526 26.778 55.772C26.5753 55.8829 26.4022 56.0322 26.2586 56.2199C26.115 56.3991 26.0053 56.6038 25.9292 56.8342C25.8532 57.056 25.8152 57.2821 25.8152 57.5124Z" fill="#A4946F"/>
<path d="M31.2816 58.3442C31.2816 57.8835 31.3365 57.4228 31.4463 56.9621C31.5561 56.5014 31.7292 56.0877 31.9657 55.7208C32.2106 55.354 32.5231 55.0554 32.9031 54.825C33.2916 54.5947 33.7603 54.4795 34.3092 54.4795C34.6217 54.4795 34.8962 54.5392 35.1326 54.6587C35.3691 54.7696 35.5676 54.9189 35.728 55.1066C35.8885 55.2943 36.0067 55.5161 36.0827 55.772C36.1672 56.0194 36.2094 56.2796 36.2094 56.5526C36.2094 56.9877 36.108 57.41 35.9054 57.8195C35.7111 58.2291 35.4451 58.5916 35.1073 58.9073C34.7779 59.2144 34.3979 59.449 33.9672 59.6111C33.5365 59.7647 33.0973 59.7988 32.6497 59.7135C32.6582 59.9609 32.7384 60.1614 32.8904 60.315C33.0509 60.46 33.2409 60.5709 33.4605 60.6477C33.6801 60.7245 33.9081 60.7757 34.1445 60.8013C34.381 60.8183 34.5921 60.8269 34.7779 60.8269C34.9722 60.8269 35.1537 60.8098 35.3226 60.7757C35.4915 60.7416 35.6604 60.7032 35.8294 60.6605C35.9983 60.6178 36.1672 60.5795 36.3361 60.5453C36.5134 60.5112 36.6992 60.4941 36.8934 60.4941C36.9695 60.4941 37.0455 60.4984 37.1215 60.5069C37.1975 60.5155 37.2693 60.5368 37.3368 60.5709C37.4044 60.5965 37.4593 60.6434 37.5015 60.7117C37.5437 60.7714 37.5648 60.8482 37.5648 60.942C37.5648 61.1041 37.5057 61.2406 37.3875 61.3516C37.2693 61.4539 37.1172 61.5435 36.9314 61.6203C36.7541 61.6971 36.5556 61.7568 36.3361 61.7994C36.1165 61.8336 35.9011 61.8634 35.69 61.889C35.4873 61.9061 35.2973 61.9146 35.12 61.9146C34.9511 61.9232 34.8244 61.9274 34.7399 61.9274C34.1994 61.9274 33.7138 61.8421 33.2831 61.6715C32.8524 61.4923 32.4893 61.2492 32.1937 60.942C31.8981 60.6264 31.6701 60.251 31.5096 59.8159C31.3576 59.3723 31.2816 58.8817 31.2816 58.3442ZM32.6244 57.5124C32.6244 57.811 32.6624 58.0286 32.7384 58.1651C32.8229 58.3016 33.0213 58.3698 33.3338 58.3698C33.5534 58.3698 33.7687 58.3314 33.9799 58.2547C34.191 58.1693 34.381 58.0542 34.5499 57.9091C34.7273 57.7641 34.8666 57.5935 34.9679 57.3972C35.0693 57.201 35.12 56.9877 35.12 56.7574C35.12 56.6294 35.1073 56.4972 35.082 56.3607C35.0651 56.2242 35.0228 56.1005 34.9553 55.9896C34.8877 55.8701 34.799 55.7763 34.6893 55.708C34.5879 55.6312 34.4528 55.5929 34.2839 55.5929C34.0305 55.5929 33.7983 55.6526 33.5872 55.772C33.3845 55.8829 33.2113 56.0322 33.0678 56.2199C32.9242 56.3991 32.8144 56.6038 32.7384 56.8342C32.6624 57.056 32.6244 57.2821 32.6244 57.5124Z" fill="#A4946F"/>
<path d="M38.0908 58.3442C38.0908 57.8835 38.1457 57.4228 38.2555 56.9621C38.3653 56.5014 38.5384 56.0877 38.7749 55.7208C39.0198 55.354 39.3322 55.0554 39.7123 54.825C40.1007 54.5947 40.5695 54.4795 41.1184 54.4795C41.4309 54.4795 41.7053 54.5392 41.9418 54.6587C42.1783 54.7696 42.3767 54.9189 42.5372 55.1066C42.6976 55.2943 42.8159 55.5161 42.8919 55.772C42.9763 56.0194 43.0186 56.2796 43.0186 56.5526C43.0186 56.9877 42.9172 57.41 42.7145 57.8195C42.5203 58.2291 42.2543 58.5916 41.9165 58.9073C41.5871 59.2144 41.2071 59.449 40.7764 59.6111C40.3457 59.7647 39.9065 59.7988 39.4589 59.7135C39.4674 59.9609 39.5476 60.1614 39.6996 60.315C39.8601 60.46 40.0501 60.5709 40.2697 60.6477C40.4892 60.7245 40.7172 60.7757 40.9537 60.8013C41.1902 60.8183 41.4013 60.8269 41.5871 60.8269C41.7813 60.8269 41.9629 60.8098 42.1318 60.7757C42.3007 60.7416 42.4696 60.7032 42.6385 60.6605C42.8074 60.6178 42.9763 60.5795 43.1452 60.5453C43.3226 60.5112 43.5084 60.4941 43.7026 60.4941C43.7786 60.4941 43.8546 60.4984 43.9306 60.5069C44.0066 60.5155 44.0784 60.5368 44.146 60.5709C44.2136 60.5965 44.2684 60.6434 44.3107 60.7117C44.3529 60.7714 44.374 60.8482 44.374 60.942C44.374 61.1041 44.3149 61.2406 44.1967 61.3515C44.0784 61.4539 43.9264 61.5435 43.7406 61.6203C43.5633 61.6971 43.3648 61.7568 43.1452 61.7994C42.9257 61.8336 42.7103 61.8634 42.4992 61.889C42.2965 61.9061 42.1065 61.9146 41.9291 61.9146C41.7602 61.9232 41.6335 61.9274 41.5491 61.9274C41.0086 61.9274 40.523 61.8421 40.0923 61.6715C39.6616 61.4923 39.2985 61.2492 39.0029 60.942C38.7073 60.6264 38.4793 60.251 38.3188 59.8159C38.1668 59.3723 38.0908 58.8817 38.0908 58.3442ZM39.4336 57.5124C39.4336 57.811 39.4716 58.0286 39.5476 58.1651C39.632 58.3016 39.8305 58.3698 40.143 58.3698C40.3626 58.3698 40.5779 58.3314 40.789 58.2547C41.0002 58.1693 41.1902 58.0542 41.3591 57.9091C41.5364 57.7641 41.6758 57.5935 41.7771 57.3972C41.8785 57.201 41.9291 56.9877 41.9291 56.7574C41.9291 56.6294 41.9165 56.4972 41.8911 56.3607C41.8742 56.2242 41.832 56.1005 41.7645 55.9896C41.6969 55.8701 41.6082 55.7763 41.4984 55.708C41.3971 55.6312 41.262 55.5929 41.0931 55.5929C40.8397 55.5929 40.6075 55.6526 40.3963 55.772C40.1936 55.8829 40.0205 56.0322 39.877 56.2199C39.7334 56.3991 39.6236 56.6038 39.5476 56.8342C39.4716 57.056 39.4336 57.2821 39.4336 57.5124Z" fill="#A4946F"/>
<path d="M44.9 57.1797C44.9 56.3521 45.09 55.7379 45.47 55.3369C45.8501 54.9359 46.4328 54.7354 47.2182 54.7354C47.5391 54.7354 47.8685 54.7653 48.2063 54.825C48.5525 54.8847 48.8692 54.9914 49.1563 55.145C49.4435 55.29 49.6757 55.4947 49.8531 55.7592C50.0389 56.0237 50.1318 56.3649 50.1318 56.783C50.1318 57.2437 50.0304 57.6788 49.8277 58.0883C49.6335 58.4893 49.3844 58.8689 49.0803 59.2272C48.7848 59.577 48.4554 59.9055 48.0922 60.2126C47.7376 60.5112 47.404 60.797 47.0915 61.07C47.0746 61.1041 47.0577 61.1767 47.0408 61.2876C47.0324 61.3899 47.0282 61.4582 47.0282 61.4923C47.0282 61.7739 47.1084 62.0554 47.2688 62.3369C47.4377 62.627 47.6193 62.9171 47.8136 63.2071C48.0078 63.5057 48.1851 63.8129 48.3456 64.1285C48.5061 64.4442 48.5863 64.7726 48.5863 65.1139C48.5863 65.3187 48.5441 65.4381 48.4596 65.4722C48.3752 65.5149 48.1978 65.5362 47.9276 65.5362C47.7587 65.468 47.5898 65.3059 47.4209 65.0499C47.2604 64.8025 47.0957 64.4954 46.9268 64.1285C46.7664 63.7617 46.6059 63.3479 46.4454 62.8872C46.2934 62.435 46.1456 61.9743 46.0021 61.5051C45.8669 61.0274 45.736 60.5581 45.6094 60.0974C45.4911 59.6282 45.3856 59.1974 45.2927 58.8049C45.1998 58.4125 45.1153 58.0755 45.0393 57.794C44.9718 57.5039 44.9253 57.2991 44.9 57.1797ZM45.9767 57.2949C45.9767 57.4228 45.9852 57.6105 46.0021 57.8579C46.019 58.0968 46.0527 58.3357 46.1034 58.5746C46.1625 58.8135 46.247 59.0225 46.3568 59.2016C46.4666 59.3723 46.6186 59.4576 46.8128 59.4576C47.0746 59.4576 47.3364 59.368 47.5982 59.1888C47.8685 59.0097 48.1049 58.7836 48.3076 58.5106C48.5187 58.2376 48.6876 57.9475 48.8143 57.6404C48.9494 57.3247 49.017 57.0389 49.017 56.783C49.017 56.5697 48.9663 56.4033 48.865 56.2839C48.7636 56.1559 48.6327 56.0578 48.4723 55.9896C48.3203 55.9128 48.1556 55.8659 47.9782 55.8488C47.8009 55.8232 47.632 55.8104 47.4715 55.8104C46.9902 55.8104 46.6186 55.9426 46.3568 56.2071C46.1034 56.4631 45.9767 56.8256 45.9767 57.2949Z" fill="#A4946F"/>
<path d="M11.4556 60.8653C11.8356 60.8653 12.0256 61.0657 12.0256 61.4667C11.9327 61.7141 11.8145 61.8762 11.6709 61.953C11.5274 62.0383 11.3922 62.0682 11.2656 62.0426C11.1473 62.0255 11.0375 61.9658 10.9362 61.8634C10.8433 61.7611 10.7926 61.6459 10.7842 61.5179C10.7757 61.3899 10.8222 61.2662 10.9235 61.1468C11.0249 61.0188 11.2022 60.925 11.4556 60.8653Z" stroke="#A4946F" stroke-width="0.4" mask="url(#path-2-outside-1_47_5307)"/>
<path d="M14.9965 61.326C15.1316 61.2321 15.292 61.1127 15.4778 60.9676C15.6721 60.8141 15.8663 60.652 16.0606 60.4813C16.2548 60.3107 16.4364 60.1316 16.6053 59.9439C16.7742 59.7562 16.9051 59.577 16.998 59.4064C17.0993 59.2272 17.15 59.0609 17.15 58.9073C17.15 58.7537 17.074 58.6258 16.922 58.5234C16.6517 58.5234 16.3561 58.5362 16.0352 58.5618C15.7143 58.5788 15.3934 58.5874 15.0725 58.5874C14.7516 58.5788 14.4391 58.549 14.1351 58.4978C13.8395 58.4466 13.5734 58.3528 13.337 58.2163C13.1005 58.0798 12.9105 57.8878 12.7669 57.6404C12.6318 57.3844 12.5643 57.0603 12.5643 56.6678C12.5643 56.2071 12.6487 55.7933 12.8176 55.4265C12.995 55.0511 13.2272 54.7226 13.5143 54.4411C13.8015 54.151 14.1224 53.8994 14.4771 53.6861C14.8402 53.4643 15.2034 53.2766 15.5665 53.123C15.7861 53.1827 15.9888 53.2894 16.1746 53.4429C16.3604 53.5965 16.5208 53.7671 16.6559 53.9548C16.5968 54.1425 16.4786 54.2875 16.3012 54.3899C16.1323 54.4923 15.9339 54.5819 15.7059 54.6587C15.4863 54.7354 15.254 54.8165 15.0091 54.9018C14.7642 54.9871 14.5404 55.1023 14.3377 55.2473C14.1435 55.3838 13.9788 55.5673 13.8437 55.7976C13.7086 56.0194 13.641 56.3138 13.641 56.6806C13.641 56.9536 13.7086 57.1541 13.8437 57.2821C13.9788 57.41 14.1562 57.4996 14.3757 57.5508C14.5953 57.5935 14.8444 57.6105 15.1231 57.602C15.4018 57.5849 15.6847 57.5636 15.9719 57.538C16.2675 57.5124 16.5546 57.4996 16.8333 57.4996C17.112 57.4911 17.3611 57.5252 17.5807 57.602C17.8003 57.6702 17.9734 57.7854 18.1001 57.9475C18.2352 58.1096 18.3027 58.3485 18.3027 58.6642C18.3027 58.8007 18.2563 58.9756 18.1634 59.1888C18.0789 59.4021 17.9607 59.6325 17.8087 59.8799C17.6651 60.1188 17.492 60.3576 17.2893 60.5965C17.0951 60.8354 16.8882 61.053 16.6686 61.2492C16.4575 61.4369 16.2421 61.5947 16.0225 61.7227C15.8114 61.8421 15.613 61.9018 15.4272 61.9018C15.2498 61.9018 15.1316 61.8378 15.0725 61.7099C15.0218 61.5819 14.9965 61.4539 14.9965 61.326Z" stroke="#A4946F" stroke-width="0.4" mask="url(#path-2-outside-1_47_5307)"/>
<path d="M18.9174 53.5837C18.9174 53.4899 18.9258 53.3747 18.9427 53.2382C18.9681 53.0932 19.0061 52.9566 19.0567 52.8287C19.1158 52.7007 19.1876 52.5941 19.2721 52.5087C19.3565 52.4149 19.4663 52.368 19.6014 52.368C19.6099 52.368 19.631 52.3722 19.6648 52.3808C19.6986 52.3893 19.7197 52.3936 19.7281 52.3936C19.8717 52.9225 19.9561 53.4472 19.9815 53.9676C20.0068 54.488 19.9984 54.9957 19.9561 55.4905C19.9139 55.9768 19.8506 56.4503 19.7661 56.911C19.6817 57.3631 19.6099 57.7812 19.5508 58.1651C19.5001 58.549 19.4663 58.8945 19.4494 59.2016C19.441 59.5088 19.4874 59.769 19.5888 59.9823C19.5719 59.8458 19.5592 59.6837 19.5508 59.496C19.5508 59.2997 19.5677 59.0993 19.6014 58.8945C19.6437 58.6898 19.707 58.485 19.7915 58.2802C19.8844 58.0755 20.0153 57.8921 20.1842 57.73C20.3531 57.5679 20.5684 57.4399 20.8302 57.3461C21.1005 57.2522 21.434 57.2053 21.831 57.2053C22.2448 57.2053 22.5995 57.2778 22.8951 57.4228C23.1991 57.5679 23.4482 57.7684 23.6425 58.0243C23.8367 58.2717 23.9803 58.566 24.0732 58.9073C24.1745 59.24 24.2252 59.5983 24.2252 59.9823C24.2252 60.1614 24.221 60.3662 24.2125 60.5965C24.2125 60.8183 24.183 61.0274 24.1238 61.2236C24.0732 61.4113 23.976 61.5734 23.8325 61.7099C23.6974 61.8378 23.4947 61.9018 23.2244 61.9018C23.2244 61.7653 23.2329 61.5819 23.2498 61.3516C23.2667 61.1127 23.2751 60.861 23.2751 60.5965C23.2835 60.332 23.2751 60.0633 23.2498 59.7903C23.2329 59.5173 23.178 59.2742 23.0851 59.0609C22.9922 58.8391 22.8613 58.6599 22.6924 58.5234C22.5319 58.3784 22.3081 58.3058 22.021 58.3058C21.9196 58.3058 21.793 58.3144 21.641 58.3314C21.4974 58.34 21.3496 58.3784 21.1976 58.4466C21.0456 58.5149 20.8978 58.6215 20.7542 58.7665C20.6106 58.903 20.4966 59.095 20.4122 59.3424C20.3277 59.5813 20.2771 59.8884 20.2602 60.2638C20.2517 60.6306 20.2982 61.0828 20.3995 61.6203C20.3404 61.7739 20.2644 61.8634 20.1715 61.889C20.087 61.9146 19.9773 61.9274 19.8421 61.9274C19.5719 61.9274 19.3481 61.8336 19.1707 61.6459C19.0018 61.4497 18.8709 61.1895 18.778 60.8653C18.6851 60.5411 18.6218 60.1657 18.588 59.7391C18.5627 59.3125 18.5542 58.8689 18.5627 58.4082C18.5711 57.939 18.5922 57.4655 18.626 56.9877C18.6683 56.5014 18.7063 56.045 18.74 55.6184C18.7823 55.1833 18.8203 54.7909 18.854 54.4411C18.8963 54.0828 18.9174 53.797 18.9174 53.5837Z" stroke="#A4946F" stroke-width="0.4" mask="url(#path-2-outside-1_47_5307)"/>
<path d="M24.4725 58.3442C24.4725 57.8835 24.5273 57.4228 24.6371 56.9621C24.7469 56.5014 24.92 56.0877 25.1565 55.7208C25.4014 55.354 25.7139 55.0554 26.0939 54.825C26.4824 54.5947 26.9511 54.4795 27.5 54.4795C27.8125 54.4795 28.087 54.5392 28.3235 54.6587C28.5599 54.7696 28.7584 54.9189 28.9188 55.1066C29.0793 55.2943 29.1975 55.5161 29.2735 55.772C29.358 56.0194 29.4002 56.2796 29.4002 56.5526C29.4002 56.9877 29.2989 57.41 29.0962 57.8195C28.9019 58.2291 28.6359 58.5916 28.2981 58.9073C27.9688 59.2144 27.5887 59.449 27.158 59.6111C26.7273 59.7647 26.2882 59.7988 25.8406 59.7135C25.849 59.9609 25.9292 60.1614 26.0813 60.315C26.2417 60.46 26.4317 60.5709 26.6513 60.6477C26.8709 60.7245 27.0989 60.7757 27.3354 60.8013C27.5718 60.8183 27.783 60.8269 27.9688 60.8269C28.163 60.8269 28.3446 60.8098 28.5135 60.7757C28.6824 60.7416 28.8513 60.7032 29.0202 60.6605C29.1891 60.6178 29.358 60.5795 29.5269 60.5453C29.7042 60.5112 29.89 60.4941 30.0843 60.4941C30.1603 60.4941 30.2363 60.4984 30.3123 60.5069C30.3883 60.5155 30.4601 60.5368 30.5276 60.5709C30.5952 60.5965 30.6501 60.6434 30.6923 60.7117C30.7345 60.7714 30.7557 60.8482 30.7557 60.942C30.7557 61.1041 30.6965 61.2406 30.5783 61.3516C30.4601 61.4539 30.3081 61.5435 30.1223 61.6203C29.9449 61.6971 29.7465 61.7568 29.5269 61.7994C29.3073 61.8336 29.092 61.8634 28.8808 61.889C28.6781 61.9061 28.4881 61.9146 28.3108 61.9146C28.1419 61.9232 28.0152 61.9274 27.9307 61.9274C27.3903 61.9274 26.9047 61.8421 26.474 61.6715C26.0433 61.4923 25.6801 61.2492 25.3845 60.942C25.089 60.6264 24.8609 60.251 24.7005 59.8159C24.5485 59.3723 24.4725 58.8817 24.4725 58.3442ZM25.8152 57.5124C25.8152 57.811 25.8532 58.0286 25.9292 58.1651C26.0137 58.3016 26.2122 58.3698 26.5246 58.3698C26.7442 58.3698 26.9596 58.3314 27.1707 58.2547C27.3818 58.1693 27.5718 58.0542 27.7407 57.9091C27.9181 57.7641 28.0574 57.5935 28.1588 57.3972C28.2601 57.201 28.3108 56.9877 28.3108 56.7574C28.3108 56.6294 28.2981 56.4972 28.2728 56.3607C28.2559 56.2242 28.2137 56.1005 28.1461 55.9896C28.0785 55.8701 27.9899 55.7763 27.8801 55.708C27.7787 55.6312 27.6436 55.5929 27.4747 55.5929C27.2214 55.5929 26.9891 55.6526 26.778 55.772C26.5753 55.8829 26.4022 56.0322 26.2586 56.2199C26.115 56.3991 26.0053 56.6038 25.9292 56.8342C25.8532 57.056 25.8152 57.2821 25.8152 57.5124Z" stroke="#A4946F" stroke-width="0.4" mask="url(#path-2-outside-1_47_5307)"/>
<path d="M31.2816 58.3442C31.2816 57.8835 31.3365 57.4228 31.4463 56.9621C31.5561 56.5014 31.7292 56.0877 31.9657 55.7208C32.2106 55.354 32.5231 55.0554 32.9031 54.825C33.2916 54.5947 33.7603 54.4795 34.3092 54.4795C34.6217 54.4795 34.8962 54.5392 35.1326 54.6587C35.3691 54.7696 35.5676 54.9189 35.728 55.1066C35.8885 55.2943 36.0067 55.5161 36.0827 55.772C36.1672 56.0194 36.2094 56.2796 36.2094 56.5526C36.2094 56.9877 36.108 57.41 35.9054 57.8195C35.7111 58.2291 35.4451 58.5916 35.1073 58.9073C34.7779 59.2144 34.3979 59.449 33.9672 59.6111C33.5365 59.7647 33.0973 59.7988 32.6497 59.7135C32.6582 59.9609 32.7384 60.1614 32.8904 60.315C33.0509 60.46 33.2409 60.5709 33.4605 60.6477C33.6801 60.7245 33.9081 60.7757 34.1445 60.8013C34.381 60.8183 34.5921 60.8269 34.7779 60.8269C34.9722 60.8269 35.1537 60.8098 35.3226 60.7757C35.4915 60.7416 35.6604 60.7032 35.8294 60.6605C35.9983 60.6178 36.1672 60.5795 36.3361 60.5453C36.5134 60.5112 36.6992 60.4941 36.8934 60.4941C36.9695 60.4941 37.0455 60.4984 37.1215 60.5069C37.1975 60.5155 37.2693 60.5368 37.3368 60.5709C37.4044 60.5965 37.4593 60.6434 37.5015 60.7117C37.5437 60.7714 37.5648 60.8482 37.5648 60.942C37.5648 61.1041 37.5057 61.2406 37.3875 61.3516C37.2693 61.4539 37.1172 61.5435 36.9314 61.6203C36.7541 61.6971 36.5556 61.7568 36.3361 61.7994C36.1165 61.8336 35.9011 61.8634 35.69 61.889C35.4873 61.9061 35.2973 61.9146 35.12 61.9146C34.9511 61.9232 34.8244 61.9274 34.7399 61.9274C34.1994 61.9274 33.7138 61.8421 33.2831 61.6715C32.8524 61.4923 32.4893 61.2492 32.1937 60.942C31.8981 60.6264 31.6701 60.251 31.5096 59.8159C31.3576 59.3723 31.2816 58.8817 31.2816 58.3442ZM32.6244 57.5124C32.6244 57.811 32.6624 58.0286 32.7384 58.1651C32.8229 58.3016 33.0213 58.3698 33.3338 58.3698C33.5534 58.3698 33.7687 58.3314 33.9799 58.2547C34.191 58.1693 34.381 58.0542 34.5499 57.9091C34.7273 57.7641 34.8666 57.5935 34.9679 57.3972C35.0693 57.201 35.12 56.9877 35.12 56.7574C35.12 56.6294 35.1073 56.4972 35.082 56.3607C35.0651 56.2242 35.0228 56.1005 34.9553 55.9896C34.8877 55.8701 34.799 55.7763 34.6893 55.708C34.5879 55.6312 34.4528 55.5929 34.2839 55.5929C34.0305 55.5929 33.7983 55.6526 33.5872 55.772C33.3845 55.8829 33.2113 56.0322 33.0678 56.2199C32.9242 56.3991 32.8144 56.6038 32.7384 56.8342C32.6624 57.056 32.6244 57.2821 32.6244 57.5124Z" stroke="#A4946F" stroke-width="0.4" mask="url(#path-2-outside-1_47_5307)"/>
<path d="M38.0908 58.3442C38.0908 57.8835 38.1457 57.4228 38.2555 56.9621C38.3653 56.5014 38.5384 56.0877 38.7749 55.7208C39.0198 55.354 39.3322 55.0554 39.7123 54.825C40.1007 54.5947 40.5695 54.4795 41.1184 54.4795C41.4309 54.4795 41.7053 54.5392 41.9418 54.6587C42.1783 54.7696 42.3767 54.9189 42.5372 55.1066C42.6976 55.2943 42.8159 55.5161 42.8919 55.772C42.9763 56.0194 43.0186 56.2796 43.0186 56.5526C43.0186 56.9877 42.9172 57.41 42.7145 57.8195C42.5203 58.2291 42.2543 58.5916 41.9165 58.9073C41.5871 59.2144 41.2071 59.449 40.7764 59.6111C40.3457 59.7647 39.9065 59.7988 39.4589 59.7135C39.4674 59.9609 39.5476 60.1614 39.6996 60.315C39.8601 60.46 40.0501 60.5709 40.2697 60.6477C40.4892 60.7245 40.7172 60.7757 40.9537 60.8013C41.1902 60.8183 41.4013 60.8269 41.5871 60.8269C41.7813 60.8269 41.9629 60.8098 42.1318 60.7757C42.3007 60.7416 42.4696 60.7032 42.6385 60.6605C42.8074 60.6178 42.9763 60.5795 43.1452 60.5453C43.3226 60.5112 43.5084 60.4941 43.7026 60.4941C43.7786 60.4941 43.8546 60.4984 43.9306 60.5069C44.0066 60.5155 44.0784 60.5368 44.146 60.5709C44.2136 60.5965 44.2684 60.6434 44.3107 60.7117C44.3529 60.7714 44.374 60.8482 44.374 60.942C44.374 61.1041 44.3149 61.2406 44.1967 61.3515C44.0784 61.4539 43.9264 61.5435 43.7406 61.6203C43.5633 61.6971 43.3648 61.7568 43.1452 61.7994C42.9257 61.8336 42.7103 61.8634 42.4992 61.889C42.2965 61.9061 42.1065 61.9146 41.9291 61.9146C41.7602 61.9232 41.6335 61.9274 41.5491 61.9274C41.0086 61.9274 40.523 61.8421 40.0923 61.6715C39.6616 61.4923 39.2985 61.2492 39.0029 60.942C38.7073 60.6264 38.4793 60.251 38.3188 59.8159C38.1668 59.3723 38.0908 58.8817 38.0908 58.3442ZM39.4336 57.5124C39.4336 57.811 39.4716 58.0286 39.5476 58.1651C39.632 58.3016 39.8305 58.3698 40.143 58.3698C40.3626 58.3698 40.5779 58.3314 40.789 58.2547C41.0002 58.1693 41.1902 58.0542 41.3591 57.9091C41.5364 57.7641 41.6758 57.5935 41.7771 57.3972C41.8785 57.201 41.9291 56.9877 41.9291 56.7574C41.9291 56.6294 41.9165 56.4972 41.8911 56.3607C41.8742 56.2242 41.832 56.1005 41.7645 55.9896C41.6969 55.8701 41.6082 55.7763 41.4984 55.708C41.3971 55.6312 41.262 55.5929 41.0931 55.5929C40.8397 55.5929 40.6075 55.6526 40.3963 55.772C40.1936 55.8829 40.0205 56.0322 39.877 56.2199C39.7334 56.3991 39.6236 56.6038 39.5476 56.8342C39.4716 57.056 39.4336 57.2821 39.4336 57.5124Z" stroke="#A4946F" stroke-width="0.4" mask="url(#path-2-outside-1_47_5307)"/>
<path d="M44.9 57.1797C44.9 56.3521 45.09 55.7379 45.47 55.3369C45.8501 54.9359 46.4328 54.7354 47.2182 54.7354C47.5391 54.7354 47.8685 54.7653 48.2063 54.825C48.5525 54.8847 48.8692 54.9914 49.1563 55.145C49.4435 55.29 49.6757 55.4947 49.8531 55.7592C50.0389 56.0237 50.1318 56.3649 50.1318 56.783C50.1318 57.2437 50.0304 57.6788 49.8277 58.0883C49.6335 58.4893 49.3844 58.8689 49.0803 59.2272C48.7848 59.577 48.4554 59.9055 48.0922 60.2126C47.7376 60.5112 47.404 60.797 47.0915 61.07C47.0746 61.1041 47.0577 61.1767 47.0408 61.2876C47.0324 61.3899 47.0282 61.4582 47.0282 61.4923C47.0282 61.7739 47.1084 62.0554 47.2688 62.3369C47.4377 62.627 47.6193 62.9171 47.8136 63.2071C48.0078 63.5057 48.1851 63.8129 48.3456 64.1285C48.5061 64.4442 48.5863 64.7726 48.5863 65.1139C48.5863 65.3187 48.5441 65.4381 48.4596 65.4722C48.3752 65.5149 48.1978 65.5362 47.9276 65.5362C47.7587 65.468 47.5898 65.3059 47.4209 65.0499C47.2604 64.8025 47.0957 64.4954 46.9268 64.1285C46.7664 63.7617 46.6059 63.3479 46.4454 62.8872C46.2934 62.435 46.1456 61.9743 46.0021 61.5051C45.8669 61.0274 45.736 60.5581 45.6094 60.0974C45.4911 59.6282 45.3856 59.1974 45.2927 58.8049C45.1998 58.4125 45.1153 58.0755 45.0393 57.794C44.9718 57.5039 44.9253 57.2991 44.9 57.1797ZM45.9767 57.2949C45.9767 57.4228 45.9852 57.6105 46.0021 57.8579C46.019 58.0968 46.0527 58.3357 46.1034 58.5746C46.1625 58.8135 46.247 59.0225 46.3568 59.2016C46.4666 59.3723 46.6186 59.4576 46.8128 59.4576C47.0746 59.4576 47.3364 59.368 47.5982 59.1888C47.8685 59.0097 48.1049 58.7836 48.3076 58.5106C48.5187 58.2376 48.6876 57.9475 48.8143 57.6404C48.9494 57.3247 49.017 57.0389 49.017 56.783C49.017 56.5697 48.9663 56.4033 48.865 56.2839C48.7636 56.1559 48.6327 56.0578 48.4723 55.9896C48.3203 55.9128 48.1556 55.8659 47.9782 55.8488C47.8009 55.8232 47.632 55.8104 47.4715 55.8104C46.9902 55.8104 46.6186 55.9426 46.3568 56.2071C46.1034 56.4631 45.9767 56.8256 45.9767 57.2949Z" stroke="#A4946F" stroke-width="0.4" mask="url(#path-2-outside-1_47_5307)"/>
<defs>
<filter id="filter0_d_47_5307" x="0" y="0" width="61" height="74.1413" filterUnits="userSpaceOnUse" color-interpolation-filters="sRGB">
<feFlood flood-opacity="0" result="BackgroundImageFix"/>
<feColorMatrix in="SourceAlpha" type="matrix" values="0 0 0 0 0 0 0 0 0 0 0 0 0 0 0 0 0 0 127 0" result="hardAlpha"/>
<feOffset/>
<feGaussianBlur stdDeviation="1.5"/>
<feComposite in2="hardAlpha" operator="out"/>
<feColorMatrix type="matrix" values="0 0 0 0 0 0 0 0 0 0 0 0 0 0 0 0 0 0 0.15 0"/>
<feBlend mode="normal" in2="BackgroundImageFix" result="effect1_dropShadow_47_5307"/>
<feBlend mode="normal" in="SourceGraphic" in2="effect1_dropShadow_47_5307" result="shape"/>
</filter>
</defs>
</svg>
