<svg width="194" height="29" viewBox="0 0 194 29" fill="none" xmlns="http://www.w3.org/2000/svg">
<path d="M47.0715 16.3016C42.8434 16.1438 38.579 15.7868 34.3028 15.2456C30.0256 14.6728 25.735 13.9042 21.4767 12.8345C17.2249 11.7752 12.9937 10.3444 9.0244 8.404C7.05043 7.42816 5.13999 6.2906 3.51877 4.91833C2.71618 4.23324 1.98007 3.48585 1.45689 2.68192C0.932339 1.88521 0.662247 1.0012 0.915683 0.310322L0.092672 0C-0.198005 0.958788 0.235676 2.01946 0.83013 2.89402C1.43734 3.78643 2.24263 4.56773 3.10082 5.27475C4.83513 6.68233 6.8064 7.80976 8.81279 8.81176C12.8554 10.7988 17.1373 12.1606 21.4102 13.3238C25.6972 14.4633 30.0188 15.2996 34.3303 15.9399C38.6439 16.6091 42.9494 17.0583 47.2435 17.4216C55.8273 18.1058 64.3712 18.3555 72.7844 18.1292C81.2118 17.9478 89.5108 17.293 97.6482 16.2847C113.764 14.3007 130.019 12.4906 146.936 12.9897C151.159 13.1155 155.421 13.4481 159.694 13.952C163.969 14.4927 168.26 15.2288 172.522 16.2673C176.778 17.2971 181.018 18.6929 184.995 20.6147C186.975 21.5791 188.891 22.7112 190.509 24.0837C191.313 24.768 192.042 25.5185 192.56 26.3234C193.076 27.1259 193.338 27.9937 193.078 28.707L193.908 29C194.192 28.0663 193.781 26.9917 193.19 26.1156C192.587 25.2203 191.788 24.4354 190.928 23.7291C189.193 22.3196 187.217 21.1983 185.205 20.2078C181.151 18.2396 176.862 16.9088 172.583 15.7744C168.292 14.6675 163.969 13.8618 159.659 13.2531C155.346 12.6123 151.043 12.1908 146.752 11.8519C138.175 11.2157 129.639 11.0036 121.236 11.2686C112.816 11.4721 104.532 12.1796 96.4062 13.1962C80.2968 15.1674 64.0097 16.917 47.0715 16.3016Z" fill="#8E7564"/>
</svg>
