<svg width="30" height="25" viewBox="0 0 30 25" fill="none" xmlns="http://www.w3.org/2000/svg">
<path opacity="0.7" d="M28.2334 4.2813C27.7786 4.39652 27.3207 4.48688 26.9167 4.56667C26.7875 4.59224 26.6644 4.6164 26.5508 4.63967C26.2642 4.30721 25.9909 3.98507 25.7255 3.67221C25.1133 2.95145 24.535 2.27085 23.9315 1.619C23.177 0.804008 22.1456 0.289133 20.8665 0.0887378C17.041 -0.509466 12.9406 1.98036 11.7249 5.64066C11.6676 5.81423 11.6061 5.98642 11.5473 6.15162C11.5285 6.2039 11.5102 6.25538 11.4923 6.30613L11.4781 6.30764C11.4605 6.30947 11.4477 6.31165 11.4437 6.31234C11.336 6.28107 11.2302 6.24321 11.1271 6.19904C8.99622 5.22951 7.30033 3.69032 5.94285 1.494C5.87957 1.39151 5.8196 1.28676 5.75941 1.18198C5.64641 0.975094 5.52092 0.775257 5.38361 0.583636C5.12601 0.239709 4.83 0.0662908 4.5332 0.0806211C4.33429 0.090595 4.04288 0.192019 3.78494 0.619406C3.50761 1.10056 3.27093 1.60401 3.07736 2.12454C2.15862 4.45934 2.67484 6.77733 3.22708 8.53594C3.29128 8.74012 3.35169 8.94935 3.42816 9.2144C3.45109 9.29614 3.47688 9.38336 3.5044 9.47805L1.49529 8.60872C1.48046 8.6023 1.46448 8.59901 1.44832 8.59903C1.43217 8.59906 1.41618 8.60238 1.40137 8.60882C1.38656 8.61528 1.37324 8.62472 1.36222 8.63653C1.3512 8.64835 1.34271 8.66229 1.33731 8.67752C0.961853 9.74426 0.978252 10.6003 1.4022 12.0703C2.00682 14.1654 3.26905 15.8265 5.25855 17.1433C5.06366 17.2768 4.87242 17.4103 4.68429 17.5418C3.59233 18.3057 2.5609 19.0272 1.28137 19.2578C0.914515 19.3238 0.647169 19.4915 0.506961 19.7426C0.357009 20.0115 0.359073 20.3605 0.512923 20.7524C0.714579 21.2656 0.942488 21.6371 1.20972 21.8881C1.83212 22.4728 2.40201 22.9861 3.07438 23.3411C5.16225 24.4436 7.56617 25 10.2333 25C10.5602 25 10.8911 24.9917 11.226 24.9751C14.7023 24.8011 17.8682 23.3663 20.6359 20.7109C23.4825 17.9798 25.4025 14.4269 26.3428 10.1503C26.5178 9.35449 26.7141 8.70781 27.5007 8.22975C28.399 7.68348 29.0843 6.81391 29.4822 5.71484C29.6059 5.37286 29.7754 4.90473 29.434 4.48663C29.0893 4.06451 28.6393 4.17835 28.2334 4.2813ZM2.85702 20.6692C3.11623 20.567 3.36144 20.4704 3.59898 20.3704C4.8947 19.8421 6.04075 19.0035 6.93633 17.9284C7.2344 17.5654 7.34641 17.3088 7.30938 17.0697C7.27177 16.8267 7.08078 16.6097 6.67059 16.3439C5.18138 15.3785 4.18594 14.3606 3.53799 13.1415C3.17251 12.4537 2.8256 11.695 2.74764 10.804C3.05962 10.7764 3.37402 10.8021 3.67739 10.88C4.17414 10.9755 4.68785 11.0749 5.20764 10.7782C5.2263 10.7676 5.24172 10.7521 5.25223 10.7334C5.51591 10.2612 5.32103 9.84173 5.14758 9.47178C5.10837 9.38775 5.06892 9.30344 5.03441 9.21815C4.20371 7.16719 3.94005 5.43726 4.20464 3.7738C4.2562 3.49001 4.32467 3.20953 4.40973 2.93392C4.43885 2.83166 4.46888 2.72619 4.49892 2.61613C4.72257 2.79046 4.90884 3.00807 5.04658 3.25595C5.09931 3.33861 5.15398 3.42402 5.21222 3.5045C6.57039 5.37661 8.07966 6.68856 9.82612 7.51525C10.2183 7.70689 10.6232 7.87123 11.038 8.00707C11.5388 8.16539 11.835 8.17788 12.0604 8.05017C12.282 7.92406 12.426 7.6627 12.5419 7.17478C12.8263 5.97906 13.3134 5.01002 14.0314 4.21256C15.7094 2.34894 17.748 1.47567 20.0878 1.6176C21.1494 1.68191 22.0073 2.05932 22.6425 2.74488C23.2977 3.45199 23.9751 4.1832 24.4597 5.00335C25.0851 6.06242 25.8338 6.44121 26.8887 6.23313C26.9852 6.2198 27.0828 6.21721 27.1798 6.22552L27.2347 6.22748C26.9137 6.69282 26.5497 6.98173 26.1267 7.10806C25.2163 7.37954 24.9344 8.07176 24.7043 8.81785C24.5755 9.23595 24.4496 9.663 24.3277 10.0758C23.9805 11.2521 23.6216 12.4684 23.1556 13.6154C21.5584 17.5477 18.9893 20.403 15.5194 22.1013C12.8483 23.4082 10.1439 23.7299 7.48065 23.0564C6.30614 22.7594 5.17462 22.4208 4.11727 22.0498C3.38115 21.7914 2.89738 21.3985 2.56514 20.7845C2.66637 20.7445 2.76324 20.7063 2.85702 20.6692Z" fill="#5B4717"/>
</svg>
