<svg width="74" height="39" viewBox="0 0 74 39" fill="none" xmlns="http://www.w3.org/2000/svg">
<path d="M5.75894 39C2.58347 39 0 36.2545 0 32.8872C0 29.5198 2.58347 26.7786 5.75894 26.7786C6.83412 26.7786 7.89406 27.1123 8.82776 27.7386L8.95182 27.8209L23.3992 15.8033L23.384 15.6754C23.3231 15.2659 23.2882 15.0188 23.2882 14.7718C23.2882 11.4001 25.8695 8.66113 29.045 8.66113C32.2183 8.66113 34.8039 11.4023 34.8039 14.7718C34.8039 15.7036 34.5863 16.6332 34.1597 17.5238L34.0988 17.656L39.9121 25.4287L40.0492 25.3788C40.6238 25.1903 41.2028 25.0928 41.7795 25.0928C42.9135 25.0928 44.0148 25.446 44.9637 26.1221L45.1008 26.2131L62.9827 8.56362L62.9283 8.4206C62.6388 7.67302 62.493 6.89727 62.493 6.10634C62.493 2.73897 65.0765 0 68.2519 0C71.4274 0 74 2.7368 74 6.10201C74 9.47155 71.4165 12.2127 68.2411 12.2127C67.3552 12.2127 66.4759 11.9787 65.6336 11.5149L65.5052 11.4478L47.2642 29.4569L47.2991 29.587C47.4558 30.1915 47.5298 30.7029 47.5298 31.1991C47.5298 34.5643 44.9463 37.312 41.7708 37.312C38.5953 37.312 36.0119 34.5622 36.0119 31.1991C36.0119 30.0853 36.3122 29.0084 36.9064 27.9964L36.9826 27.8643L31.3738 20.3646L31.2302 20.4209C30.5381 20.7265 29.8024 20.8781 29.045 20.8781C27.7326 20.8781 26.4528 20.3993 25.4342 19.5282L25.3058 19.4155L25.0773 19.4198L11.1958 30.9629L11.2371 31.1103C11.4265 31.7647 11.5157 32.3303 11.5157 32.8828C11.5157 36.2545 8.93223 39 5.75894 39ZM5.75894 30.7246C4.63371 30.7246 3.71741 31.6954 3.71741 32.8872C3.71741 34.0855 4.63371 35.0541 5.75894 35.0541C6.88418 35.0541 7.80047 34.0855 7.80047 32.8872C7.79829 31.6954 6.88418 30.7246 5.75894 30.7246ZM41.773 29.0344C41.3116 29.0344 40.885 29.1861 40.5324 29.4786C40.0231 29.8903 39.7315 30.5166 39.7315 31.197C39.7315 32.3909 40.6478 33.3617 41.773 33.3617C42.8982 33.3617 43.8145 32.3909 43.8145 31.197C43.8145 30.003 42.8982 29.0344 41.773 29.0344ZM29.0428 12.6071C27.9176 12.6071 27.0013 13.5778 27.0013 14.7718C27.0013 15.4262 27.2799 16.0416 27.7652 16.4577C28.0569 16.7047 28.5705 16.865 29.0776 16.865C29.4781 16.865 30.0462 16.7675 30.4836 16.3016C30.8689 15.8943 31.0822 15.3504 31.0822 14.7718C31.0822 13.58 30.1659 12.6071 29.0428 12.6071ZM68.2411 3.94161C67.1158 3.94161 66.1995 4.90588 66.1995 6.10201C66.1995 7.29598 67.1158 8.26675 68.2411 8.26675C69.3663 8.26675 70.2826 7.29598 70.2826 6.10201C70.2848 4.90804 69.3663 3.94161 68.2411 3.94161Z" fill="#C9B97E"/>
</svg>
