<svg width="26" height="25" viewBox="0 0 26 25" fill="none" xmlns="http://www.w3.org/2000/svg">
<g opacity="0.7">
<path d="M17.9498 8.40904C16.7289 7.2197 15.1587 7.09135 13.8521 8.07423C13.3385 8.46053 12.8446 9.00283 12.3421 9.7317C11.7024 10.6607 11.5372 11.7932 11.3917 12.7921C11.1339 14.5594 11.3314 16.3142 11.5222 18.0107C11.5505 18.2614 11.6154 18.838 12.1787 18.8379C12.1967 18.8379 12.2153 18.8373 12.2345 18.8361C12.7939 18.8003 12.796 18.3218 12.7973 18.005C12.7973 17.9745 12.7973 17.9448 12.7982 17.9159C12.8052 17.536 12.796 17.1502 12.787 16.7773C12.7742 16.2444 12.7609 15.6934 12.7959 15.1568C12.8608 14.0312 12.9929 12.9104 13.1914 11.8004C13.364 10.872 13.8812 10.0431 14.6394 9.48001C15.4452 8.86705 16.1646 8.93945 16.8394 9.70075C17.3502 10.2723 17.6908 10.9755 17.8227 11.7307C17.9723 12.6082 18.0753 13.5101 18.1749 14.3826C18.2137 14.7226 18.2526 15.0628 18.2941 15.4022L18.2763 15.4046C18.252 15.4079 18.2295 15.4194 18.2127 15.4373C18.1959 15.4553 18.1858 15.4784 18.1841 15.5028C18.1736 15.6567 18.1627 15.8107 18.1515 15.9646C18.1249 16.3352 18.0973 16.7185 18.0779 17.0963L18.0756 17.1421C18.0529 17.4158 18.0557 17.6911 18.0836 17.9644C18.1488 18.4478 18.489 18.7954 18.9302 18.8292C19.3549 18.8616 19.7497 18.5739 19.9122 18.1135C19.9491 18.0045 19.972 17.8911 19.9805 17.7762C20.1424 15.9351 20.2347 13.512 19.505 11.0964C19.1675 9.97901 18.6587 9.09969 17.9498 8.40904Z" fill="#5B4717"/>
<path d="M7.8332 17.7806C7.83993 18.1109 7.92222 18.4354 8.07374 18.7292C8.16884 18.9128 8.4849 19.0082 8.68017 19.0082C8.68649 19.0082 8.6926 19.0082 8.69871 19.0082C8.88207 19.0023 9.10865 18.7817 9.15858 18.6119C9.23531 18.3305 9.26642 18.0388 9.25076 17.7476C9.18861 16.0435 9.11702 14.3113 9.04802 12.6361L8.91057 9.2857C8.90021 9.03055 8.88064 8.55545 8.30291 8.5078C8.28392 8.50646 8.26488 8.51003 8.24767 8.51817C7.80388 8.73333 7.81789 9.13806 7.82918 9.46334C7.83115 9.51897 7.8331 9.57427 7.83289 9.62824C7.82481 11.8617 7.81714 14.8069 7.8332 17.7806Z" fill="#5B4717"/>
<path d="M8.33435 5.20678C8.26422 5.15281 8.19171 5.09707 8.128 5.03906C8.11322 5.02548 8.09487 5.01639 8.07512 5.01286C8.05536 5.00931 8.035 5.01148 8.01642 5.01907C7.31469 5.30302 7.26994 5.79163 7.35592 6.15151C7.39821 6.29542 7.4706 6.42872 7.56828 6.54256C7.66597 6.65639 7.78673 6.74816 7.92256 6.81181C7.96297 6.82651 8.00576 6.83355 8.04874 6.83255C8.27157 6.83255 8.57221 6.67777 8.66979 6.51979C8.74409 6.39025 8.79009 6.24644 8.80481 6.09784C8.81954 5.94924 8.80267 5.79923 8.75524 5.65763C8.67889 5.47209 8.50372 5.33741 8.33435 5.20678Z" fill="#5B4717"/>
<path d="M25.0668 4.11155C24.6984 1.08562 22.152 -0.128993 19.7929 0.0107525C18.3928 0.0929015 17.0062 0.136716 15.3551 0.177117C13.8591 0.213788 12.325 0.245308 10.9716 0.273071C9.02944 0.313058 7.02109 0.354481 5.02705 0.409592C2.73766 0.47299 0.891657 1.94774 0.536647 3.99606C0.394104 4.81807 0.389955 5.64763 0.39876 6.56888C0.424555 9.25927 0.46392 11.9776 0.502353 14.6065L0.506601 14.8912C0.521863 15.9487 0.536769 17.0064 0.551342 18.0641C0.553828 18.2423 0.560042 18.4209 0.566465 18.5995L0.566996 18.6138C0.593045 19.0563 0.588653 19.5001 0.553845 19.942C0.430674 21.1222 0.882439 22.3806 1.76246 23.3079C2.74068 24.3388 4.12703 24.8628 5.66724 24.7843C7.34792 24.6973 9.06227 24.714 10.7202 24.7299L10.8402 24.7311C12.8076 24.7499 14.8084 24.8 16.7459 24.8487L17.7228 24.873C17.8873 24.8828 18.0505 24.9075 18.2105 24.947C18.2943 24.9648 18.3783 24.9825 18.4619 24.9969C18.4739 24.999 18.486 25 18.4983 25H19.5583C19.5687 25 19.5791 24.9992 19.5894 24.9977C19.8012 24.9666 20.0141 24.9386 20.2263 24.9108L20.2422 24.9087C20.7178 24.8466 21.2098 24.7825 21.6892 24.6783C23.7573 24.2291 25.5095 22.0842 25.5153 19.9947C25.5167 19.5023 25.5185 19.0098 25.5205 18.5173L25.5214 18.2701C25.5318 15.5709 25.5431 12.7798 25.4851 10.0314C25.4427 8.03241 25.302 6.04064 25.0668 4.11155ZM23.917 19.849C23.9234 21.4628 22.5157 22.9738 20.7122 23.2889C19.3304 23.5302 17.9179 23.4482 16.5518 23.3692C16.0447 23.3397 15.5203 23.3093 14.9992 23.2955C14.4076 23.28 13.8052 23.2494 13.2193 23.2197L13.1675 23.2171C12.9154 23.2043 12.663 23.1916 12.4127 23.1802H12.4011C11.7636 23.1802 11.126 23.1794 10.4884 23.1778C9.74857 23.1766 8.99721 23.1753 8.24192 23.1753C7.24899 23.1753 6.43268 23.1774 5.67283 23.182H5.63937C4.5241 23.182 3.60411 22.8511 2.97883 22.225C2.32868 21.574 1.98942 20.6017 1.99802 19.4129C2.01811 16.6176 2.00598 13.7878 1.99417 11.051C1.98754 9.48831 1.9807 7.87256 1.97988 6.27611C1.96432 5.35666 2.17229 4.44721 2.5859 3.62591C3.05497 2.72383 3.89281 2.24513 5.22252 2.11947C7.08842 1.94336 8.59404 1.84743 9.96073 1.8177C13.9063 1.7313 16.9428 1.70074 19.806 1.71846C21.8945 1.7314 23.1002 2.71388 23.4939 4.72212C23.929 6.94832 23.9228 9.23648 23.9161 11.4505L23.9156 11.6382C23.9062 14.7786 23.9067 17.3876 23.9167 19.849H23.917Z" fill="#5B4717"/>
</g>
</svg>
