<svg width="26" height="25" viewBox="0 0 26 25" fill="none" xmlns="http://www.w3.org/2000/svg">
<g opacity="0.7">
<path d="M25.0668 4.11156C24.6983 1.08564 22.152 -0.128993 19.7928 0.0107523C18.3928 0.0929007 17.0062 0.136638 15.355 0.177142C13.8591 0.213814 12.325 0.245308 10.9715 0.27307C9.02943 0.313057 7.02119 0.35448 5.02705 0.409591C2.73766 0.47299 0.891657 1.94771 0.536647 3.99593C0.394104 4.81804 0.389955 5.64759 0.39876 6.56884C0.424555 9.25912 0.46392 11.9776 0.502353 14.6065L0.5065 14.8912C0.521693 15.9488 0.536599 17.0064 0.55124 18.0641C0.553726 18.2423 0.559942 18.4209 0.566364 18.5995L0.566895 18.6138C0.592943 19.0563 0.588552 19.5001 0.553744 19.942C0.430573 21.1222 0.882337 22.3806 1.76235 23.3079C2.74057 24.3388 4.12692 24.8628 5.66713 24.7843C7.34781 24.6973 9.06216 24.7139 10.72 24.7298L10.8401 24.7311C12.8075 24.7498 14.8083 24.7999 16.7458 24.8485L17.7226 24.873C17.8871 24.8828 18.0504 24.9075 18.2103 24.947C18.2943 24.9648 18.3782 24.9824 18.4618 24.9968C18.4738 24.9989 18.486 25 18.4981 25H19.5582C19.5686 24.9999 19.579 24.9992 19.5893 24.9977C19.8011 24.9666 20.014 24.9385 20.2261 24.9107L20.2421 24.9086C20.7178 24.8465 21.2096 24.7825 21.6891 24.6783C23.7572 24.2291 25.5093 22.0841 25.5151 19.9945C25.5166 19.5023 25.5183 19.0098 25.5203 18.5173L25.5212 18.27C25.5316 15.5708 25.543 12.7798 25.485 10.0314C25.4426 8.03283 25.3019 6.04065 25.0668 4.11156ZM23.9169 19.849C23.9232 21.4629 22.5155 22.9738 20.7121 23.2889C19.3303 23.5302 17.9178 23.4482 16.5516 23.3692C16.0445 23.3397 15.5202 23.3093 14.9991 23.2955C14.4076 23.28 13.8051 23.2494 13.2192 23.2197L13.1674 23.217C12.9152 23.2042 12.6629 23.1915 12.4126 23.1801H12.401C11.7635 23.1801 11.126 23.1794 10.4884 23.1777C9.74845 23.1765 8.99668 23.1752 8.24181 23.1752C7.24888 23.1752 6.43258 23.1773 5.67222 23.1819H5.63876C4.52349 23.1819 3.60349 22.8511 2.97821 22.225C2.32807 21.574 1.98881 20.6017 1.9974 19.4129C2.0175 16.6176 2.00537 13.7877 1.99356 11.0508C1.98693 9.48828 1.9801 7.87257 1.97928 6.27612C1.96371 5.35669 2.17166 4.44722 2.58527 3.62592C3.05433 2.72384 3.89221 2.24515 5.22191 2.11949C7.08781 1.94338 8.59342 1.84745 9.96011 1.81771C13.9057 1.73132 16.9422 1.70076 19.8053 1.71847C21.8939 1.73142 23.1001 2.71389 23.4932 4.72264C23.9283 6.94883 23.9221 9.23699 23.9156 11.451L23.9149 11.6387C23.9061 14.7786 23.9067 17.3872 23.9167 19.849H23.9169Z" fill="#5B4717"/>
<path d="M13.491 6.60318C12.182 6.57874 11.0171 6.84477 10.027 7.39049C8.8347 8.04727 7.56466 8.93401 7.18458 10.5286C6.69584 12.5786 6.91814 14.551 7.84529 16.391C8.50911 17.7087 9.54969 18.5195 10.8545 18.7356C11.6353 18.8719 12.4259 18.9435 13.2185 18.9497C13.4671 18.9497 13.7138 18.941 13.9506 18.9239C15.7074 18.7972 17.1029 18.0929 18.0983 16.8303C19.6397 14.8752 19.9077 12.6368 18.8952 10.1772C17.9161 7.79863 16.0433 6.56226 13.491 6.60318ZM17.7755 12.8883C17.7831 15.561 15.9911 17.3459 13.2098 17.4345C12.5023 17.4466 11.7955 17.3848 11.1007 17.2505C10.2114 17.0908 9.53642 16.5557 9.09398 15.6599C8.35609 14.1652 8.1771 12.6202 8.56174 11.0679C8.85811 9.87183 9.73149 8.99459 11.2316 8.38599C11.7891 8.16184 12.3848 8.04801 12.9856 8.05079C13.5061 8.05324 14.0236 8.12946 14.5227 8.27715C16.4923 8.85032 17.7691 10.6603 17.7755 12.8883Z" fill="#5B4717"/>
<path d="M20.2333 4.00063H20.2036C19.9124 4.00792 19.635 4.12665 19.4288 4.33234C19.2226 4.53803 19.1031 4.81503 19.0951 5.10619C19.0879 5.2481 19.1095 5.38998 19.1587 5.52329C19.2079 5.65662 19.2836 5.77859 19.3811 5.88187C19.483 5.98555 19.6049 6.06749 19.7394 6.12269C19.8739 6.17789 20.0181 6.20521 20.1636 6.20301C20.4503 6.19375 20.7225 6.07459 20.9238 5.87018C21.1252 5.66578 21.2402 5.39179 21.2452 5.10493C21.2545 4.53248 20.7816 4.01658 20.2333 4.00063Z" fill="#5B4717"/>
</g>
</svg>
