<svg width="26" height="25" viewBox="0 0 26 25" fill="none" xmlns="http://www.w3.org/2000/svg">
<path opacity="0.7" d="M25.5579 15.2775C25.5606 14.2143 25.5635 13.1146 25.5573 12.0331C25.5517 11.047 25.5167 10.0453 25.4828 9.07659L25.4611 8.45075C25.4531 8.21379 25.4467 7.97665 25.4401 7.73969C25.4192 6.97464 25.3983 6.18353 25.3211 5.40908C25.2419 4.62405 25.0932 3.84759 24.8767 3.08885C24.2716 0.963323 22.2538 0 20.6244 0H20.5995C17.7215 0.0174635 14.7958 0.0977997 11.9672 0.175392C10.9777 0.202511 9.98825 0.228752 8.99886 0.254127L8.43711 0.267811C7.323 0.294372 6.17092 0.321864 5.03956 0.39245C2.9954 0.519923 1.63732 1.35329 0.888069 2.94006C0.669855 3.4022 0.541874 3.90173 0.510989 4.41187C0.320563 8.14738 0.405785 11.9442 0.488292 15.616C0.498958 16.0901 0.50942 16.5637 0.519668 17.0369L0.526881 17.3746C0.548527 18.3838 0.571011 19.4272 0.577494 20.453C0.590775 22.5654 2.42057 24.5502 4.49318 24.6999C4.94966 24.7243 5.40714 24.7238 5.86359 24.6984C6.1682 24.687 6.48359 24.6745 6.79082 24.6792C8.16165 24.698 9.5554 24.7249 10.9033 24.7507C11.6712 24.7653 12.4391 24.7797 13.2069 24.7936C13.7577 24.8032 14.3087 24.8119 14.86 24.8198C15.8254 24.8344 16.8235 24.8493 17.805 24.8721C17.9777 24.8818 18.1493 24.9076 18.3174 24.949C18.401 24.9665 18.4837 24.9842 18.5671 24.9985C18.573 24.9996 18.5791 25 18.5852 25H19.6551C19.6604 25 19.6656 24.9997 19.6708 24.999C19.8904 24.9664 20.1109 24.9377 20.3312 24.909C20.8094 24.8463 21.3037 24.7824 21.7834 24.6779C23.9017 24.2164 25.6002 22.0218 25.5707 19.7856C25.5504 18.2835 25.5542 16.7555 25.5579 15.2775ZM24.1566 17.6367C24.1587 18.3965 24.1605 19.1564 24.1621 19.9164C24.1645 21.3235 23.0102 22.8818 21.6919 23.251C20.8984 23.4847 20.0777 23.6132 19.2509 23.6332C18.0936 23.6437 16.9424 23.5925 15.7238 23.5392C15.2441 23.5183 14.7564 23.4966 14.2577 23.4785L14.3751 14.2423C14.5822 14.2365 14.7845 14.2318 14.9832 14.2264C15.5539 14.2118 16.093 14.198 16.6335 14.1768C16.9233 14.1681 17.2119 14.1376 17.4972 14.0859C17.8993 14.0097 18.1224 13.7493 18.0941 13.3896C18.0648 13.0177 17.7998 12.7868 17.4025 12.7868H17.4014C17.0765 12.7868 16.7475 12.8045 16.4289 12.8215C16.3068 12.828 16.1845 12.8346 16.0623 12.8401C15.6773 12.8578 15.2924 12.876 14.892 12.8951L14.4319 12.9171C14.4303 12.7219 14.4281 12.5271 14.4253 12.3328C14.4028 10.6204 14.3816 9.00289 15.0109 7.43327C15.5338 6.12916 16.9069 5.49453 18.2051 5.95747C18.4705 6.06473 18.7227 6.2022 18.9566 6.36718C19.1234 6.47489 19.2959 6.58678 19.4759 6.67849C19.5979 6.74124 19.91 6.87946 20.1715 6.81441C20.4697 6.74122 20.5994 6.45377 20.51 6.06413C20.4467 5.79628 20.3261 5.54536 20.1563 5.32871C19.9866 5.11205 19.7719 4.93483 19.527 4.80927C18.9993 4.51516 18.4155 4.33547 17.8137 4.28192C17.212 4.22838 16.6057 4.30215 16.0343 4.49847C14.9626 4.87576 14.1207 5.694 13.6626 6.80246C13.2583 7.79023 13.039 8.84385 13.0155 9.91087C12.9967 10.6246 13.001 11.33 13.0056 12.0767C13.0074 12.3759 13.0092 12.6793 13.0095 12.9883L12.6765 13.0162C12.3461 13.0441 12.0338 13.0705 11.7263 13.0916C11.6113 13.0995 11.4929 13.0997 11.3781 13.1C11.2994 13.1 11.2207 13.1 11.1423 13.1026C10.5843 13.1195 10.455 13.4267 10.4449 13.6821C10.43 14.0534 10.6797 14.2861 11.1127 14.3043C11.4631 14.3191 11.8181 14.31 12.1615 14.3013C12.3125 14.2974 12.4634 14.2934 12.6143 14.2915C12.6952 14.2904 12.7761 14.2909 12.8715 14.2911H12.9273L13.0171 23.3693H12.8468C12.6063 23.3693 12.343 23.3693 12.0795 23.3693C11.422 23.37 10.7642 23.369 10.1063 23.3662C8.63076 23.3619 7.10506 23.3576 5.60467 23.3834C4.47927 23.3988 3.53509 23.0769 2.88486 22.4404C2.20117 21.7711 1.83727 20.7661 1.83256 19.5348L1.82691 18.0484C1.81185 14.1353 1.79617 10.089 1.8015 6.10937C1.78926 5.18037 2.01138 4.26325 2.44734 3.4428C2.84283 2.71613 3.42686 2.26334 4.13627 2.13325C5.25843 1.92746 6.35623 1.74026 7.44994 1.71077C10.8956 1.6176 15.4316 1.50979 19.9611 1.50163H19.9735C22.0895 1.50163 23.3393 2.49777 23.6883 4.46267C23.9318 5.8334 24.1902 7.43191 24.1725 9.05633C24.1408 11.9169 24.1488 14.8249 24.1564 17.637L24.1566 17.6367Z" fill="#5B4717"/>
</svg>
