<svg width="16" height="10" viewBox="0 0 16 10" fill="none" xmlns="http://www.w3.org/2000/svg">
<path d="M7.65534 1.63692C8.39429 2.55438 9.05684 3.37081 9.71377 4.1921C10.7895 5.53723 11.8405 6.90247 12.9456 8.22361C13.4064 8.77442 13.9766 9.23792 14.5052 9.73257C14.7322 9.94502 15.0243 10.1305 15.2978 9.8786C15.6017 9.59905 15.4104 9.29395 15.1741 9.0606C12.631 6.55041 10.8862 3.44298 8.67392 0.685072C8.02195 -0.1276 7.47293 -0.23349 6.66635 0.454605C6.40778 0.667607 6.16541 0.898879 5.94114 1.14657C4.3677 2.94667 2.77916 4.73496 1.24971 6.57065C0.75865 7.16004 0.420523 7.87498 0.0383862 8.54683C-0.0266536 8.66135 -0.000330506 8.96311 0.0527815 8.98102C0.247788 9.04734 0.533032 9.11998 0.674364 9.02779C1.23024 8.66489 1.81448 8.30332 2.25997 7.8258C3.33526 6.67323 4.33573 5.45355 5.37197 4.26572C5.98141 3.56701 6.603 2.87858 7.21592 2.18275C7.34972 2.03054 7.47069 1.86673 7.65534 1.63692Z" fill="#5B4717"/>
</svg>
