<svg width="1440" height="1127" viewBox="0 0 1440 1127" fill="none" xmlns="http://www.w3.org/2000/svg">
<path d="M1440 36.8493C1395.56 34.07 1395 51.7268 1345.33 48.3344C1292.85 44.942 1290.77 22.912 1238.57 18.7839C1186.37 14.6558 1188.28 38.6068 1136.08 36.1954C1083.88 33.7839 1082.42 8.85198 1030.56 6.27704C978.694 3.70211 979.819 30.1463 927.788 28.8793C875.756 27.6122 875.138 0.963684 823.444 0.0236266C771.75 -0.91643 771.975 26.5087 720 26.427C668.025 26.3452 668.25 -0.671198 616.556 0.0236266C564.862 0.718451 564.187 27.8166 512.212 28.8793C460.237 29.942 461.25 3.98821 409.444 6.27704C357.638 8.56588 356.119 33.9474 303.919 36.1954C251.719 38.4434 253.519 14.8602 201.431 18.8248C149.344 22.7894 147.15 44.9829 94.6688 48.3753C45 51.7676 44.4375 34.1109 0 36.8493V327H1440V36.8493Z" fill="#5FD8F3"/>
<path d="M1345.33 65.5829C1292.85 62.2433 1290.77 40.5558 1238.57 36.4919C1186.37 32.428 1188.28 56.0066 1136.08 53.6326C1083.88 51.2587 1082.42 26.7144 1030.56 24.1795C978.694 21.6446 979.819 47.6776 927.788 46.4303C875.756 45.183 875.138 18.9487 823.444 18.0233C771.75 17.0978 771.975 44.0966 720 44.0161C668.025 43.9356 668.25 17.3392 616.556 18.0233C564.862 18.7073 564.187 45.3842 512.212 46.4303C460.237 47.4765 461.25 21.886 409.444 24.1392C357.638 26.3925 356.119 51.3794 303.919 53.5924C251.719 55.8054 253.519 32.5889 201.431 36.4919C149.344 40.3948 147.15 62.2433 94.6688 65.5829C45 68.9225 44.4375 51.5403 0 54.2362V327H1440V54.2362C1395.56 51.5403 1395 68.9225 1345.33 65.5829Z" fill="#2BC4F3"/>
<path d="M1439 121.512C1387.98 111.803 1387.93 133.298 1336.79 126.114C1285.66 118.931 1285.72 95.5842 1234.42 88.2884C1183.12 80.9927 1182.95 106.977 1131.54 102.094C1080.12 97.2117 1080.24 70.6102 1028.71 66.1205C977.188 61.6308 977.019 90.1966 925.438 87.6711C873.856 85.1456 873.912 56.6922 822.275 55.0647C770.637 53.4372 770.581 83.0692 718.944 82.9008C667.306 82.7324 667.306 53.8861 615.612 55.0647C563.919 56.2432 564.031 85.5385 512.45 87.6711C460.869 89.8037 460.756 62.0798 409.175 66.1205C357.594 70.1613 357.819 97.5484 306.35 102.094C254.881 106.64 254.769 81.4416 203.469 88.2884C152.169 95.1352 152.337 119.267 101.094 126.114C49.85 132.961 49.9625 111.859 -1 121.512V264H1439V121.512Z" fill="#5FD8F3" fill-opacity="0.3"/>
<path d="M1440 176.512C1388.98 166.803 1388.93 188.298 1337.79 181.114C1286.66 173.931 1286.72 150.584 1235.42 143.288C1184.12 135.993 1183.95 161.977 1132.54 157.094C1081.12 152.212 1081.24 125.61 1029.71 121.121C978.188 116.631 978.019 145.197 926.438 142.671C874.856 140.146 874.912 111.692 823.275 110.065C771.637 108.437 771.581 138.069 719.944 137.901C668.306 137.732 668.306 108.886 616.612 110.065C564.919 111.243 565.031 140.538 513.45 142.671C461.869 144.804 461.756 117.08 410.175 121.121C358.594 125.161 358.819 152.548 307.35 157.094C255.881 161.64 255.769 136.442 204.469 143.288C153.169 150.135 153.337 174.267 102.094 181.114C50.85 187.961 50.9625 166.859 0 176.512V269H1440V176.512Z" fill="#5FD8F3" fill-opacity="0.5"/>
<path d="M1440 234.512C1388.98 224.803 1388.93 246.298 1337.79 239.114C1286.66 231.931 1286.72 208.584 1235.42 201.288C1184.12 193.993 1183.95 219.977 1132.54 215.094C1081.12 210.212 1081.24 183.61 1029.71 179.121C978.188 174.631 978.019 203.197 926.438 200.671C874.856 198.146 874.912 169.692 823.275 168.065C771.637 166.437 771.581 196.069 719.944 195.901C668.306 195.732 668.306 166.886 616.612 168.065C564.919 169.243 565.031 198.538 513.45 200.671C461.869 202.804 461.756 175.08 410.175 179.121C358.594 183.161 358.819 210.548 307.35 215.094C255.881 219.64 255.769 194.442 204.469 201.288C153.169 208.135 153.337 232.267 102.094 239.114C50.85 245.961 50.9625 224.859 0 234.512V327H1440V234.512Z" fill="#5FD8F3"/>
<path d="M1337.79 252.533C1286.55 245.645 1286.72 221.823 1235.42 214.484C1184.12 207.146 1183.95 233.283 1132.54 228.371C1081.12 223.46 1081.24 196.702 1029.71 192.186C978.188 187.67 978.019 216.404 926.438 213.863C874.856 211.323 874.912 182.702 823.275 181.065C771.637 179.428 771.581 209.234 719.944 209.065C668.306 208.896 668.306 179.88 616.612 181.065C564.919 182.251 565.031 211.718 513.45 213.863C461.869 216.008 461.756 188.121 410.175 192.186C358.594 196.25 358.819 223.799 307.35 228.371C255.881 232.944 255.769 207.597 204.469 214.484C153.169 221.371 153.337 245.645 102.094 252.533C50.85 259.42 50.9625 238.194 0 247.903V326H1440V247.903C1388.98 238.194 1388.93 259.758 1337.79 252.533Z" fill="#2BC4F3"/>
<path d="M1337.79 282.533C1286.55 275.645 1286.72 251.823 1235.42 244.484C1184.12 237.146 1183.95 263.283 1132.54 258.371C1081.12 253.46 1081.24 226.702 1029.71 222.186C978.188 217.67 978.019 246.404 926.438 243.863C874.856 241.323 874.912 212.702 823.275 211.065C771.637 209.428 771.581 239.234 719.944 239.065C668.306 238.896 668.306 209.88 616.612 211.065C564.919 212.251 565.031 241.718 513.45 243.863C461.869 246.008 461.756 218.121 410.175 222.186C358.594 226.25 358.819 253.799 307.35 258.371C255.881 262.944 255.769 237.597 204.469 244.484C153.169 251.371 153.337 275.645 102.094 282.533C50.85 289.42 50.9625 268.194 0 277.903V1105H1440V277.903C1388.98 268.194 1388.93 289.758 1337.79 282.533Z" fill="#2BC4F3"/>
<path opacity="0.08" d="M1366.61 580.285C1384.61 580.285 1389.64 580.915 1410.36 570.25C1424.01 563.23 1434.45 563.436 1440 564.398V551.149C1372.38 534.066 1226.69 464.787 1204.41 441.686C1180.68 417.075 1166.54 411.152 1109.95 413.431C1053.36 415.709 984.459 451.259 945.669 488.175C906.879 525.091 879.196 532.232 828.697 541.347C778.194 550.461 748.08 537.626 731.191 528.511C714.308 519.397 670.955 531.019 602.047 528.511C533.139 526.003 534.966 485.896 522.19 464.935C509.415 443.969 398.522 432.576 337.831 432.122C303.379 431.862 269.071 428.666 245.851 425.952C232.086 424.343 222.677 411.12 225.881 397.651C230.939 376.398 231.659 345.153 204.582 320.003C163.844 282.166 28.5793 303.523 0 308.543V331.576C13.8104 328.008 76.801 312.709 120.46 318.628C169.743 325.311 193.778 331.693 193.778 357.522C193.778 383.346 147.536 394.285 118.331 394.285C89.1264 394.285 82.129 369.674 44.4057 376.056C17.4509 380.613 4.94997 380.056 0 379.364V435.381C6.72296 433.637 23.3864 431.453 46.2282 443.205C76.3465 458.701 83.6455 457.789 109.813 457.789C135.98 457.789 170.963 455.358 197.733 487.564C224.504 519.77 225.116 538.304 203.516 546.205C181.916 554.106 156.361 562.308 125.635 560.182C94.9089 558.057 53.5317 558.969 36.8008 568.69C23.8724 576.205 7.01096 578.173 0 578.685V679.205C19.7909 672.598 89.9679 648.212 129.284 622.168C175.373 591.633 225.57 574.771 288.088 571.122C350.606 567.477 374.335 554.713 406.734 542.866C439.134 531.019 484.309 517.343 519.45 539.675C554.586 562.007 556.413 590.263 615.736 567.931C675.059 545.598 718.182 537.621 722.29 557.221C726.399 576.82 721.908 587.831 779.715 585.099C837.517 582.366 935.783 591.175 959.817 565.652C983.851 540.129 1050.47 451.407 1097.93 451.713C1145.39 452.018 1144.18 477.69 1197.57 496.831C1250.96 515.972 1266.02 519.617 1256.89 543.774C1247.77 567.931 1184.94 621.862 1188.6 659.538C1192.21 696.881 1307.03 767.054 1440 789V663.281C1434.41 662.711 1424.61 661.102 1416.86 656.598C1405.34 649.906 1376.87 649.282 1355.73 650.742C1334.59 652.207 1317 646.563 1302.14 641.124C1287.28 635.686 1287.69 622.936 1306.12 600.775C1324.53 578.613 1348.61 580.285 1366.61 580.285ZM98.0994 449.281C82.417 449.502 72.346 440.302 68.0621 435.34C66.5141 433.547 66.8111 430.837 68.6786 429.381C73.9345 425.264 82.5115 422.352 93.2304 421.48C106.312 420.415 126.238 422.846 126.845 434.85C127.457 446.855 119.546 448.98 98.0994 449.281ZM120.392 602.523C119.857 606.505 117.265 610.002 113.998 612.339C110.731 614.676 106.829 615.975 102.91 616.878C92.0334 619.39 80.518 619.08 69.7901 615.988C63.3011 614.118 56.7311 611.211 50.0622 612.298C47.1147 612.779 44.3607 614.019 41.5572 615.049C38.7538 616.078 35.7748 616.905 32.8138 616.514C21.4199 614.995 25.6858 601.993 30.8248 596.258C34.6498 591.988 39.7348 589.072 44.8467 586.483C51.9792 582.874 59.4806 579.733 67.4186 578.762C75.352 577.791 83.8255 579.198 90.2289 583.975C93.4824 586.402 96.2679 589.705 100.156 590.874C105.115 592.366 110.848 590.029 115.474 592.353C119.065 594.159 120.923 598.541 120.392 602.523ZM272.028 547.203C270.43 549.473 267.96 550.96 265.512 552.268C258.955 555.778 251.994 558.524 244.807 560.443C240.299 561.648 235.641 562.528 230.979 562.277C227.613 562.097 219.774 561.077 218.546 557.099C217.043 552.237 223.928 548.353 227.276 546.592C233.27 543.441 239.394 540.457 245.865 538.453C252.336 536.448 259.198 535.441 265.917 536.313C268.401 536.637 271.083 537.36 272.527 539.405C274.129 541.675 273.625 544.933 272.028 547.203ZM393.5 515.294C368.174 513.469 350.606 496.382 334.406 502.305C326.045 505.361 314.89 506.903 306.052 507.676C299.388 508.26 295.329 500.588 299.518 495.375C305.526 487.901 315.151 479.6 329.159 477.465C356.083 473.362 376.616 475.717 387.268 471.312C397.915 466.908 428.492 462.351 439.44 481.339C450.389 500.328 418.826 517.114 393.5 515.294ZM606.92 561.239C605.21 563.773 602.492 565.49 599.612 566.515C596.732 567.54 593.668 567.926 590.63 568.259C585.766 568.798 580.843 569.22 575.978 568.654C571.114 568.088 566.263 566.465 562.528 563.306C560.174 561.319 558.636 558.875 557.452 556.07C556.624 554.115 554.977 551.837 555.094 549.63C555.45 542.745 564.625 541.823 569.692 541.967C579.362 542.246 588.992 543.724 598.298 546.363C602.065 547.432 606.164 549.01 607.861 552.533C609.179 555.288 608.63 558.704 606.92 561.239ZM818.041 554.861C817.19 556.592 815.656 557.881 814.099 559.023C806.89 564.299 798.165 567.486 789.246 568.097C787.608 568.209 785.934 568.232 784.363 567.755C781.704 566.946 778.905 564.137 780.25 561.225C780.75 560.146 781.609 559.279 782.487 558.479C790.614 551.055 801.814 547.1 812.807 547.774C814.535 547.882 816.412 548.169 817.586 549.441C818.896 550.857 818.891 553.131 818.041 554.861ZM925.649 552.556C923.412 558.672 918.741 563.863 912.887 566.726C906.794 569.706 899.814 570.146 893.042 570.533C875.951 571.508 858.86 572.483 841.769 573.459C836.279 573.773 825.938 572.533 826.802 564.51C827.509 557.953 838.502 556.138 843.434 554.911C861.133 550.506 878.021 542.888 893.033 532.543C896.786 529.954 900.476 527.172 904.715 525.482C908.954 523.792 913.926 523.32 917.985 525.401C921.239 527.064 923.547 530.174 925.023 533.509C927.656 539.464 927.885 546.439 925.649 552.556ZM1146.38 437.655C1077.36 427.884 1024.25 476.62 1014.57 488.175C1004.08 500.71 974.869 516.431 960.879 520.988C946.884 525.545 953.121 510.049 963.768 495.164C974.415 480.274 984.76 474.804 1055.34 441.461C1098.89 420.882 1130.16 425.704 1147.73 432.41C1150.76 433.565 1149.59 438.113 1146.38 437.655ZM1357.06 703.775C1362.23 705.613 1367.4 707.456 1372.56 709.294C1377.67 711.114 1382.78 712.93 1387.89 714.75C1391.33 715.977 1394.99 717.361 1397.11 720.341C1400.3 724.84 1398.51 731.541 1394.36 735.181C1390.21 738.821 1384.42 739.949 1378.89 740.053C1370.42 740.21 1361.65 738.111 1355.09 732.75C1346.62 725.833 1335.78 696.197 1357.06 703.775ZM1266.52 710.489C1253.86 709.613 1241.57 704.125 1232.47 695.294C1223.36 686.463 1217.52 674.351 1216.27 661.735C1214.91 647.87 1218.97 633.907 1225.41 621.552C1230.13 612.514 1236.01 603.323 1242.73 595.629C1245.87 592.038 1251.49 587.445 1256.69 587.755C1263.76 588.177 1259.65 594.604 1258.36 599.247C1253.47 616.878 1252.87 635.704 1256.72 653.596C1260.81 672.562 1269.81 691.362 1266.52 710.489Z" fill="white"/>
<path d="M1440 716V1127H0V967.381C3.72185 964.543 7.75385 962.575 12.158 962.676C17.6012 962.798 22.5659 966.119 29.726 970.923C33.2463 965.485 37.8853 959.448 43.6896 960.234C49.1217 960.97 53.712 967.702 60.8389 966.257C63.3578 961.754 68.4244 959.421 76.32 960.788C73.9739 948.878 76.9935 935.713 84.1248 926.76C88.7993 920.892 96.3936 916.776 105.689 920.618C109.965 918.223 115.116 915.846 119.216 918.622C123.718 921.669 124.132 928.93 126.736 937.728C133.293 940.553 138.402 947.538 141.521 957.03C139.939 961.482 138.357 965.932 136.778 970.382C144.392 971.989 152.212 972.27 161.993 969.75C163.903 966.446 164.545 962.404 165.576 958.604C166.604 954.804 168.274 950.888 171.333 949.117C174.395 947.342 178.988 949.056 182.348 953.638C187.074 951.403 191.799 949.168 196.525 946.933C197.878 946.292 199.269 945.642 200.732 945.606C204.001 945.526 206.775 948.547 208.337 951.899C209.899 955.252 210.634 959.054 214.318 963.833C220.302 964.225 227.449 965.498 229.906 971.874C231.202 975.242 230.739 979.142 230.509 984.487C243.562 986.615 256.94 985.991 273.505 982.761C274.287 975.825 275.638 968.975 277.532 962.337C277.854 961.213 278.235 960.022 279.059 959.33C279.845 958.669 280.873 958.597 281.841 958.548C285.463 958.368 289.088 958.188 296.268 958.991C297.659 948.271 305.623 940.15 314.192 935.943C317.469 934.335 320.98 933.138 324.527 933.363C332.751 933.881 339.222 941.677 352.578 946.127C355.817 952.834 356.954 960.886 357.22 971.29C361.19 969.668 365.348 968.023 369.517 968.684C373.689 969.345 377.823 973.105 377.905 978.011C377.929 979.489 377.641 981.161 380.036 982.492C381.177 980.704 382.44 978.81 384.27 978.16C386.097 977.51 388.536 978.892 390.007 981.61C390.393 979.963 390.803 978.26 391.733 976.94C392.661 975.618 394.263 974.779 396.323 975.028C394.806 971.9 396.363 967.348 400.331 965.302C401.321 962.86 402.314 960.421 403.304 957.979C403.805 956.747 404.325 955.483 405.185 954.561C406.064 953.62 407.219 953.121 408.342 952.645C411.656 951.245 414.977 949.858 419.605 949.401C421.636 950.673 423.497 952.318 426.466 955.519C430.737 958.052 435.511 959.419 441.174 961.057C442.873 965.658 444.185 970.453 446.504 976.965C448.489 977.826 450.366 979.035 452.191 981.377C452.667 985.771 452.8 990.217 452.913 995.194C456.416 997.333 460.49 998.177 464.409 997.741C467.606 996.57 470.767 995.261 473.895 992.022C474.848 988.752 475.583 985.399 476.188 980.8C478.603 978.501 481.545 976.96 483.889 976.891C486.004 977.697 487.821 979.522 489.104 981.953C493.003 982.332 496.922 982.421 503.446 982.038C505.21 980.762 507.199 979.912 509.787 978.741C512.354 977.014 515.558 976.626 518.571 977.964C519.029 979.44 519.49 980.914 519.457 983.318C522.505 983.641 525.553 983.963 528.464 984.44C529.831 982.663 531.475 981.179 533.252 980.607C536.353 980.201 539.497 980.244 542.404 981.35C543.926 982.545 545.605 983.472 547.085 983.821C548.986 980.518 551.602 977.777 555.142 974.921C557.998 973.628 560.78 972.116 563.771 968.592C562.916 966.814 563.12 964.421 565.151 961.867C568.253 961.389 571.357 960.91 574.839 961.26C575.236 964.18 575.942 967.045 577.874 971.061C581.308 971.907 585.092 973.018 587.502 976.996C589.151 978.229 590.599 979.825 591.747 981.675C592.09 982.229 592.595 982.886 593.355 982.539C595.555 983.044 597.886 982.744 600.469 981.101C601.778 979.182 603.247 977.414 605.928 975.858C607.359 975.734 608.805 975.845 610.879 976.268C611.207 977.635 611.561 978.993 612.49 980.348C613.504 981.294 614.957 981.553 616.311 981.101C616.69 980.224 617.16 979.398 618.024 978.501C619.685 978.227 621.349 977.989 623.513 977.998C623.225 979.126 622.937 980.253 623.099 981.488C624.468 982.256 626.017 982.583 628.225 982.332C628.551 981.675 629.089 981.165 629.708 980.927C630.031 981.292 630.357 981.657 630.735 982.323C631.447 982.405 632.153 982.561 632.995 982.899C633.658 983.434 634.628 983.369 635.321 983.004C635.521 982.323 635.643 981.611 635.806 980.756C636.207 980.647 636.608 980.535 637.129 980.475C637.317 980.789 637.503 981.101 637.772 981.444C638.27 981.299 638.742 981.038 639.172 980.669C639.349 979.658 639.741 978.699 640.306 977.942C640.709 977.724 641.11 977.506 641.507 977.584C641.952 977.802 642.355 978.133 642.637 978.458C643.024 978.334 643.41 978.209 643.797 978.084C643.762 978.345 643.908 978.621 644.24 978.688C644.914 977.902 645.517 977.034 646.294 976.014C646.89 975.983 647.482 975.896 649.145 975.825C648.992 974.823 648.842 973.797 649.001 972.798C649.161 971.798 649.704 970.816 650.534 970.509C651.378 970.195 652.477 970.551 653.718 969.289C653.813 968.287 653.968 967.166 654.671 966.576C654.859 966.42 655.074 966.313 655.286 966.208C656.341 965.692 657.395 965.173 658.605 964.962C662.147 964.445 665.692 963.929 669.494 963.432C670.023 961.669 670.692 959.964 671.663 958.419C674.317 957.818 676.973 957.217 679.611 956.387C680.11 955.439 680.61 954.492 681.22 953.569C682.688 952.798 684.239 952.235 685.715 951.723C685.936 950.686 686.754 949.86 687.797 949.76C687.952 948.182 688.978 946.768 690.327 946.127C690.349 945.297 690.409 944.373 690.934 943.812C691.145 943.589 691.408 943.449 691.672 943.322C692.855 942.754 694.102 942.378 695.846 942.505C696.929 943.133 697.764 944.315 698.085 945.675C698.334 946.721 698.329 947.946 699.053 949.181C699.824 949.677 700.549 950.274 701.508 951.801C701.865 954.486 701.579 957.282 700.296 960.298C699.924 962.041 699.361 963.731 698.626 965.309C698.679 965.3 698.77 965.34 698.808 965.407C699.472 966.605 700.56 967.471 701.971 968.312C702.051 970.235 702.128 972.159 702.153 974.195C704.067 975.344 706.07 976.299 708.447 977.604C710.166 976.88 711.885 976.159 713.637 975.42C716.225 975.422 718.81 975.947 721.73 977.263C723.458 978.634 725.319 979.774 728.044 980.417C729.85 979.852 731.655 979.284 733.458 978.717C733.718 978.636 734.034 978.287 733.789 977.993C733.919 976.446 734.362 974.935 735.178 973.227C737.945 972.076 740.862 971.415 744.854 971.678C746.356 973.278 747.55 975.264 748.636 977.895C748.935 979.85 749.234 981.806 749.894 983.952C750.16 985.562 750.426 987.169 750.694 988.778C750.785 989.342 750.882 989.916 751.137 990.406C751.879 991.835 753.576 991.984 755.586 991.612C763.709 979.184 772.914 967.72 783.017 957.453C783.635 956.825 785.013 956.627 784.689 958.283C797.412 962.032 810.735 962.992 823.757 961.095C826.755 960.659 830.12 960.178 829.602 963.873C834.697 968.686 840.94 971.827 848.335 972.001C858.495 957.371 869.031 943.099 878.247 932.488C884.118 930.133 889.991 927.777 897.02 927.288C901.648 922.181 906.276 917.077 912.406 913.758C931.436 912.355 950.597 913.317 970.908 917.702C983.569 928.743 995.713 940.593 1008.03 954.448C1011.02 960.205 1013.83 966.09 1016.45 972.09C1031.55 970.538 1046.64 968.833 1064.91 972.223C1069.39 955.592 1074.37 939.139 1081.72 922.994C1100.46 915.952 1119.2 908.914 1143.71 898.716C1149.59 882.94 1156.21 946.557 1168.87 937.724C1176.19 932.618 1184.77 980.999 1193.1 978.853C1210.82 974.29 1228.22 968.07 1248.66 960.561C1250.21 953.95 1252.07 946.815 1256.85 942.829C1258.68 941.306 1260.8 940.369 1262.9 939.445C1268.05 937.181 1273.21 934.917 1279.78 931.651C1283.95 923.825 1289.77 917.204 1298.47 910.021C1301.22 897.212 1312.28 887.553 1328.09 891.66C1334.55 893.57 1340.89 896.023 1347.05 898.997C1348.66 899.774 1350.31 900.631 1351.45 902.16C1352.98 904.208 1353.34 907.076 1353.68 909.765C1355.71 926.015 1359.34 941.989 1368.11 961.463C1377.78 963.885 1387.93 953.62 1397.54 947.196C1398.26 928.911 1398.98 910.626 1399.7 892.341C1400.11 882.094 1400.53 871.736 1402.97 859.315C1407.31 855.19 1411.64 851.067 1415.81 846.775C1418.19 826.362 1418.98 805.695 1414.36 783.953C1407.09 780.454 1401.26 773.123 1399.08 760.867C1400.79 749.897 1402.5 738.929 1405.16 725.338C1416.87 721.616 1428.58 717.894 1440 716Z" fill="#1F6F94"/>
<path d="M300.393 953.246C315.827 940.443 334.273 937.906 350.141 946.394C351.719 947.237 353.368 948.308 354.255 950.513C355.443 953.47 354.856 957.58 353.668 960.739C351.351 966.888 347.072 970.76 342.72 972.436C338.369 974.112 333.892 973.879 329.486 973.633C320.169 973.113 310.857 972.588 301.54 972.069C301.24 972.051 300.93 972.033 300.67 971.818C300.151 971.392 299.989 970.357 299.9 969.429C299.384 964.239 299.505 958.848 300.393 953.246Z" fill="#1F6F94"/>
<path d="M312.403 973.561C298.3 970.738 285.312 956.025 281.104 934.792C279.925 928.858 279.45 922.239 280.898 916.225C282.216 921.15 282.552 926.644 283.461 931.82C286.908 951.404 298.196 964.58 312.403 973.561Z" fill="#1F6F94"/>
<path d="M312.058 965.602C311.376 967.766 309.355 966.973 308.078 965.839C301.961 960.39 295.593 954.568 292.016 945.027C291.044 942.433 290.304 939.623 289.61 936.795C287.244 927.218 285.285 916.709 286.939 906.424C288.014 930.149 295.749 952.359 312.058 965.602Z" fill="#1F6F94"/>
<path d="M312.031 962.998C304.233 959.296 297.569 950.674 293.791 939.39C290.013 928.105 289.162 914.28 291.452 901.544C290.905 906.971 290.591 912.474 290.905 917.874C291.461 927.384 293.988 936.297 297.609 943.701C301.23 951.104 305.918 957.065 312.031 962.998Z" fill="#1F6F94"/>
<path d="M324.937 955.792C323.817 944.754 323.185 933.447 324.072 922.185C324.96 910.919 327.447 899.634 332.018 890.564C328.715 898.55 327.241 907.925 326.08 917.139C324.485 929.808 323.414 943.293 324.937 955.792Z" fill="#1F6F94"/>
<path d="M337.284 956.558C342.048 947.331 346.489 937.611 349.823 927.003C353.157 916.395 355.353 904.829 355.443 893.244C356.465 900.177 355.367 907.625 353.874 914.562C350.442 930.516 344.853 945.471 337.284 956.558Z" fill="#1F6F94"/>
<path d="M312.672 952.883C308.544 946.179 305.802 937.512 304.273 928.343C302.745 919.174 302.4 909.503 302.669 899.885C303.749 919.425 306.613 939.098 312.672 952.883Z" fill="#1F6F94"/>
<path d="M320.971 957.858C316.064 948.604 312.492 937.449 311.126 925.372C309.759 913.289 310.668 900.289 314.142 888.874C309.602 913.747 313.209 941.285 320.971 957.858Z" fill="#1F6F94"/>
<path d="M307.218 959.574C296.623 944.351 291.846 919.716 295.032 896.757C295.207 917.336 298.622 937.548 304.883 955.084C305.976 958.14 307.374 961.367 307.218 959.574Z" fill="#1F6F94"/>
<path d="M312.676 959.677C302.754 942.984 297.887 919.008 299.653 895.507C301.02 918.268 303.525 941.805 312.676 959.677Z" fill="#1F6F94"/>
<path d="M322.997 955.765C325.274 950.293 327.55 944.821 329.795 939.322C332.95 931.601 336.061 923.767 338.27 915.324C340.479 906.881 341.761 897.725 341.102 888.888C342.29 900.8 340.466 913.37 337.06 924.578C333.65 935.787 328.729 945.771 322.997 955.765Z" fill="#1F6F94"/>
<path d="M339.502 955.366C341.358 954.784 342.962 952.861 344.463 950.965C352.53 940.797 360.144 929.508 366.158 916.283C369.107 909.803 371.756 902.279 371.357 894.57C371.863 901.266 370.868 908.346 368.587 914.302C367.458 917.251 366.033 919.909 364.585 922.508C357.545 935.182 349.702 947.022 339.502 955.366Z" fill="#1F6F94"/>
<path d="M347.179 957.002C358.678 946.345 368.278 930.888 376.156 913.841C378.859 907.992 381.422 901.768 382.489 894.835C382.663 893.697 382.753 892.321 382.211 891.59C382.363 897.448 381.086 903.296 379.513 908.759C373.176 930.731 361.224 949.433 347.179 957.002Z" fill="#1F6F94"/>
<path d="M346.207 953.139C357.849 939.78 368.466 923.66 376.035 904.376C377.537 900.553 378.935 896.52 379.455 892.164C378.209 903.04 373.947 912.635 369.6 921.544C363.303 934.442 356.258 947.228 346.207 953.139Z" fill="#1F6F94"/>
<path d="M342.783 951.552C349.039 940.613 354.793 928.966 359.983 916.749C363.447 908.593 366.759 899.688 367.041 890.107C367.538 892.455 366.996 895.09 366.423 897.488C361.511 917.937 353.776 936.893 342.783 951.552Z" fill="#1F6F94"/>
<path d="M340.098 950.84C345.149 942.37 350.222 933.85 354.39 924.287C358.557 914.724 361.815 903.977 362.797 892.688C363.769 897.748 362.29 903.309 360.771 908.243C355.649 924.852 349.343 941.317 340.098 950.84Z" fill="#1F6F94"/>
<path d="M335.012 952.543C341.201 937.691 347.215 922.082 349.317 904.9C349.895 900.163 350.159 895.229 349.321 890.716C350.881 893.091 350.984 897.017 350.733 900.531C350.352 905.873 349.371 911.107 348.291 916.265C345.534 929.445 342.021 942.495 335.012 952.543Z" fill="#1F6F94"/>
<path d="M331.619 952.413C336.863 939 342.187 925.269 344.441 910.121C345.49 903.058 345.848 895.821 346.991 888.785C347.408 892.558 347.148 896.502 346.664 900.334C345.44 910 342.805 919.183 339.995 928.114C337.445 936.23 334.694 944.31 331.619 952.413Z" fill="#1F6F94"/>
<path d="M339.224 950.813C342.908 941.971 346.614 933.057 349.214 923.368C351.813 913.679 353.265 903.049 352.225 892.957C354.071 904.613 351.526 917.197 348.492 928.656C346.251 937.104 343.639 945.596 339.224 950.813Z" fill="#1F6F94"/>
<path d="M329.76 947.555C334.277 939.52 337.849 930.189 340.228 920.231C342.76 909.619 343.921 898.447 345.068 887.36C343.589 910.103 338.041 932.502 329.76 947.555Z" fill="#1F6F94"/>
<path d="M322.93 949.406C326.663 937.767 330.405 926.098 333.34 913.957C335.133 906.54 336.639 898.693 336.119 890.99C337.154 895.019 336.831 899.675 336.303 904.071C334.349 920.294 329.688 935.908 322.93 949.406Z" fill="#1F6F94"/>
<path d="M323.978 953.13C319.672 948.07 317.113 939.932 316.181 931.44C315.248 922.947 315.822 914.078 316.898 905.456C317.579 900.002 318.471 894.557 319.967 889.457C318.368 899.63 317.135 910.023 317.314 920.348C317.494 930.682 319.156 941.016 323.978 953.13Z" fill="#1F6F94"/>
<path d="M313.281 955.321C305.542 936.45 304.018 911.25 309.284 889.305C309.934 886.589 310.709 883.86 311.991 881.735C310.019 893.217 309.001 905.035 308.979 916.767C308.957 929.692 310.185 942.746 313.281 955.321Z" fill="#1F6F94"/>
<path d="M322.347 951.454C320.447 950.795 319.542 947.51 319.067 944.539C316.893 930.92 318.35 916.095 321.379 902.435C323.001 895.126 325.099 887.951 328.177 881.825C328.133 885.15 327.178 888.332 326.264 891.411C323.458 900.876 320.841 910.605 319.743 920.778C318.65 930.951 319.174 941.72 322.347 951.454Z" fill="#1F6F94"/>
<path d="M326.219 952.413C325.431 949.634 325.256 946.47 325.251 943.365C325.229 930.512 327.873 917.816 330.701 905.514C332.534 897.542 334.488 889.291 334.084 881.018C335.034 892.522 332.467 904.255 329.917 915.445C327.367 926.631 324.74 938.314 326.219 952.413Z" fill="#1F6F94"/>
<path d="M335.572 950.047C336.424 946.13 337.916 942.616 339.247 939.013C342.411 930.436 344.678 921.168 346.65 911.824C348.801 901.611 350.616 890.537 348.631 880.597C349.89 887.969 349.698 895.946 348.636 903.596C347.569 911.246 345.66 918.609 343.509 925.753C340.623 935.361 337.23 944.767 335.572 950.047Z" fill="#1F6F94"/>
<path d="M342.796 953.112C346.157 943.427 349.993 934.146 353.574 924.646C355.479 919.582 357.321 914.419 358.566 908.911C360.529 900.217 360.928 890.999 361.314 881.919C362.913 888.892 361.878 896.869 360.381 904.17C356.496 923.037 349.541 940.546 342.796 953.112Z" fill="#1F6F94"/>
<path d="M344.763 954.299C353.874 938.09 363.16 921.526 368.703 901.875C370.666 894.924 372.15 887.422 371.755 880.028C372.849 886.526 371.549 893.602 369.918 900.056C364.939 919.783 356.742 937.7 344.763 954.299Z" fill="#1F6F94"/>
<path d="M310.382 966.14C308.459 966.328 306.631 965.203 304.954 963.863C299.102 959.193 294.28 951.705 290.977 942.787C287.669 933.868 285.859 923.557 285.447 913.034C285.182 906.339 285.514 899.321 287.481 893.177C283.461 904.604 282.82 918.636 285.787 930.252C286.464 932.905 287.32 935.428 288.216 937.902C290.466 944.091 293.047 950.038 296.328 954.913C299.608 959.789 303.632 963.572 310.382 966.14Z" fill="#1F6F94"/>
<path d="M310.682 959.924C308.688 958.109 307.097 955.397 305.703 952.52C300.93 942.67 298.21 930.584 296.61 918.246C295.665 910.932 295.091 903.417 295.432 895.861C295.772 888.305 297.058 880.682 299.613 874.081C296.158 887.947 295.181 903.143 296.834 917.381C298.492 931.623 302.768 944.862 310.682 959.924Z" fill="#1F6F94"/>
<path d="M317.095 957.903C313.649 956.074 311.193 951.445 309.226 946.672C303.081 931.758 300.128 913.464 300.917 895.207C301.266 887.176 302.396 878.876 305.443 872.194C302.252 886.728 301.002 902.225 302.163 917.126C303.328 932.027 306.94 946.3 317.095 957.903Z" fill="#1F6F94"/>
<path d="M322.163 958.409C320.362 956.832 319.103 954.107 318.058 951.31C314.742 942.419 313.08 932.036 312.712 921.517C312.345 910.999 313.236 900.338 314.782 889.923C316.001 881.7 317.749 873.27 321.433 866.96C321.213 870.231 320.035 873.189 319.017 876.129C315.683 885.782 313.823 896.497 313.035 907.231C312.412 915.723 312.448 924.332 313.581 932.537C314.711 940.743 316.969 948.55 322.163 958.409Z" fill="#1F6F94"/>
<path d="M324.588 954.591C321.025 941.03 322.096 925.188 324.413 910.475C326.734 895.762 330.243 881.359 331.476 866.418C331.301 879.468 329.979 892.536 328.025 905.38C326.64 914.482 324.937 923.503 323.875 932.685C322.813 941.863 322.405 951.315 324.588 954.591Z" fill="#1F6F94"/>
<path d="M330.324 954.223C330.203 951.49 330.566 948.725 330.974 946.018C332.798 933.869 335.46 921.997 337.306 909.857C339.153 897.716 340.174 885.07 338.651 873.109C339.959 899.545 336.872 926.877 330.324 954.223Z" fill="#1F6F94"/>
<path d="M333.237 956.379C334.201 952.122 335.456 948.025 336.603 943.867C342.734 921.621 345.723 897.47 345.288 873.754C347.224 887.552 346.157 902.337 343.473 916.229C340.793 930.117 336.549 943.244 333.237 956.379Z" fill="#1F6F94"/>
<path d="M339.081 956.85C339.48 954.062 340.358 951.472 341.205 948.913C348.349 927.321 354.107 904.34 355.985 880.557C356.33 876.205 356.527 871.688 355.618 867.655C358.204 879.782 357.106 893.508 354.408 906.034C351.71 918.56 347.497 930.216 343.701 942.096C341.936 947.622 340.224 953.421 339.081 956.85Z" fill="#1F6F94"/>
<path d="M313.761 962.182C311.049 962.989 308.647 960.027 306.711 957.145C301.728 949.715 297.152 941.5 293.724 932.085C290.3 922.665 288.05 911.972 287.903 900.871C287.773 891.164 289.238 881.399 291.447 872.132C292.362 868.3 293.401 864.536 294.566 860.861C288.817 878.128 287.472 898.631 290.91 916.606C294.024 932.865 300.706 946.466 313.761 962.182Z" fill="#1F6F94"/>
<path d="M321.339 958.808C318.417 957.791 316.163 954.344 314.303 950.732C307.85 938.207 304.363 921.979 304.175 905.425C303.986 888.87 307.043 872.055 312.519 857.432C312.672 857.029 312.846 856.59 313.129 856.438C313.407 856.285 313.779 856.644 313.684 857.087C309.647 867.897 307.572 880.243 307.02 892.5C306.469 904.761 307.388 916.969 309.006 928.804C310.65 940.878 313.438 953.52 321.339 958.808Z" fill="#1F6F94"/>
<path d="M326.994 964.423C324.252 951.884 321.487 939.219 320.604 925.878C319.551 910 321.204 893.701 323.951 878.002C325.717 867.919 327.953 857.455 326.694 847.448C328.236 855.604 328.307 864.553 326.896 873.023C325.816 879.513 323.902 885.661 322.804 892.146C320.913 903.354 321.554 914.975 322.208 926.308C322.822 936.92 323.445 947.622 326.994 964.423Z" fill="#1F6F94"/>
<path d="M334.779 955.066C333.591 955.662 332.3 954.913 331.453 953.591C330.606 952.269 330.131 950.454 329.786 948.626C328.025 939.255 329.271 928.872 331.27 919.29C334.071 905.859 338.306 893.186 341.622 880.01C344.938 866.835 347.363 852.704 346.269 839C347.977 852.261 345.834 866.364 342.711 879.401C339.592 892.437 335.482 904.976 333.013 918.304C330.548 931.637 329.853 946.314 334.779 955.066Z" fill="#1F6F94"/>
<path d="M782.487 959.967C795.722 948.988 811.539 946.812 825.146 954.091C826.499 954.813 827.913 955.732 828.674 957.622C829.693 960.159 829.189 963.683 828.171 966.392C826.184 971.664 822.514 974.985 818.783 976.422C815.051 977.859 811.212 977.659 807.435 977.448C799.445 977.002 791.46 976.553 783.47 976.107C783.213 976.091 782.948 976.076 782.725 975.892C782.279 975.526 782.141 974.639 782.064 973.843C781.622 969.393 781.726 964.77 782.487 959.967Z" fill="#1F6F94"/>
<path d="M792.785 977.386C780.692 974.965 769.555 962.349 765.947 944.142C764.936 939.054 764.529 933.378 765.77 928.221C766.9 932.444 767.188 937.155 767.968 941.594C770.923 958.387 780.604 969.685 792.785 977.386Z" fill="#1F6F94"/>
<path d="M792.489 970.561C791.905 972.418 790.172 971.737 789.077 970.765C783.831 966.092 778.371 961.1 775.304 952.919C774.47 950.694 773.836 948.284 773.24 945.859C771.211 937.647 769.532 928.636 770.95 919.816C771.872 940.16 778.505 959.206 792.489 970.561Z" fill="#1F6F94"/>
<path d="M792.467 968.329C785.78 965.154 780.066 957.761 776.826 948.084C773.587 938.408 772.857 926.553 774.82 915.631C774.352 920.285 774.083 925.004 774.352 929.635C774.828 937.789 776.996 945.433 780.101 951.781C783.206 958.13 787.225 963.241 792.467 968.329Z" fill="#1F6F94"/>
<path d="M803.534 962.149C802.573 952.684 802.031 942.989 802.792 933.332C803.553 923.671 805.686 913.994 809.605 906.216C806.773 913.064 805.509 921.104 804.514 929.004C803.146 939.868 802.227 951.432 803.534 962.149Z" fill="#1F6F94"/>
<path d="M814.121 962.806C818.206 954.894 822.014 946.559 824.873 937.463C827.732 928.366 829.615 918.448 829.692 908.514C830.568 914.459 829.627 920.846 828.347 926.795C825.404 940.475 820.611 953.299 814.121 962.806Z" fill="#1F6F94"/>
<path d="M793.016 959.655C789.477 953.906 787.125 946.474 785.815 938.612C784.504 930.749 784.208 922.456 784.439 914.209C785.365 930.964 787.821 947.835 793.016 959.655Z" fill="#1F6F94"/>
<path d="M800.133 963.921C795.925 955.985 792.862 946.42 791.69 936.064C790.518 925.703 791.298 914.555 794.277 904.767C790.384 926.095 793.477 949.71 800.133 963.921Z" fill="#1F6F94"/>
<path d="M788.34 965.393C779.255 952.338 775.158 931.214 777.891 911.527C778.041 929.174 780.969 946.505 786.337 961.542C787.275 964.163 788.474 966.93 788.34 965.393Z" fill="#1F6F94"/>
<path d="M793.02 965.481C784.511 951.166 780.338 930.607 781.852 910.455C783.024 929.973 785.172 950.156 793.02 965.481Z" fill="#1F6F94"/>
<path d="M801.87 962.126C803.823 957.434 805.775 952.742 807.7 948.027C810.405 941.405 813.072 934.688 814.967 927.448C816.861 920.208 817.961 912.357 817.396 904.779C818.414 914.993 816.85 925.773 813.929 935.384C811.005 944.995 806.785 953.557 801.87 962.126Z" fill="#1F6F94"/>
<path d="M816.024 961.784C817.615 961.285 818.99 959.636 820.278 958.011C827.195 949.291 833.724 939.611 838.881 928.27C841.41 922.714 843.681 916.261 843.339 909.652C843.773 915.393 842.92 921.465 840.964 926.572C839.996 929.101 838.774 931.379 837.532 933.608C831.495 944.476 824.77 954.629 816.024 961.784Z" fill="#1F6F94"/>
<path d="M822.606 963.187C832.467 954.049 840.699 940.794 847.455 926.176C849.772 921.161 851.97 915.823 852.885 909.878C853.034 908.902 853.111 907.723 852.646 907.096C852.777 912.119 851.682 917.134 850.333 921.818C844.899 940.66 834.65 956.696 822.606 963.187Z" fill="#1F6F94"/>
<path d="M821.772 959.874C831.756 948.419 840.86 934.596 847.351 918.06C848.638 914.782 849.837 911.323 850.283 907.588C849.214 916.915 845.56 925.142 841.832 932.782C836.433 943.842 830.392 954.806 821.772 959.874Z" fill="#1F6F94"/>
<path d="M818.836 958.514C824.201 949.134 829.135 939.146 833.585 928.67C836.556 921.676 839.396 914.04 839.638 905.824C840.064 907.838 839.6 910.098 839.108 912.154C834.896 929.689 828.263 945.944 818.836 958.514Z" fill="#1F6F94"/>
<path d="M816.534 957.903C820.865 950.64 825.215 943.335 828.789 935.134C832.363 926.933 835.157 917.718 835.999 908.038C836.833 912.376 835.564 917.145 834.262 921.376C829.869 935.618 824.462 949.737 816.534 957.903Z" fill="#1F6F94"/>
<path d="M812.173 959.363C817.48 946.628 822.637 933.243 824.439 918.51C824.935 914.448 825.162 910.217 824.443 906.347C825.78 908.384 825.869 911.75 825.653 914.763C825.327 919.344 824.485 923.832 823.559 928.255C821.196 939.557 818.183 950.748 812.173 959.363Z" fill="#1F6F94"/>
<path d="M809.264 959.252C813.76 947.75 818.325 935.975 820.258 922.986C821.157 916.93 821.465 910.724 822.445 904.69C822.802 907.926 822.579 911.308 822.164 914.594C821.115 922.883 818.856 930.757 816.446 938.416C814.259 945.375 811.9 952.304 809.264 959.252Z" fill="#1F6F94"/>
<path d="M815.785 957.88C818.944 950.298 822.122 942.654 824.351 934.346C826.58 926.038 827.825 916.922 826.933 908.268C828.517 918.264 826.334 929.054 823.732 938.881C821.811 946.125 819.57 953.407 815.785 957.88Z" fill="#1F6F94"/>
<path d="M807.669 955.086C811.543 948.196 814.605 940.195 816.646 931.656C818.817 922.556 819.812 912.976 820.796 903.469C819.528 922.971 814.771 942.178 807.669 955.086Z" fill="#1F6F94"/>
<path d="M801.812 956.673C805.013 946.693 808.222 936.686 810.739 926.276C812.276 919.916 813.568 913.187 813.122 906.581C814.01 910.036 813.733 914.029 813.279 917.799C811.604 931.71 807.607 945.098 801.812 956.673Z" fill="#1F6F94"/>
<path d="M802.712 959.867C799.019 955.528 796.824 948.549 796.025 941.267C795.226 933.985 795.718 926.38 796.64 918.986C797.224 914.309 797.989 909.64 799.272 905.267C797.9 913.99 796.843 922.902 796.997 931.756C797.151 940.618 798.577 949.479 802.712 959.867Z" fill="#1F6F94"/>
<path d="M793.539 961.746C786.902 945.563 785.595 923.955 790.111 905.136C790.668 902.808 791.333 900.467 792.432 898.646C790.741 908.491 789.869 918.625 789.849 928.686C789.83 939.768 790.883 950.963 793.539 961.746Z" fill="#1F6F94"/>
<path d="M801.313 958.429C799.684 957.864 798.907 955.048 798.5 952.5C796.636 940.821 797.885 928.109 800.483 916.396C801.874 910.128 803.673 903.976 806.313 898.723C806.274 901.574 805.456 904.302 804.672 906.942C802.266 915.059 800.022 923.402 799.08 932.125C798.143 940.848 798.592 950.083 801.313 958.429Z" fill="#1F6F94"/>
<path d="M804.633 959.252C803.957 956.869 803.807 954.156 803.803 951.493C803.784 940.472 806.051 929.585 808.476 919.036C810.048 912.2 811.723 905.125 811.377 898.031C812.192 907.896 809.99 917.956 807.804 927.552C805.617 937.144 803.365 947.162 804.633 959.252Z" fill="#1F6F94"/>
<path d="M812.653 957.223C813.383 953.864 814.663 950.851 815.804 947.762C818.518 940.406 820.462 932.459 822.153 924.447C823.998 915.689 825.554 906.193 823.851 897.67C824.931 903.991 824.766 910.832 823.855 917.391C822.941 923.951 821.304 930.265 819.459 936.391C816.984 944.63 814.075 952.696 812.653 957.223Z" fill="#1F6F94"/>
<path d="M818.848 959.851C821.73 951.547 825.02 943.588 828.09 935.441C829.723 931.099 831.303 926.672 832.371 921.949C834.054 914.494 834.396 906.589 834.727 898.803C836.099 904.783 835.211 911.623 833.927 917.883C830.596 934.062 824.631 949.076 818.848 959.851Z" fill="#1F6F94"/>
<path d="M820.535 960.87C828.347 946.97 836.31 932.767 841.064 915.916C842.747 909.955 844.019 903.522 843.681 897.182C844.618 902.754 843.504 908.822 842.105 914.355C837.836 931.272 830.807 946.636 820.535 960.87Z" fill="#1F6F94"/>
<path d="M791.053 971.023C789.404 971.184 787.836 970.219 786.399 969.07C781.38 965.066 777.245 958.645 774.413 950.997C771.577 943.35 770.025 934.508 769.671 925.484C769.444 919.743 769.729 913.725 771.416 908.457C767.969 918.256 767.419 930.288 769.963 940.249C770.543 942.524 771.277 944.687 772.046 946.809C773.975 952.116 776.189 957.215 779.002 961.396C781.815 965.577 785.265 968.821 791.053 971.023Z" fill="#1F6F94"/>
<path d="M791.31 965.693C789.6 964.136 788.236 961.811 787.041 959.344C782.948 950.897 780.615 940.533 779.244 929.954C778.433 923.682 777.941 917.238 778.233 910.759C778.525 904.279 779.628 897.743 781.818 892.082C778.855 903.972 778.018 917.003 779.436 929.212C780.858 941.425 784.524 952.777 791.31 965.693Z" fill="#1F6F94"/>
<path d="M796.809 963.959C793.854 962.391 791.748 958.422 790.061 954.329C784.792 941.54 782.26 925.853 782.936 910.197C783.236 903.311 784.204 896.194 786.818 890.464C784.082 902.927 783.009 916.215 784.005 928.993C785.004 941.771 788.101 954.01 796.809 963.959Z" fill="#1F6F94"/>
<path d="M801.156 964.394C799.611 963.041 798.531 960.704 797.635 958.306C794.792 950.682 793.366 941.778 793.051 932.759C792.736 923.74 793.501 914.597 794.826 905.667C795.872 898.615 797.37 891.386 800.529 885.976C800.341 888.781 799.33 891.317 798.458 893.838C795.599 902.116 794.004 911.304 793.328 920.508C792.793 927.79 792.824 935.172 793.796 942.209C794.765 949.245 796.702 955.939 801.156 964.394Z" fill="#1F6F94"/>
<path d="M803.235 961.119C800.179 949.491 801.098 935.906 803.085 923.29C805.075 910.674 808.084 898.323 809.141 885.511C808.991 896.701 807.858 907.907 806.182 918.921C804.995 926.726 803.534 934.461 802.624 942.335C801.713 950.206 801.363 958.31 803.235 961.119Z" fill="#1F6F94"/>
<path d="M808.153 960.804C808.05 958.46 808.361 956.089 808.711 953.768C810.275 943.35 812.557 933.17 814.141 922.76C815.724 912.349 816.6 901.505 815.293 891.248C816.416 913.917 813.768 937.355 808.153 960.804Z" fill="#1F6F94"/>
<path d="M810.651 962.653C811.477 959.002 812.553 955.49 813.537 951.923C818.794 932.847 821.357 912.138 820.985 891.802C822.645 903.634 821.73 916.311 819.428 928.224C817.13 940.133 813.491 951.389 810.651 962.653Z" fill="#1F6F94"/>
<path d="M815.662 963.056C816.004 960.666 816.758 958.445 817.484 956.251C823.609 937.736 828.548 918.029 830.158 897.635C830.454 893.904 830.623 890.03 829.843 886.571C832.06 896.97 831.118 908.741 828.805 919.482C826.492 930.223 822.879 940.218 819.624 950.406C818.11 955.144 816.642 960.116 815.662 963.056Z" fill="#1F6F94"/>
<path d="M793.95 967.629C791.625 968.321 789.565 965.781 787.905 963.31C783.632 956.938 779.708 949.894 776.769 941.821C773.833 933.743 771.903 924.574 771.777 915.055C771.665 906.731 772.922 898.358 774.816 890.41C775.6 887.125 776.492 883.897 777.491 880.746C772.561 895.552 771.408 913.133 774.355 928.547C777.026 942.489 782.756 954.152 793.95 967.629Z" fill="#1F6F94"/>
<path d="M800.448 964.736C797.942 963.863 796.009 960.908 794.415 957.811C788.881 947.07 785.891 933.155 785.73 918.959C785.568 904.764 788.189 890.345 792.885 877.806C793.016 877.46 793.166 877.083 793.408 876.953C793.646 876.822 793.965 877.129 793.884 877.51C790.422 886.779 788.643 897.366 788.17 907.876C787.697 918.39 788.485 928.858 789.872 939.008C791.283 949.36 793.673 960.201 800.448 964.736Z" fill="#1F6F94"/>
<path d="M805.298 969.551C802.946 958.798 800.575 947.938 799.818 936.498C798.915 922.883 800.333 908.906 802.688 895.445C804.202 886.798 806.12 877.825 805.04 869.244C806.362 876.238 806.424 883.912 805.213 891.175C804.287 896.74 802.646 902.012 801.705 907.573C800.083 917.184 800.632 927.148 801.193 936.867C801.72 945.967 802.254 955.144 805.298 969.551Z" fill="#1F6F94"/>
<path d="M811.973 961.527C810.955 962.038 809.848 961.396 809.122 960.262C808.395 959.129 807.988 957.572 807.692 956.005C806.182 947.969 807.25 939.065 808.964 930.849C811.366 919.332 814.997 908.464 817.841 897.166C820.685 885.868 822.764 873.752 821.826 862C823.29 873.371 821.453 885.465 818.775 896.644C816.1 907.823 812.576 918.575 810.459 930.004C808.345 941.436 807.75 954.022 811.973 961.527Z" fill="#1F6F94"/>
<path d="M204.797 928.944C204.409 929.691 203.802 930.393 201.913 930.05C200.569 929.807 199.573 928.66 198.934 927.454C198.499 926.639 198.17 925.73 198.237 924.804C198.334 923.439 199.371 922.2 200.69 921.822C202.007 921.445 203.518 921.925 204.411 922.964C204.992 923.639 205.313 924.51 205.426 925.39C205.583 926.601 205.359 927.859 204.797 928.944ZM183.636 894.59C182.292 893.408 181.558 891.565 181.742 889.784C181.89 888.367 182.637 886.983 183.857 886.24C185.074 885.501 186.755 885.509 187.864 886.405C188.318 886.769 188.658 887.255 188.971 887.744C189.386 888.397 189.77 889.074 190.018 889.808C190.482 891.173 190.455 892.666 190.212 894.09C190.083 894.857 189.759 895.655 188.644 895.893C186.893 896.26 184.98 895.771 183.636 894.59ZM164.156 920.905C163.03 922.09 161.365 922.632 159.736 922.745C158.678 922.818 157.464 922.656 156.843 921.795C156.168 920.862 156.522 919.491 156.894 919.831C157.607 917.737 159.385 916.04 161.509 915.419C162.412 915.157 163.46 915.103 164.223 915.654C164.493 915.848 164.712 916.112 164.882 916.399C165.713 917.807 165.278 919.72 164.156 920.905ZM208.54 924.78C208.5 924.041 208.408 923.285 208.073 922.627C207.704 921.901 207.059 921.348 206.357 920.932C204.09 919.591 201.203 919.623 198.71 920.473C196.216 921.323 194.044 922.91 192.004 924.578C190.196 926.056 188.385 927.713 187.6 929.912C186.826 927.138 186.639 924.17 187.314 921.41C187.794 919.448 188.69 917.613 189.581 915.799C190.817 913.276 192.055 910.753 193.291 908.23C194.87 905.014 196.456 901.765 197.333 898.292C198.208 894.816 198.326 891.049 196.993 887.722C195.66 884.395 192.705 881.605 189.157 881.089C186.286 880.671 183.342 881.764 181.056 883.55C178.771 885.339 177.076 887.771 175.646 890.294C170.896 898.686 168.805 908.557 169.736 918.158C167.558 915.586 165.038 913.16 161.886 911.968C158.737 910.772 154.841 911.056 152.42 913.398C151.821 913.978 151.319 914.685 151.111 915.492C150.534 917.742 152.312 919.85 153.929 921.515C163.165 931.03 171.881 941.583 175.999 954.191C176.245 954.946 178.309 956.131 180.328 956.39C182.349 956.646 184.508 955.788 185.689 954.131C186.521 952.968 186.842 951.53 187.314 950.183C189.683 943.391 195.873 938.723 202.077 935.088C203.874 934.036 205.761 932.981 206.978 931.289C208.308 929.443 208.664 927.052 208.54 924.78Z" fill="#1F6F94"/>
<path d="M230.588 957.117C230.368 957.395 230.059 957.634 229.309 957.338C228.776 957.128 228.456 956.573 228.292 956.026C228.178 955.654 228.117 955.252 228.219 954.876C228.37 954.319 228.9 953.893 229.473 953.844C230.047 953.795 230.632 954.117 230.916 954.618C231.099 954.943 231.161 955.329 231.137 955.701C231.104 956.215 230.909 956.715 230.588 957.117ZM224.653 941.22C224.196 940.624 224.042 939.801 224.263 939.083C224.439 938.51 224.862 937.999 225.425 937.794C225.988 937.589 226.681 937.728 227.064 938.189C227.219 938.376 227.32 938.602 227.41 938.829C227.529 939.133 227.633 939.443 227.674 939.767C227.753 940.368 227.621 940.98 227.405 941.548C227.289 941.856 227.089 942.157 226.612 942.165C225.862 942.176 225.113 941.817 224.653 941.22ZM214.476 950.492C213.916 950.89 213.184 950.977 212.502 950.892C212.059 950.835 211.572 950.67 211.385 950.265C211.184 949.823 211.44 949.288 211.566 949.459C212.031 948.654 212.902 948.097 213.829 948.013C214.224 947.978 214.66 948.042 214.93 948.332C215.025 948.433 215.094 948.559 215.142 948.693C215.369 949.34 215.035 950.096 214.476 950.492ZM232.47 955.703C232.514 955.396 232.536 955.075 232.452 954.776C232.358 954.446 232.138 954.166 231.883 953.937C231.058 953.2 229.864 952.978 228.765 953.124C227.666 953.273 226.642 953.75 225.665 954.273C224.797 954.737 223.916 955.273 223.414 956.117C223.319 954.91 223.484 953.669 223.989 952.586C224.348 951.815 224.868 951.131 225.38 950.457C226.097 949.517 226.813 948.577 227.527 947.635C228.44 946.434 229.359 945.223 230.004 943.863C230.647 942.499 231.004 940.955 230.724 939.475C230.444 937.995 229.45 936.602 228.031 936.1C226.882 935.694 225.578 935.904 224.49 936.454C223.402 937.007 222.503 937.869 221.709 938.797C219.067 941.873 217.401 945.774 217.003 949.811C216.315 948.572 215.472 947.366 214.27 946.617C213.067 945.868 211.437 945.668 210.248 946.437C209.952 946.626 209.688 946.879 209.538 947.194C209.116 948.076 209.678 949.089 210.21 949.909C213.247 954.587 215.983 959.651 216.654 965.188C216.693 965.521 217.449 966.176 218.262 966.446C219.075 966.717 220.035 966.538 220.657 965.951C221.093 965.539 221.345 964.972 221.648 964.455C223.177 961.846 226.112 960.423 228.968 959.43C229.795 959.142 230.66 958.858 231.297 958.261C231.998 957.61 232.338 956.651 232.47 955.703Z" fill="#1F6F94"/>
<path d="M1417.56 737.995C1416.81 732.891 1415.55 727.863 1413.8 723.012C1413.07 720.966 1412.03 718.735 1409.99 717.986C1408.58 717.469 1407.01 717.795 1405.53 717.542C1401.84 716.913 1399.7 712.957 1399 709.283C1398.31 705.61 1398.48 701.697 1396.9 698.308C1392.23 688.299 1376.04 689.041 1370.54 679.46C1367.95 674.941 1368.52 669.346 1369.17 664.171C1370.97 668.982 1372.91 674.002 1376.79 677.362C1380.95 680.967 1386.64 682.073 1391.71 684.206C1396.78 686.339 1401.87 690.528 1401.76 696.029C1401.72 698.183 1400.89 700.516 1401.98 702.378C1402.57 703.386 1403.61 704.023 1404.61 704.638C1410.33 708.171 1415.88 712.38 1419.3 718.169C1422.71 723.96 1423.61 731.631 1417.56 737.995Z" fill="#1F6F94"/>
<path d="M1419 722.903C1422.55 716.802 1423.55 708.237 1419.22 702.432C1417.48 700.108 1415.08 698.456 1413.14 696.314C1407.86 690.458 1406.72 681.745 1407.02 673.801C1407.26 667.621 1408.15 661.166 1405.8 655.408C1403.6 649.99 1398.78 646.091 1393.62 643.897C1398.89 650.766 1401.15 660.078 1399.62 668.572C1398.68 673.801 1396.38 678.989 1397.5 684.257C1399.56 693.988 1411.61 697.892 1415.5 707.035C1417.44 711.609 1417.04 716.851 1419 722.903Z" fill="#1F6F94"/>
<path d="M1428.79 743.509C1419.44 734.691 1416.99 719.409 1423.12 708.116C1429.03 697.239 1441.65 690.215 1444.46 678.166C1446.07 671.234 1444.01 663.937 1440.88 657.544C1438.37 652.419 1435.14 647.536 1433.93 641.96C1432.73 636.384 1434.18 629.678 1439.13 626.839C1436.38 634.359 1439.66 642.732 1443.9 649.529C1448.13 656.325 1453.47 662.707 1455.39 670.483C1457.55 679.232 1454.73 689.034 1448.25 695.299C1445.11 698.336 1441.25 700.538 1438.05 703.519C1428.54 712.383 1426.4 726.437 1428.79 743.509Z" fill="#1F6F94"/>
<path d="M1427.16 733.797C1420.13 724.011 1417.32 711.296 1419.56 699.456C1420.43 694.912 1422 690.473 1422.16 685.851C1422.57 674.249 1414.1 663.674 1414.66 652.076C1415.04 644.289 1419.4 636.111 1415.92 629.139C1413.4 624.101 1407.37 621.359 1405.41 616.074C1402.45 608.091 1403.67 602.631 1405.69 591.133C1406.87 598.487 1408.14 606.078 1412.19 612.333C1416.55 619.087 1424.18 624.541 1424.54 632.574C1424.9 640.675 1417.4 647.77 1418.41 655.816C1419.54 664.823 1430.89 670.84 1429.92 679.867C1429.28 685.841 1423.17 691.461 1425.78 696.871C1426.43 698.207 1427.58 699.32 1427.9 700.768C1428.63 704.086 1424.8 706.936 1424.99 710.328C1425.13 712.762 1427.24 714.523 1428.79 716.408C1432.99 721.538 1433.22 729.529 1427.16 733.797Z" fill="#1F6F94"/>
<path d="M1419.16 843.642C1417.95 840.685 1416.45 837.85 1414.68 835.195C1413.93 834.075 1412.97 832.887 1411.64 832.741C1410.71 832.639 1409.81 833.069 1408.89 833.137C1406.58 833.307 1404.7 831.249 1403.74 829.144C1402.78 827.038 1402.3 824.661 1400.84 822.859C1396.55 817.538 1386.93 820.391 1382.2 815.45C1379.97 813.119 1379.48 809.671 1379.1 806.464C1380.9 809.089 1382.81 811.818 1385.64 813.26C1388.68 814.808 1392.26 814.627 1395.62 815.156C1398.99 815.684 1402.68 817.443 1403.43 820.766C1403.72 822.067 1403.57 823.592 1404.5 824.55C1405.01 825.069 1405.73 825.296 1406.42 825.518C1410.38 826.791 1414.34 828.495 1417.26 831.466C1420.17 834.439 1421.85 838.917 1419.16 843.642Z" fill="#1F6F94"/>
<path d="M1417.79 834.355C1419.01 830.162 1418.34 824.865 1414.87 822.02C1413.48 820.881 1411.79 820.245 1410.31 819.245C1406.26 816.511 1404.28 811.445 1403.28 806.624C1402.51 802.875 1402.08 798.862 1399.82 795.75C1397.68 792.822 1394.21 791.194 1390.78 790.643C1394.97 793.988 1397.71 799.248 1398.06 804.581C1398.27 807.864 1397.66 811.324 1399.11 814.324C1401.8 819.867 1409.62 820.422 1413.32 825.339C1415.17 827.8 1415.7 831.011 1417.79 834.355Z" fill="#1F6F94"/>
<path d="M1426.73 845.286C1419.8 841.376 1416.06 832.554 1418.06 824.855C1419.99 817.44 1426.53 811.342 1426.43 803.681C1426.37 799.274 1424.05 795.196 1421.21 791.819C1418.94 789.111 1416.28 786.657 1414.72 783.484C1413.17 780.312 1413.05 776.065 1415.6 773.622C1415.07 778.551 1418.28 783.097 1421.84 786.552C1425.39 790.007 1429.55 793.049 1431.86 797.437C1434.46 802.376 1434.22 808.686 1431.26 813.415C1429.83 815.707 1427.83 817.605 1426.35 819.872C1421.96 826.614 1422.76 835.38 1426.73 845.286Z" fill="#1F6F94"/>
<path d="M1424.31 839.69C1418.63 834.854 1415.05 827.63 1414.64 820.179C1414.48 817.32 1414.76 814.418 1414.17 811.616C1412.69 804.582 1406.03 799.484 1404.65 792.429C1403.71 787.694 1405.12 782.129 1401.99 778.456C1399.73 775.802 1395.69 775.052 1393.73 772.166C1390.77 767.807 1390.69 764.345 1390.19 757.134C1391.99 761.378 1393.89 765.752 1397.25 768.91C1400.88 772.32 1406.27 774.464 1407.68 779.24C1409.1 784.055 1405.65 789.434 1407.45 794.12C1409.47 799.366 1417.19 801.295 1417.95 806.865C1418.45 810.551 1415.61 814.838 1417.99 817.701C1418.58 818.408 1419.43 818.906 1419.84 819.729C1420.78 821.613 1418.89 823.897 1419.51 825.907C1419.96 827.35 1421.49 828.093 1422.7 828.996C1425.99 831.455 1427.31 836.225 1424.31 839.69Z" fill="#1F6F94"/>
<path d="M1412.41 761.783C1410.58 759.832 1408.55 758.065 1406.37 756.519C1405.45 755.867 1404.35 755.224 1403.26 755.51C1402.51 755.707 1401.93 756.313 1401.23 756.643C1399.48 757.467 1397.39 756.42 1396.01 755.061C1394.62 753.703 1393.54 751.986 1391.86 751.013C1386.91 748.138 1380.24 753.248 1375.06 750.8C1372.62 749.645 1371.2 747.095 1369.95 744.7C1372.14 746.215 1374.45 747.777 1377.1 748.057C1379.94 748.359 1382.68 747.145 1385.47 746.551C1388.26 745.956 1391.67 746.229 1393.26 748.603C1393.87 749.532 1394.21 750.77 1395.23 751.24C1395.78 751.495 1396.41 751.456 1397.02 751.424C1400.5 751.233 1404.11 751.38 1407.28 752.83C1410.44 754.283 1413.1 757.282 1412.41 761.783Z" fill="#1F6F94"/>
<path d="M1408.55 754.932C1408.25 751.286 1406.14 747.344 1402.58 746.157C1401.15 745.683 1399.64 745.691 1398.18 745.352C1394.2 744.426 1391.13 741.057 1388.91 737.586C1387.18 734.886 1385.65 731.875 1382.94 730.119C1380.4 728.467 1377.19 728.235 1374.35 728.83C1378.62 730.193 1382.35 733.484 1384.21 737.552C1385.36 740.056 1385.92 742.944 1387.95 744.856C1391.71 748.387 1398 746.479 1402.36 749.218C1404.54 750.589 1405.92 752.94 1408.55 754.932Z" fill="#1F6F94"/>
<path d="M1418.82 760.803C1412.23 759.82 1406.66 754.04 1405.93 747.419C1405.22 741.042 1408.51 734.314 1406.13 728.353C1404.77 724.924 1401.73 722.431 1398.5 720.638C1395.91 719.2 1393.09 718.08 1390.93 716.063C1388.76 714.047 1387.4 710.762 1388.66 708.087C1389.72 712.102 1393.59 714.696 1397.41 716.333C1401.23 717.97 1405.39 719.104 1408.51 721.845C1412.02 724.929 1413.72 729.936 1412.82 734.52C1412.39 736.742 1411.4 738.824 1410.92 741.039C1409.5 747.629 1412.75 754.244 1418.82 760.803Z" fill="#1F6F94"/>
<path d="M1415.25 757.151C1409.36 755.07 1404.4 750.492 1401.85 744.788C1400.87 742.599 1400.22 740.244 1398.92 738.23C1395.66 733.172 1388.92 731.177 1385.73 726.076C1383.58 722.651 1383.01 717.878 1379.47 715.942C1376.9 714.544 1373.52 715.166 1371.12 713.496C1367.5 710.974 1366.4 708.29 1363.85 702.801C1366.53 705.58 1369.32 708.433 1372.9 709.896C1376.76 711.477 1381.62 711.539 1384.15 714.852C1386.7 718.193 1385.62 723.432 1388.43 726.557C1391.58 730.056 1398.19 729.255 1400.45 733.384C1401.95 736.116 1401.01 740.318 1403.73 741.846C1404.4 742.223 1405.22 742.357 1405.78 742.878C1407.08 744.071 1406.29 746.421 1407.38 747.807C1408.16 748.802 1409.58 748.924 1410.79 749.269C1414.1 750.207 1416.56 753.541 1415.25 757.151Z" fill="#1F6F94"/>
</svg>
