<svg width="93" height="69" viewBox="0 0 93 69" fill="none" xmlns="http://www.w3.org/2000/svg">
<mask id="path-1-outside-1_47_5263" maskUnits="userSpaceOnUse" x="-0.793396" y="0.0346677" width="94" height="69" fill="black">
<rect fill="white" x="-0.793396" y="0.0346677" width="94" height="69"/>
<path d="M89.2445 63L89.2446 3.03467L9.2066 3.03467L89.2445 63Z"/>
</mask>
<path d="M89.2445 63L89.2446 3.03467L9.2066 3.03467L89.2445 63Z" fill="#FFF9E9"/>
<path d="M89.2445 63L87.4457 65.4009L92.2445 68.9962L92.2445 63L89.2445 63ZM89.2446 3.03467L92.2446 3.03467L92.2446 0.034668L89.2446 0.034668L89.2446 3.03467ZM9.2066 3.03467L9.2066 0.0346682L0.199022 0.0346683L7.40782 5.43558L9.2066 3.03467ZM92.2445 63L92.2446 3.03467L86.2446 3.03466L86.2445 62.9999L92.2445 63ZM89.2446 0.034668L9.2066 0.0346682L9.2066 6.03467L89.2446 6.03467L89.2446 0.034668ZM7.40782 5.43558L87.4457 65.4009L91.0433 60.599L11.0054 0.633759L7.40782 5.43558Z" fill="#916600" fill-opacity="0.3" mask="url(#path-1-outside-1_47_5263)"/>
</svg>
