<svg width="305" height="213" viewBox="0 0 305 213" fill="none" xmlns="http://www.w3.org/2000/svg">
<path d="M154.115 61.3291C156.049 56.8151 154.974 39.0872 145.451 37.9843C135.929 36.8814 136.268 51.2045 137.236 56.6294C138.205 62.0556 140.566 64.1575 140.566 64.1575C140.566 64.1575 150.763 69.1537 154.115 61.3291Z" fill="#DD9E73"/>
<path d="M150.173 57.6983C150.173 57.6983 151.424 40.994 142.489 38.9347C146.567 37.496 151.791 33.6973 153.484 41.0644C155.177 48.4314 150.173 57.6983 150.173 57.6983Z" fill="#F2BF9C"/>
<path d="M145.679 32.0711C150.555 32.416 153.422 34.8255 154.995 36.8661C161.021 44.6855 157.546 59.0461 157.129 60.6588C156.591 62.7432 154.459 63.9941 152.388 63.4543C150.307 62.9162 149.057 60.7922 149.593 58.7096C150.789 54.0298 151.638 45.2551 148.828 41.6209C148.235 40.8529 147.146 39.8303 144.513 39.8227C141.795 39.8118 141.132 40.807 140.882 41.1822C138.844 44.2381 140.77 52.5305 142.715 57.173C143.546 59.1577 142.612 61.4402 140.63 62.2711C138.648 63.1017 136.366 62.1671 135.536 60.1824C134.877 58.6096 129.248 44.5905 134.409 36.8542C135.885 34.643 138.84 32.0109 144.542 32.0318C144.931 32.0297 145.311 32.044 145.679 32.0711Z" fill="#8E7665"/>
<path d="M63.9182 166.784C58.2965 168.626 55.3718 178.337 61.078 185.669C66.7841 193.001 80.0104 185.209 82.7134 176.797C76.0105 169.67 68.8347 165.172 63.9182 166.784Z" fill="#F0D3B6"/>
<path d="M55.0861 181.835C54.1318 179.505 53.8059 177.138 54.1179 174.751C54.9623 168.277 60.3391 164.321 60.5674 164.155C62.0225 163.102 64.0553 163.43 65.1067 164.887C66.1562 166.34 65.8338 168.364 64.3914 169.42C64.2924 169.495 61.0102 172.005 60.5598 175.637C60.2843 177.862 61.1458 180.218 63.1196 182.635C65.4724 185.516 68.2376 186.489 71.3386 185.525C75.7127 184.166 79.4478 179.379 79.8407 174.628C79.9886 172.837 81.5595 171.507 83.3494 171.655C85.1393 171.804 86.4688 173.376 86.3209 175.168C85.7152 182.491 80.1036 189.617 73.2691 191.741C67.6376 193.492 62.1035 191.674 58.0867 186.754C56.7673 185.14 55.7667 183.498 55.0861 181.835Z" fill="#8E7665"/>
<path d="M56.2282 96.0365C56.2282 96.0365 54.9032 85.6761 47.3119 77.3845C39.7207 69.093 28.5288 69.8186 30.6125 80.298C32.6961 90.7774 51.3619 104.837 51.3619 104.837L56.2282 96.0365Z" fill="#DD9E73"/>
<path d="M53.6138 93.9871C53.6138 93.9871 45.8941 98.8615 32.5736 81.7553C38.2793 92.9879 49.3403 103.429 49.3403 103.429L55.0481 95.6831L53.6138 93.9871Z" fill="#CE8D60"/>
<path d="M51.6657 92.9359C51.6657 92.9359 47.2202 84.1532 42.7772 79.6654C38.3342 75.1776 33.6268 77.0426 32.4081 81.038C28.9357 76.1017 33.5035 72.4291 38.9859 72.9708C44.4685 73.5138 50.9031 82.9196 53.3985 88.4499C54.9362 91.7884 51.6657 92.9359 51.6657 92.9359Z" fill="#F2BF9C"/>
<path d="M34.0451 93.7721C28.8187 87.5913 26.3731 82.0302 26.9896 77.4579C27.4678 73.9086 29.7234 71.1854 33.3404 69.7884C36.8752 68.4245 42.3261 68.0183 48.2191 73.8312C51.6734 77.2375 54.9228 82.4275 57.879 89.2523C58.5575 90.8207 57.8389 92.6433 56.271 93.3235C54.7042 94.0021 52.8855 93.2807 52.203 91.7129C49.0769 84.4895 42.7558 72.7898 35.5679 75.5644C33.6002 76.3233 33.2288 77.4815 33.12 78.287C32.5384 82.5973 37.8763 91.6163 54.6062 104C55.9774 105.015 56.2695 106.955 55.2547 108.328C54.2385 109.702 52.3029 109.992 50.9301 108.976C43.7406 103.656 38.0684 98.53 34.0451 93.7721Z" fill="#8E7665"/>
<path d="M52.9118 144.099C52.9118 144.099 49.1439 134.359 39.7903 128.135C30.4366 121.91 19.7439 125.305 24.2758 134.978C28.8077 144.651 50.2939 153.814 50.2939 153.814L52.9118 144.099Z" fill="#DD9E73"/>
<path d="M52.286 144.086C52.286 144.086 48.1379 152.223 27.9581 144.325C38.5949 151.066 53.4306 154.39 53.4306 154.39L54.3835 144.812L52.286 144.086Z" fill="#CE8D60"/>
<path d="M47.7388 142.187C47.7388 142.187 41.3207 134.73 35.9326 131.44C30.5445 128.151 26.4215 131.094 26.1955 135.265C21.6426 131.308 25.1977 126.644 30.6505 125.853C36.1032 125.061 44.6013 132.647 48.3478 137.415C50.6392 140.287 47.7388 142.187 47.7388 142.187Z" fill="#F2BF9C"/>
<path d="M30.833 147.233C24.2794 142.489 20.5745 137.678 20.0783 133.092C19.6939 129.532 21.2304 126.346 24.4074 124.121C27.5133 121.947 32.7073 120.243 39.8186 124.469C43.9873 126.946 48.3845 131.202 52.8882 137.118C53.923 138.478 53.6611 140.42 52.3018 141.457C50.9428 142.493 49.0046 142.231 47.967 140.872C43.202 134.611 34.2643 124.772 27.951 129.193C26.2226 130.402 26.14 131.615 26.227 132.424C26.694 136.748 34.036 144.22 53.2417 152.221C54.8158 152.877 55.5638 154.689 54.9073 156.268C54.2508 157.846 52.4403 158.593 50.8635 157.936C42.6124 154.499 35.8777 150.886 30.833 147.233Z" fill="#8E7665"/>
<path d="M175.367 139.027C175.26 135.19 169.401 131.575 169.33 131.534C169.257 131.491 169.187 131.443 169.12 131.39L136.73 105.868C136.694 105.839 136.66 105.81 136.625 105.78C136.621 105.776 135.241 104.572 133.148 104.065C130.464 103.416 127.804 104.188 125.243 106.357C124.447 107.031 123.263 106.965 122.546 106.206C120.759 104.316 116.642 103.873 112.968 105.178C111.111 105.838 106.749 107.937 106.353 113.181C106.278 114.178 105.468 114.958 104.471 114.997C102.223 115.083 99.7243 117.384 98.1057 120.859C96.3846 124.555 95.7365 129.689 98.1712 132.829C98.57 133.343 98.6887 134.022 98.4873 134.641C96.2427 141.572 96.6191 147.96 99.5477 152.63C101.95 156.46 105.913 158.931 110.709 159.591C111.554 159.708 112.227 160.356 112.376 161.197C113.361 166.774 118.179 168.873 120.961 169.629C126.362 171.095 132.407 169.879 135.021 166.799C135.369 166.39 135.868 166.14 136.405 166.109C136.941 166.078 137.467 166.268 137.86 166.635C140.285 168.902 145.247 169.555 150.207 168.262C155.185 166.963 158.833 164.072 159.963 160.527C160.233 159.682 161.035 159.123 161.92 159.161C166.073 159.343 169.371 157.971 171.72 155.083C174.759 151.348 175.502 145.79 174.659 142.454C174.533 141.96 174.605 141.435 174.859 140.992C175.235 140.342 175.385 139.681 175.367 139.027Z" fill="#FEE9D2"/>
<path d="M92.652 127.974C92.564 124.815 93.4084 121.637 94.5453 119.196C96.4759 115.05 99.4775 112.176 102.649 111.324C103.549 106.806 106.821 103.187 111.655 101.47C116.129 99.8825 120.926 100.272 124.018 102.342C128.052 99.5312 131.769 99.6407 134.277 100.294C137.019 101.007 138.815 102.473 139.203 102.812L171.459 128.227C172.01 128.57 174.316 130.065 176.265 132.247C179.237 135.575 180.062 139.094 178.635 142.239C179.45 146.499 178.608 152.847 174.768 157.566C172.742 160.057 169.123 162.94 163.172 163.101C161.242 167.287 156.879 170.583 151.201 172.066C145.726 173.494 140.265 172.927 136.679 170.658C132.746 173.912 126.058 175.083 119.937 173.423C114.192 171.863 110.213 168.199 108.824 163.257C103.461 162.179 99.0204 159.181 96.2218 154.719C92.8029 149.267 92.1874 142.073 94.46 134.369C93.2418 132.427 92.7145 130.205 92.652 127.974ZM175.367 139.027C175.26 135.19 169.401 131.575 169.33 131.534C169.257 131.491 169.187 131.443 169.12 131.39L136.73 105.868C136.694 105.839 136.66 105.81 136.625 105.78C136.621 105.776 135.241 104.572 133.148 104.065C130.464 103.416 127.804 104.188 125.243 106.357C124.447 107.031 123.263 106.965 122.546 106.206C120.759 104.316 116.641 103.873 112.968 105.178C111.111 105.838 106.749 107.937 106.353 113.181C106.278 114.178 105.468 114.958 104.471 114.997C102.223 115.083 99.7242 117.384 98.1057 120.859C96.3846 124.555 95.7365 129.689 98.1712 132.829C98.57 133.343 98.6887 134.022 98.4873 134.641C96.2427 141.572 96.619 147.96 99.5476 152.63C101.95 156.46 105.913 158.931 110.709 159.591C111.554 159.708 112.227 160.356 112.376 161.197C113.361 166.774 118.179 168.873 120.961 169.629C126.362 171.095 132.407 169.879 135.021 166.799C135.369 166.39 135.868 166.14 136.405 166.109C136.941 166.078 137.467 166.268 137.86 166.635C140.285 168.902 145.247 169.555 150.207 168.262C155.185 166.963 158.833 164.072 159.963 160.527C160.233 159.682 161.035 159.123 161.92 159.161C166.073 159.343 169.37 157.971 171.72 155.083C174.759 151.348 175.502 145.79 174.659 142.454C174.533 141.96 174.605 141.435 174.859 140.992C175.235 140.342 175.385 139.681 175.367 139.027Z" fill="#8E7665"/>
<path d="M91.9481 169.225C96.4173 168.158 99.2111 160.394 99.242 160.302C99.275 160.205 99.3138 160.111 99.3598 160.019L121.294 115.743C121.318 115.694 121.344 115.645 121.371 115.599C121.374 115.593 122.447 113.677 122.525 111.097C122.625 107.787 121.068 104.856 117.895 102.381C116.909 101.613 116.696 100.207 117.407 99.1798C119.183 96.6185 118.688 91.6768 116.257 87.6858C115.027 85.6679 111.495 81.0629 105.254 81.8845C104.068 82.0409 102.953 81.2817 102.662 80.1195C102.008 77.502 98.6982 75.1341 94.2284 74.0885C89.4742 72.9757 83.2997 73.4746 80.2195 77.1017C79.7156 77.6959 78.9495 78.0011 78.1745 77.9174C69.5029 76.9836 62.1108 78.9923 57.3602 83.5759C53.4641 87.3343 51.5424 92.593 51.9503 98.3833C52.0216 99.4043 51.4275 100.353 50.4793 100.734C44.1886 103.259 42.913 109.427 42.7131 112.88C42.3244 119.579 45.2367 126.375 49.488 128.686C50.0532 128.995 50.4687 129.519 50.6372 130.141C50.8057 130.762 50.712 131.426 50.3788 131.976C48.3197 135.379 48.7738 141.365 51.5105 146.868C54.2571 152.391 58.5414 155.964 62.972 156.422C64.0277 156.531 64.8812 157.334 65.0536 158.383C65.8618 163.303 68.2799 166.835 72.2415 168.884C77.3652 171.533 84.0604 171.042 87.7594 169.235C88.3076 168.967 88.9416 168.922 89.5228 169.112C90.3745 169.394 91.1864 169.407 91.9481 169.225Z" fill="#FEE9D2"/>
<path d="M73.4085 122.312C73.4085 122.312 78.603 108.185 71.2579 99.5758C71.8073 91.3833 58.4294 93.9658 58.5909 101.509C50.8625 103.95 47.5826 114.452 51.6097 120.414C49.3584 126.524 56.9005 134.663 62.0752 134.949C67.2501 135.236 75.9595 131.745 73.4085 122.312Z" fill="#FEF1E4"/>
<path d="M84.5494 69.4322C88.2279 68.5541 92.1587 68.7661 95.2995 69.5015C100.632 70.7511 104.738 73.5679 106.517 77.0812C112.03 77.0299 117.076 79.9831 120.275 85.2341C123.237 90.0954 123.96 95.8225 122.296 99.9581C126.58 104.003 127.368 108.394 127.219 111.497C127.058 114.89 125.782 117.359 125.481 117.898L103.64 161.99C103.373 162.722 102.19 165.794 100.112 168.618C96.9428 172.923 93.0254 174.755 88.9876 173.851C84.1988 175.852 76.5529 176.421 70.0803 173.073C66.6621 171.306 62.3948 167.765 60.7419 160.821C55.3633 159.584 50.4274 155.271 47.2948 148.97C44.2742 142.893 43.5966 136.346 45.37 131.581C40.5901 127.763 37.573 120.199 38.0137 112.607C38.4274 105.482 41.7431 99.9141 47.19 97.0695C47.1351 90.5101 49.5531 84.5629 54.0934 80.1833C59.6393 74.8341 67.918 72.3448 77.5027 73.1229C79.4779 71.2163 81.9511 70.0526 84.5494 69.4322ZM91.9481 169.225C96.4173 168.158 99.2111 160.394 99.242 160.302C99.275 160.205 99.3138 160.111 99.3598 160.019L121.294 115.743C121.318 115.694 121.344 115.645 121.371 115.599C121.374 115.593 122.447 113.677 122.525 111.097C122.625 107.787 121.068 104.856 117.895 102.381C116.909 101.613 116.696 100.207 117.407 99.1798C119.183 96.6185 118.688 91.6768 116.257 87.6858C115.027 85.6679 111.495 81.0629 105.254 81.8845C104.068 82.0409 102.953 81.2817 102.662 80.1195C102.008 77.502 98.6982 75.1341 94.2284 74.0885C89.4742 72.9757 83.2997 73.4746 80.2195 77.1017C79.7156 77.6959 78.9495 78.0012 78.1745 77.9175C69.5029 76.9836 62.1108 78.9923 57.3602 83.5759C53.4641 87.3343 51.5424 92.593 51.9503 98.3833C52.0216 99.4043 51.4275 100.353 50.4793 100.734C44.1886 103.259 42.913 109.427 42.7131 112.88C42.3244 119.579 45.2367 126.375 49.488 128.687C50.0532 128.995 50.4687 129.52 50.6372 130.141C50.8056 130.762 50.712 131.426 50.3788 131.976C48.3197 135.379 48.7738 141.365 51.5105 146.868C54.2571 152.391 58.5414 155.964 62.972 156.422C64.0277 156.531 64.8812 157.334 65.0536 158.383C65.8618 163.303 68.2799 166.835 72.2415 168.884C77.3652 171.533 84.0604 171.042 87.7594 169.235C88.3076 168.967 88.9416 168.922 89.5228 169.112C90.3745 169.394 91.1864 169.407 91.9481 169.225Z" fill="#8E7665"/>
<path d="M166.445 80.5792C167.488 84.2731 162.974 89.4715 162.919 89.5318C162.862 89.5951 162.81 89.6618 162.762 89.7319L139.46 123.754C139.435 123.792 139.411 123.83 139.386 123.869C139.383 123.873 138.426 125.435 136.579 126.542C134.211 127.963 131.442 128.02 128.35 126.713C127.39 126.307 126.279 126.724 125.821 127.662C124.679 129.999 120.882 131.65 116.986 131.501C115.017 131.425 110.227 130.723 108.285 125.836C107.916 124.907 106.91 124.404 105.946 124.664C103.775 125.252 100.704 123.802 98.1225 120.968C95.377 117.953 93.2268 113.246 94.6138 109.523C94.8412 108.914 94.7518 108.23 94.3749 107.699C90.1648 101.754 88.6185 95.5447 90.0206 90.2138C91.1708 85.8413 94.2164 82.3 98.5967 80.2392C99.3689 79.8757 99.8177 79.0551 99.709 78.2091C98.9853 72.5926 102.957 69.1515 105.387 67.6C110.105 64.5896 116.237 63.947 119.652 66.1065C120.106 66.3934 120.657 66.4826 121.178 66.3525C121.7 66.2224 122.144 65.8843 122.41 65.4166C124.048 62.5295 128.59 60.4251 133.709 60.18C138.848 59.9348 143.192 61.6056 145.329 64.652C145.838 65.3782 146.771 65.6726 147.604 65.372C151.514 63.9591 155.07 64.2856 158.174 66.341C162.189 68.9996 164.556 74.0828 164.747 77.5177C164.774 78.0268 165 78.5068 165.375 78.8536C165.927 79.363 166.267 79.9498 166.445 80.5792Z" fill="#FEE9D2"/>
<path d="M90.7946 115.804C91.6528 118.845 93.4068 121.626 95.2201 123.617C98.2998 126.998 102.022 128.846 105.303 128.714C107.51 132.757 111.713 135.235 116.839 135.431C121.583 135.612 126.045 133.809 128.379 130.911C133.068 132.39 136.583 131.177 138.782 129.805C141.186 128.307 142.463 126.372 142.733 125.932L165.937 92.052C166.361 91.5601 168.116 89.4455 169.325 86.781C171.169 82.7175 170.907 79.1134 168.606 76.5369C168.113 72.2282 165.416 66.4203 160.343 63.0617C157.666 61.288 153.351 59.6167 147.624 61.2376C144.533 57.8182 139.385 55.9739 133.523 56.2531C127.871 56.5234 122.829 58.6934 120.083 61.9283C115.358 59.9963 108.625 60.8739 103.278 64.2846C98.2605 67.4867 95.5557 72.1716 95.7035 77.3028C90.9069 79.9321 87.5629 84.1181 86.2228 89.2116C84.5861 95.4354 86.145 102.486 90.6123 109.161C90.0291 111.379 90.1886 113.657 90.7946 115.804ZM166.445 80.5792C167.488 84.2731 162.974 89.4715 162.919 89.5318C162.862 89.5951 162.81 89.6618 162.762 89.7319L139.46 123.754C139.435 123.792 139.41 123.83 139.386 123.869C139.383 123.873 138.426 125.435 136.579 126.542C134.211 127.963 131.442 128.02 128.35 126.713C127.39 126.307 126.279 126.724 125.821 127.662C124.679 129.999 120.882 131.65 116.986 131.501C115.017 131.425 110.227 130.723 108.285 125.836C107.916 124.907 106.91 124.404 105.946 124.664C103.775 125.252 100.704 123.802 98.1225 120.968C95.3769 117.953 93.2267 113.246 94.6137 109.523C94.8412 108.914 94.7518 108.23 94.3749 107.699C90.1648 101.754 88.6185 95.5447 90.0205 90.2138C91.1708 85.8412 94.2164 82.3 98.5966 80.2392C99.3688 79.8757 99.8176 79.0551 99.709 78.2091C98.9853 72.5926 102.957 69.1515 105.387 67.6C110.105 64.5896 116.237 63.947 119.651 66.1065C120.106 66.3934 120.657 66.4826 121.178 66.3525C121.7 66.2224 122.144 65.8843 122.41 65.4166C124.048 62.5295 128.59 60.4251 133.709 60.18C138.848 59.9348 143.192 61.6055 145.329 64.652C145.838 65.3782 146.771 65.6726 147.604 65.372C151.513 63.9591 155.07 64.2856 158.174 66.3409C162.189 68.9996 164.556 74.0828 164.747 77.5177C164.774 78.0268 165 78.5068 165.375 78.8536C165.927 79.363 166.267 79.9498 166.445 80.5792Z" fill="#8E7665"/>
<path d="M192.372 119.937C186.23 119.317 179.112 116.789 174.63 112.54C173.002 110.996 171.522 109.184 170.919 107.023C170.213 104.49 170.797 101.758 171.82 99.335C173.479 95.4047 184.507 81.8403 187.678 89.484C191.47 98.6217 193.079 110.222 192.372 119.937Z" fill="#ED8838"/>
<path d="M130.412 174.941C131.053 174.837 131.691 174.723 132.321 174.611L132.333 174.609L132.336 174.608C133.291 174.435 134.359 174.327 135.517 174.21C135.64 174.198 135.764 174.185 135.889 174.173C137.17 174.042 138.539 173.893 139.858 173.622C142.479 173.084 145.13 172.02 146.604 169.407C146.604 169.407 146.604 169.407 146.604 169.407L145.733 168.915C143.783 172.371 139.36 172.818 135.412 173.216C134.263 173.332 133.154 173.444 132.158 173.625L132.15 173.626C131.516 173.739 130.882 173.852 130.247 173.954M130.412 174.941C130.414 174.94 130.416 174.94 130.418 174.94L130.247 173.954M130.412 174.941C130.41 174.941 130.408 174.941 130.406 174.942L130.247 173.954M130.412 174.941C127.483 175.449 124.544 175.881 121.598 176.253M130.247 173.954C127.333 174.461 124.407 174.891 121.472 175.261M121.472 175.261L121.6 176.253C121.599 176.253 121.598 176.253 121.598 176.253M121.472 175.261C119.101 175.567 116.719 175.83 114.341 176.053L78.6426 176.615M121.472 175.261L121.597 176.253C121.597 176.253 121.597 176.253 121.598 176.253M121.598 176.253C119.215 176.561 116.823 176.824 114.435 177.049L114.435 177.049C110.821 177.388 107.196 177.65 103.563 177.828L103.563 177.829C100.494 177.977 97.4289 178.057 94.3625 178.083L94.3608 178.083C89.0958 178.117 83.8231 177.968 78.5751 177.613M78.5751 177.613L78.6426 176.615M78.5751 177.613C78.5755 177.613 78.576 177.613 78.5765 177.613L78.6426 176.615M78.5751 177.613C77.0789 177.513 75.2038 177.362 73.6827 176.324L73.6815 176.323C72.0997 175.24 71.2724 173.463 70.6456 172.023M78.6426 176.615C77.115 176.514 75.5113 176.361 74.2464 175.498C72.9308 174.597 72.198 173.084 71.5617 171.622M70.6456 172.023L71.5617 171.622M70.6456 172.023C70.6454 172.022 70.6451 172.022 70.6448 172.021L71.5617 171.622M70.6456 172.023C63.5289 155.764 60.7592 138.01 58.4934 120.567C56.7585 107.226 55.2565 93.6537 56.3955 80.1274L56.3956 80.1261C56.5178 78.6959 56.6995 76.928 57.6773 75.4765L57.6787 75.4744C59.1312 73.33 61.797 72.6087 63.8093 72.0902L64.0588 73.0586L63.8094 72.0902C65.5779 71.6346 67.345 71.1795 69.1118 70.7245C71.1765 70.1927 73.2408 69.6611 75.3066 69.1288M71.5617 171.622C64.508 155.507 61.7509 137.881 59.485 120.438C57.7501 107.098 56.2629 93.62 57.3919 80.2113M75.3066 69.1288C75.3063 69.1289 75.3061 69.1289 75.3058 69.129L75.5571 70.0969L75.3076 69.1285C75.3073 69.1286 75.3069 69.1287 75.3066 69.1288Z" fill="#F9A84C" stroke="#ED8838" stroke-width="2"/>
<path d="M131.849 173.401C136.265 172.599 142.908 173.154 145.425 168.692C148.229 163.727 148.044 158.308 151.907 153.884C153.613 151.932 155.628 150.25 157.843 148.783C168.15 141.963 180.013 140.907 191.426 137.171C192.224 136.915 193.095 136.548 193.422 135.771C193.596 135.371 193.588 134.919 193.578 134.485C193.51 131.647 193.543 129.103 193.585 126.539C190.2 130.22 186.495 133.43 181.762 135.392C176.183 137.704 170.101 138.503 164.409 140.492C158.674 142.498 153.701 145.744 149.942 150.572C146.688 154.751 144.432 159.939 139.913 162.984C134.963 166.321 129.247 165.837 123.611 165.605C124.545 168.513 125.521 171.406 126.552 174.285C127.683 174.11 128.813 173.93 129.942 173.733C130.578 173.628 131.214 173.514 131.849 173.401Z" fill="#F39B40"/>
<path d="M121.431 175.877C121.27 175.772 121.18 175.587 121.1 175.412C120.835 174.833 120.582 174.252 120.318 173.673C119.883 172.718 119.52 171.721 119.136 170.744C118.367 168.785 117.635 166.813 116.937 164.83C115.538 160.859 114.276 156.843 113.125 152.795C110.814 144.666 108.956 136.414 107.344 128.121C105.726 119.801 104.358 111.436 103.034 103.066C102.783 101.478 102.534 99.8909 102.284 98.3037C101.884 95.764 101.484 93.223 101.102 90.6805C100.455 86.3709 99.8592 82.0536 99.3994 77.7195C99.1701 75.5558 98.9742 73.3883 98.8242 71.2178C98.6827 69.1648 98.4756 67.1379 98.4496 65.074C98.4462 64.8465 98.4491 64.606 98.5649 64.4089C98.6623 64.243 98.8293 64.1311 98.9991 64.0378C99.7724 63.6189 100.717 63.619 101.563 63.4212C102.166 63.2806 102.774 63.1554 103.373 63.0005C104.63 62.8087 105.871 62.3022 107.1 61.9824C107.373 61.9111 107.68 61.8453 107.919 61.9909C108.176 62.1473 108.25 62.4841 108.242 62.7847C108.21 64.3126 108.405 65.8746 108.395 67.4232C108.387 68.9043 108.379 70.3867 108.472 71.8657C108.795 76.9113 109.23 81.9466 109.758 86.9771C110.795 96.8857 112.206 106.754 113.928 116.57C115.93 127.966 118.299 139.318 121.404 150.473C123.657 158.57 126.793 166.308 129.9 174.085C129.935 174.171 129.963 174.254 129.96 174.349C129.952 174.551 129.825 174.744 129.642 174.833C129.521 174.89 129.386 174.904 129.253 174.916C127.813 175.054 126.38 175.248 124.95 175.46C123.977 175.604 123.008 175.856 122.032 175.958C121.835 175.979 121.622 175.989 121.45 175.889L121.431 175.877Z" fill="#FFC678"/>
<path d="M103.051 177.403C102.957 177.572 102.75 177.641 102.563 177.694C101.378 178.034 100.051 177.947 98.8141 177.983C97.538 178.02 96.1396 178.141 94.8748 177.939C94.6934 177.93 94.504 177.913 94.3502 177.817C94.0213 177.609 94.0378 177.208 93.9136 176.886C90.9077 169.101 88.5726 161.057 86.6412 152.933C84.6702 144.638 83.1238 136.25 81.7911 127.831C80.4627 119.441 79.3438 111.021 78.2342 102.599C77.922 100.232 77.6098 97.8656 77.3121 95.4953C76.7707 91.1887 76.2772 86.8748 75.9139 82.5477C75.7328 80.3874 75.5854 78.2247 75.4813 76.0595C75.4067 74.5165 75.3555 72.9754 75.2742 71.4335C75.2607 71.1754 75.2485 70.9077 75.3513 70.6696C75.4686 70.3928 75.7287 70.1941 76.01 70.081C77.3792 69.5283 78.8763 69.3847 80.3076 69.0152C81.2219 68.7786 82.078 68.3487 82.995 68.1116C83.6706 67.9371 84.8591 67.273 85.2233 68.3013C85.2998 68.5161 85.2934 68.7516 85.2872 68.979C85.2177 71.4175 84.9947 73.905 85.0884 76.3415C85.284 81.3924 85.5917 86.4371 85.9924 91.4742C86.7816 101.397 87.9563 111.29 89.4319 121.136C91.1513 132.579 93.2354 143.973 96.0598 155.196C97.0163 158.997 98.1945 162.74 99.4589 166.449C100.098 168.321 100.757 170.186 101.423 172.049C101.995 173.648 102.726 175.249 103.07 176.914C103.103 177.078 103.131 177.257 103.051 177.403Z" fill="#FFC678"/>
<path d="M104.947 125.939L104.956 125.975C105.289 127.515 105.989 128.419 107.637 128.237C110.728 127.765 114.502 127.236 117.014 126.743C117.477 126.652 117.995 126.488 118.2 126.063C118.348 125.757 118.288 125.398 118.224 125.065C117.194 119.695 116.458 114.269 115.4 108.911C115.261 108.202 115.168 106.931 114.369 106.628C113.947 106.467 113.477 106.532 113.031 106.602C109.984 107.078 106.392 107.351 103.53 108.526C103.2 108.663 102.868 108.84 102.662 109.134C102.364 109.56 102.393 110.126 102.446 110.643C102.765 113.712 103.237 116.763 103.783 119.8C104.151 121.844 104.508 123.905 104.947 125.939Z" fill="#ED8838"/>
<path d="M129.224 128.897L129.238 128.98C129.836 132.423 130.575 134.561 131.804 134.526C134.081 134.179 136.87 133.856 138.695 133.335C139.032 133.239 139.393 132.995 139.458 132.109C139.505 131.474 139.378 130.672 139.255 129.929C137.271 117.943 135.5 105.898 133.497 93.9309C133.232 92.3471 132.878 89.5459 132.196 88.7041C131.835 88.2597 131.488 88.2977 131.161 88.3517C128.919 88.7185 126.213 88.5173 124.269 90.4574C124.044 90.6814 123.828 90.997 123.735 91.594C123.599 92.4595 123.748 93.7075 123.903 94.8521C124.829 101.642 125.87 108.427 126.963 115.194C127.702 119.757 128.434 124.35 129.224 128.897Z" fill="#FFC678"/>
<path d="M106.361 123.649L105.823 123.767L105.828 123.794L105.828 123.792C105.963 124.406 106.175 124.965 106.61 125.378C106.827 125.582 107.098 125.736 107.401 125.818C107.704 125.901 108.034 125.918 108.388 125.877L108.411 125.874C109.442 125.717 110.581 125.549 111.69 125.38C113.006 125.179 114.279 124.976 115.29 124.777C115.483 124.738 115.706 124.685 115.934 124.574C116.159 124.463 116.404 124.278 116.549 123.981C116.631 123.813 116.662 123.643 116.669 123.493C116.676 123.343 116.661 123.209 116.645 123.091C116.634 123.023 116.622 122.961 116.612 122.904C115.863 118.997 115.324 115.027 114.546 111.088C114.5 110.862 114.457 110.474 114.334 110.082C114.271 109.884 114.187 109.68 114.05 109.486C113.914 109.294 113.711 109.11 113.447 109.009C113.219 108.923 112.996 108.899 112.796 108.9C112.594 108.901 112.411 108.926 112.25 108.951L112.166 108.965L112.273 109.507L112.19 108.962C112.146 108.969 112.101 108.976 112.057 108.983C111.17 109.118 110.207 109.234 109.233 109.382C107.827 109.598 106.398 109.878 105.115 110.404L105.117 110.404C104.841 110.52 104.496 110.683 104.239 111.041C104.058 111.301 103.988 111.586 103.966 111.836C103.944 112.09 103.965 112.32 103.985 112.52C104.117 113.787 104.283 115.049 104.475 116.306C104.626 117.292 104.792 118.275 104.968 119.257C105.237 120.753 105.5 122.266 105.824 123.767L105.824 123.768L106.361 123.649L106.901 123.533C106.584 122.061 106.322 120.56 106.053 119.06C105.879 118.086 105.714 117.114 105.565 116.139C105.376 114.897 105.212 113.653 105.081 112.406C105.062 112.227 105.052 112.062 105.064 111.935C105.076 111.806 105.105 111.728 105.142 111.676C105.186 111.607 105.325 111.509 105.534 111.426L105.536 111.426C106.676 110.956 108.028 110.683 109.399 110.475C110.351 110.33 111.311 110.214 112.224 110.075C112.269 110.068 112.313 110.061 112.357 110.055L112.381 110.051L112.417 110.046C112.562 110.023 112.695 110.007 112.802 110.007C112.912 110.007 112.993 110.02 113.055 110.045C113.083 110.057 113.108 110.071 113.153 110.131C113.218 110.218 113.29 110.406 113.338 110.624C113.39 110.843 113.421 111.084 113.464 111.305C114.234 115.202 114.772 119.169 115.527 123.116C115.538 123.167 115.547 123.216 115.554 123.26C115.565 123.336 115.569 123.399 115.567 123.439L115.556 123.5C115.55 123.512 115.531 123.542 115.444 123.587C115.36 123.63 115.225 123.668 115.078 123.698C114.097 123.89 112.832 124.092 111.522 124.292C110.418 124.461 109.28 124.628 108.243 124.786L108.326 125.331L108.266 124.782C108.018 124.811 107.831 124.793 107.692 124.755C107.485 124.694 107.362 124.602 107.23 124.418C107.101 124.233 106.987 123.943 106.905 123.561L106.905 123.56L106.9 123.533L106.9 123.534L106.361 123.649Z" fill="#F5A349"/>
<path d="M129.411 134.181L129.417 134.211C129.694 135.49 130.276 136.242 131.644 136.089C134.212 135.697 137.347 135.257 139.433 134.848C139.819 134.773 140.248 134.637 140.419 134.284C140.542 134.031 140.491 133.731 140.438 133.456C139.583 128.995 138.971 124.487 138.094 120.036C137.978 119.447 137.901 118.393 137.237 118.14C136.887 118.007 136.497 118.061 136.127 118.119C133.595 118.515 130.612 118.741 128.234 119.717C127.96 119.83 127.684 119.977 127.514 120.221C127.266 120.574 127.291 121.045 127.334 121.476C127.599 124.024 127.99 126.559 128.445 129.08C128.749 130.781 129.047 132.493 129.411 134.181Z" fill="#ED8838"/>
<path d="M130.586 132.28L130.139 132.38L130.143 132.402L130.143 132.4C130.255 132.909 130.431 133.373 130.793 133.716C130.972 133.885 131.198 134.013 131.45 134.081C131.702 134.15 131.975 134.163 132.27 134.13L132.289 134.128C133.151 133.996 134.102 133.856 135.028 133.715C136.115 133.549 137.167 133.38 138.003 133.217L138.005 133.217C138.165 133.184 138.35 133.14 138.539 133.048C138.726 132.957 138.93 132.803 139.05 132.555C139.184 132.27 139.156 132.007 139.13 131.817C139.121 131.761 139.112 131.709 139.102 131.661C138.48 128.416 138.033 125.119 137.387 121.846C137.349 121.66 137.314 121.338 137.211 121.011C137.158 120.847 137.089 120.677 136.974 120.516C136.861 120.356 136.693 120.203 136.473 120.12L136.475 120.12C136.089 119.977 135.74 120.034 135.473 120.072L135.41 120.083L135.499 120.534L135.43 120.08L135.318 120.097C134.581 120.21 133.783 120.306 132.975 120.429C131.807 120.607 130.619 120.84 129.553 121.279C129.325 121.375 129.039 121.51 128.825 121.809C128.674 122.024 128.616 122.261 128.599 122.469C128.58 122.679 128.597 122.87 128.614 123.037C128.723 124.09 128.863 125.137 129.022 126.182C129.147 127.001 129.286 127.818 129.432 128.632C129.655 129.874 129.873 131.131 130.142 132.378L130.143 132.381L130.586 132.28L131.033 132.183C130.769 130.961 130.553 129.714 130.329 128.469C130.183 127.662 130.046 126.853 129.923 126.043C129.765 125.011 129.628 123.978 129.522 122.942C129.506 122.794 129.497 122.656 129.507 122.551C129.517 122.444 129.541 122.379 129.571 122.335C129.607 122.278 129.723 122.196 129.898 122.127C130.846 121.735 131.97 121.509 133.111 121.336C133.9 121.216 134.697 121.12 135.453 121.005L135.565 120.987L135.585 120.984L135.588 120.984L135.608 120.981C135.855 120.94 136.044 120.936 136.144 120.98C136.167 120.988 136.187 121.002 136.224 121.051C136.279 121.123 136.339 121.279 136.379 121.46C136.422 121.642 136.448 121.841 136.485 122.025C137.123 125.262 137.57 128.558 138.199 131.836C138.207 131.879 138.214 131.92 138.22 131.957C138.242 132.089 138.227 132.154 138.222 132.156C138.217 132.166 138.201 132.191 138.129 132.228C138.06 132.263 137.946 132.295 137.825 132.319L137.827 132.319C137.015 132.477 135.971 132.644 134.888 132.81C133.966 132.95 133.015 133.09 132.149 133.222L132.218 133.676L132.168 133.219C131.961 133.243 131.806 133.228 131.691 133.197C131.52 133.146 131.417 133.069 131.307 132.915C131.201 132.762 131.105 132.52 131.038 132.204L131.037 132.202L131.033 132.179L131.033 132.182L130.586 132.28Z" fill="#F5A349"/>
<path d="M79.7681 129.782L79.7764 129.819C80.1096 131.358 80.8094 132.263 82.4575 132.081C85.5489 131.609 89.3229 131.079 91.8344 130.587C92.2977 130.495 92.8141 130.332 93.0204 129.906C93.1689 129.601 93.1086 129.241 93.0441 128.909C92.0157 123.538 91.2788 118.112 90.221 112.754C90.0814 112.045 89.9884 110.775 89.1894 110.471C88.768 110.31 88.2979 110.375 87.852 110.446C84.8048 110.922 81.2125 111.194 78.3511 112.37C78.0201 112.506 77.6886 112.684 77.4825 112.977C77.1849 113.403 77.2127 113.97 77.2671 114.487C77.5855 117.556 78.058 120.606 78.6033 123.643C78.9713 125.687 79.3295 127.748 79.7681 129.782Z" fill="#ED8838"/>
<path d="M81.1832 127.493L80.6435 127.611L80.6489 127.637L80.6487 127.636C80.7833 128.25 80.9954 128.808 81.4306 129.221C81.6473 129.425 81.9189 129.579 82.2219 129.661C82.5251 129.745 82.8548 129.761 83.2087 129.721L83.2313 129.717C84.2627 129.56 85.4017 129.393 86.5103 129.224C87.8269 129.023 89.0993 128.819 90.1109 128.621C90.304 128.582 90.5263 128.529 90.7548 128.417C90.9792 128.307 91.2251 128.122 91.369 127.823C91.4497 127.655 91.4824 127.485 91.4895 127.335C91.4966 127.185 91.4816 127.051 91.4652 126.935C91.4548 126.867 91.4426 126.804 91.4325 126.747C90.6835 122.841 90.1443 118.871 89.3672 114.931C89.3206 114.707 89.2777 114.319 89.1549 113.925C89.092 113.727 89.0077 113.523 88.8704 113.33C88.7347 113.138 88.532 112.953 88.2672 112.853C88.0399 112.766 87.8168 112.743 87.6164 112.743C87.4147 112.744 87.2318 112.769 87.0705 112.794L86.9868 112.808L87.094 113.35L87.011 112.806C86.967 112.812 86.9217 112.819 86.8777 112.826C85.9903 112.962 85.0275 113.077 84.0534 113.226C82.6478 113.442 81.2192 113.721 79.9359 114.247L79.9373 114.247C79.6618 114.363 79.3171 114.526 79.0596 114.885C78.8784 115.144 78.8087 115.429 78.7856 115.68C78.7629 115.933 78.7844 116.163 78.804 116.364C78.936 117.631 79.1027 118.892 79.2947 120.15C79.4452 121.136 79.6116 122.119 79.7874 123.101C80.0566 124.596 80.3189 126.11 80.6435 127.611L80.6437 127.612L81.1832 127.493L81.7231 127.376C81.4057 125.904 81.1438 124.403 80.8754 122.903C80.7008 121.929 80.536 120.957 80.3872 119.982C80.1976 118.74 80.0336 117.496 79.9033 116.249C79.8842 116.071 79.874 115.906 79.886 115.778C79.8977 115.649 79.9267 115.571 79.9637 115.519C80.0077 115.45 80.1468 115.352 80.3565 115.27L80.3578 115.269C81.4982 114.799 82.8501 114.526 84.2215 114.318C85.1729 114.173 86.133 114.058 87.0458 113.918C87.0911 113.911 87.1351 113.905 87.179 113.898L87.203 113.894L87.239 113.889C87.3842 113.867 87.5154 113.851 87.6245 113.85C87.7335 113.85 87.8147 113.864 87.8784 113.888C87.9062 113.9 87.9315 113.914 87.9748 113.974C88.0399 114.061 88.1122 114.25 88.1605 114.467C88.2116 114.686 88.2429 114.927 88.2862 115.148C89.0556 119.045 89.5943 123.012 90.3496 126.96C90.3602 127.012 90.3691 127.061 90.376 127.106C90.3876 127.182 90.3917 127.245 90.3896 127.284L90.3785 127.346C90.3724 127.359 90.3536 127.388 90.2663 127.433C90.1829 127.476 90.0469 127.514 89.9014 127.543C88.9203 127.735 87.6558 127.938 86.3459 128.138C85.2413 128.306 84.1036 128.473 83.0669 128.631L83.1502 129.177L83.0896 128.628C82.8416 128.656 82.6548 128.638 82.5155 128.601C82.3084 128.54 82.1853 128.448 82.0535 128.263C81.9244 128.078 81.8106 127.789 81.7291 127.407L81.7289 127.405L81.7235 127.379L81.7237 127.38L81.1832 127.493Z" fill="#F5A349"/>
<path d="M231.413 50.7559C234.046 45.6396 233.987 34.4074 229.203 31.81C224.42 29.2127 215.314 30.7207 211.928 37.866C208.542 45.0113 220.251 57.9276 220.251 57.9276L230.398 57.4184L231.413 50.7559Z" fill="#F5A56E"/>
<g opacity="0.5">
<path d="M232.945 41.8277C232.945 41.8277 229.097 50.2232 225.023 51.6642C220.95 53.1052 216.148 50.9064 216.148 50.9064L218.969 57.3785L230.398 57.4184L232.945 41.8277Z" fill="#D48B63"/>
</g>
<path d="M232.567 37.6871C232.567 37.6871 227.462 31.8704 220.592 35.4395C213.722 39.0086 213.235 49.7222 216.708 54.6015C208.106 39.1006 213.509 33.465 218.525 31.9632C223.542 30.4615 232.12 31.4123 232.567 37.6871Z" fill="#FCDDC8"/>
<path d="M218.697 59.8438C218.667 59.8149 218.637 59.7861 218.608 59.7543C204.489 44.7704 209.779 36.2473 212.71 33.2785C217.607 28.3181 227.203 27.1318 231.38 30.9724C231.41 31.0012 231.443 31.0305 231.472 31.058C238.498 37.6514 234.203 49.1133 234.017 49.5989C233.617 50.6366 232.452 51.1554 231.413 50.7546C230.376 50.3555 229.857 49.1911 230.254 48.153C230.293 48.0509 233.755 38.7252 228.713 33.9915C228.694 33.9736 228.675 33.9556 228.654 33.9364C226.497 31.9517 219.49 32.1458 215.577 36.11C211.052 40.6934 213.169 48.1089 221.538 56.9897C222.302 57.7997 222.264 59.0747 221.455 59.8384C220.678 60.5757 219.467 60.568 218.697 59.8438Z" fill="#8E7665"/>
<path d="M227.933 58.051C227.933 58.051 201.818 51.8856 174.746 61.4141C147.675 70.9426 129.009 100.115 151.55 130.488C174.091 160.861 211.179 143.102 225.024 128.707C238.869 114.31 245.215 103.135 245.215 103.135C245.215 103.135 238.207 93.9306 240.827 85.8369C226.389 82.3024 223.656 73.6607 229.438 65.553C227.386 60.7711 227.933 58.051 227.933 58.051Z" fill="#F5A56E"/>
<g opacity="0.5">
<path d="M226.637 74.0432C226.637 74.0432 223.477 78.3912 233.743 88.0654C238.329 101.092 222.521 118.422 213.751 120.327C204.982 122.233 191.915 93.7569 191.915 93.7569C191.915 93.7569 176.503 115.161 203.744 130.469C205.568 131.494 205.362 134.182 203.4 134.902C185.225 141.57 167.965 143.044 151.55 130.488C179.636 156.304 199.688 145.931 214.063 137.565C228.438 129.199 246.425 105.265 246.425 105.265C246.425 105.265 238.058 94.8248 240.827 85.8369C234.319 83.3564 226.637 74.0432 226.637 74.0432Z" fill="#D48B63"/>
</g>
<path d="M230.454 90.39C223.692 80.8308 210.419 78.5492 200.869 85.3056C191.319 92.0619 189.05 105.337 195.812 114.897C202.575 124.456 215.846 126.738 225.397 119.981C234.948 113.224 237.216 99.9513 230.454 90.39Z" fill="white"/>
<path d="M227.616 62.0832C227.616 62.0832 196.565 55.9195 166.131 72.9371C135.697 89.9547 150.882 127.154 150.882 127.154C150.882 127.154 124.646 96.8357 160.174 68.9981C190.122 47.812 227.934 58.0509 227.934 58.0509L227.616 62.0832Z" fill="#FCDDC8"/>
<path d="M212.381 79.2773C217.436 75.8486 221.174 64.9311 212.529 55.792C203.883 46.653 192.709 51.3549 187.258 58.6972C181.808 66.0395 187.251 77.0075 187.251 77.0075L196.96 84.9587L212.381 79.2773Z" fill="white"/>
<path d="M242.894 84.6915C242.897 84.6953 242.899 84.6991 242.901 84.7016C243.24 85.1877 243.349 85.7973 243.197 86.3703C241.891 91.3131 242.43 95.6585 244.754 98.9448C244.771 98.9678 244.787 98.9916 244.804 99.0146C246.877 101.9 250.256 103.765 253.844 104.005C256.875 104.207 259.137 101.871 260.24 99.6167C261.617 96.8087 262.019 92.5986 259.017 89.2044C258.656 88.7999 258.476 88.2618 258.517 87.721C258.557 87.1791 258.813 86.6758 259.229 86.3273C263.597 82.6526 263.699 76.5275 261.864 72.0876C260.21 68.0917 256.372 63.9937 250.552 64.4832C249.487 64.5729 248.537 63.8128 248.387 62.7536C247.475 56.2729 242.847 52.7826 238.819 51.6794C235.39 50.7401 232.183 51.3756 230.648 53.2989C228.922 55.4644 229.323 59.1867 231.779 63.7819C232.149 64.4741 232.084 65.3176 231.612 65.9431C229.321 68.9905 228.86 71.9464 230.201 74.9812C232.444 80.0523 239.106 83.6296 241.437 83.8477C242.024 83.9038 242.555 84.2129 242.894 84.6915Z" fill="#FEE9D2"/>
<path d="M259.496 89.7913C259.496 89.7913 260.432 101.007 254.271 101.757C248.111 102.506 243.204 97.4106 244.471 89.9939C245.138 84.5162 243.367 83.8294 242.566 83.5162C241.764 83.2031 238.994 83.4703 236.107 81.7044C241.077 85.7682 241.117 90.6838 241.324 94.8065C241.531 98.9292 247.613 107.435 255.082 106.428C262.55 105.42 264.911 93.6026 259.496 89.7913Z" fill="#F0D3B6"/>
<path d="M260.32 86.1121C260.32 86.1121 264.656 76.1497 257.387 68.5939C253.265 64.5969 251.365 67.031 249.015 66.0493C246.664 65.0676 246.873 63.2287 246.072 60.7984C245.27 58.368 243.508 54.7296 238.373 52.9969C233.238 51.2654 228.778 54.6661 231.994 61.8029C233.389 64.8702 233.218 65.7753 232.216 67.096C231.214 68.4168 227.204 73.1041 234.996 80.66C228.511 78.4376 227.191 69.9983 229.076 64.1481C227.218 56.543 228.593 51.3217 232.589 50.074C236.584 48.8262 247.487 50.3481 250.849 62.0705C263.309 66.5128 268.066 78.0939 260.32 86.1121Z" fill="#FEF2EA"/>
<path d="M216.349 58.7952C222.306 59.4548 226.358 60.4694 227.241 60.703C227.281 60.7218 227.331 60.7461 227.385 60.772C226.959 58.7947 227.042 56.7568 228.032 55.199C226.199 54.7422 218.246 53.5769 212.054 52.9855C212.121 53.3326 216.213 57.2539 216.349 58.7952Z" fill="#8E7665"/>
<path d="M247.81 105.669C247.343 105.572 246.88 105.446 246.425 105.265C245.144 104.755 244 103.843 243.125 102.729C235.351 116.062 219.573 132.327 203.3 140.013C192.214 145.249 182.102 146.207 173.245 142.856C158.357 137.224 147.137 124.101 144.659 109.424C142.426 96.1999 147.642 83.5423 159.345 73.7839C168.085 66.4944 177.778 62.4904 186.756 60.3753C187.372 58.0427 188.237 55.9501 189.675 54.113C176.748 56.4634 165.216 61.6854 155.801 69.5361C142.527 80.606 136.634 95.0981 139.207 110.34C140.358 117.156 143.164 123.669 147.229 129.416C153.052 137.649 161.462 144.309 171.293 148.027C181.607 151.929 193.17 150.914 205.662 145.014C223.037 136.807 239.452 119.951 247.81 105.669Z" fill="#8E7665"/>
<path d="M192.525 117.224C184.479 105.849 187.178 90.0546 198.542 82.0155C209.906 73.9763 225.697 76.6904 233.743 88.0654C241.789 99.4404 239.09 115.234 227.726 123.274C216.361 131.312 200.571 128.599 192.525 117.224ZM230.454 90.39C223.692 80.8307 210.419 78.5492 200.869 85.3056C191.319 92.0619 189.05 105.337 195.812 114.897C202.575 124.456 215.846 126.738 225.397 119.981C234.948 113.224 237.216 99.9513 230.454 90.39Z" fill="#8E7665"/>
<path d="M194.964 80.3759C196.048 81.58 197.071 82.8841 198.113 84.1417C198.915 83.2008 199.917 82.4353 201.048 81.8086C198.948 81.7877 196.866 81.2964 194.964 80.3759Z" fill="#8E7665"/>
<path d="M216.05 57.0812C210.239 48.8671 198.838 46.9077 190.631 52.7123C183.233 57.9457 180.925 67.7286 184.797 75.6235C186.819 75.3994 188.538 75.7401 190.056 76.4471C189.891 76.2394 189.73 76.03 189.576 75.8101C185.05 69.411 186.568 60.5259 192.96 56.0028C199.352 51.4797 208.236 53.0079 212.764 59.4062C217.291 65.8045 215.771 74.6904 209.379 79.2135C209.353 79.2323 209.327 79.2478 209.301 79.2654C210.81 79.0044 212.268 78.8082 213.556 78.6151C214.222 78.5151 214.872 78.6611 215.446 78.9648C220.353 72.7803 220.839 63.8491 216.05 57.0812Z" fill="#8E7665"/>
<path d="M198.105 83.1599C193.107 75.1632 185.31 73.1008 184.952 73.0099C183.793 72.7157 182.62 73.4165 182.322 74.5746C182.158 75.2157 182.299 75.8655 182.654 76.3679C182.94 76.7717 183.366 77.0826 183.881 77.2169C184.175 77.2929 190.714 79.0783 194.736 85.9695C195.78 84.9624 196.998 84.0793 198.105 83.1599Z" fill="#8E7665"/>
<path d="M241.467 101.272C239.524 98.5235 237.629 93.9719 238.853 87.3389C234.899 85.9906 228.984 82.1862 226.517 76.6084C225.26 73.7664 224.508 69.4437 227.659 64.5667C224.011 57.0242 225.952 52.7179 227.496 50.7833C230.035 47.5995 234.895 46.4252 239.878 47.7918C244.761 49.1308 250.318 53.1344 252.042 60.4238C257.954 60.6461 263.041 64.3974 265.584 70.5502C267.777 75.856 267.768 83.0758 263.207 88.0824C265.721 91.9696 266.01 97.0021 263.856 101.394C261.713 105.765 257.774 108.306 253.577 108.027C248.802 107.709 244.298 105.219 241.531 101.365C241.511 101.335 241.489 101.304 241.467 101.272ZM242.894 84.6915C242.897 84.6953 242.899 84.699 242.901 84.7016C243.24 85.1877 243.348 85.7973 243.197 86.3703C241.891 91.3131 242.43 95.6585 244.754 98.9448C244.771 98.9678 244.787 98.9916 244.804 99.0146C246.877 101.9 250.256 103.765 253.844 104.005C256.875 104.207 259.137 101.87 260.24 99.6167C261.617 96.8086 262.019 92.5986 259.017 89.2044C258.656 88.7998 258.476 88.2618 258.517 87.721C258.557 87.179 258.813 86.6758 259.229 86.3272C263.597 82.6526 263.699 76.5275 261.863 72.0876C260.21 68.0916 256.372 63.9937 250.552 64.4831C249.487 64.5729 248.537 63.8128 248.387 62.7536C247.475 56.2728 242.847 52.7826 238.819 51.6793C235.389 50.7401 232.182 51.3756 230.648 53.2988C228.922 55.4644 229.323 59.1867 231.779 63.7818C232.149 64.4741 232.084 65.3176 231.612 65.9431C229.321 68.9905 228.86 71.9464 230.201 74.9811C232.444 80.0523 239.106 83.6295 241.437 83.8477C242.023 83.9038 242.554 84.2129 242.894 84.6915Z" fill="#8E7665"/>
<path d="M245.714 105.097C253.06 104.203 273.791 114.342 269.933 124.869C266.073 135.395 255.159 130.135 242.795 114.712C241.831 108.259 245.714 105.097 245.714 105.097Z" fill="#F5A56E"/>
<path d="M268.978 125.877C268.978 125.877 268.212 116.05 258.101 112.417C247.989 108.784 244.774 108.513 244.774 108.513L245.711 105.097C245.711 105.097 259.747 106.013 266.001 112.608C272.255 119.203 268.978 125.877 268.978 125.877Z" fill="#FCDDC8"/>
<path d="M247.297 123.263C245.067 121.153 242.663 118.578 240.077 115.448C239.368 114.589 239.488 113.32 240.345 112.612C241.204 111.904 242.478 112.028 243.181 112.884C254.666 126.783 263.396 130.077 266.958 127.177C269.277 125.289 269.589 120.358 266.33 116.3C258.71 106.811 244.416 107.268 244.272 107.273C243.16 107.317 242.222 106.451 242.176 105.341C242.13 104.229 242.995 103.29 244.106 103.246C244.776 103.22 260.583 102.718 269.47 113.778C273.827 119.201 273.841 126.769 269.503 130.301C267.449 131.976 260.405 135.666 247.297 123.263Z" fill="#8E7665"/>
<path d="M256.699 78.8032C256.951 73.7231 255.903 69.9196 251.857 68.9748C247.812 68.0301 245.375 67.0756 244.538 64.0012C243.702 60.9269 242.006 57.3333 240.061 56.8749C238.117 56.4164 234.347 59.6483 238.413 64.9504C240.166 66.8826 237.282 70.9682 241.696 75.318C246.111 79.6669 249.207 77.1254 250.093 79.2488C250.979 81.3701 256.52 82.4327 256.699 78.8032Z" fill="#FEF1E4"/>
<path d="M207.266 104.048C209.813 107.86 214.964 108.887 218.773 106.343C222.581 103.798 223.603 98.6453 221.056 94.8335C218.509 91.0217 213.358 89.9944 209.549 92.5389C205.741 95.0834 204.719 100.236 207.266 104.048Z" fill="#8E7665"/>
<path d="M195.358 72.093C197.507 75.3091 201.854 76.1758 205.067 74.029C208.28 71.8822 209.143 67.5347 206.994 64.3186C204.845 61.1025 200.498 60.2357 197.285 62.3826C194.072 64.5294 193.209 68.8769 195.358 72.093Z" fill="#8E7665"/>
<path d="M164.422 154.667C164.455 150.586 157.685 137.385 149.736 139.645C141.787 141.904 146.837 152.742 149.418 156.574C152 160.405 154.58 161.243 154.58 161.243C154.58 161.243 164.364 161.739 164.422 154.667Z" fill="#DD9E73"/>
<path d="M162.216 155.356C162.216 155.356 155.555 139.986 146.69 142.325C149.63 139.152 152.487 133.356 157.412 139.088C162.335 144.821 162.216 155.356 162.216 155.356Z" fill="#F2BF9C"/>
<path d="M146.323 134.762C150.798 132.796 154.455 133.594 156.796 134.668C165.765 138.783 169.366 153.114 169.747 154.734C170.24 156.831 168.934 158.931 166.851 159.418C164.76 159.911 162.665 158.613 162.171 156.52C161.054 151.821 157.726 143.658 153.55 141.747C152.669 141.344 151.229 140.945 148.895 142.164C146.485 143.42 146.362 144.61 146.314 145.059C145.931 148.713 151.491 155.157 155.37 158.361C157.027 159.731 157.262 162.186 155.895 163.845C154.526 165.504 152.074 165.739 150.415 164.369C149.101 163.284 137.601 153.494 138.571 144.242C138.849 141.597 140.242 137.89 145.296 135.254C145.642 135.075 145.985 134.91 146.323 134.762Z" fill="#8E7665"/>
<path d="M138.073 31.7962C139.445 29.2281 135.529 24.1396 133.113 24.6296C130.698 25.1197 131.536 31.3839 133.46 32.6475C135.385 33.9127 137.24 33.3546 138.073 31.7962Z" fill="#8E7665"/>
<path d="M145.96 29.8843C148.462 28.3945 147.739 22.0149 145.417 21.1857C143.096 20.3574 140.577 26.1539 141.571 28.2298C142.566 30.3077 144.443 30.7885 145.96 29.8843Z" fill="#8E7665"/>
</svg>
