<svg width="54" height="54" viewBox="0 0 54 54" fill="none" xmlns="http://www.w3.org/2000/svg">
<path d="M38.2651 41.7764C38.3341 40.2692 37.8388 38.8275 37.3113 37.4372C36.5319 35.3836 35.308 32.4623 37.1377 30.587C39.0626 28.6136 42.2989 29.1661 44.7581 28.7184C45.8805 28.5135 47.2433 28.1124 47.5074 26.8312C47.7604 25.5981 47.4065 24.5145 45.8854 23.9845C43.5702 23.1765 33.4871 24.7445 35.1922 18.264C35.5923 16.7442 36.6925 14.4645 36.9409 13.3313C37.163 12.3167 37.3168 10.9423 36.6878 10.0377C35.911 8.92449 34.4034 9.43693 33.4299 9.97102C32.2988 10.5916 31.3914 11.5162 30.6095 12.5282C29.6731 13.7387 28.8948 15.1255 27.9177 16.3166C26.7773 17.7073 24.9427 18.3491 23.1841 17.9744C23.1742 17.9722 23.1649 17.9708 23.1559 17.9678C20.5413 17.401 18.3003 15.8492 15.8412 14.8751C13.9365 14.121 10.5612 13.1689 9.26068 15.4441C7.88462 17.8497 10.5718 20.3065 12.3098 21.5643C13.4984 22.4247 14.7125 23.2524 15.9141 24.095C17.0182 24.8692 18.2475 25.5948 19.11 26.6527C19.9517 27.6862 19.963 28.8336 19.2653 29.9444C18.5563 31.0732 17.5864 32.062 16.6561 33.0077C15.6775 34.0015 14.6328 34.9079 13.5713 35.8103C12.807 36.4594 11.9992 37.39 12.3184 38.4677C12.6357 39.5371 13.7758 39.8246 14.7678 39.741C16.0111 39.6379 17.2966 39.049 18.3878 38.4786C19.5977 37.8451 20.665 36.999 21.8192 36.2773C22.892 35.6077 24.0785 35.0507 25.3744 35.2117C27.8697 35.5211 29.5233 37.8788 30.8519 39.7665C31.6064 40.8384 32.3654 41.9221 33.3274 42.8224C34.1565 43.5992 35.217 44.3053 36.4106 44.1853C37.6671 44.0572 38.2125 42.9175 38.2651 41.7764Z" fill="#F8B65C"/>
<path d="M31.8553 17.0216C31.8267 16.8678 31.7302 16.719 31.6016 16.631C31.4782 16.5462 31.2936 16.4998 31.1453 16.5339C30.8232 16.6086 30.5944 16.9077 30.6569 17.243C30.6855 17.3968 30.782 17.5456 30.9106 17.6336C31.034 17.7184 31.2186 17.7648 31.3669 17.7307C31.6887 17.6575 31.9176 17.3585 31.8553 17.0216Z" fill="#C38D45"/>
<path d="M19.9909 20.5174C19.9531 20.314 19.7382 20.1522 19.5294 20.1995C19.3204 20.2483 19.1721 20.4423 19.2116 20.661C19.2494 20.8644 19.4643 21.0261 19.6731 20.9789C19.8827 20.9309 20.0313 20.7354 19.9909 20.5174Z" fill="#C38D45"/>
<path d="M21.2721 21.2182C21.2447 21.0677 21.086 20.9484 20.9319 20.984C20.7779 21.0197 20.6679 21.1632 20.6978 21.3243C20.7252 21.4747 20.8839 21.5941 21.038 21.5584C21.192 21.5228 21.302 21.3793 21.2721 21.2182Z" fill="#C38D45"/>
<path d="M22.5168 21.9034C22.4457 21.5193 21.8488 21.6284 21.9196 22.0139C21.9907 22.398 22.587 22.288 22.5168 21.9034Z" fill="#C38D45"/>
<path d="M16.2731 18.4412C16.1606 17.8303 15.2113 18.0048 15.3244 18.6166C15.4378 19.2269 16.3862 19.0531 16.2731 18.4412Z" fill="#C38D45"/>
<path d="M14.388 17.513C14.3534 17.3251 14.1541 17.1752 13.9615 17.2201C13.7689 17.265 13.6306 17.4447 13.6687 17.6465C13.7032 17.8344 13.9025 17.9843 14.0951 17.9394C14.2877 17.8945 14.426 17.7148 14.388 17.513Z" fill="#C38D45"/>
<path d="M12.2343 16.6349C12.2088 16.4981 12.1232 16.3659 12.009 16.288C11.8998 16.2132 11.7352 16.1713 11.6048 16.2018C11.3189 16.2677 11.1164 16.5335 11.1709 16.832C11.1965 16.9687 11.282 17.1009 11.3962 17.1788C11.5054 17.2536 11.6701 17.2955 11.8004 17.265C12.0863 17.1991 12.2897 16.9327 12.2343 16.6349Z" fill="#C38D45"/>
<path d="M23.5688 31.1953C23.534 31.0089 23.3376 30.861 23.1475 30.9055C22.9557 30.9498 22.8201 31.1274 22.8577 31.3269C22.8925 31.5132 23.0889 31.6611 23.2791 31.6166C23.4699 31.573 23.6055 31.3954 23.5688 31.1953Z" fill="#C38D45"/>
<path d="M22.1435 32.1179C22.1087 31.9315 21.9123 31.7836 21.7222 31.8281C21.5304 31.8724 21.3948 32.05 21.4324 32.2495C21.4672 32.4359 21.6636 32.5837 21.8538 32.5392C22.0455 32.495 22.1811 32.3173 22.1435 32.1179Z" fill="#C38D45"/>
<path d="M18.6518 35.1449C18.6287 35.0188 18.5494 34.8971 18.4438 34.8252C18.3433 34.7564 18.1923 34.7181 18.0711 34.746C17.9456 34.7756 17.8219 34.8411 17.7513 34.954C17.6816 35.0663 17.6468 35.194 17.6722 35.3268C17.6953 35.4529 17.7746 35.5746 17.8802 35.6465C17.9807 35.7153 18.1317 35.7535 18.2529 35.7257C18.3784 35.6961 18.5021 35.6306 18.5727 35.5177C18.6424 35.4054 18.6763 35.2783 18.6518 35.1449Z" fill="#C38D45"/>
<path d="M16.8409 36.5008C16.8185 36.3796 16.7433 36.2632 16.6421 36.1935C16.5459 36.127 16.4003 36.0903 16.2839 36.1173C16.0308 36.1754 15.8517 36.4114 15.9004 36.6743C15.9227 36.7955 15.998 36.9119 16.0992 36.9815C16.1953 37.0481 16.341 37.0848 16.4574 37.0578C16.7096 37.0003 16.8887 36.7643 16.8409 36.5008Z" fill="#C38D45"/>
<path d="M14.3587 37.8525C14.336 37.7289 14.2581 37.6089 14.1547 37.5382C14.0557 37.4696 13.9069 37.4325 13.7881 37.4599C13.5292 37.5195 13.3454 37.7604 13.3945 38.0312C13.4173 38.1548 13.4952 38.2748 13.5986 38.3456C13.6976 38.4141 13.8464 38.4513 13.9652 38.4238C14.2241 38.3642 14.4079 38.1233 14.3587 37.8525Z" fill="#C38D45"/>
<path d="M26.315 23.8536C26.2928 23.7847 26.2577 23.7336 26.2046 23.6861C26.0342 23.5342 25.7626 23.5618 25.6323 23.7521C25.5111 23.9287 25.5642 24.1621 25.7315 24.2875C25.8132 24.3495 25.9212 24.3632 26.0198 24.3494C26.1425 24.3328 26.2804 24.2251 26.3123 24.1009C26.3349 24.0125 26.3446 23.9419 26.315 23.8536Z" fill="#C38D45"/>
<path d="M26.5804 29.0021C26.5119 28.6327 25.9384 28.7381 26.006 29.1081C26.0754 29.4769 26.6489 29.3715 26.5804 29.0021Z" fill="#C38D45"/>
<path d="M29.3972 29.1186C29.3742 28.9965 29.2455 28.899 29.1209 28.928C28.9955 28.9576 28.9063 29.0733 28.9303 29.2043C28.9533 29.3264 29.082 29.4238 29.2066 29.3949C29.3318 29.3668 29.4212 29.2496 29.3972 29.1186Z" fill="#C38D45"/>
<path d="M31.1416 32.3871C31.1585 32.2575 31.1008 32.1294 31.0254 32.0296C31.0215 32.0243 31.0175 32.0189 31.0142 32.0145C30.9167 31.8829 30.7106 31.8166 30.5541 31.8527C30.4271 31.8821 30.3145 31.9476 30.2397 32.0568C30.1689 32.1602 30.1387 32.2997 30.1614 32.4233C30.1906 32.5835 30.3138 32.7498 30.4772 32.7955C30.484 32.7973 30.4893 32.7989 30.4962 32.8007C30.604 32.831 30.7029 32.8362 30.8103 32.8007C30.9077 32.7685 31.0036 32.7084 31.0588 32.6193C31.1017 32.5489 31.1307 32.4709 31.1416 32.3871Z" fill="#C38D45"/>
<path d="M31.395 33.599C31.3147 33.1653 30.6419 33.2892 30.7213 33.7235C30.8016 34.1572 31.475 34.0342 31.395 33.599Z" fill="#C38D45"/>
<path d="M33.6253 37.5268C33.5018 36.862 32.4687 37.0517 32.5919 37.7181C32.7148 38.382 33.7478 38.1922 33.6253 37.5268Z" fill="#C38D45"/>
<path d="M34.924 40.1363C34.8285 39.6189 34.0248 39.7668 34.1203 40.2842C34.2165 40.8025 35.0202 40.6546 34.924 40.1363Z" fill="#C38D45"/>
<path d="M36.0656 42.1804C35.9902 41.772 35.3549 41.8888 35.4303 42.2972C35.5063 42.7065 36.1416 42.5897 36.0656 42.1804Z" fill="#C38D45"/>
<path d="M30.889 26.2484C30.8525 26.0523 30.5832 25.9323 30.4304 26.0868C30.4266 26.091 30.422 26.0959 30.4182 26.1001C30.271 26.2491 30.3111 26.4687 30.5023 26.5557C30.5083 26.5581 30.5134 26.5612 30.5187 26.5628C30.7156 26.6538 30.9247 26.4452 30.889 26.2484Z" fill="#C38D45"/>
<path d="M35.0415 25.9497C35.0011 25.7317 34.7706 25.5581 34.5469 25.6095C34.3224 25.6616 34.164 25.8699 34.2067 26.1041C34.2471 26.3222 34.4777 26.4957 34.7013 26.4443C34.9258 26.3922 35.0851 26.1833 35.0415 25.9497Z" fill="#C38D45"/>
<path d="M36.0462 26.0619C35.9752 25.6779 35.3782 25.7869 35.449 26.1725C35.5201 26.5565 36.1173 26.446 36.0462 26.0619Z" fill="#C38D45"/>
<path d="M39.9913 25.8439C39.894 25.3167 39.0748 25.4679 39.172 25.995C39.2702 26.5216 40.0885 26.3711 39.9913 25.8439Z" fill="#C38D45"/>
<path d="M42.7977 25.8016C42.722 25.5712 42.4564 25.4526 42.2347 25.5604C42.03 25.6598 41.9573 25.9037 42.0458 26.1068C42.1258 26.2927 42.4044 26.4086 42.5877 26.2989C42.671 26.2496 42.7297 26.2006 42.7752 26.1132C42.8258 26.0123 42.8323 25.9096 42.7977 25.8016Z" fill="#C38D45"/>
<path d="M45.3383 25.8131C45.3054 25.635 45.1176 25.4931 44.9341 25.5354C44.7506 25.5778 44.6216 25.7477 44.6557 25.9387C44.6886 26.1169 44.8764 26.2587 45.0599 26.2164C45.2434 26.1741 45.3739 26.0044 45.3383 25.8131Z" fill="#C38D45"/>
<path d="M46.548 25.9511C46.5216 25.8095 46.3715 25.6961 46.2265 25.7292C46.0807 25.7629 45.9774 25.8986 46.0047 26.0506C46.0311 26.1923 46.1812 26.3056 46.3261 26.2725C46.472 26.2388 46.5759 26.104 46.548 25.9511Z" fill="#C38D45"/>
<path d="M28.5734 24.081C28.5728 24.0746 28.5724 24.0666 28.5718 24.0602C28.5634 23.9672 28.4527 23.8977 28.3658 23.918C28.2798 23.9377 28.1974 24.0291 28.2236 24.124C28.2258 24.1306 28.228 24.1373 28.2293 24.1446C28.2542 24.2322 28.3348 24.3074 28.4339 24.285C28.533 24.2625 28.5817 24.1796 28.5734 24.081Z" fill="#C38D45"/>
<path d="M30.3987 20.0008C30.3225 19.5875 29.6792 19.7047 29.7552 20.1195C29.8321 20.5337 30.4756 20.415 30.3987 20.0008Z" fill="#C38D45"/>
<path d="M30.8892 18.5492C30.8046 18.0911 30.0928 18.2219 30.1781 18.6808C30.2627 19.1388 30.9744 19.0081 30.8892 18.5492Z" fill="#C38D45"/>
<path d="M32.6552 15.3517C32.6193 15.1565 32.4137 15.0017 32.2144 15.0488C32.0145 15.095 31.8728 15.2812 31.9115 15.4895C31.9473 15.6848 32.153 15.8396 32.3522 15.7924C32.5522 15.7462 32.6938 15.56 32.6552 15.3517Z" fill="#C38D45"/>
<path d="M34.0536 13.3704C33.9512 12.8139 33.0856 12.9732 33.1887 13.5305C33.2911 14.087 34.1558 13.9283 34.0536 13.3704Z" fill="#C38D45"/>
<path d="M35.1854 10.9791C35.1821 10.9747 35.1781 10.9693 35.1757 10.9642C35.0524 10.7829 34.7042 10.8466 34.6534 11.0606C34.6525 11.0668 34.6509 11.0721 34.6491 11.079C34.6228 11.1922 34.6266 11.2995 34.7069 11.393C34.779 11.4773 34.8941 11.5173 35.0031 11.4972C35.1121 11.477 35.2053 11.3983 35.2422 11.2938C35.285 11.1767 35.251 11.0751 35.1854 10.9791Z" fill="#C38D45"/>
</svg>
