<svg width="38" height="38" viewBox="0 0 38 38" fill="none" xmlns="http://www.w3.org/2000/svg">
<path d="M9.96097 28.5878C11.0139 28.4802 11.9631 27.9878 12.8732 27.4783C14.2177 26.7257 16.1182 25.5751 17.6081 26.651C19.1759 27.783 19.1265 30.0854 19.6909 31.7454C19.9489 32.503 20.3677 33.4072 21.284 33.4582C22.1656 33.5065 22.8809 33.1491 23.0917 32.0391C23.4134 30.3494 21.2851 23.5153 25.9573 24.0297C27.053 24.1505 28.7483 24.6786 29.5602 24.734C30.287 24.7834 31.2565 24.7483 31.8192 24.2186C32.5114 23.5647 32.0003 22.5717 31.5293 21.9513C30.982 21.2305 30.2469 20.6964 29.4641 20.2583C28.5276 19.7335 27.4851 19.3366 26.5579 18.7816C25.4753 18.1338 24.8407 16.9272 24.9192 15.6684C24.9198 15.6613 24.9198 15.6547 24.9209 15.6481C25.0444 13.7756 25.8898 12.0606 26.3119 10.254C26.6386 8.85464 26.9509 6.41448 25.2382 5.74694C23.4271 5.04042 21.9998 7.15833 21.3065 8.49397C20.8322 9.40745 20.3831 10.3352 19.9225 11.2558C19.4993 12.1018 19.1227 13.0295 18.4776 13.7371C17.8474 14.4277 17.0525 14.554 16.2099 14.1846C15.3535 13.8091 14.5674 13.2381 13.8153 12.6903C13.0248 12.1139 12.288 11.4825 11.5524 10.8392C11.0232 10.3758 10.2942 9.9114 9.57944 10.2441C8.87018 10.5746 8.78838 11.3953 8.94868 12.0749C9.14851 12.9269 9.68979 13.758 10.1981 14.4563C10.7625 15.2303 11.4597 15.8836 12.0794 16.6099C12.6548 17.2851 13.1636 18.0509 13.1856 18.9666C13.2284 20.7299 11.7632 22.1204 10.5906 23.237C9.92474 23.8711 9.25116 24.5095 8.7258 25.2698C8.27235 25.9253 7.89192 26.7339 8.09833 27.5497C8.31682 28.4083 9.16387 28.669 9.96097 28.5878Z" fill="#F8B65C"/>
<path d="M26.475 21.5863C26.5788 21.5506 26.6721 21.4683 26.7198 21.37C26.766 21.2756 26.7791 21.1427 26.7402 21.0434C26.6551 20.8276 26.4239 20.6997 26.1978 20.7777C26.094 20.8134 26.0007 20.8957 25.9529 20.994C25.9068 21.0884 25.8936 21.2213 25.9326 21.3206C26.0166 21.5364 26.2477 21.6643 26.475 21.5863Z" fill="#C38D45"/>
<path d="M22.8254 13.7153C22.9626 13.6681 23.0527 13.5023 22.9983 13.3623C22.9429 13.2223 22.793 13.1394 22.6453 13.1894C22.5081 13.2366 22.4181 13.4024 22.4724 13.5423C22.5273 13.6829 22.6783 13.7658 22.8254 13.7153Z" fill="#C38D45"/>
<path d="M22.4714 14.6765C22.5729 14.6419 22.6394 14.5195 22.5987 14.4163C22.5581 14.3131 22.4472 14.2516 22.3385 14.2889C22.237 14.3235 22.1705 14.4459 22.2112 14.5491C22.2518 14.6524 22.3627 14.7138 22.4714 14.6765Z" fill="#C38D45"/>
<path d="M22.1244 15.6109C22.3835 15.5219 22.2463 15.119 21.9861 15.2079C21.727 15.2968 21.8647 15.6992 22.1244 15.6109Z" fill="#C38D45"/>
<path d="M23.8823 10.9216C24.2946 10.7805 24.0755 10.1399 23.6627 10.2815C23.251 10.4231 23.4695 11.0632 23.8823 10.9216Z" fill="#C38D45"/>
<path d="M24.3318 9.51786C24.4586 9.47449 24.5421 9.32078 24.491 9.19177C24.44 9.06277 24.3011 8.98536 24.1649 9.03257C24.0381 9.07594 23.9547 9.22965 24.0057 9.35866C24.0568 9.48767 24.1957 9.56507 24.3318 9.51786Z" fill="#C38D45"/>
<path d="M24.7188 7.93299C24.811 7.90115 24.8939 7.82814 24.9362 7.74085C24.9768 7.65741 24.9889 7.53883 24.9543 7.45155C24.8791 7.25996 24.6738 7.14687 24.4723 7.21549C24.3801 7.24733 24.2972 7.32034 24.2549 7.40763C24.2143 7.49107 24.2022 7.60965 24.2368 7.69693C24.312 7.88852 24.5179 8.00216 24.7188 7.93299Z" fill="#C38D45"/>
<path d="M15.7861 17.2995C15.9118 17.2561 15.9941 17.1046 15.9436 16.9772C15.8931 16.8488 15.7559 16.773 15.6214 16.8197C15.4956 16.863 15.4133 17.0146 15.4638 17.1419C15.5138 17.2698 15.651 17.3456 15.7861 17.2995Z" fill="#C38D45"/>
<path d="M14.9989 16.4058C15.1246 16.3624 15.2069 16.2109 15.1564 16.0835C15.1059 15.9551 14.9687 15.8793 14.8342 15.926C14.7085 15.9694 14.6261 16.1209 14.6766 16.2482C14.7271 16.3767 14.8644 16.4524 14.9989 16.4058Z" fill="#C38D45"/>
<path d="M12.5383 14.2955C12.6234 14.2664 12.6997 14.1989 12.7387 14.1182C12.7761 14.0413 12.787 13.9326 12.7552 13.8514C12.7217 13.7674 12.6635 13.6884 12.5779 13.651C12.4928 13.6142 12.4006 13.6033 12.3111 13.6346C12.226 13.6637 12.1497 13.7312 12.1107 13.8119C12.0734 13.8887 12.0624 13.9974 12.0942 14.0787C12.1277 14.1627 12.1859 14.2417 12.2716 14.279C12.3566 14.3158 12.4483 14.3263 12.5383 14.2955Z" fill="#C38D45"/>
<path d="M11.4108 13.1789C11.4925 13.1509 11.5656 13.0867 11.6034 13.0093C11.6397 12.9357 11.6501 12.8309 11.6194 12.7529C11.5529 12.5833 11.3707 12.4834 11.1934 12.5443C11.1116 12.5723 11.0386 12.6365 11.0007 12.7139C10.9644 12.7875 10.954 12.8924 10.9848 12.9703C11.0506 13.1394 11.2329 13.2393 11.4108 13.1789Z" fill="#C38D45"/>
<path d="M10.2168 11.5963C10.3002 11.5677 10.3754 11.5013 10.4139 11.4223C10.4512 11.3465 10.4616 11.2395 10.4303 11.1599C10.3623 10.9864 10.1762 10.8837 9.99336 10.9458C9.90992 10.9743 9.83471 11.0407 9.79628 11.1198C9.75895 11.1955 9.74852 11.3026 9.77981 11.3822C9.84788 11.5557 10.034 11.6583 10.2168 11.5963Z" fill="#C38D45"/>
<path d="M21.1632 18.4474C21.2087 18.4249 21.2406 18.3952 21.268 18.3535C21.3559 18.2196 21.3086 18.034 21.1632 17.9632C21.0281 17.8973 20.8717 17.9583 20.8019 18.0873C20.7674 18.1504 20.769 18.2267 20.7888 18.2937C20.8129 18.3771 20.9019 18.4617 20.9913 18.471C21.055 18.4776 21.105 18.477 21.1632 18.4474Z" fill="#C38D45"/>
<path d="M17.6184 19.1627C17.8677 19.077 17.7354 18.69 17.4856 18.7751C17.2369 18.8613 17.3692 19.2483 17.6184 19.1627Z" fill="#C38D45"/>
<path d="M17.8283 21.1291C17.9106 21.1006 17.965 21.0012 17.932 20.9177C17.8986 20.8338 17.8091 20.7838 17.7207 20.814C17.6384 20.8425 17.584 20.9419 17.6169 21.0253C17.6493 21.1093 17.7399 21.1593 17.8283 21.1291Z" fill="#C38D45"/>
<path d="M15.7405 22.6766C15.8322 22.675 15.9151 22.6217 15.9766 22.5592C15.9799 22.5559 15.9832 22.5526 15.9859 22.5498C16.0672 22.4686 16.0919 22.3187 16.0507 22.2139C16.0172 22.1288 15.9601 22.0574 15.8767 22.0168C15.7976 21.9784 15.6977 21.9718 15.6143 22.0003C15.5061 22.0371 15.4035 22.1397 15.3886 22.2578C15.3881 22.2627 15.3875 22.2666 15.387 22.2715C15.3771 22.3495 15.3837 22.4186 15.4194 22.4894C15.4518 22.5537 15.5034 22.6141 15.5709 22.6432C15.6241 22.6657 15.6812 22.6777 15.7405 22.6766Z" fill="#C38D45"/>
<path d="M14.9258 22.9774C15.2184 22.877 15.0631 22.423 14.7699 22.5229C14.4773 22.6234 14.6322 23.0779 14.9258 22.9774Z" fill="#C38D45"/>
<path d="M12.4308 24.9301C12.8793 24.7759 12.641 24.0787 12.1914 24.2329C11.7435 24.3866 11.9817 25.0838 12.4308 24.9301Z" fill="#C38D45"/>
<path d="M10.7542 26.1005C11.1034 25.9809 10.9178 25.4385 10.5687 25.5582C10.219 25.6784 10.4045 26.2208 10.7542 26.1005Z" fill="#C38D45"/>
<path d="M9.45377 27.1035C9.72935 27.0091 9.58277 26.5803 9.30719 26.6747C9.03106 26.7697 9.17764 27.1984 9.45377 27.1035Z" fill="#C38D45"/>
<path d="M19.9736 21.868C20.1059 21.8224 20.1613 21.6231 20.0384 21.5331C20.0351 21.5309 20.0312 21.5281 20.0279 21.526C19.9093 21.4392 19.7611 21.4897 19.7205 21.6314C19.7194 21.6357 19.7178 21.6396 19.7172 21.6434C19.6744 21.7895 19.8407 21.913 19.9736 21.868Z" fill="#C38D45"/>
<path d="M20.6093 24.7183C20.7564 24.6677 20.853 24.4899 20.7943 24.34C20.735 24.1896 20.5741 24.1012 20.416 24.155C20.2689 24.2055 20.1723 24.3834 20.231 24.5333C20.2903 24.6837 20.4517 24.7726 20.6093 24.7183Z" fill="#C38D45"/>
<path d="M20.6351 25.4269C20.8942 25.3379 20.757 24.935 20.4967 25.0239C20.2376 25.1129 20.376 25.5158 20.6351 25.4269Z" fill="#C38D45"/>
<path d="M21.1934 28.1416C21.5491 28.0197 21.3597 27.4669 21.004 27.5888C20.6488 27.7112 20.8377 28.2635 21.1934 28.1416Z" fill="#C38D45"/>
<path d="M21.5123 30.0844C21.6644 30.0081 21.7193 29.8115 21.6216 29.6688C21.5316 29.5371 21.3548 29.5118 21.223 29.5941C21.1023 29.6688 21.0507 29.8741 21.1456 29.99C21.1885 30.0427 21.2285 30.0783 21.2939 30.1008C21.3691 30.1255 21.441 30.1195 21.5123 30.0844Z" fill="#C38D45"/>
<path d="M21.7665 31.8482C21.8868 31.807 21.9658 31.6621 21.9175 31.5391C21.8692 31.4162 21.738 31.3442 21.609 31.3876C21.4888 31.4288 21.4097 31.5737 21.458 31.6967C21.5063 31.8197 21.6375 31.8927 21.7665 31.8482Z" fill="#C38D45"/>
<path d="M21.7956 32.7019C21.8912 32.6689 21.9543 32.5531 21.9164 32.4559C21.878 32.3582 21.7731 32.3006 21.6705 32.3352C21.5749 32.3681 21.5118 32.4839 21.5497 32.5811C21.5881 32.6788 21.6924 32.737 21.7956 32.7019Z" fill="#C38D45"/>
<path d="M21.2384 20.0377C21.2428 20.0366 21.2483 20.0355 21.2527 20.0344C21.3164 20.019 21.3532 19.9351 21.3301 19.8769C21.3076 19.8192 21.2357 19.7715 21.1726 19.7995C21.1682 19.8017 21.1638 19.8039 21.1588 19.8055C21.1006 19.8318 21.0567 19.8955 21.0825 19.962C21.1083 20.0284 21.1709 20.0536 21.2384 20.0377Z" fill="#C38D45"/>
<path d="M24.2578 20.8831C24.5366 20.7876 24.389 20.3534 24.109 20.4489C23.8296 20.545 23.9783 20.9792 24.2578 20.8831Z" fill="#C38D45"/>
<path d="M25.3155 21.0736C25.6246 20.9677 25.4604 20.4873 25.1508 20.5938C24.8417 20.6998 25.0059 21.1801 25.3155 21.0736Z" fill="#C38D45"/>
<path d="M27.7162 21.969C27.8479 21.924 27.9341 21.7654 27.8809 21.632C27.8282 21.498 27.6843 21.419 27.5438 21.4673C27.412 21.5123 27.3258 21.6709 27.3791 21.8043C27.4318 21.9383 27.5756 22.0173 27.7162 21.969Z" fill="#C38D45"/>
<path d="M29.2352 22.7348C29.6107 22.6064 29.4108 22.0223 29.0348 22.1513C28.6593 22.2797 28.8586 22.8633 29.2352 22.7348Z" fill="#C38D45"/>
<path d="M31.011 23.2734C31.0138 23.2706 31.0171 23.2674 31.0204 23.2652C31.1335 23.1609 31.0533 22.9259 30.8996 22.9127C30.8952 22.9127 30.8914 22.9122 30.8864 22.9116C30.8052 22.905 30.7311 22.9188 30.6745 22.9841C30.6235 23.0428 30.6075 23.1268 30.6328 23.2004C30.6581 23.2739 30.7223 23.3305 30.7986 23.3453C30.8842 23.3629 30.9512 23.3288 31.011 23.2734Z" fill="#C38D45"/>
</svg>
