<svg width="70" height="70" viewBox="0 0 70 70" fill="none" xmlns="http://www.w3.org/2000/svg">
<path d="M59.2017 47.8296C53.1149 41.9773 47.1474 37.1932 40.1925 33.0499C46.8155 27.1635 52.6699 20.3519 57.717 13.0777C58.2255 12.3455 57.2908 11.6794 56.6397 12.1053C49.1663 16.9931 36.6377 28.8426 36.5672 28.9257C32.7425 20.4072 28.478 13.1842 22.8454 6.19394C22.4133 5.65761 21.9978 5.87135 22.1241 6.51133C23.6518 14.2362 27.6621 24.4288 31.796 31.1423C27.7649 31.2746 9.81825 34.2532 5.54413 36.0479C4.82779 36.3483 5.10395 37.3333 5.79349 37.4603C12.1592 38.631 23.7717 38.5991 32.6753 37.2998C29.5221 45.0247 27.8891 53.3561 27.6811 61.6896C27.6639 62.4067 28.6446 62.8726 29.0713 62.1819C31.3112 58.5489 37.0968 41.8385 38.1916 37.9873C44.5541 42.1099 51.2784 46.742 58.5725 48.8021C59.638 49.1008 59.7818 48.3886 59.2017 47.8296Z" fill="#F8B65C"/>
<path d="M36.2665 33.4809C35.7548 32.875 34.8133 33.6741 35.3265 34.2805C35.8382 34.8865 36.7796 34.0873 36.2665 33.4809Z" fill="#C38D45"/>
<path d="M33.475 33.9305C31.5022 33.6321 29.2578 34.1092 27.2893 34.3322C25.3052 34.5575 23.3245 34.8054 21.3404 35.0307C19.3512 35.2562 17.3621 35.4817 15.3714 35.6834C13.3027 35.8909 11.0472 35.9796 9.04986 36.5796C8.97191 36.6021 8.9707 36.7102 9.05665 36.7233C11.011 37.028 13.1687 36.7944 15.1352 36.6474C17.2016 36.4942 19.2664 36.3289 21.3286 36.1211C23.3822 35.9142 25.4323 35.6846 27.4813 35.4247C29.4407 35.1756 31.7084 35.1021 33.5494 34.3471C33.7631 34.2569 33.6759 33.96 33.475 33.9305Z" fill="#C38D45"/>
<path d="M32.5413 26.1567C31.6748 24.3547 30.7889 22.5621 29.9243 20.759C29.0576 18.9519 28.1893 17.1444 27.3438 15.3268C26.4657 13.4381 25.6396 11.3343 24.4186 9.64356C24.371 9.57815 24.2697 9.61234 24.2853 9.69684C24.6437 11.6476 25.5734 13.6111 26.3605 15.4236C27.1861 17.3272 28.0228 19.2273 28.8961 21.1096C29.7666 22.9845 30.6584 24.8488 31.579 26.6997C32.4579 28.4702 33.2752 30.5932 34.5922 32.0832C34.7464 32.2576 34.9964 32.0762 34.9595 31.8755C34.5888 29.9096 33.4003 27.9448 32.5413 26.1567Z" fill="#C38D45"/>
<path d="M58.1266 47.9568C56.7774 46.5092 54.9367 45.3602 53.2997 44.2599C51.5805 43.1043 49.8537 41.9581 48.105 40.8473C46.3636 39.7402 44.6089 38.656 42.8375 37.5954C41.1443 36.5806 39.3149 35.2364 37.4021 34.6953C37.1792 34.6327 37.0664 34.9203 37.2048 35.0686C38.5736 36.5234 40.6305 37.533 42.3163 38.574C44.0149 39.622 45.7258 40.6502 47.424 41.6998C49.1264 42.7522 50.8296 43.8016 52.5196 44.8738C54.274 45.9879 56.1025 47.3118 58.0413 48.0739C58.1189 48.1046 58.1863 48.0206 58.1266 47.9568Z" fill="#C38D45"/>
<path d="M55.2235 14.3501C53.5197 15.3614 52.001 16.918 50.5734 18.2856C49.0742 19.7228 47.5829 21.1671 46.1212 22.6417C44.6642 24.111 43.2261 25.5957 41.8081 27.1029C40.4522 28.5446 38.7449 30.0468 37.8015 31.8041C37.6909 32.009 37.9471 32.1812 38.1214 32.078C39.8351 31.0496 41.2672 29.2513 42.6474 27.8233C44.0373 26.3847 45.4119 24.93 46.8038 23.4904C48.1981 22.048 49.5925 20.6057 51.0036 19.1799C52.4702 17.7001 54.1572 16.1937 55.3203 14.458C55.3651 14.3892 55.2975 14.3064 55.2235 14.3501Z" fill="#C38D45"/>
<path d="M35.5772 36.6404C35.5759 36.4083 35.2685 36.3797 35.1648 36.5549C34.152 38.2822 33.7552 40.5472 33.2281 42.4628C32.6966 44.3939 32.187 46.3296 31.654 48.2602C31.1196 50.1954 30.5868 52.131 30.0294 54.0596C29.4507 56.0621 28.6897 58.1954 28.4989 60.2763C28.492 60.3577 28.5902 60.3977 28.6348 60.3238C29.6464 58.6178 30.2355 56.5217 30.8335 54.6365C31.4622 52.6567 32.081 50.6708 32.6579 48.6745C33.2341 46.6863 33.7858 44.691 34.3098 42.6878C34.8117 40.7733 35.5891 38.6346 35.5772 36.6404Z" fill="#C38D45"/>
</svg>
