<svg width="1440" height="1459" viewBox="0 0 1440 1459" fill="none" xmlns="http://www.w3.org/2000/svg">
<mask id="mask0_224_10" style="mask-type:alpha" maskUnits="userSpaceOnUse" x="0" y="1127" width="1440" height="1113">
<rect y="1127" width="1440" height="1113" fill="#B4B4B4"/>
</mask>
<g mask="url(#mask0_224_10)">
<path d="M-108.285 1088C-108.026 1112.51 -108.242 1137.02 -108.76 1161.53C-109.884 1219.08 -112.348 1276.58 -110.057 1334.09C-107.766 1391.24 -104.524 1448.3 -100.374 1505.31C-93.1981 1604.44 -83.6013 1703.32 -72.6212 1802C-63.9755 1874.14 -54.811 1946.18 -45.4304 2018.17C-35.7904 2092.15 -25.6317 2166.02 -15.9485 2240H1499C1494.59 2123.8 1489.23 2007.7 1483.22 1891.56C1469.35 1624.04 1454.04 1356.07 1456.16 1088L-108.285 1088Z" fill="#F3EAD2"/>
</g>
<g opacity="0.5">
<path d="M1280.93 1484.14C1295.25 1484.14 1306.86 1474.74 1306.86 1463.15C1306.86 1451.56 1295.25 1442.16 1280.93 1442.16C1266.61 1442.16 1255 1451.56 1255 1463.15C1255 1474.74 1266.61 1484.14 1280.93 1484.14Z" fill="#E3D6B8"/>
<path d="M1418.86 1356.57C1418.86 1368.16 1404.9 1370.35 1390.58 1370.35C1376.26 1370.35 1367.01 1368.16 1367.01 1356.57C1367.01 1344.98 1384.12 1334 1398.44 1334C1412.76 1334 1418.86 1344.98 1418.86 1356.57Z" fill="#E3D6B8"/>
<path d="M1154.86 1464.73C1154.86 1476.32 1140.89 1478.52 1126.57 1478.52C1112.26 1478.52 1103 1476.32 1103 1464.73C1103 1453.14 1120.11 1442.16 1134.43 1442.16C1148.75 1442.16 1154.86 1453.14 1154.86 1464.73Z" fill="#E3D6B8"/>
<path d="M836.303 1404.39C836.303 1409.78 827.368 1418.28 820.923 1418.28C814.478 1418.28 812.972 1409.78 812.972 1404.39C812.972 1399.01 821.552 1400.22 827.997 1400.22C834.442 1400.22 836.303 1399.01 836.303 1404.39Z" fill="#E3D6B8"/>
<path d="M527.139 1436.83C527.139 1441.53 529.395 1448.96 522.796 1448.96C516.197 1448.96 503.233 1441.53 503.233 1436.83C503.233 1432.12 512.027 1433.18 518.626 1433.18C525.225 1433.18 527.139 1432.13 527.139 1436.83Z" fill="#E3D6B8"/>
<path d="M1123.14 1338.83C1123.14 1343.53 1125.39 1350.96 1118.8 1350.96C1112.2 1350.96 1099.23 1343.53 1099.23 1338.83C1099.23 1334.12 1108.03 1335.18 1114.63 1335.18C1121.23 1335.18 1123.14 1334.13 1123.14 1338.83Z" fill="#E3D6B8"/>
<path d="M429.486 1440.11C434.173 1440.11 437.973 1435.16 437.973 1429.06C437.973 1422.95 434.173 1418 429.486 1418C424.799 1418 421 1422.95 421 1429.06C421 1435.16 424.799 1440.11 429.486 1440.11Z" fill="#E3D6B8"/>
<path d="M1415.49 1255.11C1420.17 1255.11 1423.97 1250.16 1423.97 1244.06C1423.97 1237.95 1420.17 1233 1415.49 1233C1410.8 1233 1407 1237.95 1407 1244.06C1407 1250.16 1410.8 1255.11 1415.49 1255.11Z" fill="#E3D6B8"/>
<path d="M1025.49 1342.11C1030.17 1342.11 1033.97 1337.16 1033.97 1331.06C1033.97 1324.95 1030.17 1320 1025.49 1320C1020.8 1320 1017 1324.95 1017 1331.06C1017 1337.16 1020.8 1342.11 1025.49 1342.11Z" fill="#E3D6B8"/>
<path d="M278.486 1415.11C283.173 1415.11 286.973 1410.16 286.973 1404.06C286.973 1397.95 283.173 1393 278.486 1393C273.799 1393 270 1397.95 270 1404.06C270 1410.16 273.799 1415.11 278.486 1415.11Z" fill="#E3D6B8"/>
<path d="M1199.49 1393.11C1204.17 1393.11 1207.97 1388.16 1207.97 1382.06C1207.97 1375.95 1204.17 1371 1199.49 1371C1194.8 1371 1191 1375.95 1191 1382.06C1191 1388.16 1194.8 1393.11 1199.49 1393.11Z" fill="#E3D6B8"/>
<path d="M1304.56 1378.1C1309.25 1378.1 1313.05 1373.15 1313.05 1367.04C1313.05 1360.94 1309.25 1355.99 1304.56 1355.99C1299.87 1355.99 1296.07 1360.94 1296.07 1367.04C1296.07 1373.15 1299.87 1378.1 1304.56 1378.1Z" fill="#E3D6B8"/>
<path d="M306.828 1349.11C311.515 1349.11 315.314 1344.16 315.314 1338.06C315.314 1331.95 311.515 1327 306.828 1327C302.141 1327 298.341 1331.95 298.341 1338.06C298.341 1344.16 302.141 1349.11 306.828 1349.11Z" fill="#E3D6B8"/>
<path d="M238.422 1471.13C241.634 1471.13 244.238 1467.74 244.238 1463.55C244.238 1459.36 241.634 1455.97 238.422 1455.97C235.21 1455.97 232.606 1459.36 232.606 1463.55C232.606 1467.74 235.21 1471.13 238.422 1471.13Z" fill="#E3D6B8"/>
<path d="M1325.82 1431.17C1329.03 1431.17 1331.63 1427.77 1331.63 1423.58C1331.63 1419.39 1329.03 1416 1325.82 1416C1322.6 1416 1320 1419.39 1320 1423.58C1320 1427.77 1322.6 1431.17 1325.82 1431.17Z" fill="#E3D6B8"/>
<path d="M128.403 1295.96C128.403 1304.55 119.809 1311.51 109.201 1311.51C98.5935 1311.51 90 1304.55 90 1295.96C90 1287.37 98.5935 1292.55 109.201 1292.55C119.809 1292.55 128.403 1287.37 128.403 1295.96Z" fill="#E3D6B8"/>
<path d="M201.103 1396.3C201.103 1404.89 190.763 1406.51 180.155 1406.51C169.554 1406.51 162.7 1404.88 162.7 1396.3C162.7 1387.72 175.37 1379.59 185.971 1379.59C196.572 1379.59 201.103 1387.72 201.103 1396.3Z" fill="#E3D6B8"/>
<path d="M1382.4 1458.71C1382.4 1467.3 1372.06 1468.92 1361.45 1468.92C1350.85 1468.92 1344 1467.29 1344 1458.71C1344 1450.13 1356.67 1442 1367.27 1442C1377.87 1442 1382.4 1450.12 1382.4 1458.71Z" fill="#E3D6B8"/>
<path d="M46.4028 1253.71C46.4028 1262.3 36.0626 1263.92 25.4546 1263.92C14.8533 1263.92 8 1262.29 8 1253.71C8 1245.13 20.6693 1237 31.2706 1237C41.8719 1237 46.4028 1245.12 46.4028 1253.71Z" fill="#E3D6B8"/>
<path d="M845.907 1462.09C845.907 1466.38 840.734 1467.2 835.433 1467.2C830.132 1467.2 826.706 1466.39 826.706 1462.09C826.706 1457.8 833.037 1453.74 838.344 1453.74C843.645 1453.74 845.907 1457.8 845.907 1462.09Z" fill="#E3D6B8"/>
<path d="M116.393 1413.75C116.393 1422.34 120.014 1435.9 109.413 1435.9C98.8114 1435.9 77.9971 1422.34 77.9971 1413.75C77.9971 1405.16 92.1187 1407.08 102.727 1407.08C113.321 1407.08 116.393 1405.16 116.393 1413.75Z" fill="#E3D6B8"/>
<path d="M893.873 1406.6C895.828 1408.78 899.964 1410.62 896.912 1415.28C893.86 1419.95 884.785 1425.67 882.824 1423.5C880.87 1421.33 885.367 1415.6 888.419 1410.94C891.471 1406.26 891.913 1404.43 893.873 1406.6Z" fill="#E3D6B8"/>
<path d="M936.358 1407.49C941.009 1403.87 955.298 1403.09 959.769 1412.85C964.24 1422.61 957.206 1439.19 952.561 1442.81C947.909 1446.43 949.087 1436.96 944.617 1427.2C940.139 1417.44 931.706 1411.11 936.358 1407.49Z" fill="#E3D6B8"/>
<path d="M389.557 1331.1C389.557 1336.09 384.564 1340.14 378.4 1340.14C372.236 1340.14 367.243 1336.1 367.243 1331.1C367.243 1326.11 372.236 1329.12 378.4 1329.12C384.557 1329.12 389.557 1326.12 389.557 1331.1Z" fill="#E3D6B8"/>
<path d="M57.1429 1376.52C57.1429 1381.51 52.1501 1385.55 45.9861 1385.55C39.8221 1385.55 34.8293 1381.51 34.8293 1376.52C34.8293 1371.53 39.8221 1374.54 45.9861 1374.54C52.1501 1374.54 57.1429 1371.53 57.1429 1376.52Z" fill="#E3D6B8"/>
<path d="M592.387 1428.18C592.387 1433.17 587.394 1437.22 581.23 1437.22C575.066 1437.22 570.073 1433.17 570.073 1428.18C570.073 1423.19 575.066 1426.2 581.23 1426.2C587.394 1426.2 592.387 1423.19 592.387 1428.18Z" fill="#E3D6B8"/>
<path d="M1322.32 1264.71C1322.32 1269.7 1316.31 1270.64 1310.15 1270.64C1303.98 1270.64 1300 1269.7 1300 1264.71C1300 1259.73 1307.36 1255 1313.53 1255C1319.69 1255 1322.32 1259.73 1322.32 1264.71Z" fill="#E3D6B8"/>
<path d="M1086.98 1414.65C1086.98 1417.55 1083.48 1418.1 1079.9 1418.1C1076.32 1418.1 1074 1417.55 1074 1414.65C1074 1411.75 1078.28 1409 1081.86 1409C1085.45 1409 1086.98 1411.75 1086.98 1414.65Z" fill="#E3D6B8"/>
<path d="M721.666 1459C725.3 1458.82 733.9 1464.36 734.128 1471.98C734.355 1479.6 726.116 1486.42 722.482 1486.6C718.848 1486.78 721.887 1481.69 721.659 1474.08C721.432 1466.45 718.038 1459.19 721.666 1459Z" fill="#E3D6B8"/>
<path d="M641.799 1421.49C644.503 1419.38 652.802 1418.93 655.405 1424.6C658.002 1430.27 653.919 1439.91 651.216 1442.01C648.512 1444.12 649.201 1438.61 646.598 1432.94C643.994 1427.28 639.095 1423.6 641.799 1421.49Z" fill="#E3D6B8"/>
</g>
<mask id="mask1_224_10" style="mask-type:alpha" maskUnits="userSpaceOnUse" x="0" y="895" width="1440" height="564">
<rect y="895.364" width="1440" height="563.636" fill="#FEE4A4"/>
</mask>
<g mask="url(#mask1_224_10)">
<path opacity="0.15" d="M1508.76 982.08L1522.19 975.114C1521.3 933.135 1509.44 903.201 1506.05 895.364H1467.07H1438.49H1400.79H1390.5H1372.29H1363.31H1357.14H1328.92H1320.44H1315.85H1311.71H1261.19H1260.4H1252.71H1245.9H1234.5H1230.51H1217.5H1189.1H1170.18H1142.74H1125.11H1124.46H1123.86H1114.7H1106.26H1095.1H1090.68H1086.98H1082.88H1054.48H1043.29H1042.94H1040.83H1007.91H1000.75H997.256H994.976H992.41H991.484H983.431H971.031H967.004H932.833H894.385H864.276H849.667H719.715C719.75 895.582 719.786 895.8 719.822 895.981H708.633H682.123H643.64H618.911H617.984H617.129H604.266H592.436H588.516C588.409 895.763 588.302 895.546 588.231 895.364H549.249H520.672H482.973H472.675H454.502H445.523H439.394H411.173H402.693H398.096H393.998H343.471H342.688H334.991H328.185H316.783H312.792H299.786H271.387H252.502H225.065H207.426H206.785H206.179H197.022H188.577H177.424H173.006H169.3H165.202H136.803H125.614H125.258H123.156H90.1956H83.0335H79.5059H77.2254H74.6599H73.7334H65.6805H53.2804H49.2539H15.0823H-23.3651H-53.439H-68.0483H-198C-192.762 923.846 -186.811 954.07 -183.89 961.798V961.834C-183.783 962.088 -183.711 962.306 -183.604 962.524C-183.569 962.56 -183.569 962.596 -183.569 962.632C-183.498 962.814 -183.426 962.959 -183.355 963.104C-183.319 963.177 -183.284 963.177 -183.284 963.249C-183.248 963.322 -183.177 963.431 -183.141 963.503C-183.07 963.612 -182.999 963.685 -182.927 963.721C-178.545 966.116 -157.521 973.082 -157.521 973.082C-146.582 1002.43 -132.65 1016.95 -130.156 1017.24C-127.661 1017.53 -113.337 1009.69 -113.337 1009.69C-110.38 1025.98 -87.2898 1065.46 -83.1565 1068.58C-79.0231 1071.7 -63.9862 1077.21 -63.9862 1077.21L-57.216 1117.09C-49.4838 1124.27 -36.5135 1131.09 -24.7905 1136.28C-25.0043 1151.92 -24.8261 1168.57 -23.5077 1176.95L4.42821 1198.43L14.4053 1199.2C14.4053 1199.2 43.8377 1248.21 63.3643 1261.89C63.3643 1261.89 64.6115 1263.63 68.7448 1262.4C71.1322 1261.67 84.922 1256.96 99.1394 1250.25L132.099 1267.01L142.148 1266.54C142.148 1266.54 187.9 1311.06 211.774 1322.16C211.774 1322.16 213.591 1323.72 217.19 1322.05C219.898 1320.78 238.569 1310.87 252.252 1299.19C265.793 1310.51 283.609 1319.91 286.246 1321.14C289.844 1322.85 291.697 1321.29 291.697 1321.29C302.85 1316.1 318.814 1303.58 332.639 1291.75L334.314 1292.95L348.317 1293.93C348.317 1293.93 389.58 1358.11 416.946 1376.07C416.946 1376.07 418.692 1378.36 424.5 1376.76C427.849 1375.82 447.198 1369.65 467.152 1360.84L513.403 1382.82L527.478 1382.24C527.478 1382.24 591.652 1440.55 625.111 1455.1C625.111 1455.1 627.676 1457.17 632.736 1454.95C636.513 1453.28 662.738 1440.33 681.909 1424.98C700.901 1439.79 725.879 1452.12 729.549 1453.76C734.609 1456 737.175 1453.9 737.175 1453.9C770.634 1439.35 834.808 1381.04 834.808 1381.04L848.883 1381.63L891.713 1361.27C914.909 1372.63 940.993 1381.01 944.984 1382.13C950.756 1383.77 952.502 1381.44 952.502 1381.44C979.868 1363.48 1021.13 1299.3 1021.13 1299.3L1035.13 1298.32L1068.38 1274.48C1082.7 1287.8 1112.06 1314.03 1129.63 1322.19C1129.63 1322.19 1131.45 1323.75 1135.05 1322.09C1137.76 1320.82 1156.46 1310.91 1170.11 1299.23C1183.65 1310.55 1201.47 1319.94 1204.07 1321.18C1207.67 1322.88 1209.52 1321.32 1209.52 1321.32C1233.39 1310.22 1279.15 1265.7 1279.15 1265.7L1289.16 1266.14L1319.69 1250.61C1336.23 1259.28 1354.83 1265.7 1357.68 1266.54C1361.81 1267.77 1363.02 1266.03 1363.02 1266.03C1382.55 1252.31 1411.95 1203.3 1411.95 1203.3L1421.92 1202.53L1449.9 1181.05C1452.14 1166.9 1478.83 1148.28 1478.26 1131.84C1491.51 1135.94 1476.16 1119.23 1478.26 1119.59C1481.89 1120.21 1482.39 1118.68 1482.39 1118.68C1494.29 1105.99 1504.66 1064.19 1504.66 1064.19L1512.43 1062.66L1529 1043C1526.36 1028.12 1508.76 982.08 1508.76 982.08Z" fill="#D7C8A6"/>
<path d="M1503.13 959.97L1516.4 953.079C1515.52 911.553 1503.8 881.942 1500.45 874.19H1461.94H1433.71H1396.47H1386.29H1368.31H1359.43H1353.34H1325.46H1317.09H1312.55H1308.46H1258.55H1257.77H1250.17H1243.44H1232.18H1228.24H1215.39H1187.33H1168.64H1141.54H1124.11H1123.48H1122.88H1113.83H1105.49H1094.47H1090.11H1086.45H1082.4H1054.34H1043.29H1042.94H1040.86H1008.33H1001.26H997.807H995.554H993.02H992.104H984.149H971.898H967.921H934.162H896.18H866.434H852.001H723.621C723.656 874.405 723.691 874.621 723.726 874.8H712.673H686.483H648.465H624.035H623.12H622.275H609.567H597.88H594.008C593.902 874.585 593.797 874.369 593.726 874.19H555.216H526.984H489.74H479.567H461.614H452.743H446.689H418.809H410.431H405.89H401.842H351.926H351.151H343.548H336.824H325.559H321.617H308.768H280.712H262.056H234.95H217.525H216.892H216.293H207.246H198.904H187.885H183.52H179.859H175.811H147.755H136.702H136.35H134.273H101.712H94.6361H91.1511H88.8982H86.3637H85.4484H77.4929H65.2427H61.2648H27.5064H-10.4763H-40.1866H-54.6193H-183C-177.825 902.365 -171.947 932.262 -169.06 939.907V939.943C-168.955 940.194 -168.884 940.409 -168.778 940.624C-168.743 940.66 -168.743 940.696 -168.743 940.732C-168.673 940.912 -168.602 941.055 -168.532 941.199C-168.497 941.271 -168.462 941.271 -168.462 941.342C-168.426 941.414 -168.356 941.522 -168.321 941.594C-168.25 941.701 -168.18 941.773 -168.11 941.809C-163.78 944.178 -143.011 951.069 -143.011 951.069C-132.204 980.105 -118.44 994.461 -115.976 994.748C-113.512 995.035 -99.3607 987.283 -99.3607 987.283C-96.4389 1003.4 -73.6282 1042.45 -69.5448 1045.53C-65.4614 1048.62 -50.6063 1054.08 -50.6063 1054.08L-43.9179 1093.52C-36.2792 1100.63 -23.4657 1107.37 -11.8844 1112.51C-12.0956 1127.98 -11.9196 1144.45 -10.6171 1152.74L16.9811 1173.99L26.8376 1174.74C26.8376 1174.74 55.9142 1223.23 75.2047 1236.76C75.2047 1236.76 76.4368 1238.49 80.5202 1237.26C82.8787 1236.55 96.5018 1231.88 110.547 1225.24L143.109 1241.82L153.036 1241.36C153.036 1241.36 198.235 1285.4 221.82 1296.38C221.82 1296.38 223.615 1297.92 227.171 1296.27C229.846 1295.01 248.292 1285.22 261.809 1273.66C275.186 1284.86 292.787 1294.15 295.392 1295.37C298.947 1297.06 300.777 1295.52 300.777 1295.52C311.796 1290.38 327.566 1278 341.224 1266.3L342.879 1267.49L356.713 1268.45C356.713 1268.45 397.477 1331.95 424.512 1349.71C424.512 1349.71 426.236 1351.97 431.974 1350.39C435.283 1349.46 454.398 1343.36 474.111 1334.64L519.803 1356.39L533.707 1355.81C533.707 1355.81 597.106 1413.49 630.16 1427.88C630.16 1427.88 632.695 1429.93 637.693 1427.74C641.425 1426.09 667.333 1413.28 686.272 1398.09C705.034 1412.74 729.711 1424.94 733.336 1426.55C738.335 1428.78 740.87 1426.7 740.87 1426.7C773.924 1412.31 837.322 1354.63 837.322 1354.63L851.227 1355.2L893.539 1335.07C916.456 1346.3 942.224 1354.59 946.166 1355.71C951.869 1357.32 953.594 1355.02 953.594 1355.02C980.629 1337.26 1021.39 1273.77 1021.39 1273.77L1035.23 1272.8L1068.07 1249.22C1082.22 1262.39 1111.23 1288.34 1128.58 1296.41C1128.58 1296.41 1130.38 1297.96 1133.93 1296.31C1136.61 1295.05 1155.09 1285.25 1168.57 1273.69C1181.95 1284.89 1199.55 1294.19 1202.12 1295.41C1205.67 1297.1 1207.5 1295.55 1207.5 1295.55C1231.09 1284.57 1276.29 1240.53 1276.29 1240.53L1286.18 1240.96L1316.35 1225.6C1332.68 1234.18 1351.06 1240.53 1353.87 1241.36C1357.96 1242.58 1359.15 1240.85 1359.15 1240.85C1378.44 1227.29 1407.48 1178.8 1407.48 1178.8L1417.34 1178.04L1444.97 1156.8C1447.19 1142.8 1473.56 1124.37 1473 1108.11C1486.09 1112.17 1470.92 1095.64 1473 1096C1476.59 1096.61 1477.08 1095.1 1477.08 1095.1C1488.84 1082.54 1499.08 1041.19 1499.08 1041.19L1506.75 1039.68L1523.12 1020.23C1520.52 1005.52 1503.13 959.97 1503.13 959.97Z" fill="#F8DB96"/>
<path d="M1478.35 948.092L1491.18 941.432C1490.32 901.292 1479 872.671 1475.76 865.177H1438.54H1411.26H1375.26H1365.43H1348.04H1339.47H1333.58H1306.64H1298.54H1294.15H1290.2H1241.96H1241.21H1233.86H1227.36H1216.48H1212.67H1200.25H1173.13H1155.06H1128.87H1112.03H1111.41H1110.84H1102.09H1094.03H1083.38H1079.16H1075.62H1071.71H1044.59H1033.91H1033.57H1031.56H1000.13H993.287H989.952H987.775H985.325H984.441H976.752H964.911H961.067H928.439H891.729H862.979H849.03H724.949C724.983 865.385 725.017 865.594 725.051 865.767H714.368H689.055H652.311H628.699H627.814H626.998H614.716H603.42H599.678C599.576 865.559 599.473 865.351 599.405 865.177H562.185H534.898H498.902H489.07H471.718H463.144H457.292H430.346H422.249H417.86H413.947H365.703H364.955H357.606H351.107H340.22H336.41H323.991H296.875H278.843H252.646H235.804H235.192H234.614H225.87H217.806H207.157H202.939H199.4H195.488H168.371H157.688H157.348H155.341H123.87H117.031H113.663H111.485H109.036H108.151H100.462H88.6222H84.7776H52.1498H15.4393H-13.2759H-27.2253H-151.306C-146.305 892.411 -140.623 921.31 -137.833 928.699V928.734C-137.731 928.977 -137.663 929.185 -137.561 929.393C-137.527 929.428 -137.527 929.463 -137.527 929.497C-137.459 929.671 -137.391 929.81 -137.323 929.948C-137.289 930.018 -137.255 930.018 -137.255 930.087C-137.221 930.156 -137.153 930.261 -137.119 930.33C-137.051 930.434 -136.983 930.503 -136.915 930.538C-132.73 932.828 -112.656 939.489 -112.656 939.489C-102.211 967.555 -88.9085 981.432 -86.5269 981.71C-84.1453 981.987 -70.4681 974.494 -70.4681 974.494C-67.6443 990.07 -45.5975 1027.82 -41.6509 1030.8C-37.7042 1033.78 -23.3467 1039.06 -23.3467 1039.06L-16.8823 1077.18C-9.4994 1084.05 2.88485 1090.57 14.0783 1095.54C13.8742 1110.49 14.0443 1126.41 15.3032 1134.43L41.977 1154.96L51.5034 1155.69C51.5034 1155.69 79.6061 1202.56 98.2506 1215.64C98.2506 1215.64 99.4414 1217.31 103.388 1216.13C105.668 1215.43 118.834 1210.92 132.409 1204.51L163.88 1220.53L173.475 1220.08C173.475 1220.08 217.16 1262.65 239.955 1273.27C239.955 1273.27 241.69 1274.76 245.127 1273.16C247.712 1271.95 265.54 1262.48 278.605 1251.31C291.534 1262.13 308.545 1271.12 311.063 1272.29C314.499 1273.93 316.268 1272.43 316.268 1272.43C326.917 1267.47 342.16 1255.5 355.36 1244.19L356.959 1245.34L370.33 1246.28C370.33 1246.28 409.729 1307.65 435.858 1324.82C435.858 1324.82 437.525 1327 443.071 1325.48C446.269 1324.58 464.743 1318.68 483.796 1310.25L527.958 1331.27L541.397 1330.72C541.397 1330.72 602.672 1386.47 634.619 1400.38C634.619 1400.38 637.069 1402.36 641.9 1400.24C645.506 1398.64 670.547 1386.26 688.851 1371.58C706.985 1385.74 730.835 1397.53 734.34 1399.1C739.171 1401.25 741.62 1399.23 741.62 1399.23C773.568 1385.32 834.843 1329.57 834.843 1329.57L848.282 1330.13L889.177 1310.66C911.326 1321.52 936.23 1329.54 940.041 1330.61C945.553 1332.17 947.22 1329.95 947.22 1329.95C973.349 1312.78 1012.75 1251.41 1012.75 1251.41L1026.12 1250.47L1057.86 1227.68C1071.54 1240.41 1099.57 1265.49 1116.35 1273.3C1116.35 1273.3 1118.08 1274.79 1121.52 1273.2C1124.1 1271.98 1141.97 1262.51 1155 1251.34C1167.93 1262.16 1184.94 1271.15 1187.42 1272.33C1190.86 1273.96 1192.63 1272.47 1192.63 1272.47C1215.42 1261.85 1259.11 1219.28 1259.11 1219.28L1268.67 1219.7L1297.82 1204.85C1313.61 1213.14 1331.37 1219.28 1334.09 1220.08C1338.04 1221.26 1339.2 1219.6 1339.2 1219.6C1357.84 1206.48 1385.91 1159.61 1385.91 1159.61L1395.44 1158.88L1422.14 1138.35C1424.29 1124.82 1449.77 1114.25 1449.23 1098.54C1461.88 1102.46 1447.22 1079.23 1449.23 1079.58C1452.7 1080.17 1453.17 1078.71 1453.17 1078.71C1464.54 1066.57 1474.44 1026.6 1474.44 1026.6L1481.85 1025.14L1497.67 1006.34C1495.16 992.117 1478.35 948.092 1478.35 948.092Z" fill="#FEE4A4"/>
</g>
<rect y="257.115" width="1440" height="759.245" fill="#FEE4A4"/>
<path d="M968.916 64.1342C830.006 82.2289 748.912 52.1694 703.467 40.5131C658.022 28.8568 462.71 -5.54497 354.409 0.7664C246.103 7.07777 119.425 58.1541 55.9032 52.6322C32.9533 50.6358 14.3864 49.8463 0 49.6466V266.806H1439.99V52.859C1379.3 48.408 1154.21 34.964 968.916 64.1342Z" fill="#F8DB96"/>
<path d="M1439.99 52.8591C1397.25 49.7238 1272.99 42.1284 1138.5 48.095C1131.68 50.5859 1124.91 53.2402 1118.22 56.0624C1104.64 61.7885 1090.8 68.6262 1081.95 80.4821C1073.1 92.3381 1071.01 110.569 1081.01 121.454C1088.89 130.029 1101.48 131.772 1113 133.001C1156.83 137.679 1200.66 142.353 1244.49 147.031C1255.47 148.201 1256.18 164.095 1245.34 166.201C1245.22 166.223 1245.11 166.246 1245 166.264C1124.01 189.509 999.386 173.864 877.207 158.165C829.066 151.981 781.983 140.846 733.86 147.171C725.594 148.256 716.985 149.853 711.153 156.568C707.958 160.252 706.59 165.311 708.066 169.971C711.428 180.579 725.891 180.888 736.722 179.087C747.495 177.294 761.796 177.362 765.508 187.716C768.969 197.367 759.483 206.564 750.6 211.569C710.141 234.369 661.582 235.503 615.236 236.066C577.036 236.533 539.515 236.583 501.77 242.522C385.378 260.844 264.599 250.136 153.161 211.614C148.288 209.931 142.523 207.136 143.473 201.174C144.022 197.744 146.605 194.994 149.903 193.987C210.95 175.407 274.413 164.917 338.151 162.861C346.489 162.593 357.591 159.799 357.541 151.418C357.523 148.138 355.651 145.216 352.929 143.419C348.19 140.297 342.601 140.47 337.215 140.574C242.427 142.398 147.361 110.887 71.9953 52.9226C66.2714 53.1359 60.8984 53.0542 55.9124 52.6186C32.9626 50.6222 14.3957 49.8327 0.00927734 49.6331V266.792H1440V52.8591H1439.99Z" fill="#FEE4A4"/>
<path d="M842.422 214.164C838.039 212.504 833.143 208.91 834.092 204.287C834.907 200.344 839.425 198.615 843.295 197.612C894.014 184.463 946.974 180.153 999.124 184.926C1005.44 185.502 1011.98 186.287 1017.43 189.563C1022.88 192.839 1026.97 199.287 1025.56 205.525C1024.54 210.063 1020.83 213.62 1016.62 215.535C1012.41 217.449 1007.73 217.967 1003.12 218.307C988.099 219.414 973.011 218.91 957.959 218.402C937.304 217.708 916.649 217.014 895.999 216.32C887.395 216.029 879.128 215.321 870.731 216.987C861.389 218.838 851.287 217.522 842.422 214.164Z" fill="#F8DB96"/>
<path d="M378.524 197.771C375.014 196.782 370.969 194.735 370.78 191.065C370.568 186.945 375.284 184.572 379.24 183.524C396.983 178.814 415.559 178.61 433.91 178.505C512.547 178.065 591.188 179.005 669.789 181.328C673.884 181.45 678.159 181.623 681.737 183.637C685.314 185.652 687.884 190.13 686.376 193.973C684.725 198.188 679.505 199.422 675.059 200.071C643.33 204.699 611.605 209.327 579.875 213.955C575.623 214.577 571.371 215.194 567.123 215.816C564.13 216.251 561.138 216.687 558.127 216.941C552.813 217.385 547.467 217.254 542.139 217.127C529.458 216.818 516.777 216.505 504.091 216.197C491.906 215.897 478.986 216.709 467.021 214.051C459.879 212.463 454.115 208.724 447.576 205.707C438.914 201.709 429.936 201.578 420.563 201.464C406.532 201.296 392.155 201.618 378.524 197.771Z" fill="#FEE4A4"/>
<path d="M389.675 122.865C383.276 122.434 374.695 119.412 375.829 113.046C376.666 108.35 382.376 106.676 387.052 105.954C429.072 99.4749 471.098 92.9911 513.118 86.5118C555.472 79.9781 597.862 73.4444 640.558 69.8237C691.223 65.5314 744.755 65.9534 789.556 90.1961C797.904 94.7153 806.94 102.392 805.14 111.771C804.024 117.579 798.768 121.853 793.147 123.55C787.527 125.247 781.524 124.861 775.665 124.521C748.836 122.964 721.935 122.747 695.088 123.858C670.298 124.888 644.284 125.573 620.069 131.399C600.499 136.109 583.534 135.918 563.338 134.562C535.785 132.706 508.232 130.85 480.678 128.994C450.344 126.953 420.01 124.911 389.675 122.865Z" fill="#FEE4A4"/>
<path d="M59.1657 171.976C60.2457 176.024 65.3397 177.144 69.4887 177.376C90.6925 178.556 111.905 176.024 132.992 173.492C154.651 170.897 176.309 168.301 197.963 165.701C199.884 165.47 201.869 165.22 203.547 164.254C205.23 163.283 206.549 161.4 206.256 159.472C205.815 156.554 202.359 155.356 199.484 154.794C159.623 147.012 116.702 147.652 77.4491 158.637C71.9816 160.17 57.0957 164.227 59.1657 171.976Z" fill="#F8DB96"/>
<path opacity="0.8" d="M1121.23 293.929C1182.8 302.893 1246.27 298.502 1306.05 281.108C1311.41 279.553 1316.91 277.8 1321.18 274.172C1325.45 270.544 1328.2 264.553 1326.48 259.202C1324.28 252.418 1316.41 249.659 1309.52 247.982C1267.65 237.829 1224.26 234.125 1181.27 236.762C1159.59 238.104 1138 241.046 1116.74 245.604C1104.52 248.226 1072.44 250.162 1072.01 267.434C1071.51 287.115 1107.55 291.932 1121.23 293.929Z" fill="#F8DB96"/>
</svg>
